<svg width="971.71" height="950.93" version="1.1" viewBox="0 0 257.1 251.6" xmlns="http://www.w3.org/2000/svg">
 <g transform="translate(-3.7423 -6.4915)" fill="#262161">
  <path d="m53.811 158.24c-10.274 5.3e-4 -20.601 1.6038-30.365 5.0638l2.405 6.7686c8.9015-3.172 18.429-4.6367 27.964-4.6488 8.9778-0.0165 18.019 1.2371 27.038 2.9538 8.5368 1.6318 17.103 3.7289 25.875 5.4178 17.246 3.0441 34.116 3.2729 51.125 0 8.7723-1.6889 17.339-3.7859 25.875-5.4178 9.0196-1.7167 18.06-2.9703 27.038-2.9538 9.5349 0.0121 19.063 1.4768 27.964 4.6488l2.405-6.7686c-9.7632-3.46-20.091-5.0631-30.365-5.0638-9.6368 4e-3 -19.129 1.3004-28.393 3.0815-8.7765 1.6803-17.345 3.778-25.883 5.4193-16.477 2.9442-32.387 3.021-48.41 0-8.5375-1.6413-17.106-3.739-25.883-5.4193-9.2635-1.781-18.756-3.0775-28.393-3.0815z" style="paint-order:markers stroke fill"/>
  <path d="m53.811 170.34c-10.274 5.3e-4 -20.601 1.6038-30.365 5.0638l2.405 6.7686c8.9015-3.172 18.429-4.6367 27.964-4.6488 8.9778-0.0165 18.019 1.2371 27.038 2.9538 8.5368 1.6318 17.103 3.7289 25.875 5.4178 17.246 3.0441 34.116 3.2729 51.125 0 8.7723-1.6889 17.339-3.7859 25.875-5.4178 9.0196-1.7167 18.06-2.9703 27.038-2.9538 9.5349 0.0121 19.063 1.4768 27.964 4.6488l2.405-6.7686c-9.7632-3.46-20.091-5.0631-30.365-5.0638-9.6368 4e-3 -19.129 1.3004-28.393 3.0815-8.7765 1.6803-17.345 3.778-25.883 5.4193-16.477 2.9442-32.387 3.021-48.41 0-8.5375-1.6413-17.106-3.739-25.883-5.4193-9.2635-1.781-18.756-3.0775-28.393-3.0815z" style="paint-order:markers stroke fill"/>
 </g>
 <g transform="translate(-3.7423 -6.4915)">
  <path d="m133.21 6.5139a18.916 18.916 0 0 0-9.1271 1.8516l-87.922 42.34a18.916 18.916 0 0 0-10.232 12.832l-21.715 95.137a18.916 18.916 0 0 0 3.6525 16.002l60.844 76.295a18.916 18.916 0 0 0 14.787 7.121h97.584a18.916 18.916 0 0 0 14.787-7.121l60.844-76.295a18.916 18.916 0 0 0 3.6525-16.002l-21.715-95.137a18.916 18.916 0 0 0-10.235-12.832l-87.92-42.34a18.916 18.916 0 0 0-7.2853-1.8516zm-0.92088 31.862a97.351 97.351 0 0 1 97.351 97.351 97.351 97.351 0 0 1-97.351 97.351 97.351 97.351 0 0 1-97.351-97.351 97.351 97.351 0 0 1 97.351-97.351z" color="#000000" color-rendering="auto" dominant-baseline="auto" fill="#262161" image-rendering="auto" shape-rendering="auto" solid-color="#000000" style="font-feature-settings:normal;font-variant-alternates:normal;font-variant-caps:normal;font-variant-ligatures:normal;font-variant-numeric:normal;font-variant-position:normal;isolation:auto;mix-blend-mode:normal;paint-order:markers stroke fill;shape-padding:0;text-decoration-color:#000000;text-decoration-line:none;text-decoration-style:solid;text-indent:0;text-orientation:mixed;text-transform:none;white-space:normal"/>
 </g>
 <g transform="translate(-3.7423 -6.4915)">
  <path transform="scale(.26458)" d="m635.05 298.12-135.05 22-135.05-22h-162.81l-59.822 290.57s216.32 3.756 322.23 26.02c-0.0189 0.13795-0.034 0.27592-0.0469 0.41406 4.418 20.82 69.611 20.234 71 0-0.0113-0.13795-0.0265-0.2763-0.0469-0.41406 105.91-22.264 322.23-26.02 322.23-26.02l-59.822-290.57z" fill="#221d5b" style="paint-order:markers stroke fill"/>
  <path transform="scale(.26458)" d="m248.8 282.4c-0.27692 0.10624-0.55671 0.20928-0.83203 0.31836l-2.084 0.86133-0.69531 0.30859-2.0039 0.91602-0.60938 0.29297-1.9434 0.96484-0.54102 0.2793-1.8867 1.0098-0.47656 0.26172-1.8418 1.0508-0.41601 0.25-1.791 1.0918-0.36523 0.23242-1.7715 1.127-0.33789 0.21485-1.7266 1.1641-0.29297 0.19922-1.7363 1.1953-0.25 0.1836-1.6777 1.2305-0.22656 0.16797-1.668 1.2617-0.19336 0.15235-1.6602 1.2949-0.16992 0.13281-1.6133 1.3281-0.13867 0.11524-1.6133 1.3613c-0.0379 0.0329-0.0736 0.0653-0.11132 0.0976l-1.6035 1.3926-0.0879 0.0801-1.5781 1.4258-0.0625 0.0586-1.5586 1.4609-0.041 0.0391-1.5137 1.498-0.0215 0.0195-1.502 1.5293-51.467 264.82 78.662 1.6797 262.64 5.1367 262.64-5.1348 78.662-1.6797-51.467-264.82-1.502-1.5293-0.0195-0.0195-1.5137-1.498-0.041-0.0391-1.5586-1.4609-0.0625-0.0586-1.5781-1.4258-0.0879-0.0801-1.6035-1.3926-0.11133-0.0977-1.6133-1.3633-0.13867-0.11328-1.6152-1.3281-0.16797-0.13281-1.6602-1.2949-0.19336-0.15234-1.668-1.2617-0.22656-0.16797-1.6777-1.2305-0.25-0.1836-1.7363-1.1953-0.29101-0.19922-1.7266-1.1641-0.33985-0.21484-1.7695-1.1289-0.36523-0.23242-1.791-1.0898-0.41602-0.25-1.8438-1.0508-0.47656-0.26171-1.8848-1.0098-0.54297-0.2793-1.9414-0.96484-0.61133-0.29297-2.0039-0.91602-0.69336-0.30859-2.0859-0.86133c-0.27515-0.10907-0.55308-0.21208-0.83008-0.31836l-41.957 5.4473-209.24 26.908-209.24-26.908z" fill="#eaebed"/>
  <path d="m54.027 143.54c-0.08629 0.0331-0.17312 0.0652-0.2589 0.0992l12.978 1.9544-13.627-1.6862c-0.07269 0.0313-0.14426 0.0642-0.21652 0.0961l13.504 1.9487-14.128-1.6629c-0.06363 0.0301-0.1269 0.0604-0.19017 0.091l13.992 1.9322-14.598-1.6314c-0.05631 0.0289-0.113 0.0576-0.16898 0.0868l14.454 1.9069-15.042-1.5922c-0.04949 0.0272-0.09911 0.0542-0.14831 0.0816l14.893 1.8743-15.467-1.5467c-0.0437 0.0256-0.08626 0.0518-0.12971 0.0775l15.313 1.8345-15.871-1.4945c-0.03864 0.0239-0.07527 0.0484-0.11369 0.0724l15.715 1.789-16.267-1.4376c-0.03461 0.0225-0.07101 0.0446-0.10542 0.0672l16.116 1.7384-16.654-1.3762c-0.03047 0.0208-0.06066 0.0412-0.09095 0.062l16.504 1.6836-17.045-1.311c-0.02697 0.0192-0.05121 0.0382-0.07803 0.0574l16.896 1.6247-17.419-1.2413c-0.02336 0.0173-0.04757 0.0349-0.0708 0.0522l17.277 1.5612-17.797-1.1679c-0.0204 0.0157-0.03966 0.0313-0.05994 0.047l17.658 1.4945-18.176-1.0909c-0.01712 0.0137-0.03568 0.0277-0.05271 0.0413l18.045 1.4237-18.548-1.0098c-0.01423 0.0118-0.02926 0.0239-0.04341 0.0357l18.422 1.3493-18.924-0.92501c-0.01183 0.0102-0.02286 0.0204-0.03462 0.0305l18.804 1.2707-19.303-0.83664c-0.0096 9e-3 -0.01781 0.0163-0.02739 0.0248l19.191 1.1886-19.683-0.74414c-0.0071 7e-3 -0.01257 0.0116-0.01964 0.0181l19.576 1.1038-20.061-0.64854c-0.0049 5e-3 -0.0081 8e-3 -0.01292 0.0124l19.963 1.0144-20.435-0.54777c-0.0019 2e-3 -0.0045 4e-3 -0.0062 6e-3l20.344 0.92088-20.813-0.44442c23.962 0.72959 47.866 2.5964 71.784 4.1584 0 0 9.1943-2.712 18.521-1.7859l-5.2e-4 5.1e-4c9.3266-0.92605 18.521 1.7859 18.521 1.7859 23.917-1.562 47.822-3.4288 71.784-4.1584l-20.813 0.44441 20.344-0.92087-6e-3 -6e-3 -20.435 0.54777 19.963-1.0144c-5e-3 -4e-3 -8e-3 -7e-3 -0.0129-0.0124l-20.061 0.64854 19.576-1.1038c-7e-3 -6e-3 -0.0126-0.0111-0.0196-0.0181l-19.683 0.74414 19.191-1.1886c-0.01-9e-3 -0.0174-0.0158-0.0274-0.0248l-19.303 0.83664 18.804-1.2707c-0.0117-0.0101-0.0228-0.0203-0.0346-0.0305l-18.924 0.92501 18.422-1.3493c-0.0141-0.0118-0.0292-0.0239-0.0434-0.0357l-18.548 1.0098 18.045-1.4237c-0.017-0.0136-0.0356-0.0276-0.0527-0.0413l-18.176 1.0909 17.658-1.4945c-0.0202-0.0157-0.0395-0.0313-0.0599-0.047l-17.797 1.1679 17.277-1.5612c-0.0232-0.0173-0.0474-0.0349-0.0708-0.0522l-17.419 1.2413 16.896-1.6247c-0.0268-0.0192-0.051-0.0382-0.078-0.0574l-17.045 1.311 16.504-1.6836c-0.0303-0.0208-0.0605-0.0412-0.0909-0.062l-16.654 1.3762 16.116-1.7384c-0.0344-0.0226-0.0708-0.0447-0.10542-0.0672l-16.267 1.4376 15.715-1.789c-0.0384-0.024-0.0751-0.0484-0.11368-0.0724l-15.871 1.4945 15.313-1.8345c-0.0434-0.0257-0.086-0.0519-0.12971-0.0775l-15.467 1.5467 14.893-1.8743c-0.0492-0.0274-0.0988-0.0545-0.14831-0.0816l-15.042 1.5922 14.454-1.9069c-0.056-0.0292-0.11268-0.0579-0.16898-0.0868l-14.598 1.6314 13.992-1.9322c-0.0633-0.0306-0.12657-0.0609-0.19017-0.091l-14.128 1.6629 13.504-1.9487c-0.0723-0.0319-0.14382-0.0648-0.21652-0.0961l-13.627 1.6862 12.978-1.9544c-0.0858-0.034-0.1726-0.0661-0.25889-0.0992l-13.072 1.697-65.193 8.384-65.193-8.384z" fill="#96979b" style="paint-order:markers stroke fill"/>
 </g>
 <g transform="translate(-3.7423 -6.4915)">
  <path transform="scale(.26458)" d="m481.1 245.94-2.8262 41.379a25.5 4.4194 0 0 1 21.73-2.1172 25.5 4.4194 0 0 1 21.73 2.1133l-2.8262-41.375h-18.904z" fill="#dcdcdc" fill-opacity=".50196" style="paint-order:markers stroke fill"/>
  <path transform="scale(.26458)" d="m519.48 254.4-41.047 30.525-0.16406 2.3965a25.5 4.4194 0 0 1 21.73-2.1172 25.5 4.4194 0 0 1 2.3242 0.0195l18.33-13.631z" fill="#374ba1" style="paint-order:markers fill stroke"/>
  <path d="m132.29 41.387c-0.55902 18.078-1.8517 13.493-21.001 6.1273 16.633 10.266 24.5 9.0935-5.0049 14.125 22.029-2.5149 27.044-5.8691 14.499 11.132l11.366-12.02h0.2806l11.366 12.02c-12.544-17.001-7.5293-13.647 14.499-11.132-29.505-5.0318-21.637-3.8587-5.0044-14.125-19.149 7.3658-20.442 11.95-21.001-6.1273z" fill="none" stroke="#374ba1" stroke-linecap="square" stroke-linejoin="round" stroke-width=".26458" style="paint-order:markers fill stroke"/>
  <g>
   <path d="m129.57 65.072-2.4071 1.7901-0.34365 5.0354 9.1777-6.8254h-3.7098z" fill="#374ba1" style="paint-order:markers stroke fill"/>
   <rect x="126.01" y="64.3" width="12.558" height=".81851" ry=".23151" fill="#34479f" style="paint-order:markers stroke fill"/>
   <rect x="128.3" y="59.604" width="7.9747" height="4.7474" fill="#374ba1" style="paint-order:markers stroke fill"/>
   <path transform="scale(.26458)" d="m498.51 209.98c-1.856 0-3.3516 1.4955-3.3516 3.3516 0 1.6274 1.1494 2.9755 2.6836 3.2832v1.7637h-17.201v7.4238h38.715v-7.4238h-17.201v-1.7637c1.5342-0.30771 2.6836-1.6558 2.6836-3.2832 0-1.856-1.4955-3.3516-3.3516-3.3516z" fill="#34479f" style="paint-order:markers stroke fill"/>
  </g>
 </g>
 <g transform="translate(-3.7423 -6.4915)">
  <path transform="scale(.26458)" d="m500 298.55c-7.4121 1.7309-5.1447 15.64-4.0527 16.125 1.125 0.49999 3.25 2.5 0.5 4.375-1.9092 1.3017-2.6622 3.484-2.9512 4.7109a76.157 76.157 0 0 0-42.561 17.588c-1.0842-0.66397-3.1338-1.6448-5.375-1.2207-3.2704 0.61871-3.1822-2.2982-2.7402-3.4473 0.36208-0.94107-5.4426-9.2302-11.148-9.3848-1.0567-0.0302-2.109 0.22187-3.1192 0.84961-4.0172 6.4651 7.4218 14.697 8.5371 14.268 1.1491-0.4419 4.066-0.53015 3.4473 2.7402-0.43318 2.2894 0.59717 4.3817 1.2598 5.4453a76.157 76.157 0 0 0-17.627 42.49c-1.2269 0.28899-3.4092 1.042-4.7109 2.9512-1.875 2.7501-3.875 0.62502-4.375-0.5-0.48529-1.092-14.394-3.3594-16.125 4.0527 1.7309 7.4121 15.64 5.1447 16.125 4.0527 0.50007-1.125 2.5-3.25 4.375-0.5 1.3017 1.9092 3.484 2.6622 4.7109 2.9512a76.157 76.157 0 0 0 17.586 42.559c-0.66339 1.0838-1.643 3.1348-1.2188 5.377 0.61871 3.2704-2.2982 3.1822-3.4473 2.7402-1.1153-0.42897-12.554 7.8025-8.5371 14.268 6.4651 4.0173 14.697-7.4218 14.268-8.5371-0.44194-1.1491-0.53015-4.066 2.7402-3.4473 2.29 0.43329 4.382-0.59915 5.4453-1.2617a76.157 76.157 0 0 0 48.994 17.955 76.157 76.157 0 0 0 49.062-17.912c1.0838 0.66339 3.1348 1.643 5.377 1.2188 3.2704-0.61871 3.1822 2.2982 2.7402 3.4473-0.42898 1.1153 7.8025 12.554 14.268 8.5371 4.0172-6.4651-7.4218-14.697-8.5371-14.268-1.1491 0.44194-4.066 0.53016-3.4473-2.7402 0.43329-2.29-0.59913-4.382-1.2617-5.4453a76.157 76.157 0 0 0 17.629-42.49c1.2269-0.28899 3.4092-1.0419 4.7109-2.9512 1.875-2.75 3.875-0.62498 4.375 0.5 0.48532 1.092 14.394 3.3594 16.125-4.0527-1.7309-7.4121-15.64-5.1447-16.125-4.0527-0.50004 1.125-2.5 3.2501-4.375 0.5-1.3017-1.9092-3.484-2.6622-4.7109-2.9512a76.157 76.157 0 0 0-17.584-42.561c0.66339-1.0845 1.6407-3.1344 1.2168-5.375-0.61871-3.2704 2.2982-3.1822 3.4473-2.7402 1.1153 0.42898 12.554-7.8025 8.5371-14.268-1.0102-0.6277-2.0625-0.87826-3.1192-0.84961-5.7059 0.15458-11.51 8.4437-11.148 9.3848 0.44194 1.149 0.53015 4.066-2.7402 3.4473-2.2894-0.43317-4.3817 0.59854-5.4453 1.2617a76.157 76.157 0 0 0-42.49-17.629c-0.28899-1.227-1.042-3.4092-2.9512-4.7109-2.75-1.875-0.62501-3.875 0.5-4.375 1.092-0.48533 3.3594-14.394-4.0527-16.125zm7.3906 37.648a63.867 63.867 0 0 1 32.189 13.355c-1.9817 1.6819-4.7498 14.389-10.727 16.186-6.6035 1.9854-14.227 14.227-14.227 14.227l1.4258 3.5742 3.5742 1.4258s12.241-7.623 14.227-14.227c1.8135-6.0319 14.733-8.7957 16.223-10.781a63.867 63.867 0 0 1 13.281 32.238c-0.0835-6e-3 -0.17327-6e-3 -0.27344 2e-3 -3.0264 0.24189-13.43 6.7167-18.744 3.8594-6.0733-3.2655-20.119 0-20.119 0l-1.5195 3.5352 1.5195 3.5352s14.046 3.2655 20.119 0c5.5165-2.9662 16.515 4.1206 19.055 3.8555a63.867 63.867 0 0 1-13.355 32.189c-1.6819-1.9817-14.389-4.7498-16.186-10.727-1.9854-6.6035-14.227-14.227-14.227-14.227l-3.5742 1.4258-1.4258 3.5742s7.623 12.241 14.227 14.227c6.0343 1.8142 8.7975 14.741 10.783 16.223a63.867 63.867 0 0 1-39.637 13.791 63.867 63.867 0 0 1-39.58-13.83c1.9817-1.6816 4.7498-14.387 10.727-16.184 6.6035-1.9854 14.227-14.227 14.227-14.227l-1.4258-3.5742-3.5742-1.4258s-12.241 7.623-14.227 14.227c-1.8135 6.032-14.733 8.7957-16.223 10.781a63.867 63.867 0 0 1-13.281-32.24c2.6078 0.19403 13.528-6.8113 19.018-3.8594 6.0733 3.2655 20.119 0 20.119 0l1.5195-3.5352-1.5195-3.5352s-14.046-3.2655-20.119 0c-5.5039 2.9594-16.467-4.0904-19.039-3.8594-7e-3 5.9e-4 -0.0107 3e-3 -0.0176 4e-3a63.867 63.867 0 0 1 13.357-32.189c1.6819 1.9817 14.389 4.7499 16.186 10.727 1.9854 6.6036 14.227 14.227 14.227 14.227l3.5742-1.4258 1.4258-3.5742s-7.623-12.241-14.227-14.227c-6.032-1.8135-8.7957-14.733-10.781-16.223a63.867 63.867 0 0 1 32.24-13.281c-0.1907 2.611 6.8106 13.527 3.8594 19.016-3.2655 6.0732 0 20.119 0 20.119l3.5352 1.5195 3.5352-1.5195s3.2655-14.046 0-20.119c-2.9654-5.515 4.1165-16.509 3.8555-19.053z" fill="#00007a" stroke="#000"/>
  <g fill="none" stroke-linecap="square" stroke-linejoin="round">
   <circle cx="132.29" cy="94.102" r="57.517" stroke="#262161" stroke-width="2.6713" style="paint-order:markers fill stroke"/>
   <circle cx="132.29" cy="112.74" r="37.498" stroke="#262161" stroke-width="2.6716" style="paint-order:markers fill stroke"/>
   <circle cx="132.29" cy="105.73" r="18.507" stroke="#000" stroke-width=".26458" style="paint-order:markers fill stroke"/>
  </g>
  <path d="m132.29 110.96-3.8587 1.0883c0.96573 30.815-11.607 20.681-18.615 15.824 0.94597-0.11403 3.6013-0.45619 3.6396-0.72915 0.046-0.32918-9.4222-3.2432-9.4222-3.2432s0.59531 9.8888 0.92604 9.9219c0.33073 0.0331 1.7198-3.7703 1.7198-3.7703s4.1672 9.095 13.13 9.7234 9.5911 1.5544 12.369 4.8617c0.0367 0.0437 0.0744 0.0783 0.11162 0.11834 0.0372-0.04 0.0749-0.0746 0.11162-0.11834 2.7781-3.3073 3.4065-4.2333 12.369-4.8617s13.13-9.7234 13.13-9.7234 1.3891 3.8034 1.7198 3.7703 0.92604-9.9219 0.92604-9.9219-9.4682 2.914-9.4222 3.2432c0.0383 0.27296 2.6936 0.61512 3.6396 0.72915-7.0086 4.8572-19.581 14.991-18.615-15.824z" fill="#00007a" stroke="#000" stroke-width=".26458"/>
  <path d="m132.29 98.084a7.6413 7.6413 0 0 0-7.6413 7.6413 7.6413 7.6413 0 0 0 7.6413 7.6413 7.6413 7.6413 0 0 0 7.6413-7.6413 7.6413 7.6413 0 0 0-7.6413-7.6413zm0 4.2092a3.4321 3.4321 0 0 1 3.4321 3.4321 3.4321 3.4321 0 0 1-3.4321 3.4321 3.4321 3.4321 0 0 1-3.4321-3.4321 3.4321 3.4321 0 0 1 3.4321-3.4321z" fill="#00007a" stroke="#000" stroke-linecap="square" stroke-linejoin="round" stroke-width=".25903" style="paint-order:markers fill stroke"/>
 </g>
 <g transform="translate(-3.7423 -6.4915)">
  <g fill="#fff" stroke-width=".35493" aria-label="2013">
   <path d="m120.95 251.98v2.9975h-9.6551v-2.5088q4.2899-7.0159 5.0936-8.6776 0.81454-1.6725 0.81454-2.6066 0-0.7168-0.24979-1.0643-0.23893-0.3584-0.73852-0.3584t-0.74938 0.39098q-0.23894 0.39098-0.23894 1.5531v1.6725h-3.9315v-0.64077q0-1.477 0.15205-2.3242 0.15205-0.85799 0.74938-1.6834 0.59733-0.82541 1.5531-1.249 0.95574-0.42356 2.2916-0.42356 2.6174 0 3.9532 1.3033 1.3467 1.2924 1.3467 3.2799 0 1.5096-0.76024 3.193-0.74938 1.6834-4.442 7.1463z"/>
   <path d="m133 243.35v5.8647q0 1.9984-0.21722 2.9106-0.21721 0.91229-0.90143 1.7051-0.68421 0.79283-1.6508 1.1404-0.96659 0.34754-2.1612 0.34754-1.5748 0-2.6174-0.3584-1.0426-0.36926-1.6617-1.1404-0.61905-0.7711-0.87971-1.6182-0.26065-0.85799-0.26065-2.7152v-6.1362q0-2.4219 0.4127-3.6274 0.42357-1.2055 1.6617-1.9332 1.249-0.72766 3.0192-0.72766 1.4445 0 2.5848 0.51045 1.1404 0.49958 1.7051 1.2272t0.76024 1.64q0.20636 0.91229 0.20636 2.9106zm-4.3877-1.477q0-1.401-0.14119-1.7486-0.13033-0.3584-0.62992-0.3584-0.48872 0-0.65163 0.38012-0.15205 0.36926-0.15205 1.7268v8.5799q0 1.5313 0.14119 1.8463 0.15205 0.31496 0.64077 0.31496 0.48873 0 0.64078-0.36926t0.15205-1.6617z"/>
   <path d="m141.37 237.4v17.583h-4.3877v-9.427q0-2.0418-0.0977-2.4545t-0.54303-0.61906q-0.43442-0.21721-1.9549-0.21721h-0.43442v-2.0526q3.1822-0.68422 4.833-2.8129z"/>
   <path d="m151.31 245.02q0.99917 0.33668 1.4879 1.1078 0.48872 0.76025 0.48872 3.584 0 2.0961-0.47786 3.2582-0.47787 1.1512-1.6508 1.7594-1.173 0.59734-3.0084 0.59734-2.0852 0-3.2799-0.69508-1.1838-0.70594-1.5639-1.716-0.36926-1.0209-0.36926-3.5297v-1.3902h4.3877v2.8563q0 1.1404 0.13033 1.4553 0.14118 0.3041 0.60819 0.3041 0.51045 0 0.67336-0.39098 0.1629-0.39098 0.1629-2.0418v-1.2164q0-1.01-0.22807-1.477-0.22807-0.46701-0.67335-0.6082-0.44529-0.15204-1.7268-0.17376v-2.5522q1.5639 0 1.9332-0.11947t0.53217-0.52131q0.1629-0.40184 0.1629-1.2598v-0.97745q0-0.92315-0.19549-1.2164-0.18463-0.29323-0.58647-0.29323-0.45614 0-0.62991 0.31495-0.16291 0.3041-0.16291 1.3141v1.4444h-4.3877v-1.4988q0-2.5197 1.1512-3.3994 1.1512-0.89057 3.66-0.89057 3.1387 0 4.2574 1.2272 1.1186 1.2272 1.1186 3.4102 0 1.477-0.40185 2.1395-0.40184 0.65163-1.4119 1.1947z"/>
  </g>
  <text x="-286.27917" y="40.745834" fill="#000000" font-family="sans-serif" font-size="16.933px" letter-spacing="0px" stroke-width=".26458" word-spacing="0px" style="line-height:1.25" xml:space="preserve"><tspan x="-286.27917" y="55.727863" stroke-width=".26458"/></text>
  <text x="-282.04584" y="34.395832" fill="#000000" font-family="sans-serif" font-size="16.933px" letter-spacing="0px" stroke-width=".26458" word-spacing="0px" style="line-height:1.25" xml:space="preserve"><tspan x="-282.04584" y="49.377861" stroke-width=".26458"/></text>
  <g fill="#fff" stroke-width=".26458" aria-label="BANGABANDHU SHEIKH MUJIBUR RAHMAN MARITIME UNIVERSITY, BANGLADESH">
   <path d="m67.423 230.31-2.7912-2.0661q-1.3225-0.97894-1.8478-1.6867-0.532-0.7127-0.48334-1.654 0.04374-0.93461 1.0768-2.3302 0.69854-0.94368 1.2731-1.0945 0.56789-0.1557 1.586 0.28936-0.80792-0.93752-0.77471-1.705 0.02829-0.76087 0.80554-1.8109l0.7379-0.99685q0.80676-1.0899 1.4479-1.428 0.63451-0.34298 1.3221-0.13232 0.6876 0.21066 2.3756 1.4602l3.2364 2.3957zm-1.4352-3.9119 1.7709-2.3924q-0.18435-0.12618-0.28404-0.19997-0.41203-0.30499-0.67258-0.18925-0.26547 0.12238-0.97385 1.0794-0.37387 0.50507-0.42841 0.77331-0.05946 0.27488 0.05403 0.44119 0.10685 0.16139 0.53389 0.48779zm3.0106-4.0671 2.2284-3.0105q-0.60622-0.41788-0.8887-0.3698-0.28912 0.0432-0.77121 0.69443l-0.74281 1.0035q-0.51161 0.69115-0.47363 0.94558 0.03798 0.25442 0.64791 0.73677z"/>
   <path d="m54.529 219.95 7.3921-11.337 2.666 2.3647-1.4667 1.9152 0.93401 0.82848 1.7512-1.6628 2.6969 2.3922-10.207 8.8402zm7.0909-5.2156q-1.3109 1.8766-3.3295 4.5511 2.9417-2.5189 4.2203-3.761z"/>
   <path d="m46.441 211.73 9.722-9.2019 2.0973 2.2158-3.1749 5.4983 4.4196-4.1832 2.0007 2.1137-9.722 9.2019-2.0007-2.1137 3.0362-5.5606-4.3776 4.1434z"/>
   <path d="m43.662 200.44 2.1534 2.7349-0.95493 0.75192q-0.90296 0.71099-1.0689 0.96797-0.16598 0.25698 0.06419 0.54931 0.19949 0.25334 0.46598 0.19084t1.072-0.69677l5.0475-3.9744q0.70808-0.55754 0.86383-0.82751 0.14926-0.26486-0.06557-0.5377-0.23529-0.29882-0.57048-0.20327-0.3403 0.089-1.0744 0.66705l-1.2473 0.98209 0.43478 0.55218-1.5981 1.2583-2.5217-3.2026 5.6451-4.445 1.3555 1.7215-0.55407 0.84669q0.70716-0.10429 1.2916 0.13008 0.57284 0.233 1.0281 0.81115 0.5422 0.68859 0.68659 1.5536 0.13279 0.86363-0.1154 1.5642-0.24818 0.70056-0.72598 1.2031-0.4843 0.50762-1.5692 1.3618l-3.1246 2.4603q-1.5071 1.1867-2.3171 1.5614t-1.9787 0.0531q-1.1804-0.32292-2.142-1.5442-0.94628-1.2018-1.0766-2.3831-0.13033-1.1813 0.36251-1.9587 0.48634-0.77232 1.7791-1.7902z"/>
   <path d="m35.044 196.39 10.117-8.9891 1.9489 2.9835-1.9194 1.4612 0.6828 1.0452 2.1274-1.1428 1.9715 3.0181-12.175 5.8395zm8.2144-3.1636q-1.7589 1.465-4.4108 3.5133 3.5013-1.6551 5.0619-2.5165z"/>
   <path d="m33.058 193.17-1.6337-3.0644q-0.77406-1.4519-0.94464-2.3167-0.17446-0.87209 0.27361-1.7013 0.44078-0.82529 1.973-1.6421 1.036-0.55235 1.6197-0.44185 0.57973 0.10321 1.3082 0.9423-0.32713-1.1936 0.0324-1.8725 0.35224-0.67502 1.505-1.2896l1.0944-0.58346q1.1966-0.63792 1.9208-0.66796 0.72032-0.0373 1.2509 0.44814 0.53055 0.48548 1.5185 2.3387l1.8943 3.5532zm0.38344-4.1491 2.6266-1.4003q-0.11232-0.19311-0.17067-0.30255-0.24116-0.45236-0.52617-0.4597-0.29231-3e-3 -1.3429 0.55668-0.5545 0.29562-0.71893 0.51445-0.17172 0.22273-0.14063 0.42166 0.02721 0.19163 0.27274 0.66977zm4.4652-2.3805 3.3051-1.7621q-0.36808-0.63768-0.64383-0.71555-0.27965-0.0851-0.99467 0.29604l-1.1017 0.58735q-0.7588 0.40454-0.83374 0.65063t0.26881 0.94359z"/>
   <path d="m25.865 178.26 11.549-7.0553 1.3897 3.2814-2.1478 1.0982 0.48689 1.1496 2.2962-0.74797 1.4059 3.3195-13.016 3.5911zm8.6448-1.6588q-1.9906 1.1304-4.9633 2.6767 3.7391-1.0089 5.4276-1.5803z"/>
   <path d="m22.1 167.35 12.739-4.1112 0.93702 2.9035-5.2352 3.5922 5.7913-1.869 0.89385 2.7698-12.739 4.1112-0.89385-2.7698 5.1369-3.7082-5.7362 1.8512z"/>
   <path d="m21.405 164.82-0.56818-2.5418q-0.55014-2.4611-0.51721-3.375 0.03113-0.92196 0.44654-1.4893 0.41541-0.56731 1.0276-0.82277 0.60414-0.25366 2.46-0.66853l4.5752-1.0227q1.7591-0.39322 2.3941-0.35725 0.62512 0.0297 1.056 0.36548 0.42282 0.33757 0.69528 0.91209 0.26439 0.57632 0.53675 1.7948l0.95779 4.2847zm1.4758-3.8967 8.5936-1.921q-0.16414-0.73429-0.49251-0.83881-0.33644-0.10271-1.6436 0.1895l-5.0755 1.1346q-0.8876 0.19841-1.1251 0.31081t-0.30539 0.33938q-0.07594 0.22878 0.04852 0.78555z"/>
   <path d="m18.197 146.5 13.279-1.6944 0.44061 3.4529-5.5772 0.71167 0.13187 1.0334 5.5772-0.71167 0.44061 3.4529-13.279 1.6944-0.44061-3.4529 4.7488-0.60596-0.13187-1.0334-4.7488 0.60597z"/>
   <path d="m17.71 135.98 8.9406-0.31611q1.5204-0.0538 2.1436 0.0235 0.61497 0.0775 1.285 0.54198 0.66176 0.46473 1.0289 1.2543 0.35857 0.78157 0.39684 1.864 0.04236 1.1982-0.32184 2.1294-0.3642 0.93122-0.98439 1.4082-0.62019 0.47696-1.3196 0.58443-0.7077 0.10775-2.9718 0.1878l-7.916 0.27988-0.123-3.4788 10.031-0.35467q0.87588-0.031 1.1206-0.13063 0.23612-0.10763 0.2259-0.39683-0.01169-0.33053-0.27932-0.41207-0.27619-0.0895-1.276-0.0542l-9.8578 0.34854z"/>
   <path d="m22.501 123.07-0.26342 3.2221-0.98889-0.0808q-0.69222-0.0566-0.89186 0.0515-0.19964 0.10811-0.22322 0.39654-0.0256 0.31315 0.21639 0.49885 0.24266 0.17746 0.76183 0.2199 0.6675 0.0546 1.0202-0.0991 0.35202-0.14543 0.89601-0.91395 1.5655-2.2031 2.4965-2.7326 0.93094-0.52949 2.8922-0.36914 1.4256 0.11655 2.0738 0.50967 0.64879 0.38487 1.0321 1.3785 0.37509 0.99298 0.27134 2.262-0.11386 1.3927-0.72211 2.3384-0.60758 0.93753-1.4483 1.1757-0.84076 0.23821-2.3406 0.11559l-0.87352-0.0714 0.26342-3.2221 1.6234 0.13272q0.74991 0.0613 0.97494-0.053 0.22571-0.12258 0.25401-0.46869 0.0283-0.34611-0.23017-0.53316-0.2578-0.19529-0.79344-0.23908-1.1784-0.0963-1.5673 0.19541-0.38954 0.29998-1.3441 1.5244-0.96281 1.2237-1.3845 1.6123-0.42167 0.38862-1.1286 0.61288-0.70621 0.21603-1.7693 0.12912-1.5328-0.12531-2.2098-0.57057-0.67636-0.45349-1.0005-1.3594-0.33238-0.90653-0.23132-2.1426 0.11049-1.3515 0.62473-2.2635 0.51491-0.92022 1.2073-1.1706 0.68486-0.25925 2.2753-0.12922z"/>
   <path d="m20.139 112.28 13.19 2.2811-0.59318 3.43-5.5402-0.9581-0.17753 1.0266 5.5402 0.9581-0.59318 3.43-13.19-2.2811 0.59318-3.43 4.7173 0.8158 0.17753-1.0266-4.7173-0.8158z"/>
   <path d="m20.709 109.86 1.4527-5.6196 2.5936 0.67047-0.58148 2.2494 2.4576 0.63528 0.54423-2.1053 2.4656 0.63736-0.54423 2.1053 2.8498 0.73668 0.63942-2.4736 2.5936 0.67047-1.5106 5.8437z"/>
   <path d="m23.835 98.976 12.738 4.1149-1.07 3.3124-12.738-4.1148z"/>
   <path d="m27.657 89.048 4.8651 4.1028 7.6266 0.71254-1.3412 3.3373-5.8484-0.83555 5.3243 2.1398-1.298 3.2298-12.421-4.9918 1.298-3.2298 4.8256 1.9394-4.249-3.374z"/>
   <path d="m32.174 80.082 11.91 6.1102-1.5889 3.0971-5.0025-2.5664-0.47553 0.92694 5.0025 2.5664-1.5889 3.0971-11.91-6.1102 1.5889-3.0971 4.2595 2.1852 0.47553-0.92694-4.2595-2.1852z"/>
   <path d="m41.443 65.924 10.973 7.6678-1.7429 2.4941-7.4077-5.1766 6.7115 6.1728-1.2361 1.7689-7.9723-4.0077 7.2382 5.0582-1.7429 2.4941-10.973-7.6678 2.5812-3.6937q1.1032 0.52881 2.573 1.2836l3.067 1.5582-4.669-4.2311z"/>
   <path d="m48.424 57.778 6.7535 5.8672q1.1485 0.99776 1.5515 1.4794 0.39682 0.47617 0.56998 1.2728 0.16692 0.79122-0.10316 1.619-0.2709 0.81611-0.98126 1.6338-0.78628 0.90505-1.6878 1.3376-0.90151 0.43255-1.6804 0.3583-0.77886-0.07424-1.3636-0.47275-0.59101-0.40393-2.3012-1.8897l-5.9796-5.1948 2.2829-2.6278 7.5775 6.583q0.66162 0.57479 0.90852 0.66881 0.24608 0.08235 0.43587-0.13611 0.2169-0.24967 0.07682-0.49185-0.14091-0.25385-0.89615-0.90998l-7.4464-6.4692z"/>
   <path d="m53.085 53.121 6.3067 6.3451q1.4164 1.425 1.7951 1.8647 0.37286 0.43378 0.45884 1.0012 0.09184 0.56155-0.19042 1.0986-0.28223 0.52533-1.1032 1.3414l-1.2374 1.2299-1.6495-1.6596q0.24033-0.2039 0.34002-0.30299 0.26389-0.26229 0.28813-0.54285 0.02424-0.28056-0.13882-0.49153-0.16306-0.21097-0.69931-0.75048l-6.6389-6.6794z"/>
   <path d="m57.18 49.394 8.9337 9.969-2.5923 2.3231-8.9337-9.969z"/>
   <path d="m58.936 47.824 2.7422-2.1307q1.2993-1.0095 2.1225-1.3246 0.82975-0.32012 1.723-0.01947 0.88819 0.29413 1.9535 1.6652 0.72037 0.92712 0.71065 1.521-0.0032 0.58884-0.7063 1.4493 1.1206-0.5252 1.8508-0.28627 0.72506 0.23241 1.5266 1.264l0.76095 0.97935q0.83198 1.0708 0.98464 1.7793 0.1592 0.70349-0.22906 1.3088-0.38826 0.60533-2.0466 1.8939l-3.1796 2.4706zm4.1539-0.32721 1.8263 2.3504q0.17121-0.1435 0.26914-0.2196 0.4048-0.31453 0.3636-0.59664-0.04627-0.28864-0.77679-1.2288-0.38555-0.4962-0.62915-0.62105-0.24867-0.13138-0.43942-0.06693-0.18422 0.05937-0.61368 0.38259zm3.1047 3.9958 2.2981 2.9576q0.56586-0.47109 0.59573-0.75606 0.0364-0.29005-0.46076-0.9299l-0.76603-0.98588q-0.5276-0.67902-0.78284-0.71105-0.25524-0.03203-0.88419 0.42525z"/>
   <path d="m74.041 37.161 4.8182 7.5379q0.81936 1.2819 1.0697 1.8578 0.24592 0.56897 0.18668 1.3821-0.0637 0.80613-0.55689 1.5237-0.49068 0.70616-1.4033 1.2895-1.0102 0.64569-1.9972 0.80558-0.98704 0.15989-1.7131-0.13163-0.72605-0.29152-1.1742-0.83915-0.45263-0.5546-1.6728-2.4635l-4.266-6.674 2.933-1.8747 5.406 8.4575q0.47202 0.73846 0.68224 0.89848 0.21274 0.1486 0.45657-0.0073 0.27866-0.17812 0.2128-0.45004-0.06335-0.28334-0.60217-1.1263l-5.3125-8.3112z"/>
   <path d="m76.27 35.88 2.1881-1.1328q2.1881-1.1328 3.0465-1.3631 0.86574-0.23407 1.7115 0.21259 0.84928 0.43551 1.6362 1.9554 0.71846 1.3877 0.62045 2.0437-0.09801 0.65593-1.0619 1.276 1.0357-0.24755 1.5491-0.0292 0.5134 0.21835 0.75409 0.50341 0.24423 0.27392 0.9893 1.7131l1.6232 3.1353-2.8709 1.4863-2.0451-3.9503q-0.49418-0.95453-0.76622-1.1023-0.26469-0.15159-0.9035 0.17913l2.775 5.3601-3.0912 1.6004zm4.1442 0.43351 1.3685 2.6433q0.52132-0.2699 0.65469-0.51584 0.13691-0.25709-0.26984-1.0427l-0.33832-0.65349q-0.29271-0.56538-0.58953-0.63516-0.28948-0.07358-0.82549 0.20392z"/>
   <path d="m88.611 29.896 2.3083-0.86192q2.3083-0.86192 3.1881-0.98746 0.88758-0.12844 1.6736 0.41652 0.79085 0.53432 1.3896 2.1377 0.54665 1.464 0.3706 2.1034-0.17605 0.63942-1.2074 1.1393 1.0579-0.12142 1.5414 0.15699t0.68819 0.5903q0.20958 0.30126 0.77648 1.8194l1.235 3.3075-3.0286 1.1309-1.5561-4.1673q-0.376-1.007-0.62833-1.1863-0.24458-0.18227-0.91847 0.06936l2.1114 5.6545-3.261 1.2177zm4.0622 0.92792 1.0412 2.7885q0.54995-0.20536 0.71188-0.43351 0.16678-0.2388-0.1427-1.0676l-0.25742-0.68938q-0.22271-0.59643-0.50901-0.70134-0.27855-0.10781-0.844 0.10334z"/>
   <path d="m104.11 24.808 5.4792 12.375-3.4354 0.94726-0.80695-2.2733-1.2036 0.33187 0.4403 2.3744-3.4753 0.95825-1.8525-13.375zm0.51045 8.7877q-0.85946-2.1216-2.0024-5.2715 0.50966 3.8391 0.85466 5.588z"/>
   <path d="m115.66 22.467 2.3906 13.171-3.425 0.62166-1.0041-5.532-1.025 0.18605 1.0041 5.532-3.425 0.62166-2.3907-13.171 3.425-0.62166 0.85496 4.7103 1.025-0.18605-0.85496-4.7103z"/>
   <path d="m129.16 21.254 0.98007 13.35-3.0345 0.22277-0.66166-9.0129-0.55051 9.1019-2.1522 0.158-1.9246-8.7129 0.64652 8.8068-3.0345 0.22277-0.98008-13.35 4.4941-0.32992q0.28629 1.1894 0.62879 2.8058l0.72768 3.3623 0.33397-6.2921z"/>
   <path d="m137.93 21.449 1.6195 13.437-3.5622-0.09914-0.10663-2.41-1.248-0.03473-0.27356 2.3994-3.6036-0.10028 2.1411-13.332zm-2.0825 8.5526q-0.20123-2.2802-0.37278-5.6267-0.63569 3.8203-0.81738 5.5936z"/>
   <path d="m149.4 22.542-1.5346 13.298-3.0309-0.34977-1.1012-6.2529-0.69764 6.0453-2.8912-0.33366 1.5346-13.298 2.8912 0.33366 1.2474 6.2115 0.69101-5.9878z"/>
   <path d="m165.91 26.223-3.3133 12.97-2.948-0.75311 2.2368-8.756-3.4144 8.4551-2.0909-0.53414 0.94397-8.8729-2.1857 8.5557-2.948-0.75311 3.3133-12.97 4.366 1.1153q-0.10653 1.2187-0.29544 2.8601l-0.37852 3.4192 2.3162-5.8598z"/>
   <path d="m174.18 29.218-2.7636 13.249-3.3434-1.2334 0.66985-2.3174-1.1713-0.43212-1.0267 2.1858-3.3821-1.2477 6.2932-11.947zm-4.7089 7.4371q0.53874-2.2248 1.4466-5.4503-1.8243 3.4162-2.5637 5.0382z"/>
   <path d="m177.69 30.619 2.2276 1.0531q2.2276 1.0531 2.9312 1.596 0.71108 0.54651 0.86872 1.4899 0.16865 0.93942-0.56284 2.4867-0.66789 1.4128-1.2489 1.7326t-1.6585-0.0707q0.82483 0.67345 0.9625 1.2141t0.0569 0.90489q-0.0697 0.3603-0.76235 1.8254l-1.5089 3.1918-2.9227-1.3817 1.9012-4.0216q0.45939-0.97175 0.41196-1.2777-0.04-0.3024-0.69028-0.60984l-2.5797 5.4568-3.147-1.4877zm2.1681 3.5583-1.2722 2.691q0.53073 0.2509 0.80717 0.20782 0.28745-0.04702 0.66557-0.84685l0.3145-0.66528q0.27211-0.57558 0.14762-0.85392-0.11702-0.27481-0.6627-0.53278z"/>
   <path d="m189.75 36.76-6.5485 11.675-3.036-1.7029 6.5485-11.675z"/>
   <path d="m197.59 41.692-1.4546 2.2496-1.7358-1.1224-5.8138 8.9915-2.9231-1.89 5.8138-8.9915-1.7289-1.1179 1.4546-2.2496z"/>
   <path d="m201.7 44.744-7.9579 10.764-2.799-2.0693 7.9579-10.764z"/>
   <path d="m211.84 53.305-8.831 10.06-2.2867-2.0073 5.9619-6.7916-6.8753 5.9898-1.6218-1.4237 4.8624-7.4818-5.8255 6.6363-2.2867-2.0073 8.831-10.06 3.3865 2.9728q-0.64724 1.0381-1.5595 2.4157l-1.8869 2.8764 4.7202-4.174z"/>
   <path d="m213.68 55.241 3.9822 4.2228-1.949 1.838-1.594-1.6903-1.8467 1.7415 1.4919 1.582-1.8527 1.7472-1.4919-1.582-2.1414 2.0195 1.7529 1.8587-1.949 1.838-4.1411-4.3912z"/>
   <path d="m226.13 70.089-7.1402 5.39q-1.2142 0.91659-1.769 1.211-0.54812 0.28944-1.3634 0.29363-0.80864-7.93e-4 -1.5624-0.43667-0.74219-0.43426-1.3948-1.2987-0.72232-0.95687-0.9585-1.9285-0.23619-0.97161-2e-3 -1.7181 0.23415-0.74653 0.74526-1.2359 0.51771-0.4944 2.3259-1.8593l6.322-4.7723 2.0972 2.7782-8.0113 6.0475q-0.69951 0.52804-0.84268 0.75007-0.1316 0.22365 0.0427 0.45462 0.19926 0.26396 0.46523 0.17715 0.27755-0.0852 1.076-0.68796l7.8728-5.9429z"/>
   <path d="m231.68 78.812-11.372 7.0621-1.6096-2.5919 4.2144-4.7487-5.1697 3.2104-1.5354-2.4724 11.372-7.0621 1.5354 2.4724-4.0911 4.8376 5.1205-3.1799z"/>
   <path d="m234.4 83.941-11.835 6.2545-1.6264-3.0776 11.835-6.2545z"/>
   <path d="m238.84 93.564-12.953 3.8147-2.1439-4.8289 11.419-7.2682 1.4897 3.3553q-4.7972 2.8264-8.1778 4.6259 3.6398-1.3175 6.5037-2.2633l2.3719-0.79074z"/>
   <path d="m239.39 95.13 1.9283 5.4746-2.5268 0.88998-0.77187-2.1914-2.3942 0.84329 0.72243 2.051-2.402 0.84603-0.72242-2.051-2.7763 0.97788 0.84878 2.4098-2.5268 0.88999-2.0052-5.693z"/>
   <path d="m242.03 102.81 0.62884 2.3823q0.62884 2.3823 0.66654 3.2703 0.0398 0.89594-0.58039 1.624-0.61009 0.73399-2.2649 1.1708-1.5109 0.39883-2.1298 0.16025-0.61882-0.23857-1.014-1.3144 0.016 1.0647-0.30903 1.5182-0.32497 0.45349-0.65562 0.62628-0.32055 0.17868-1.8874 0.59228l-3.4136 0.90105-0.82508-3.1258 4.301-1.1353q1.0393-0.27433 1.2428-0.50762 0.20562-0.22531 0.022-0.92082l-5.8359 1.5404-0.88839-3.3656zm-1.3261 3.9502-2.878 0.75968q0.14983 0.5676 0.36081 0.75135 0.22108 0.18963 1.0765-0.0362l0.71151-0.18781q0.61557-0.16248 0.74835-0.43697 0.13489-0.26649-0.0192-0.85009z"/>
   <path d="m241.79 120.78-0.5441-3.1868 0.97803-0.16699q0.68463-0.11689 0.85121-0.27115t0.11788-0.43952q-0.0529-0.30971-0.33337-0.42958-0.2791-0.11172-0.79257-0.0241-0.66017 0.11272-0.96372 0.34908-0.30494 0.22821-0.64128 1.1076-0.97007 2.5226-1.7406 3.2665-0.77049 0.74386-2.7103 1.0751-1.41 0.24074-2.1354 0.0207-0.72398-0.2119-1.3418-1.0794-0.60969-0.86889-0.82399-2.124-0.23517-1.3774 0.11946-2.4445 0.35602-1.0589 1.1114-1.4983 0.75539-0.43932 2.2387-0.69259l0.86393-0.1475 0.5441 3.1868-1.6056 0.27413q-0.74168 0.12664-0.93132 0.29322-0.18825 0.17474-0.12981 0.51705 0.0584 0.34231 0.35524 0.4594 0.29818 0.12523 0.82795 0.0348 1.1655-0.19899 1.4698-0.57808 0.30295-0.38724 0.92396-1.8102 0.62915-1.4243 0.94125-1.9054 0.31209-0.48106 0.94125-0.87367 0.63055-0.38446 1.6819-0.56397 1.516-0.25884 2.2823 5e-3 0.76772 0.27154 1.3064 1.0687 0.54687 0.79574 0.7556 2.0183 0.22822 1.3366-0.0437 2.3477-0.27054 1.0192-0.87923 1.4335-0.59914 0.42104-2.1721 0.68961z"/>
   <path d="m246.39 125.84-13.317 1.3571-0.35289-3.463 13.317-1.3571z"/>
   <path d="m246.86 135.11-2.677 0.0997-0.0769-2.0656-10.7 0.39842-0.12952-3.4785 10.7-0.39842-0.0766-2.0574 2.677-0.0997z"/>
   <path d="m246.57 144.72-8.4475-2.8342-4.8422-0.16872 0.11229-3.2227 4.8422 0.16872 8.6211-2.1485-0.11143 3.1979q-3.9347 0.61577-5.293 0.65945 2.1301 0.36378 5.23 1.1502z"/>
   <path d="m235.61 145.46-1.195-0.0969q-0.9395-0.0762-1.5231-0.3475-0.58355-0.27131-0.95907-0.85756-0.37619-0.578-0.46014-1.2816l0.95598 0.0775q0.24009 0.5172 0.70449 0.62123l0.0454-0.5604 2.6124 0.21188z"/>
   <path d="m245.82 151.49-0.58967 3.4222q-0.27939 1.6215-0.67519 2.4091-0.39721 0.79573-1.2597 1.1757-0.85438 0.38136-2.5655 0.0865-1.157-0.19936-1.5502-0.64465-0.39452-0.43715-0.45504-1.5467-0.47387 1.1433-1.1743 1.4589-0.69226 0.317-1.9797 0.0952l-1.2222-0.21059q-1.3363-0.23026-1.9266-0.6508-0.59175-0.4124-0.71292-1.1213-0.12117-0.70887 0.23544-2.7785l0.68374-3.9682zm-2.8481 3.0415-2.9333-0.50543q-0.0298 0.2214-0.0508 0.34362-0.087 0.50519 0.13353 0.68583 0.22873 0.18204 1.4021 0.38421 0.61926 0.10671 0.88336 0.0348 0.27225-0.0705 0.36973-0.24673 0.0961-0.16802 0.19548-0.69625zm-4.9867-0.85924-3.6911-0.636q-0.10051 0.72939 0.0695 0.96005 0.1686 0.2388 0.96712 0.37639l1.2304 0.21201q0.8474 0.14601 1.0576-2e-3 0.21015-0.14837 0.36657-0.91009z"/>
   <path d="m242.35 167.68-13.449-1.5147 0.91589-3.4439 2.3699 0.45058 0.32088-1.2066-2.2721-0.81815 0.92652-3.4838 12.482 5.1504zm-7.8442-3.994q2.2654 0.32869 5.5615 0.9315-3.5716-1.4974-5.2555-2.0821z"/>
   <path d="m238.63 178.6-12.582-4.5702 1.0416-2.8677 6.338 0.37569-5.7198-2.0776 0.99365-2.7355 12.582 4.5702-0.99365 2.7355-6.3316-0.22382 5.6654 2.0579z"/>
   <path d="m229.76 186.15 1.4839-3.1488 1.0994 0.51813q1.0396 0.48994 1.3437 0.52355 0.30407 0.0336 0.46268-0.30295 0.13747-0.29169-0.0376-0.50215-0.17504-0.21045-1.1025-0.64751l-5.8114-2.7387q-0.81525-0.38419-1.1264-0.40285-0.30364-0.0151-0.45168 0.299-0.16214 0.34405 0.0732 0.60118 0.23177 0.26461 1.0769 0.66291l1.436 0.67675 0.2996-0.63574 1.8399 0.86708-1.7377 3.6873-6.4995-3.063 0.93405-1.982 1.0051 0.11718q-0.40938-0.58597-0.46096-1.2135-0.0476-0.61657 0.26607-1.2822 0.37362-0.79281 1.0829-1.3086 0.71319-0.50481 1.4508-0.59593 0.73761-0.0911 1.4007 0.11167 0.67056 0.20632 1.9196 0.79495l3.5975 1.6954q1.7352 0.81774 2.4324 1.3748 0.69721 0.55708 0.93199 1.7463 0.23873 1.2002-0.42392 2.6063-0.65207 1.3837-1.6505 2.0283-0.99845 0.64459-1.9142 0.55123-0.90826-0.0898-2.3966-0.79126z"/>
   <path d="m231.32 193.39-9.288-5.3274-1.0531 1.8361-2.3238-1.3329 2.7851-4.8556 11.612 6.6603z"/>
   <path d="m225.69 202.17-12.189-5.8804 2.0041-2.9467 2.0872 1.2095 0.70213-1.0324-1.8733-1.524 2.0273-2.9809 10.074 8.9912zm-6.0802-6.3651q2.0289 1.0599 4.9398 2.7197-2.8747-2.5951-4.2702-3.7042z"/>
   <path d="m223.48 205.24-1.6493 2.0158q-1.5969 1.9518-2.3363 2.4899-0.74464 0.54452-1.4474 0.56779-0.70275 0.0233-1.2816-0.30076-0.57244-0.3188-2.0443-1.523l-3.6284-2.9687q-1.395-1.1414-1.7586-1.6632-0.36243-0.51019-0.36417-1.0564 5e-3 -0.54103 0.28854-1.11 0.29029-0.56371 1.0809-1.53l2.7802-3.398zm-3.9768 1.2438-6.8152-5.5761q-0.47645 0.58233-0.35603 0.9052 0.12682 0.32811 1.1635 1.1763l4.0252 3.2933q0.70392 0.57593 0.93894 0.69344 0.23503 0.11751 0.45551 0.0308 0.22689-0.0814 0.58815-0.52299z"/>
   <path d="m216.76 213.22-4.0254 4.1816-1.93-1.8579 1.6113-1.6738-1.8287-1.7604-1.5081 1.5666-1.8346-1.7662 1.5081-1.5666-2.1206-2.0414-1.7719 1.8406-1.93-1.8579 4.186-4.3484z"/>
   <path d="m202.9 220.88 2.4161-2.148 0.65924 0.74152q0.46147 0.51906 0.68051 0.57877 0.21905 0.0597 0.43532-0.13256 0.23481-0.20875 0.18809-0.51019-0.0529-0.29593-0.39899-0.68523-0.44499-0.50052-0.80617-0.63301-0.35501-0.13798-1.2792 0.042-2.6538 0.51178-3.6927 0.25164-1.0389-0.26015-2.3464-1.7308-0.9504-1.069-1.1475-1.801-0.20331-0.72644 0.20584-1.7098 0.41464-0.97712 1.3662-1.8231 1.0443-0.92843 2.1374-1.1922 1.0869-0.25827 1.8594 0.15021 0.7725 0.40849 1.7724 1.5331l0.58232 0.655-2.4161 2.148-1.0822-1.2173q-0.49992-0.56232-0.74163-0.63508-0.24788-0.0673-0.50741 0.16347-0.25953 0.23073-0.20182 0.54452 0.0515 0.31928 0.40861 0.72093 0.78559 0.88364 1.2683 0.94127 0.48889 0.0521 2.0249-0.17389 1.5415-0.21986 2.1148-0.20961 0.57334 0.0102 1.2394 0.33634 0.65989 0.33159 1.3686 1.1287 1.0218 1.1494 1.2038 1.939 0.17585 0.79511-0.21546 1.674-0.38581 0.88511-1.3127 1.7092-1.0134 0.90096-2.0152 1.2052-1.008 0.30976-1.6816 0.0125-0.6743-0.28558-1.7346-1.4782z"/>
   <path d="m197.16 230.31-7.9661-10.758 2.7975-2.0715 3.3459 4.5185 0.83724-0.61997-3.3459-4.5185 2.7975-2.0715 7.9661 10.758-2.7975 2.0715-2.8489-3.8473-0.83725 0.61997 2.8489 3.8473z"/>
  </g>
  <g fill="#262161" stroke-width=".26458" aria-label="We Strive for Maritime Excellence">
   <path d="m69.036 190.9-9.1608 5.4666-2.0919-2.7347q1.6529-1.8578 3.9036-4.0328-1.1548 0.67736-4.874 2.7642l-2.08-2.7191 7.6695-7.4162 1.6266 2.1264-2.7664 2.4706-2.6584 2.3962q2.2906-1.5627 6.2322-3.8114l1.7419 2.2772q-0.33333 0.32916-2.5933 2.3629l-3.0144 2.685q3.191-2.1526 6.4389-3.9613z"/>
   <path d="m68.159 199.18-2.3253-2.5125-1.3787 1.276q-0.43235 0.40015-0.49946 0.5782-0.0671 0.17806 0.0974 0.3558 0.20452 0.22098 0.43455 0.14187 0.23928-0.0787 0.71487-0.51892l0.84069-0.77807 1.7029 1.8399-0.47078 0.43572q-0.59088 0.54687-0.97908 0.76346-0.38375 0.22138-0.99748 0.28102-0.61372 0.0596-1.1875-0.19416-0.56456-0.25344-1.1514-0.88756-0.56911-0.6149-0.82708-1.2502-0.25798-0.6353-0.19506-1.1841 0.07216-0.54841 0.3487-0.99164 0.28134-0.44768 0.99232-1.1057l1.8591-1.7207q0.83588-0.77362 1.5252-0.99245 0.69417-0.22328 1.4245 0.0551 0.73515 0.27393 1.3532 0.94168 0.75584 0.81667 0.93266 1.6341 0.18607 0.81779-0.13232 1.5049-0.30914 0.68747-1.2363 1.5456zm-0.76303-2.906 0.46598-0.43127q0.49481-0.45796 0.59002-0.64418 0.09521-0.18623-0.05596-0.34957-0.18674-0.20176-0.3561-0.1342-0.16456 0.0631-0.7026 0.56108l-0.46598 0.43128z"/>
   <path d="m76.725 202.69-1.913-1.7002 0.5218-0.58712q0.36526-0.41098 0.39188-0.58873 0.02662-0.17776-0.14462-0.32995-0.18592-0.16524-0.41857-0.10053-0.22776 0.0691-0.5017 0.37729-0.35222 0.3963-0.42286 0.69256-0.07554 0.29192 0.15174 1.0018 0.64866 2.039 0.54055 2.8799t-1.143 2.0054q-0.75226 0.84643-1.3094 1.0693-0.55227 0.22726-1.3633-3e-3 -0.8067-0.23531-1.5602-0.90495-0.82686-0.73487-1.1357-1.5698-0.30393-0.83058-0.05447-1.4758 0.24946-0.64526 1.0409-1.5357l0.46092-0.51862 1.913 1.7002-0.85662 0.96385q-0.3957 0.44523-0.43047 0.64201-0.02988 0.20113 0.17561 0.38376 0.20549 0.18263 0.44684 0.10814 0.24624-0.0701 0.52888-0.38816 0.62181-0.69965 0.62233-1.0845-0.0044-0.38921-0.32464-1.5758-0.31592-1.1915-0.36107-1.6432-0.04515-0.45172 0.14941-1.0056 0.19945-0.54959 0.76039-1.1807 0.80879-0.91003 1.4127-1.1264 0.6088-0.21204 1.3361 0.014 0.73169 0.22119 1.4656 0.87344 0.80239 0.71312 1.1346 1.4725 0.33708 0.76372 0.1659 1.3209-0.16195 0.55665-1.0012 1.5009z"/>
   <path d="m80.914 202.85-0.84789 1.0736 0.55992 0.4422-0.85194 1.0788-0.55992-0.4422-2.8804 3.6472q-0.53145 0.67294-0.52552 0.80273 0.01106 0.13385 0.51962 0.53548l-0.86817 1.0993-0.83731-0.66127q-0.70889-0.55985-0.96734-0.85571-0.25439-0.301-0.31922-0.69417-0.06077-0.39831 0.09774-0.71519 0.16256-0.32202 0.96583-1.3391l2.7343-3.4623-0.44691-0.35295 0.85194-1.0787 0.44691 0.35294 0.84789-1.0736z"/>
   <path d="m83.047 205.84-0.7484 0.86492q1.1811-0.65964 2.1117-0.0816l-1.7801 2.485q-0.59066-0.42311-0.98172-0.46168-0.39106-0.0386-0.66076 0.20303-0.26588 0.23628-1.0016 1.2633l-1.9974 2.7884-2.1498-1.54 5.0583-7.0613z"/>
   <path d="m87.816 206.73-0.7533 1.1576-2.2823-1.4852 0.7533-1.1576zm-1.0425 1.602-4.7376 7.2804-2.2823-1.4852 4.7376-7.2804z"/>
   <path d="m92.047 211.44-5.4217 6.8982-2.9856-1.7279 3.2009-8.1834 2.0452 1.1836-2.5337 5.8545q0.4212-0.5579 1.9542-2.8017 0.85937-1.2497 1.6955-2.4069z"/>
   <path d="m95.13 217.96-3.0694-1.5161-0.83198 1.6843q-0.2609 0.52819-0.25998 0.71847 9.24e-4 0.19027 0.21807 0.29753 0.26996 0.13334 0.45656-0.0227 0.19536-0.15903 0.48235-0.74003l0.5073-1.027 2.2477 1.1103-0.28409 0.57514q-0.35656 0.72186-0.64179 1.0628-0.27936 0.34386-0.83129 0.61878-0.55194 0.27492-1.1785 0.24284-0.61784-0.0351-1.3925-0.41771-0.7512-0.37106-1.2191-0.87229-0.46788-0.50123-0.60514-1.0363-0.12849-0.53801-0.02852-1.0508 0.10287-0.51864 0.5319-1.3872l1.1219-2.2712q0.5044-1.0212 1.0701-1.4718 0.56862-0.45649 1.3502-0.45736 0.7845-7e-3 1.6003 0.39621 0.99769 0.4928 1.4548 1.1932 0.46591 0.69738 0.41395 1.4529-0.04318 0.75253-0.60267 1.8852zm-1.7507-2.4417 0.28119-0.56928q0.29858-0.60448 0.32099-0.81243 0.02241-0.20795-0.17713-0.30651-0.24649-0.12176-0.38055 2e-3 -0.13116 0.11773-0.45583 0.77504l-0.28119 0.56927z"/>
   <path d="m103.28 214.35-0.49335 1.2479q-0.76091-0.30082-0.92979-0.28312-0.16039 0.014-0.29035 0.34272l-0.10107 0.25567 1.0348 0.40911-0.50538 1.2783-0.58438-0.23103-2.6111 6.6046-2.4592-0.97225 2.6111-6.6046-0.50524-0.19975 0.50538-1.2783 0.50524 0.19975q0.31526-0.79743 0.47594-1.0436 0.16067-0.24618 0.45555-0.36891 0.30337-0.12642 0.73627-0.082 0.4329 0.0445 1.2547 0.36934z"/>
   <path d="m107.3 220.94-0.66753 2.0199q-0.36766 1.1125-0.65206 1.5976-0.28235 0.47888-0.79898 0.8114-0.51457 0.3263-1.1645 0.35281-0.64162 0.0224-1.3874-0.22412-0.83282-0.27523-1.3513-0.64648-0.51639-0.37747-0.71839-0.85097-0.19373-0.47765-0.15793-1.0449 0.0378-0.57347 0.38497-1.6238l0.69834-2.1131q0.37998-1.1498 0.84219-1.714 0.46221-0.56422 1.238-0.74216t1.7826 0.1548q0.84525 0.27934 1.3639 0.73339 0.52692 0.44989 0.72281 0.96273t0.17226 0.9807q-0.0174 0.46992-0.30703 1.3462zm-2.3055-1.4513q0.2095-0.63394 0.19454-0.81812-0.0129-0.19041-0.23665-0.26435-0.22375-0.0739-0.35378 0.0692-0.12799 0.13695-0.33749 0.77088l-1.2303 3.7228q-0.19307 0.58422-0.17805 0.7891 0.0171 0.19867 0.23459 0.27056 0.22375 0.0739 0.34552-0.0651 0.12798-0.13694 0.30462-0.67144z"/>
   <path d="m111.15 218.78-0.39074 1.0749q0.86818-1.0375 1.9437-0.8293l-0.77685 2.9565q-0.70272-0.18465-1.0818-0.0812-0.37911 0.10342-0.5449 0.42532-0.16414 0.31557-0.48519 1.5374l-0.87167 3.3173-2.5576-0.67205 2.2075-8.4009z"/>
   <path d="m123.43 219.13-1.6377 10.47-2.3799-0.37225 1.1056-7.0685-2.0563 6.9198-1.6879-0.26402 0.078-7.0636-1.0804 6.9068-2.3799-0.37226 1.6377-10.47 3.5245 0.55131q8e-3 0.96846-0.0182 2.2762l-0.0417 2.7231 1.3856-4.792z"/>
   <path d="m125.55 224.51-2.475-0.17022 0.04-0.58119q0.0692-1.0057 0.33501-1.532 0.27282-0.53238 1.0003-0.90225 0.72748-0.36988 1.8442-0.29308 1.3387 0.0921 1.9851 0.61549 0.64681 0.51689 0.73634 1.2185 0.09 0.69511-0.0578 2.8436l-0.29912 4.3492-2.5664-0.17651 0.053-0.77057q-0.2735 0.44703-0.67496 0.65562-0.39447 0.20251-0.92342 0.16613-0.69221-0.0476-1.2469-0.47287-0.54772-0.43134-0.45744-1.7439l0.049-0.7118q0.0669-0.973 0.3981-1.3045 0.33118-0.33152 1.5781-0.71816 1.3346-0.41998 1.4381-0.59001t0.14083-0.71204q0.0467-0.67915-0.0438-0.88877-0.0836-0.21571-0.31867-0.23188-0.26774-0.0184-0.34517 0.15341-0.077 0.1653-0.12683 0.89016zm0.75413 1.246q-0.66533 0.42008-0.79137 0.72635-0.11951 0.30671-0.15993 0.89443-0.0463 0.67262 0.0252 0.87437 0.0779 0.20219 0.33915 0.22016 0.24815 0.0171 0.33032-0.12819 0.0891-0.15134 0.13405-0.80436z"/>
   <path d="m132.28 221.4-0.11418 1.138q0.58616-1.2192 1.6798-1.2821l-0.0254 3.0567q-0.72655-6e-3 -1.0685 0.18751-0.342 0.19353-0.42348 0.54634-0.0814 0.34625-0.0919 1.6095l-0.0285 3.4298-2.6444-0.022 0.0721-8.6858z"/>
   <path d="m136.7 219.38 0.0493 1.3803-2.7213 0.0972-0.0493-1.3803zm0.0683 1.9101 0.31022 8.6806-2.7213 0.0973-0.31021-8.6806z"/>
   <path d="m140.05 219.9 0.10436 1.3641 0.7114-0.0544 0.10485 1.3706-0.7114 0.0544 0.35452 4.6339q0.0654 0.85498 0.15775 0.94639 0.0989 0.0909 0.745 0.0415l0.10685 1.3967-1.0638 0.0814q-0.90067 0.0689-1.2912 0.0266-0.39106-0.0489-0.70523-0.29398-0.31467-0.25165-0.41293-0.59206-0.0987-0.34695-0.19762-1.6392l-0.33654-4.3989-0.56782 0.0434-0.10486-1.3706 0.56782-0.0434-0.10436-1.3641z"/>
   <path d="m143.56 218.75 0.16155 1.3716-2.7043 0.31852-0.16155-1.3717zm0.22357 1.8982 1.016 8.6265-2.7043 0.31852-1.016-8.6265z"/>
   <path d="m146.66 220.23 0.1121 0.81839q0.20851-0.54054 0.58006-0.85933 0.37031-0.32522 0.90366-0.4287 1.041-0.20197 1.8256 0.64597 0.23421-0.54552 0.59934-0.86307 0.36388-0.32397 0.8651-0.42122 0.66186-0.12841 1.1547 0.10935 0.49929 0.23652 0.71239 0.68192 0.21186 0.43897 0.41507 1.4864l1.1757 6.0596-2.5189 0.48872-1.0784-5.5584q-0.21194-1.0924-0.33892-1.3345-0.1218-0.24975-0.39169-0.19738-0.27631 0.0536-0.30998 0.32685-0.0272 0.27199 0.18595 1.3708l1.0784 5.5584-2.5189 0.48871-1.051-5.417q-0.24311-1.253-0.35599-1.4912-0.10645-0.23939-0.38276-0.18578-0.1735 0.0337-0.26941 0.19229-0.0972 0.15221-0.0726 0.34748 0.0233 0.18884 0.14299 0.80572l1.147 5.9118-2.5189 0.48871-1.6544-8.5271z"/>
   <path d="m160.46 221.46-3.2868 0.95719 0.52526 1.8037q0.16472 0.56561 0.29401 0.70522 0.12928 0.13961 0.36181 0.0719 0.28909-0.0842 0.32114-0.32532 0.0365-0.24924-0.14469-0.87142l-0.32029-1.0998 2.407-0.70097 0.17936 0.6159q0.22511 0.773 0.24535 1.2171 0.0265 0.44224-0.19444 1.0179-0.22096 0.57566-0.70445 0.97553-0.47905 0.39176-1.3086 0.63335-0.80443 0.23426-1.488 0.18109-0.68361-0.0532-1.1464-0.35473-0.45833-0.30967-0.73123-0.75515-0.27474-0.45177-0.5456-1.3819l-0.70828-2.4322q-0.31846-1.0935-0.2061-1.808 0.11053-0.72076 0.68598-1.2497 0.57363-0.5352 1.4472-0.78959 1.0684-0.31113 1.8786-0.10395 0.81473 0.19906 1.2871 0.79099 0.47681 0.58381 0.83003 1.7967zm-2.9406-0.61625-0.17753-0.60961q-0.18851-0.64732-0.31255-0.81572-0.12403-0.16841-0.33771-0.10618-0.26395 0.0769-0.27922 0.25857-0.0171 0.17541 0.18789 0.87929l0.17753 0.60961z"/>
   <path d="m160.87 214.52 4.2758-1.6828 0.7767 1.9735-1.7116 0.67361 0.73594 1.8699 1.6019-0.63046 0.73834 1.876-1.6019 0.63047 0.85341 2.1684 1.8821-0.74074 0.7767 1.9735-4.4464 1.75z"/>
   <path d="m171.21 212.12 0.8106 4.2042 3.0839 3.563-2.3284 1.0937q-1.0728-1.3908-1.7765-2.4271 0.41982 1.5095 0.73972 2.9141l-2.0025 0.94066-0.89778-4.59-2.7953-3.2719 2.0025-0.94067q1.6098 2.1799 1.7984 2.4891-0.59983-2.1698-0.76163-2.9761z"/>
   <path d="m177.65 212.32-2.1864 1.1996-0.48172-0.87803q-0.25188-0.45909-0.41464-0.57885-0.16591-0.12549-0.36676-0.0153-0.20086 0.11019-0.19101 0.29144 0.01 0.18125 0.28376 0.68052l1.971 3.5924q0.22354 0.40745 0.44018 0.55737 0.2135 0.14418 0.41435 0.034 0.23529-0.12909 0.19914-0.3855-0.0304-0.25956-0.35471-0.85065l-0.49746-0.90672 2.066-1.1334q0.49487 0.9156 0.68362 1.4093 0.19134 0.48485 0.12871 1.1464-0.06 0.65262-0.44689 1.1859-0.38999 0.52754-1.159 0.94944-0.98132 0.53839-1.7378 0.52039-0.75963-0.0237-1.3312-0.49407-0.56902-0.47922-1.1798-1.5925l-1.187-2.1635q-0.5321-0.96984-0.60775-1.5704-0.0756-0.60058 0.3504-1.3346 0.4229-0.73971 1.3354-1.2403 0.90672-0.49746 1.7604-0.46559 0.85368 0.0319 1.3872 0.50072 0.53348 0.46886 1.1222 1.542z"/>
   <path d="m183.68 209.89-2.8761 1.8568 1.019 1.5783q0.31953 0.49492 0.48332 0.59175 0.1638 0.0968 0.36727-0.0345 0.25297-0.16331 0.21474-0.40354-0.0363-0.24928-0.38775-0.7937l-0.62131-0.96236 2.1062-1.3598 0.34793 0.53892q0.43669 0.6764 0.58303 1.0962 0.15183 0.41621 0.10465 1.031-0.0472 0.61481-0.3962 1.1362-0.34706 0.51235-1.073 0.98099-0.7039 0.45444-1.3742 0.5989t-1.2-0.0122q-0.52773-0.16573-0.91658-0.51461-0.39241-0.35438-0.91786-1.1683l-1.374-2.1282q-0.61776-0.95686-0.71433-1.6736-0.10012-0.72229 0.30013-1.3936 0.39669-0.67684 1.1611-1.1703 0.93486-0.60356 1.7706-0.63665 0.83763-0.0421 1.4595 0.39007 0.6238 0.42315 1.309 1.4845zm-2.994 0.25005-0.34438-0.53342q-0.36568-0.56642-0.53268-0.69234-0.16701-0.12592-0.35398-5e-3 -0.23096 0.14911-0.19365 0.3276 0.0338 0.17298 0.4314 0.78889l0.34439 0.53342z"/>
   <path d="m182.61 202.71 6.2343 8.5697-2.202 1.6019-6.2343-8.5697z"/>
   <path d="m185.17 200.7 6.5612 8.3221-2.1383 1.6859-6.5612-8.3221z"/>
   <path d="m194.2 201.35-2.5667 2.2653 1.2431 1.4085q0.38983 0.44168 0.56625 0.51297 0.17641 0.0713 0.35799-0.089 0.22575-0.19925 0.1521-0.43108-0.0731-0.24107-0.50189-0.72692l-0.758-0.85884 1.8796-1.6589 0.42448 0.48094q0.53277 0.60364 0.74012 0.99684 0.21226 0.38888 0.25739 1.0038 0.0451 0.61496-0.22216 1.1826-0.26669 0.55841-0.9145 1.1302-0.62817 0.55443-1.2694 0.79732-0.64121 0.2429-1.1883 0.16705-0.54655-0.0851-0.98313-0.37203-0.44092-0.29183-1.082-1.0182l-1.6763-1.8992q-0.75367-0.85392-0.95616-1.5483-0.20682-0.69925 0.0887-1.4228 0.29122-0.72847 0.97338-1.3305 0.83429-0.73634 1.6557-0.89381 0.82196-0.1667 1.5014 0.16783 0.67998 0.32529 1.516 1.2725zm-2.9232 0.69419-0.42015-0.47604q-0.44614-0.50548-0.63007-0.60507-0.18392-0.0996-0.35078 0.0477-0.20612 0.18192-0.14258 0.35283 0.0592 0.16601 0.54433 0.71566l0.42015 0.47604z"/>
   <path d="m193.28 195.89 0.5387 0.59128q-0.14007-0.54005-0.0201-0.99959 0.11991-0.4688 0.4999-0.8571 0.47613-0.48654 1.0075-0.57097 0.5314-0.0844 0.96925 0.17005 0.43318 0.2499 1.2472 1.0465l4.3508 4.2577-1.8496 1.89-4.2993-4.2074q-0.64091-0.62722-0.82247-0.72246-0.18155-0.0952-0.36925 0.0966-0.19687 0.20116-0.0835 0.41286 0.1087 0.20712 0.81044 0.89385l4.1964 4.1066-1.8496 1.89-6.208-6.0753z"/>
   <path d="m202.14 190.89-1.6118 1.903-0.76422-0.64727q-0.39959-0.33844-0.59444-0.39196-0.19985-0.0577-0.34792 0.11707-0.14807 0.17482-0.074 0.34052 0.0741 0.16571 0.50866 0.53376l3.1268 2.6483q0.35463 0.30036 0.6106 0.36275 0.25097 0.0582 0.39903-0.11666 0.17346-0.20479 0.0479-0.43124-0.12135-0.23146-0.63582-0.6672l-0.7892-0.66841 1.523-1.7982q0.78996 0.67764 1.143 1.071 0.35229 0.38415 0.53073 1.0242 0.17766 0.63085 7e-3 1.2673-0.17519 0.63222-0.74208 1.3015-0.72341 0.85413-1.4362 1.1082-0.71774 0.24989-1.4199 0.0155-0.70291-0.24364-1.6719-1.0644l-1.8831-1.5949q-0.84414-0.71495-1.1299-1.2486t-0.1508-1.3715q0.12994-0.84211 0.80259-1.6363 0.66841-0.78919 1.4769-1.0652 0.80847-0.27598 1.4745-0.0293 0.666 0.2467 1.6 1.0378z"/>
   <path d="m206.9 186.46-2.0213 2.763 1.5162 1.1092q0.47546 0.34783 0.66306 0.37963t0.3306-0.16366q0.17778-0.24301 0.0561-0.45366-0.12307-0.2198-0.64608-0.60241l-0.92451-0.67633 1.4802-2.0234 0.51772 0.37875q0.64981 0.47537 0.93664 0.81497 0.29071 0.33432 0.46663 0.9253 0.17593 0.59099 0.0366 1.2028-0.14076 0.60261-0.65092 1.3-0.49469 0.67622-1.0689 1.051-0.57422 0.37473-1.1249 0.41794-0.55209 0.0341-1.04-0.15257-0.49323-0.19052-1.2751-0.7625l-2.0445-1.4957q-0.91923-0.67247-1.2659-1.3072-0.35193-0.63864-0.2184-1.4088 0.12826-0.77397 0.66546-1.5083 0.65701-0.8981 1.4255-1.228 0.7671-0.33906 1.5024-0.15798 0.73391 0.17194 1.7535 0.91784zm-2.7064 1.3048-0.51244-0.37489q-0.54414-0.39807-0.74514-0.4559-0.20101-0.0578-0.33241 0.12179-0.16232 0.22188-0.0636 0.3752 0.0934 0.14944 0.68512 0.5823l0.51244 0.37488z"/>
  </g>
 </g>
</svg>
