<?xml version="1.0" encoding="UTF-8" standalone="no"?>
<!-- Created with Inkscape (http://www.inkscape.org/) -->

<svg
   xmlns:osb="http://www.openswatchbook.org/uri/2009/osb"
   xmlns:dc="http://purl.org/dc/elements/1.1/"
   xmlns:cc="http://creativecommons.org/ns#"
   xmlns:rdf="http://www.w3.org/1999/02/22-rdf-syntax-ns#"
   xmlns:svg="http://www.w3.org/2000/svg"
   xmlns="http://www.w3.org/2000/svg"
   xmlns:xlink="http://www.w3.org/1999/xlink"
   xmlns:sodipodi="http://sodipodi.sourceforge.net/DTD/sodipodi-0.dtd"
   xmlns:inkscape="http://www.inkscape.org/namespaces/inkscape"
   width="1000"
   height="1000"
   viewBox="0 0 264.58333 264.58334"
   version="1.1"
   id="svg8"
   inkscape:version="0.92.4 (unknown)"
   sodipodi:docname="BSMRMULMCS0003.svg"
   inkscape:export-filename="D:\BSMRMULMCS0003.png"
   inkscape:export-xdpi="287.99997"
   inkscape:export-ydpi="287.99997">
  <defs
     id="defs2">
    <linearGradient
       osb:paint="solid"
       id="linearGradient6560">
      <stop
         id="stop6558"
         offset="0"
         style="stop-color:#00ffff;stop-opacity:1;" />
    </linearGradient>
    <inkscape:path-effect
       bendpath1-nodetypes="cc"
       bendpath4="M 0,58.303315 V 354.41575"
       bendpath3="M 0,354.41575 H 412.72"
       bendpath2="M 412.72,58.303315 V 354.41575"
       bendpath1="M 49.853682,83.794422 H 362.86629"
       xx="false"
       yy="true"
       is_visible="true"
       id="path-effect4941"
       effect="envelope" />
    <inkscape:path-effect
       bendpath-nodetypes="cc"
       vertical="false"
       scale_y_rel="false"
       prop_scale="1"
       bendpath="m 206.92897,327.91154 c 71.91737,-21.38757 143.83474,-21.38757 215.75211,0"
       is_visible="true"
       id="path-effect5395"
       effect="bend_path" />
    <marker
       inkscape:stockid="Arrow1Lstart"
       orient="auto"
       refY="0.0"
       refX="0.0"
       id="marker1221"
       style="overflow:visible"
       inkscape:isstock="true">
      <path
         id="path1219"
         d="M 0.0,0.0 L 5.0,-5.0 L -12.5,0.0 L 5.0,5.0 L 0.0,0.0 z "
         style="fill-rule:evenodd;stroke:#000000;stroke-width:1pt;stroke-opacity:1;fill:#000000;fill-opacity:1"
         transform="scale(0.8) translate(12.5,0)" />
    </marker>
    <marker
       inkscape:stockid="Arrow1Lstart"
       orient="auto"
       refY="0.0"
       refX="0.0"
       id="marker1193"
       style="overflow:visible"
       inkscape:isstock="true">
      <path
         id="path1191"
         d="M 0.0,0.0 L 5.0,-5.0 L -12.5,0.0 L 5.0,5.0 L 0.0,0.0 z "
         style="fill-rule:evenodd;stroke:#000000;stroke-width:1pt;stroke-opacity:1;fill:#000000;fill-opacity:1"
         transform="scale(0.8) translate(12.5,0)" />
    </marker>
    <marker
       inkscape:stockid="Arrow1Lstart"
       orient="auto"
       refY="0.0"
       refX="0.0"
       id="marker1171"
       style="overflow:visible"
       inkscape:isstock="true">
      <path
         id="path1169"
         d="M 0.0,0.0 L 5.0,-5.0 L -12.5,0.0 L 5.0,5.0 L 0.0,0.0 z "
         style="fill-rule:evenodd;stroke:#000000;stroke-width:1pt;stroke-opacity:1;fill:#000000;fill-opacity:1"
         transform="scale(0.8) translate(12.5,0)" />
    </marker>
    <marker
       inkscape:stockid="Arrow1Lstart"
       orient="auto"
       refY="0.0"
       refX="0.0"
       id="Arrow1Lstart"
       style="overflow:visible"
       inkscape:isstock="true">
      <path
         id="path893"
         d="M 0.0,0.0 L 5.0,-5.0 L -12.5,0.0 L 5.0,5.0 L 0.0,0.0 z "
         style="fill-rule:evenodd;stroke:#000000;stroke-width:1pt;stroke-opacity:1;fill:#000000;fill-opacity:1"
         transform="scale(0.8) translate(12.5,0)" />
    </marker>
    <marker
       inkscape:stockid="Arrow1Lstart"
       orient="auto"
       refY="0.0"
       refX="0.0"
       id="marker1221-2"
       style="overflow:visible"
       inkscape:isstock="true">
      <path
         id="path1219-9"
         d="M 0.0,0.0 L 5.0,-5.0 L -12.5,0.0 L 5.0,5.0 L 0.0,0.0 z "
         style="fill-rule:evenodd;stroke:#000000;stroke-width:1pt;stroke-opacity:1;fill:#000000;fill-opacity:1"
         transform="scale(0.8) translate(12.5,0)" />
    </marker>
    <marker
       inkscape:stockid="Arrow1Lstart"
       orient="auto"
       refY="0.0"
       refX="0.0"
       id="marker1193-1"
       style="overflow:visible"
       inkscape:isstock="true">
      <path
         id="path1191-2"
         d="M 0.0,0.0 L 5.0,-5.0 L -12.5,0.0 L 5.0,5.0 L 0.0,0.0 z "
         style="fill-rule:evenodd;stroke:#000000;stroke-width:1pt;stroke-opacity:1;fill:#000000;fill-opacity:1"
         transform="scale(0.8) translate(12.5,0)" />
    </marker>
    <marker
       inkscape:stockid="Arrow1Lstart"
       orient="auto"
       refY="0.0"
       refX="0.0"
       id="marker1171-7"
       style="overflow:visible"
       inkscape:isstock="true">
      <path
         id="path1169-0"
         d="M 0.0,0.0 L 5.0,-5.0 L -12.5,0.0 L 5.0,5.0 L 0.0,0.0 z "
         style="fill-rule:evenodd;stroke:#000000;stroke-width:1pt;stroke-opacity:1;fill:#000000;fill-opacity:1"
         transform="scale(0.8) translate(12.5,0)" />
    </marker>
    <marker
       inkscape:stockid="Arrow1Lstart"
       orient="auto"
       refY="0.0"
       refX="0.0"
       id="Arrow1Lstart-9"
       style="overflow:visible"
       inkscape:isstock="true">
      <path
         id="path893-3"
         d="M 0.0,0.0 L 5.0,-5.0 L -12.5,0.0 L 5.0,5.0 L 0.0,0.0 z "
         style="fill-rule:evenodd;stroke:#000000;stroke-width:1pt;stroke-opacity:1;fill:#000000;fill-opacity:1"
         transform="scale(0.8) translate(12.5,0)" />
    </marker>
    <inkscape:path-effect
       bendpath-nodetypes="ccc"
       vertical="false"
       scale_y_rel="false"
       prop_scale="1"
       bendpath="m 24.365162,165.40248 109.060438,7.18155 c 30.11687,1.43474 66.69176,-20.09801 106.60358,-5.85863"
       is_visible="true"
       id="path-effect1080"
       effect="bend_path" />
    <inkscape:path-effect
       effect="bend_path"
       id="path-effect1080-7"
       is_visible="true"
       bendpath="m 24.365162,165.40248 109.060438,7.18155 c 30.11687,1.43474 66.69176,-20.09801 106.60358,-5.85863"
       prop_scale="1"
       scale_y_rel="false"
       vertical="false"
       bendpath-nodetypes="ccc" />
    <marker
       inkscape:isstock="true"
       style="overflow:visible"
       id="marker1221-29"
       refX="0.0"
       refY="0.0"
       orient="auto"
       inkscape:stockid="Arrow1Lstart">
      <path
         transform="scale(0.8) translate(12.5,0)"
         style="fill-rule:evenodd;stroke:#000000;stroke-width:1pt;stroke-opacity:1;fill:#000000;fill-opacity:1"
         d="M 0.0,0.0 L 5.0,-5.0 L -12.5,0.0 L 5.0,5.0 L 0.0,0.0 z "
         id="path1219-1" />
    </marker>
    <marker
       inkscape:isstock="true"
       style="overflow:visible"
       id="marker1193-2"
       refX="0.0"
       refY="0.0"
       orient="auto"
       inkscape:stockid="Arrow1Lstart">
      <path
         transform="scale(0.8) translate(12.5,0)"
         style="fill-rule:evenodd;stroke:#000000;stroke-width:1pt;stroke-opacity:1;fill:#000000;fill-opacity:1"
         d="M 0.0,0.0 L 5.0,-5.0 L -12.5,0.0 L 5.0,5.0 L 0.0,0.0 z "
         id="path1191-7" />
    </marker>
    <marker
       inkscape:isstock="true"
       style="overflow:visible"
       id="marker1171-0"
       refX="0.0"
       refY="0.0"
       orient="auto"
       inkscape:stockid="Arrow1Lstart">
      <path
         transform="scale(0.8) translate(12.5,0)"
         style="fill-rule:evenodd;stroke:#000000;stroke-width:1pt;stroke-opacity:1;fill:#000000;fill-opacity:1"
         d="M 0.0,0.0 L 5.0,-5.0 L -12.5,0.0 L 5.0,5.0 L 0.0,0.0 z "
         id="path1169-9" />
    </marker>
    <marker
       inkscape:isstock="true"
       style="overflow:visible"
       id="Arrow1Lstart-3"
       refX="0.0"
       refY="0.0"
       orient="auto"
       inkscape:stockid="Arrow1Lstart">
      <path
         transform="scale(0.8) translate(12.5,0)"
         style="fill-rule:evenodd;stroke:#000000;stroke-width:1pt;stroke-opacity:1;fill:#000000;fill-opacity:1"
         d="M 0.0,0.0 L 5.0,-5.0 L -12.5,0.0 L 5.0,5.0 L 0.0,0.0 z "
         id="path893-6" />
    </marker>
    <inkscape:path-effect
       effect="bend_path"
       id="path-effect1080-6"
       is_visible="true"
       bendpath="m 24.365162,165.40248 109.060438,7.18155 c 30.11687,1.43474 66.69176,-20.09801 106.60358,-5.85863"
       prop_scale="1"
       scale_y_rel="false"
       vertical="false"
       bendpath-nodetypes="ccc" />
    <marker
       inkscape:stockid="Arrow1Lstart"
       orient="auto"
       refY="0.0"
       refX="0.0"
       id="marker1221-8"
       style="overflow:visible"
       inkscape:isstock="true">
      <path
         id="path1219-3"
         d="M 0.0,0.0 L 5.0,-5.0 L -12.5,0.0 L 5.0,5.0 L 0.0,0.0 z "
         style="fill-rule:evenodd;stroke:#000000;stroke-width:1pt;stroke-opacity:1;fill:#000000;fill-opacity:1"
         transform="scale(0.8) translate(12.5,0)" />
    </marker>
    <marker
       inkscape:stockid="Arrow1Lstart"
       orient="auto"
       refY="0.0"
       refX="0.0"
       id="marker1193-0"
       style="overflow:visible"
       inkscape:isstock="true">
      <path
         id="path1191-9"
         d="M 0.0,0.0 L 5.0,-5.0 L -12.5,0.0 L 5.0,5.0 L 0.0,0.0 z "
         style="fill-rule:evenodd;stroke:#000000;stroke-width:1pt;stroke-opacity:1;fill:#000000;fill-opacity:1"
         transform="scale(0.8) translate(12.5,0)" />
    </marker>
    <marker
       inkscape:stockid="Arrow1Lstart"
       orient="auto"
       refY="0.0"
       refX="0.0"
       id="marker1171-8"
       style="overflow:visible"
       inkscape:isstock="true">
      <path
         id="path1169-6"
         d="M 0.0,0.0 L 5.0,-5.0 L -12.5,0.0 L 5.0,5.0 L 0.0,0.0 z "
         style="fill-rule:evenodd;stroke:#000000;stroke-width:1pt;stroke-opacity:1;fill:#000000;fill-opacity:1"
         transform="scale(0.8) translate(12.5,0)" />
    </marker>
    <marker
       inkscape:stockid="Arrow1Lstart"
       orient="auto"
       refY="0.0"
       refX="0.0"
       id="Arrow1Lstart-0"
       style="overflow:visible"
       inkscape:isstock="true">
      <path
         id="path893-2"
         d="M 0.0,0.0 L 5.0,-5.0 L -12.5,0.0 L 5.0,5.0 L 0.0,0.0 z "
         style="fill-rule:evenodd;stroke:#000000;stroke-width:1pt;stroke-opacity:1;fill:#000000;fill-opacity:1"
         transform="scale(0.8) translate(12.5,0)" />
    </marker>
    <marker
       inkscape:stockid="Arrow1Lstart"
       orient="auto"
       refY="0.0"
       refX="0.0"
       id="marker1221-2-9"
       style="overflow:visible"
       inkscape:isstock="true">
      <path
         id="path1219-9-9"
         d="M 0.0,0.0 L 5.0,-5.0 L -12.5,0.0 L 5.0,5.0 L 0.0,0.0 z "
         style="fill-rule:evenodd;stroke:#000000;stroke-width:1pt;stroke-opacity:1;fill:#000000;fill-opacity:1"
         transform="scale(0.8) translate(12.5,0)" />
    </marker>
    <marker
       inkscape:stockid="Arrow1Lstart"
       orient="auto"
       refY="0.0"
       refX="0.0"
       id="marker1193-1-3"
       style="overflow:visible"
       inkscape:isstock="true">
      <path
         id="path1191-2-6"
         d="M 0.0,0.0 L 5.0,-5.0 L -12.5,0.0 L 5.0,5.0 L 0.0,0.0 z "
         style="fill-rule:evenodd;stroke:#000000;stroke-width:1pt;stroke-opacity:1;fill:#000000;fill-opacity:1"
         transform="scale(0.8) translate(12.5,0)" />
    </marker>
    <marker
       inkscape:stockid="Arrow1Lstart"
       orient="auto"
       refY="0.0"
       refX="0.0"
       id="marker1171-7-2"
       style="overflow:visible"
       inkscape:isstock="true">
      <path
         id="path1169-0-4"
         d="M 0.0,0.0 L 5.0,-5.0 L -12.5,0.0 L 5.0,5.0 L 0.0,0.0 z "
         style="fill-rule:evenodd;stroke:#000000;stroke-width:1pt;stroke-opacity:1;fill:#000000;fill-opacity:1"
         transform="scale(0.8) translate(12.5,0)" />
    </marker>
    <marker
       inkscape:stockid="Arrow1Lstart"
       orient="auto"
       refY="0.0"
       refX="0.0"
       id="Arrow1Lstart-9-6"
       style="overflow:visible"
       inkscape:isstock="true">
      <path
         id="path893-3-9"
         d="M 0.0,0.0 L 5.0,-5.0 L -12.5,0.0 L 5.0,5.0 L 0.0,0.0 z "
         style="fill-rule:evenodd;stroke:#000000;stroke-width:1pt;stroke-opacity:1;fill:#000000;fill-opacity:1"
         transform="scale(0.8) translate(12.5,0)" />
    </marker>
    <inkscape:path-effect
       bendpath-nodetypes="ccc"
       vertical="false"
       scale_y_rel="false"
       prop_scale="1"
       bendpath="m 24.365162,165.40248 109.060438,7.18155 c 30.11687,1.43474 66.69176,-20.09801 106.60358,-5.85863"
       is_visible="true"
       id="path-effect1080-9"
       effect="bend_path" />
    <inkscape:path-effect
       effect="bend_path"
       id="path-effect1080-7-8"
       is_visible="true"
       bendpath="m 24.365162,165.40248 109.060438,7.18155 c 30.11687,1.43474 66.69176,-20.09801 106.60358,-5.85863"
       prop_scale="1"
       scale_y_rel="false"
       vertical="false"
       bendpath-nodetypes="ccc" />
    <marker
       inkscape:isstock="true"
       style="overflow:visible"
       id="marker1221-29-4"
       refX="0.0"
       refY="0.0"
       orient="auto"
       inkscape:stockid="Arrow1Lstart">
      <path
         transform="scale(0.8) translate(12.5,0)"
         style="fill-rule:evenodd;stroke:#000000;stroke-width:1pt;stroke-opacity:1;fill:#000000;fill-opacity:1"
         d="M 0.0,0.0 L 5.0,-5.0 L -12.5,0.0 L 5.0,5.0 L 0.0,0.0 z "
         id="path1219-1-8" />
    </marker>
    <marker
       inkscape:isstock="true"
       style="overflow:visible"
       id="marker1193-2-4"
       refX="0.0"
       refY="0.0"
       orient="auto"
       inkscape:stockid="Arrow1Lstart">
      <path
         transform="scale(0.8) translate(12.5,0)"
         style="fill-rule:evenodd;stroke:#000000;stroke-width:1pt;stroke-opacity:1;fill:#000000;fill-opacity:1"
         d="M 0.0,0.0 L 5.0,-5.0 L -12.5,0.0 L 5.0,5.0 L 0.0,0.0 z "
         id="path1191-7-5" />
    </marker>
    <marker
       inkscape:isstock="true"
       style="overflow:visible"
       id="marker1171-0-7"
       refX="0.0"
       refY="0.0"
       orient="auto"
       inkscape:stockid="Arrow1Lstart">
      <path
         transform="scale(0.8) translate(12.5,0)"
         style="fill-rule:evenodd;stroke:#000000;stroke-width:1pt;stroke-opacity:1;fill:#000000;fill-opacity:1"
         d="M 0.0,0.0 L 5.0,-5.0 L -12.5,0.0 L 5.0,5.0 L 0.0,0.0 z "
         id="path1169-9-2" />
    </marker>
    <marker
       inkscape:isstock="true"
       style="overflow:visible"
       id="Arrow1Lstart-3-0"
       refX="0.0"
       refY="0.0"
       orient="auto"
       inkscape:stockid="Arrow1Lstart">
      <path
         transform="scale(0.8) translate(12.5,0)"
         style="fill-rule:evenodd;stroke:#000000;stroke-width:1pt;stroke-opacity:1;fill:#000000;fill-opacity:1"
         d="M 0.0,0.0 L 5.0,-5.0 L -12.5,0.0 L 5.0,5.0 L 0.0,0.0 z "
         id="path893-6-9" />
    </marker>
    <radialGradient
       inkscape:collect="always"
       xlink:href="#linearGradient1410"
       id="radialGradient1412"
       cx="431.07858"
       cy="568.52234"
       fx="431.07858"
       fy="568.52234"
       r="205.11449"
       gradientTransform="matrix(1,0,0,2.4194368,0,-925.91209)"
       gradientUnits="userSpaceOnUse" />
    <linearGradient
       inkscape:collect="always"
       id="linearGradient1410">
      <stop
         style="stop-color:#ffc748;stop-opacity:1"
         offset="0"
         id="stop1406" />
      <stop
         style="stop-color:#ffc748;stop-opacity:1"
         offset="1"
         id="stop1408" />
    </linearGradient>
    <radialGradient
       inkscape:collect="always"
       xlink:href="#linearGradient1410"
       id="radialGradient1296"
       cx="431.07858"
       cy="568.52234"
       fx="431.07858"
       fy="568.52234"
       r="205.11449"
       gradientTransform="matrix(1,0,0,2.4194368,0,-925.91209)"
       gradientUnits="userSpaceOnUse" />
    <radialGradient
       inkscape:collect="always"
       xlink:href="#linearGradient1410"
       id="radialGradient1304"
       cx="431.07858"
       cy="568.52234"
       fx="431.07858"
       fy="568.52234"
       r="205.11449"
       gradientTransform="matrix(1,0,0,2.4194368,0,-925.91209)"
       gradientUnits="userSpaceOnUse" />
    <radialGradient
       inkscape:collect="always"
       xlink:href="#linearGradient1410"
       id="radialGradient1312"
       cx="431.07858"
       cy="568.52234"
       fx="431.07858"
       fy="568.52234"
       r="205.11449"
       gradientTransform="matrix(1,0,0,2.4194368,0,-925.91209)"
       gradientUnits="userSpaceOnUse" />
    <inkscape:path-effect
       effect="envelope"
       id="path-effect4941-6"
       is_visible="true"
       yy="true"
       xx="false"
       bendpath1="M 49.853682,83.794422 H 362.86629"
       bendpath2="M 412.72,58.303315 V 354.41575"
       bendpath3="M 0,354.41575 H 412.72"
       bendpath4="M 0,58.303315 V 354.41575"
       bendpath1-nodetypes="cc" />
    <radialGradient
       inkscape:collect="always"
       xlink:href="#linearGradient1410"
       id="radialGradient1321"
       cx="431.07858"
       cy="568.52234"
       fx="431.07858"
       fy="568.52234"
       r="205.11449"
       gradientTransform="matrix(1,0,0,2.4194368,0,-925.91209)"
       gradientUnits="userSpaceOnUse" />
    <radialGradient
       inkscape:collect="always"
       xlink:href="#linearGradient1410"
       id="radialGradient1329"
       cx="431.07858"
       cy="568.52234"
       fx="431.07858"
       fy="568.52234"
       r="205.11449"
       gradientTransform="matrix(1,0,0,2.4194368,0,-925.91209)"
       gradientUnits="userSpaceOnUse" />
    <radialGradient
       inkscape:collect="always"
       xlink:href="#linearGradient1410"
       id="radialGradient1337"
       cx="431.07858"
       cy="568.52234"
       fx="431.07858"
       fy="568.52234"
       r="205.11449"
       gradientTransform="matrix(1,0,0,2.4194368,0,-925.91209)"
       gradientUnits="userSpaceOnUse" />
    <radialGradient
       inkscape:collect="always"
       xlink:href="#linearGradient1410"
       id="radialGradient1345"
       cx="431.07858"
       cy="568.52234"
       fx="431.07858"
       fy="568.52234"
       r="205.11449"
       gradientTransform="matrix(1,0,0,2.4194368,0,-925.91209)"
       gradientUnits="userSpaceOnUse" />
    <radialGradient
       inkscape:collect="always"
       xlink:href="#linearGradient1410"
       id="radialGradient1353"
       cx="431.07858"
       cy="568.52234"
       fx="431.07858"
       fy="568.52234"
       r="205.11449"
       gradientTransform="matrix(1,0,0,2.4194368,0,-925.91209)"
       gradientUnits="userSpaceOnUse" />
    <radialGradient
       inkscape:collect="always"
       xlink:href="#linearGradient1410"
       id="radialGradient1361"
       cx="431.07858"
       cy="568.52234"
       fx="431.07858"
       fy="568.52234"
       r="205.11449"
       gradientTransform="matrix(1,0,0,2.4194368,0,-925.91209)"
       gradientUnits="userSpaceOnUse" />
    <radialGradient
       inkscape:collect="always"
       xlink:href="#linearGradient1410"
       id="radialGradient1369"
       cx="431.07858"
       cy="568.52234"
       fx="431.07858"
       fy="568.52234"
       r="205.11449"
       gradientTransform="matrix(1,0,0,2.4194368,0,-925.91209)"
       gradientUnits="userSpaceOnUse" />
    <radialGradient
       inkscape:collect="always"
       xlink:href="#linearGradient1410"
       id="radialGradient1377"
       cx="431.07858"
       cy="568.52234"
       fx="431.07858"
       fy="568.52234"
       r="205.11449"
       gradientTransform="matrix(1,0,0,2.4194368,0,-925.91209)"
       gradientUnits="userSpaceOnUse" />
    <radialGradient
       inkscape:collect="always"
       xlink:href="#linearGradient1410"
       id="radialGradient1385"
       cx="431.07858"
       cy="568.52234"
       fx="431.07858"
       fy="568.52234"
       r="205.11449"
       gradientTransform="matrix(1,0,0,2.4194368,0,-925.91209)"
       gradientUnits="userSpaceOnUse" />
    <radialGradient
       inkscape:collect="always"
       xlink:href="#linearGradient1410"
       id="radialGradient1393"
       cx="431.07858"
       cy="568.52234"
       fx="431.07858"
       fy="568.52234"
       r="205.11449"
       gradientTransform="matrix(1,0,0,2.4194368,0,-925.91209)"
       gradientUnits="userSpaceOnUse" />
    <radialGradient
       inkscape:collect="always"
       xlink:href="#linearGradient1410"
       id="radialGradient1401"
       cx="431.07858"
       cy="568.52234"
       fx="431.07858"
       fy="568.52234"
       r="205.11449"
       gradientTransform="matrix(1,0,0,2.4194368,0,-925.91209)"
       gradientUnits="userSpaceOnUse" />
    <radialGradient
       inkscape:collect="always"
       xlink:href="#linearGradient1410"
       id="radialGradient1409"
       cx="431.07858"
       cy="568.52234"
       fx="431.07858"
       fy="568.52234"
       r="205.11449"
       gradientTransform="matrix(1,0,0,2.4194368,0,-925.91209)"
       gradientUnits="userSpaceOnUse" />
    <radialGradient
       inkscape:collect="always"
       xlink:href="#linearGradient1410"
       id="radialGradient1417"
       cx="431.07858"
       cy="568.52234"
       fx="431.07858"
       fy="568.52234"
       r="205.11449"
       gradientTransform="matrix(1,0,0,2.4194368,0,-925.91209)"
       gradientUnits="userSpaceOnUse" />
    <radialGradient
       inkscape:collect="always"
       xlink:href="#linearGradient1410"
       id="radialGradient1425"
       cx="431.07858"
       cy="568.52234"
       fx="431.07858"
       fy="568.52234"
       r="205.11449"
       gradientTransform="matrix(1,0,0,2.4194368,0,-925.91209)"
       gradientUnits="userSpaceOnUse" />
    <radialGradient
       inkscape:collect="always"
       xlink:href="#linearGradient1410"
       id="radialGradient1433"
       cx="431.07858"
       cy="568.52234"
       fx="431.07858"
       fy="568.52234"
       r="205.11449"
       gradientTransform="matrix(1,0,0,2.4194368,0,-925.91209)"
       gradientUnits="userSpaceOnUse" />
    <radialGradient
       r="205.11449"
       fy="568.52234"
       fx="431.07858"
       cy="568.52234"
       cx="431.07858"
       gradientTransform="matrix(1,0,0,2.4194368,0,-925.91209)"
       gradientUnits="userSpaceOnUse"
       id="radialGradient1460"
       xlink:href="#linearGradient1410"
       inkscape:collect="always" />
    <radialGradient
       r="205.11449"
       fy="568.52234"
       fx="431.07858"
       cy="568.52234"
       cx="431.07858"
       gradientTransform="matrix(1,0,0,2.4194368,0,-925.91209)"
       gradientUnits="userSpaceOnUse"
       id="radialGradient1462"
       xlink:href="#linearGradient1410"
       inkscape:collect="always" />
    <radialGradient
       r="205.11449"
       fy="568.52234"
       fx="431.07858"
       cy="568.52234"
       cx="431.07858"
       gradientTransform="matrix(1,0,0,2.4194368,0,-925.91209)"
       gradientUnits="userSpaceOnUse"
       id="radialGradient1464"
       xlink:href="#linearGradient1410"
       inkscape:collect="always" />
    <radialGradient
       r="205.11449"
       fy="568.52234"
       fx="431.07858"
       cy="568.52234"
       cx="431.07858"
       gradientTransform="matrix(1,0,0,2.4194368,0,-925.91209)"
       gradientUnits="userSpaceOnUse"
       id="radialGradient1466"
       xlink:href="#linearGradient1410"
       inkscape:collect="always" />
    <radialGradient
       r="205.11449"
       fy="568.52234"
       fx="431.07858"
       cy="568.52234"
       cx="431.07858"
       gradientTransform="matrix(1,0,0,2.4194368,0,-925.91209)"
       gradientUnits="userSpaceOnUse"
       id="radialGradient1468"
       xlink:href="#linearGradient1410"
       inkscape:collect="always" />
    <radialGradient
       r="205.11449"
       fy="568.52234"
       fx="431.07858"
       cy="568.52234"
       cx="431.07858"
       gradientTransform="matrix(1,0,0,2.4194368,0,-925.91209)"
       gradientUnits="userSpaceOnUse"
       id="radialGradient1470"
       xlink:href="#linearGradient1410"
       inkscape:collect="always" />
    <radialGradient
       r="205.11449"
       fy="568.52234"
       fx="431.07858"
       cy="568.52234"
       cx="431.07858"
       gradientTransform="matrix(1,0,0,2.4194368,0,-925.91209)"
       gradientUnits="userSpaceOnUse"
       id="radialGradient1472"
       xlink:href="#linearGradient1410"
       inkscape:collect="always" />
    <radialGradient
       r="205.11449"
       fy="568.52234"
       fx="431.07858"
       cy="568.52234"
       cx="431.07858"
       gradientTransform="matrix(1,0,0,2.4194368,0,-925.91209)"
       gradientUnits="userSpaceOnUse"
       id="radialGradient1474"
       xlink:href="#linearGradient1410"
       inkscape:collect="always" />
    <radialGradient
       r="205.11449"
       fy="568.52234"
       fx="431.07858"
       cy="568.52234"
       cx="431.07858"
       gradientTransform="matrix(1,0,0,2.4194368,0,-925.91209)"
       gradientUnits="userSpaceOnUse"
       id="radialGradient1476"
       xlink:href="#linearGradient1410"
       inkscape:collect="always" />
    <radialGradient
       r="205.11449"
       fy="568.52234"
       fx="431.07858"
       cy="568.52234"
       cx="431.07858"
       gradientTransform="matrix(1,0,0,2.4194368,0,-925.91209)"
       gradientUnits="userSpaceOnUse"
       id="radialGradient1478"
       xlink:href="#linearGradient1410"
       inkscape:collect="always" />
    <radialGradient
       r="205.11449"
       fy="568.52234"
       fx="431.07858"
       cy="568.52234"
       cx="431.07858"
       gradientTransform="matrix(1,0,0,2.4194368,0,-925.91209)"
       gradientUnits="userSpaceOnUse"
       id="radialGradient1480"
       xlink:href="#linearGradient1410"
       inkscape:collect="always" />
    <radialGradient
       r="205.11449"
       fy="568.52234"
       fx="431.07858"
       cy="568.52234"
       cx="431.07858"
       gradientTransform="matrix(1,0,0,2.4194368,0,-925.91209)"
       gradientUnits="userSpaceOnUse"
       id="radialGradient1482"
       xlink:href="#linearGradient1410"
       inkscape:collect="always" />
    <radialGradient
       r="205.11449"
       fy="568.52234"
       fx="431.07858"
       cy="568.52234"
       cx="431.07858"
       gradientTransform="matrix(1,0,0,2.4194368,0,-925.91209)"
       gradientUnits="userSpaceOnUse"
       id="radialGradient1484"
       xlink:href="#linearGradient1410"
       inkscape:collect="always" />
    <radialGradient
       r="205.11449"
       fy="568.52234"
       fx="431.07858"
       cy="568.52234"
       cx="431.07858"
       gradientTransform="matrix(1,0,0,2.4194368,0,-925.91209)"
       gradientUnits="userSpaceOnUse"
       id="radialGradient1486"
       xlink:href="#linearGradient1410"
       inkscape:collect="always" />
    <radialGradient
       r="205.11449"
       fy="568.52234"
       fx="431.07858"
       cy="568.52234"
       cx="431.07858"
       gradientTransform="matrix(1,0,0,2.4194368,0,-925.91209)"
       gradientUnits="userSpaceOnUse"
       id="radialGradient1488"
       xlink:href="#linearGradient1410"
       inkscape:collect="always" />
    <radialGradient
       r="205.11449"
       fy="568.52234"
       fx="431.07858"
       cy="568.52234"
       cx="431.07858"
       gradientTransform="matrix(1,0,0,2.4194368,0,-925.91209)"
       gradientUnits="userSpaceOnUse"
       id="radialGradient1490"
       xlink:href="#linearGradient1410"
       inkscape:collect="always" />
    <radialGradient
       r="205.11449"
       fy="568.52234"
       fx="431.07858"
       cy="568.52234"
       cx="431.07858"
       gradientTransform="matrix(1,0,0,2.4194368,0,-925.91209)"
       gradientUnits="userSpaceOnUse"
       id="radialGradient1492"
       xlink:href="#linearGradient1410"
       inkscape:collect="always" />
    <radialGradient
       r="205.11449"
       fy="568.52234"
       fx="431.07858"
       cy="568.52234"
       cx="431.07858"
       gradientTransform="matrix(1,0,0,2.4194368,0,-925.91209)"
       gradientUnits="userSpaceOnUse"
       id="radialGradient1494"
       xlink:href="#linearGradient1410"
       inkscape:collect="always" />
  </defs>
  <sodipodi:namedview
     id="base"
     pagecolor="#ffffff"
     bordercolor="#666666"
     borderopacity="1.0"
     inkscape:pageopacity="0.0"
     inkscape:pageshadow="2"
     inkscape:zoom="0.70710678"
     inkscape:cx="501.0532"
     inkscape:cy="435.82395"
     inkscape:document-units="px"
     inkscape:current-layer="layer2"
     showgrid="false"
     units="px"
     inkscape:showpageshadow="false"
     inkscape:window-width="1920"
     inkscape:window-height="1019"
     inkscape:window-x="0"
     inkscape:window-y="0"
     inkscape:window-maximized="1"
     inkscape:snap-page="true"
     inkscape:snap-global="true"
     inkscape:snap-center="true"
     inkscape:snap-nodes="false" />
  <metadata
     id="metadata5">
    <rdf:RDF>
      <cc:Work
         rdf:about="">
        <dc:format>image/svg+xml</dc:format>
        <dc:type
           rdf:resource="http://purl.org/dc/dcmitype/StillImage" />
        <dc:title />
      </cc:Work>
    </rdf:RDF>
  </metadata>
  <g
     inkscape:groupmode="layer"
     id="layer2"
     inkscape:label="main">
    <circle
       style="opacity:1;fill:none;fill-opacity:1;stroke:#000000;stroke-width:19.84375;stroke-linecap:square;stroke-linejoin:miter;stroke-miterlimit:4;stroke-dasharray:none;stroke-opacity:1;paint-order:stroke fill markers"
       id="path827"
       cx="132.29167"
       cy="132.29167"
       r="104.32143" />
    <path
       style="fill:#000000;fill-opacity:1;stroke:none;stroke-width:1.06918126;stroke-linecap:butt;stroke-linejoin:miter;stroke-opacity:1;stroke-miterlimit:4;stroke-dasharray:none;paint-order:normal"
       d="M 79.111321,61.770537 C 47.607755,175.93483 132.29141,222.46756 132.29141,222.46756 c 0,0 84.68421,-46.53273 53.18064,-160.697023 -35.45358,0 -70.90716,0 -106.360729,0 z"
       id="path831"
       inkscape:connector-curvature="0"
       sodipodi:nodetypes="cccc" />
    <path
       inkscape:connector-curvature="0"
       id="path932"
       d="M 132.29168,231.84024 A 99.548565,99.548565 0 0 1 32.743108,132.29165 99.548565,99.548565 0 0 1 132.29168,32.743108 99.548565,99.548565 0 0 1 231.84024,132.29166 99.548565,99.548565 0 0 1 132.29168,231.84024 Z"
       style="opacity:1;fill:#000000;fill-opacity:0;stroke:none;stroke-width:18.93586922;stroke-linecap:square;stroke-linejoin:miter;stroke-miterlimit:4;stroke-dasharray:none;stroke-opacity:0.57281554;paint-order:stroke fill markers" />
    <text
       xml:space="preserve"
       style="font-style:normal;font-weight:normal;font-size:10.58333302px;line-height:1.25;font-family:sans-serif;text-align:center;letter-spacing:0px;word-spacing:0px;text-anchor:middle;display:inline;fill:#ffffff;fill-opacity:1;stroke:none;stroke-width:0.26458332;"
       id="text948"
       inkscape:export-filename="./text948.png"
       inkscape:export-xdpi="287.99997"
       inkscape:export-ydpi="287.99997"><textPath
         xlink:href="#path932"
         startOffset="50%"
         id="textPath950"><tspan
   style="stroke-width:0.26458332;fill:#ffffff;fill-opacity:1;"
   id="tspan946"><tspan
     style="stroke-width:0.26458332;fill:#ffffff;fill-opacity:1;"
     id="tspan944"
     y="36.358429"
     x="286.974">BSMRMU LAW &amp; MOOT COURT SOCIETY</tspan></tspan></textPath></text>
    <path
       style="fill:#ffc748;fill-opacity:1;stroke-width:0.02887211"
       d="m 159.36113,112.84394 c -0.21377,-0.0597 -0.22114,-0.0746 -0.2519,-0.5112 -0.071,-1.00749 -0.0877,-1.15486 -0.15857,-1.39953 -0.04,-0.13817 -0.0668,-0.25725 -0.0594,-0.26463 0.007,-0.007 0.13543,0.0463 0.28457,0.11937 0.29042,0.14221 0.51241,0.30969 0.51241,0.38659 0,0.026 0.018,0.0998 0.0401,0.16377 0.0831,0.24134 0.22843,0.92977 0.26295,1.2456 l 0.0193,0.17637 -0.11502,0.046 c -0.16876,0.0676 -0.37511,0.0821 -0.53443,0.0377 z m -0.71732,-0.31865 c -0.43437,-0.15179 -0.79988,-0.44938 -0.86007,-0.70026 -0.0184,-0.0767 -0.0447,-0.47709 -0.0585,-0.88996 -0.0164,-0.48965 -0.0401,-0.81084 -0.0683,-0.92368 -0.0238,-0.0952 -0.038,-0.17807 -0.0318,-0.18429 0.0247,-0.0247 0.51623,0.2791 0.66527,0.41109 0.22044,0.19522 0.37078,0.5183 0.46213,0.99309 0.0385,0.20009 0.1151,1.32804 0.0918,1.35136 -0.006,0.006 -0.0954,-0.0206 -0.20045,-0.0573 z m 1.56494,-0.28376 c -0.0339,-0.24852 -0.14351,-0.7502 -0.18931,-0.86649 -0.0406,-0.10309 0.0719,-0.0163 0.20046,0.15471 0.16405,0.21823 0.20087,0.33323 0.18304,0.57151 -0.0131,0.17506 -0.0921,0.40733 -0.13841,0.40733 -0.0104,0 -0.0358,-0.12018 -0.0558,-0.26706 z m -2.96419,-0.5824 c -0.38755,-0.18188 -0.81748,-0.56119 -0.88419,-0.78005 -0.059,-0.19344 -0.0401,-0.62517 0.0449,-1.02672 0.0421,-0.19849 0.0852,-0.48758 0.096,-0.6424 0.0103,-0.15483 0.0246,-0.2815 0.0307,-0.2815 0.0516,0 0.44129,0.29663 0.55926,0.42572 0.16818,0.18402 0.17923,0.20726 0.27796,0.5848 0.0625,0.23917 0.0731,0.34964 0.082,0.863 0.006,0.32381 0.0191,0.67136 0.0299,0.77234 0.0103,0.10102 0.008,0.18313 -0.006,0.18257 -0.0138,-5.5e-4 -0.11775,-0.0446 -0.23111,-0.0978 z m -1.30772,-0.9911 c -0.21368,-0.0875 -0.49409,-0.32317 -0.69564,-0.5847 l -0.1224,-0.15879 0.0164,-0.31759 c 0.0119,-0.23193 0.0476,-0.4422 0.13197,-0.77955 0.0635,-0.25408 0.12951,-0.565 0.14661,-0.69097 0.0171,-0.12595 0.0344,-0.23226 0.0384,-0.23625 0.005,-0.005 0.12964,0.0925 0.27924,0.21458 0.17469,0.14246 0.31793,0.28896 0.4004,0.40948 l 0.12843,0.18767 -0.0167,0.3609 c -0.0103,0.21559 -0.0478,0.51203 -0.0941,0.73625 -0.0426,0.20643 -0.0856,0.49328 -0.0955,0.63743 l -0.018,0.26211 z m 3.85246,-0.73869 c -0.0477,-0.0219 -0.13859,-0.097 -0.2021,-0.16669 -0.33278,-0.36548 -0.75543,-0.75909 -1.02688,-0.95633 -0.84133,-0.61133 -2.13063,-1.24226 -3.8092,-1.86407 -0.0238,-0.009 0.0167,0.0487 0.09,0.12801 0.0733,0.0792 0.18247,0.21811 0.24257,0.30864 l 0.1093,0.16459 -0.0187,0.30992 c -0.0184,0.30494 -0.0685,0.57756 -0.18914,1.02987 -0.0336,0.12601 -0.0762,0.34688 -0.0947,0.49082 -0.0184,0.14395 -0.0377,0.26694 -0.0428,0.27332 -0.0175,0.0223 -0.31435,-0.19307 -0.45865,-0.33273 -0.2577,-0.24941 -0.56194,-0.70999 -0.56179,-0.85053 2.2e-4,-0.16318 0.16017,-0.64515 0.34382,-1.03568 0.18049,-0.3838 0.27427,-0.6117 0.25534,-0.62045 -0.005,-0.002 -0.056,-0.0255 -0.11546,-0.0525 l -0.10815,-0.0491 -0.0434,0.10401 c -0.0239,0.0572 -0.0435,0.10895 -0.0435,0.1151 0,0.006 -0.0837,0.19027 -0.18602,0.40929 -0.18448,0.39488 -0.24162,0.54127 -0.30374,0.77811 l -0.0322,0.12284 -0.15043,-0.17765 c -0.3088,-0.36466 -0.348,-0.41975 -0.45931,-0.64545 -0.13765,-0.27915 -0.13558,-0.35978 0.0206,-0.80258 0.0571,-0.16201 0.11045,-0.31452 0.11844,-0.33891 0.0103,-0.0299 -0.0202,-0.0609 -0.0918,-0.095 -0.0585,-0.0279 -0.10953,-0.047 -0.11332,-0.0423 -0.0352,0.0429 -0.13632,0.30107 -0.23347,0.59632 -0.007,0.0223 -0.0773,-0.0588 -0.16176,-0.18767 -0.15338,-0.23391 -0.28192,-0.54304 -0.28299,-0.68057 -6e-4,-0.0982 0.0103,-0.0895 -0.49145,-0.38754 -2.00134,-1.18913 -3.55432,-2.68718 -4.57542,-4.41358 -0.49467,-0.83634 -0.881,-1.737605 -1.18622,-2.767296 -0.11886,-0.400983 -0.30947,-0.561001 -0.8645,-0.725767 -0.64333,-0.190981 -0.72716,-0.21907 -0.81423,-0.272846 -0.20427,-0.126148 -0.2521,-0.420234 -0.15763,-0.96911 0.22046,-1.28082 0.92249,-2.717407 1.36888,-2.801153 0.34597,-0.0649 1.1108,0.423379 1.85167,1.182145 0.55883,0.57233 0.91281,1.104231 0.91281,1.371641 0,0.137102 -0.077,0.251987 -0.43308,0.646373 -0.52837,0.58516 -0.57976,0.75604 -0.375,1.246703 0.16807,0.402742 0.37024,0.775866 0.65112,1.20172 0.80729,1.22395 2.02841,2.33858 3.3124,3.02354 0.1237,0.066 0.2293,0.11999 0.23467,0.11999 0.006,0 0.0165,-0.11367 0.0248,-0.25263 0.008,-0.13895 0.0295,-0.29969 0.0472,-0.35719 0.0302,-0.0984 0.0461,-0.10929 0.26995,-0.18455 0.45647,-0.15353 1.01452,-0.12816 1.33689,0.0608 0.12361,0.0724 0.12805,0.0799 0.12805,0.2153 0,0.21163 -0.0448,0.28722 -0.17065,0.28783 -0.17378,0.001 -0.49268,0.0803 -0.68688,0.1712 -0.20818,0.0975 -0.44633,0.25942 -0.42712,0.29052 0.007,0.0115 0.0698,0.0367 0.1393,0.0561 0.11987,0.0336 0.13482,0.0307 0.28436,-0.0537 0.16291,-0.0919 0.54597,-0.20482 0.69507,-0.20482 h 0.0847 l -0.0103,0.28704 -0.0103,0.28705 0.17323,0.0295 c 0.65276,0.11114 1.72028,0.13469 2.25203,0.0498 0.82092,-0.13107 1.32597,-0.36417 1.72342,-0.79541 0.30777,-0.33393 0.47718,-0.67145 0.61242,-1.22014 0.10826,-0.43925 0.15524,-0.90249 0.17513,-1.727109 0.0856,-3.550394 0.10137,-4.211326 0.1016,-4.283714 l 3.3e-4,-0.08282 -0.0992,0.0756 c -0.0545,0.0416 -0.10378,0.0756 -0.10953,0.0756 -0.0248,0 -0.0223,-1.818295 0.003,-1.947981 0.0261,-0.135315 0.0509,-0.169963 0.19712,-0.275167 0.067,-0.04824 0.0498,0.447234 0.1674,-4.807205 0.0228,-1.016303 0.0477,-2.017447 0.0554,-2.224766 l 0.014,-0.376956 -0.18829,-0.03226 c -0.22875,-0.03919 -0.47728,-0.179964 -0.59054,-0.334511 -0.0444,-0.06058 -0.0848,-0.120414 -0.0898,-0.132965 -0.0103,-0.02603 -0.73216,-0.08444 -2.53177,-0.204804 l -1.2524,-0.08377 -0.16646,0.169052 c -0.56297,0.571779 -1.51104,0.511624 -1.99278,-0.126425 -0.32397,-0.429088 -0.35305,-1.024411 -0.0733,-1.501656 0.085,-0.145104 0.35513,-0.400081 0.50423,-0.476029 0.3941,-0.200711 0.89799,-0.193331 1.27378,0.01869 0.0715,0.04031 0.20387,0.145221 0.29424,0.233132 l 0.16429,0.159839 0.58638,-0.03455 c 0.74055,-0.04359 2.47334,-0.16692 2.91057,-0.207121 0.24936,-0.02292 0.33922,-0.04201 0.36091,-0.07674 0.1373,-0.219807 0.43482,-0.406575 0.68956,-0.432868 l 0.15362,-0.01586 0.0186,-0.364516 c 0.0103,-0.200488 0.0186,-0.510725 0.0187,-0.689408 l 1.1e-4,-0.324891 -0.11951,-0.107966 c -0.12226,-0.11046 -0.20337,-0.260953 -0.23738,-0.440447 -0.0168,-0.0888 -0.0403,-0.111207 -0.19354,-0.184787 -0.35554,-0.170711 -0.69919,-0.423743 -1.03906,-0.765051 -0.79641,-0.799791 -1.18228,-1.729224 -1.18653,-2.857997 -0.005,-1.060517 0.38222,-2.032462 1.1103,-2.79404 0.76762,-0.802963 1.78178,-1.246949 2.86531,-1.254412 1.19145,-0.0082 2.204,0.413541 3.00296,1.250801 0.30434,0.318946 0.51045,0.609003 0.69214,0.974072 0.54088,1.086808 0.57649,2.349866 0.0973,3.451569 -0.0507,0.116546 -0.0476,0.114218 -0.0984,0.07205 -0.0731,-0.06068 -0.62864,-0.01773 -1.11066,0.08587 -0.22983,0.0494 -0.57737,0.105093 -0.77231,0.123767 -0.19496,0.01868 -0.35446,0.04197 -0.35446,0.05178 0,0.0098 0.0683,0.0643 0.15158,0.121091 l 0.15157,0.103254 0.28873,-0.0389 c 0.1588,-0.02139 0.44462,-0.07375 0.63519,-0.116332 0.26293,-0.05876 0.45436,-0.08089 0.79398,-0.09178 l 0.44752,-0.01434 0.17997,0.132864 c 0.099,0.07307 0.22079,0.188269 0.27068,0.255985 0.10965,0.148802 0.27774,0.492606 0.30274,0.619182 l 0.0182,0.09184 -0.21253,-0.01586 c -0.14689,-0.01103 -0.34181,0.0041 -0.63118,0.04877 -0.41155,0.06355 -0.85277,0.06794 -1.11157,0.01103 -0.0477,-0.01046 -0.0771,-0.0089 -0.0655,0.0036 0.0429,0.04601 -0.69032,0.542024 -0.89241,0.603742 -0.047,0.01439 -0.0706,0.05541 -0.0938,0.163723 -0.017,0.07949 -0.0495,0.179612 -0.0723,0.222486 -0.0529,0.09997 -0.2062,0.265624 -0.24584,0.265624 -0.0352,0 -0.0404,0.478239 -0.0116,1.043988 l 0.0186,0.365486 0.12511,0.01874 c 0.1961,0.02938 0.51619,0.204023 0.63538,0.346618 0.0968,0.115832 0.11692,0.126061 0.2811,0.142965 0.35881,0.03696 1.64638,0.130222 1.6566,0.119998 0.006,-0.0059 -0.009,-0.08017 -0.0321,-0.165245 -0.0652,-0.236594 -0.0893,-0.526995 -0.0421,-0.507623 0.31657,0.129845 0.6142,0.231969 0.86081,0.295366 0.362,0.09306 0.67277,0.237721 0.8376,0.389899 0.0998,0.09205 0.14392,0.112437 0.25675,0.118429 0.12874,0.0068 0.14313,-1.76e-4 0.25943,-0.126332 0.25449,-0.276105 0.59502,-0.425474 0.96995,-0.425474 1.09407,0 1.71475,1.250697 1.05461,2.125051 -0.48293,0.639641 -1.42854,0.697416 -1.99519,0.121895 l -0.16976,-0.172408 -0.15918,0.01992 -0.15918,0.01992 v 0.175105 0.175104 l -0.10826,-0.127254 c -0.18706,-0.219877 -0.18032,-0.216039 -0.3615,-0.205246 l -0.16662,0.0099 0.1569,0.169475 c 0.0863,0.09322 0.21792,0.248761 0.29248,0.345662 l 0.13557,0.176179 -0.002,0.23885 c -0.002,0.254748 -0.0336,0.435735 -0.10826,0.622402 l -0.0463,0.11565 -0.24969,-0.254678 c -0.16312,-0.16638 -0.36481,-0.33062 -0.58179,-0.47375 -0.18266,-0.120491 -0.4078,-0.294756 -0.50032,-0.387256 l -0.16822,-0.168176 0.0118,-0.151579 c 0.0103,-0.13803 0.007,-0.151614 -0.0483,-0.151978 -0.0331,-2.17e-4 -0.43041,0.02785 -0.88297,0.06241 -0.76418,0.05835 -0.82584,0.06712 -0.86465,0.123111 -0.12807,0.184741 -0.43186,0.372731 -0.66171,0.409488 -0.0613,0.0098 -0.12345,0.02621 -0.13817,0.03643 -0.0164,0.01138 -0.0134,0.593612 0.008,1.505511 0.019,0.817801 0.044,1.928495 0.056,2.468205 0.0162,0.735271 0.0295,0.967953 0.0533,0.928086 0.15061,-0.252047 0.53298,-0.653443 0.62247,-0.653443 0.0124,0 0.0249,0.119827 0.0278,0.266281 0.005,0.237627 0.0562,0.562361 0.14971,0.94635 0.0509,0.208795 0.0642,0.603629 0.0282,0.834776 -0.0262,0.167854 -0.0552,0.24372 -0.1344,0.351708 -0.13576,0.184927 -0.37636,0.401191 -0.54372,0.488696 l -0.1369,0.07158 0.0162,0.346467 c 0.009,0.190558 0.0232,0.690764 0.0318,1.111575 0.009,0.420808 0.0344,1.564147 0.0572,2.540751 0.0229,0.976593 0.0492,2.139419 0.0586,2.584053 0.0361,1.715323 0.25139,2.484803 0.86598,3.094493 0.2059,0.20427 0.28239,0.25771 0.56616,0.39565 0.57062,0.27736 1.07671,0.37139 2.00269,0.37213 0.96791,6e-4 1.65572,-0.11424 2.46549,-0.4122 2.05846,-0.75746 3.97695,-2.52913 4.86989,-4.497267 0.2976,-0.655935 0.25579,-0.820482 -0.3834,-1.508862 -0.44053,-0.474435 -0.45366,-0.582344 -0.13153,-1.080593 0.18087,-0.27977 0.34258,-0.475233 0.66677,-0.805995 0.83945,-0.856488 1.55829,-1.310837 1.90812,-1.206028 0.14236,0.04266 0.38771,0.300789 0.5491,0.577733 0.48393,0.830387 0.88623,2.18918 0.82915,2.800476 -0.0195,0.208737 -0.0668,0.298614 -0.20075,0.38133 -0.086,0.0531 -0.17785,0.0839 -0.8285,0.277719 -0.30101,0.08965 -0.48719,0.181901 -0.63286,0.313486 -0.12931,0.116839 -0.13277,0.12462 -0.30569,0.686748 -0.185,0.601434 -0.40787,1.184112 -0.44431,1.16162 -0.009,-0.0057 -0.0193,0.02057 -0.0216,0.05896 -0.003,0.057 -0.25919,0.592193 -0.46772,0.978603 -0.11944,0.22131 -0.2147,0.3593 -0.23806,0.34485 -0.0141,-0.009 -0.0184,0.003 -0.009,0.0262 0.0145,0.0378 -0.26029,0.49628 -0.35446,0.59122 -0.0209,0.021 -0.053,0.0665 -0.0711,0.10103 -0.17427,0.33008 -1.08781,1.3581 -1.66996,1.87925 -1.54278,1.38108 -3.28445,2.40602 -5.64449,3.32169 -1.78242,0.69156 -2.76643,1.18468 -3.61484,1.81151 -0.30675,0.22663 -0.73548,0.62601 -0.89112,0.83009 -0.16143,0.21168 -0.25073,0.26641 -0.45656,0.2798 -0.11217,0.007 -0.20833,-0.003 -0.26333,-0.0284 z m 0.80537,-1.34339 c 0.45674,-0.59357 1.47948,-1.22563 2.54879,-1.57514 0.17102,-0.0559 0.22393,-0.10551 0.19839,-0.18596 -0.029,-0.0914 -0.0862,-0.0925 -0.33925,-0.007 -0.96445,0.3272 -1.82397,0.82253 -2.34041,1.34874 -0.17672,0.18008 -0.36718,0.42776 -0.36751,0.47794 -2.1e-4,0.0345 0.0893,0.11034 0.13017,0.11034 0.0217,0 0.0982,-0.0762 0.16982,-0.16926 z m -1.94572,-0.84145 c 0.0252,-0.047 0.0186,-0.0703 -0.0351,-0.12386 -0.16756,-0.16716 -1.1963,-0.6145 -2.07738,-0.90332 -0.35774,-0.11729 -0.43043,-0.13288 -0.46917,-0.10079 -0.0549,0.0456 -0.0597,0.1284 -0.009,0.168 0.0199,0.0157 0.26995,0.10758 0.55578,0.20397 0.64318,0.21702 1.20969,0.45002 1.58797,0.65312 0.31827,0.17088 0.40103,0.18989 0.44763,0.10286 z m -2.13664,-3.56561 c 0.73681,-0.12283 1.43295,-0.47183 1.9157,-0.96041 0.28164,-0.28503 0.45165,-0.52333 0.61244,-0.85843 0.21212,-0.44207 0.23727,-0.63416 0.0806,-0.61547 -0.0672,0.008 -0.0895,0.041 -0.18093,0.269 -0.18934,0.47218 -0.39339,0.78014 -0.72816,1.09901 -0.44241,0.42138 -0.98403,0.68758 -1.68366,0.8275 -0.28169,0.0563 -0.41057,0.0638 -1.09867,0.0641 -0.78649,3.3e-4 -1.04798,-0.0196 -1.73233,-0.13232 -1.64959,-0.27148 -3.22081,-1.04271 -4.37412,-2.14706 -0.68419,-0.65514 -1.21787,-1.32929 -1.68847,-2.132882 -0.20211,-0.345115 -0.49217,-0.950388 -0.62223,-1.298388 -0.0968,-0.258939 -0.14272,-0.311371 -0.22676,-0.258721 -0.0807,0.05057 -0.068,0.137389 0.0709,0.489399 0.38828,0.98342 1.03089,2.007632 1.77054,2.821952 0.11275,0.12414 0.19654,0.23939 0.18619,0.25613 -0.0103,0.0168 -0.006,0.0225 0.009,0.013 0.0376,-0.0232 0.36398,0.30783 0.33501,0.33967 -0.0123,0.0136 -0.008,0.0163 0.0103,0.006 0.0178,-0.0104 0.16869,0.0949 0.33535,0.23357 1.49855,1.24639 3.11433,1.86907 5.29124,2.03908 0.32618,0.0255 1.45166,-0.0103 1.71789,-0.0548 z m 8.73382,0.0432 c 1.11585,-0.079 1.99348,-0.27472 2.93052,-0.65386 1.02147,-0.41331 1.96143,-1.03043 2.776,-1.82256 0.10573,-0.10287 0.20607,-0.17792 0.22342,-0.1672 0.0186,0.0115 0.0254,0.003 0.0165,-0.0195 -0.008,-0.0215 0.0545,-0.11629 0.13933,-0.21082 0.70403,-0.78428 1.3835,-1.862517 1.75408,-2.783483 0.0668,-0.166018 0.12798,-0.350506 0.13595,-0.409971 0.0132,-0.0985 0.008,-0.109874 -0.0634,-0.127677 -0.0429,-0.01034 -0.0886,-0.008 -0.10183,0.0057 -0.0131,0.01391 -0.0821,0.175143 -0.15325,0.358263 -0.36118,0.929551 -0.99992,1.968158 -1.66853,2.713058 -1.51595,1.68892 -3.31156,2.60024 -5.64241,2.86372 -0.49304,0.0557 -1.78315,0.0457 -2.12209,-0.0164 -0.5144,-0.0944 -1.01864,-0.29982 -1.41075,-0.57485 -0.19203,-0.13467 -0.27624,-0.14671 -0.3088,-0.0441 -0.0238,0.0749 0.0436,0.14781 0.27594,0.29867 0.80677,0.52382 1.74163,0.69544 3.21924,0.59098 z m -5.88292,-3.41393 c 0.018,-0.0229 0.0355,-1.113531 0.0477,-2.970955 0.0173,-2.667275 0.0149,-2.939086 -0.027,-2.981044 -0.0568,-0.05676 -0.084,-0.05788 -0.13627,-0.0059 -0.0334,0.03349 -0.0439,0.330461 -0.0598,1.693769 -0.0307,2.649047 -0.025,4.22474 0.0154,4.26524 0.0451,0.0451 0.1239,0.0444 0.16002,-0.001 z m -12.32682,-3.893656 c 0.0795,-0.145066 0.26979,-0.37956 0.41731,-0.514202 0.12246,-0.111828 0.13714,-0.13832 0.13714,-0.247918 0,-0.210347 -0.13187,-0.461782 -0.4463,-0.850965 -0.35929,-0.444723 -0.82086,-0.888395 -1.15489,-1.110111 -0.16732,-0.111058 -0.24829,-0.127392 -0.30323,-0.0612 -0.0359,0.04331 -0.0161,0.160186 0.0271,0.160186 0.0588,0 0.5209,0.37417 0.77785,0.629947 0.48171,0.479502 0.86842,1.005201 0.86842,1.180528 0,0.02873 -0.0785,0.135941 -0.17444,0.238333 -0.29602,0.315969 -0.41741,0.534924 -0.34496,0.622237 0.0585,0.07045 0.1427,0.05034 0.19593,-0.04689 z m 25.94687,-1.12613 c 0.42105,-0.608621 0.83297,-1.064485 1.22326,-1.353723 0.0964,-0.07146 0.17583,-0.151732 0.17647,-0.178389 0.001,-0.05018 -0.0715,-0.139204 -0.11355,-0.139204 -0.10493,0 -0.80343,0.649182 -1.10292,1.024962 -0.25998,0.326191 -0.57246,0.798443 -0.57246,0.865114 0,0.07516 0.0556,0.135619 0.11424,0.12431 0.0238,-0.0046 0.14752,-0.158962 0.27489,-0.34307 z m -13.41857,-1.717337 0.0777,-0.06193 0.0206,-0.732792 c 0.0206,-0.732934 0.0574,-1.044377 0.15713,-1.333451 0.0263,-0.07629 0.0428,-0.143881 0.0364,-0.150197 -0.007,-0.0063 -0.0855,0.04718 -0.17587,0.118904 -0.12087,0.09589 -0.17183,0.158565 -0.19253,0.236817 -0.0654,0.246934 -0.0882,0.513968 -0.0893,1.044758 -5.9e-4,0.359956 -0.0163,0.646309 -0.043,0.793987 -0.023,0.127034 -0.0421,0.234956 -0.0423,0.239821 -0.001,0.01505 0.16936,-0.09067 0.25121,-0.155923 z m 1.52752,-1.129701 c 0.0875,-0.07311 0.10264,-0.294856 0.063,-0.920161 -0.0291,-0.458996 -0.0269,-0.572818 0.018,-0.938345 0.0282,-0.22879 0.057,-0.425728 0.0643,-0.437638 0.0367,-0.06036 -0.0366,-0.0059 -0.17395,0.129921 -0.15139,0.149422 -0.15388,0.15467 -0.17467,0.368124 -0.0116,0.119092 -0.0171,0.359458 -0.0124,0.534134 0.005,0.174675 0.009,0.566272 0.009,0.870216 l 5.4e-4,0.552631 0.0722,-0.05376 c 0.0398,-0.02955 0.0998,-0.07687 0.1336,-0.105105 z m -1.62446,-4.19108 c 0.0197,-2.236471 0.0174,-2.842579 -0.0103,-2.876506 -0.0483,-0.05817 -0.13608,-0.05429 -0.16884,0.0075 -0.0155,0.02926 -0.0357,1.24313 -0.0482,2.883644 -0.0207,2.755541 -0.0199,2.833969 0.033,2.863893 0.04,0.02262 0.0696,0.02075 0.11206,-0.0071 0.0568,-0.03731 0.0582,-0.08382 0.0826,-2.871437 z m -7.35129,-4.716779 c 0.0157,-0.01986 0.0352,-0.121125 0.0431,-0.225065 0.008,-0.103932 0.0359,-0.230576 0.0622,-0.281429 0.0603,-0.116601 0.20416,-0.252757 0.33512,-0.317177 0.11205,-0.05511 0.14464,-0.148376 0.0726,-0.208125 -0.12017,-0.09974 -0.50374,0.174846 -0.62398,0.446675 -0.0632,0.142806 -0.10758,0.488697 -0.074,0.576167 0.0207,0.05388 0.14463,0.05987 0.18504,0.009 z m 14.23364,0.0036 c 0.0204,-0.02033 0.0267,-0.08485 0.0167,-0.169459 -0.0207,-0.174869 0.0526,-0.402501 0.1744,-0.541172 0.10033,-0.114287 0.33726,-0.237485 0.45754,-0.237921 0.0861,-3.17e-4 0.13851,-0.06642 0.11724,-0.147783 -0.0455,-0.17407 -0.48523,-0.04184 -0.72469,0.217974 -0.16963,0.184017 -0.24078,0.35998 -0.24591,0.608025 -0.002,0.111149 0.006,0.22484 0.0165,0.252632 0.0233,0.05688 0.13823,0.06767 0.18819,0.01769 z m -7.97467,-0.112943 c 0.0103,-0.01663 0.0237,-0.129174 0.0298,-0.250065 0.006,-0.12089 0.0322,-0.283157 0.0579,-0.360597 0.0821,-0.247193 0.0293,-0.237657 1.40838,-0.254102 1.11253,-0.01328 1.21343,-0.0185 1.24268,-0.06496 0.0232,-0.03683 0.0232,-0.06421 -6e-5,-0.101058 -0.0297,-0.04683 -0.12229,-0.05054 -1.27022,-0.05054 -1.11949,0 -1.24708,0.0047 -1.3296,0.04994 -0.20264,0.110874 -0.32818,0.39403 -0.33562,0.756995 -0.002,0.127854 0.006,0.248697 0.0178,0.268544 0.0275,0.04378 0.1529,0.04788 0.1789,0.0059 z m 7.45681,-0.293098 c 0.046,-0.04601 0.0439,-0.123787 -0.005,-0.163887 -0.0536,-0.04448 -3.24868,-0.264391 -3.31911,-0.228456 -0.0349,0.0178 -0.0493,0.05205 -0.0433,0.103358 0.0121,0.102966 0.0137,0.103196 1.39482,0.194211 0.63519,0.04184 1.27831,0.08628 1.42917,0.09872 0.41717,0.03438 0.50508,0.03379 0.54279,-0.0041 z m -10.44594,-0.03678 c 0.43669,-0.02303 1.07982,-0.05664 1.42917,-0.07469 0.34935,-0.01803 0.65793,-0.04501 0.68571,-0.05986 0.0278,-0.01486 0.0506,-0.051 0.0506,-0.08022 0,-0.127071 -0.007,-0.127277 -1.57971,-0.04795 -0.82234,0.04148 -1.52353,0.08167 -1.55821,0.08936 -0.0762,0.01686 -0.11378,0.116178 -0.0657,0.174005 0.0425,0.05129 0.0544,0.05124 1.03825,-5.88e-4 z m 3.64945,-3.342706 c 0.023,-0.03572 0.12926,-0.284379 0.23621,-0.552547 0.14678,-0.368058 0.18729,-0.498996 0.16527,-0.534135 -0.038,-0.06075 -0.13508,-0.07429 -0.17631,-0.02462 -0.0178,0.02154 -0.12424,0.269279 -0.23636,0.550546 -0.1652,0.414364 -0.19809,0.522235 -0.1733,0.568552 0.0408,0.07635 0.13289,0.07245 0.18449,-0.0078 z m -0.4034,-0.990936 c 0.0249,-0.02495 0.0454,-0.05495 0.0454,-0.06666 0,-0.04428 -0.0778,-0.114459 -0.24541,-0.221321 -0.0953,-0.06075 -0.29667,-0.234779 -0.44753,-0.386727 -0.40204,-0.40496 -0.62059,-0.80387 -0.75203,-1.372642 -0.0554,-0.239912 -0.0616,-0.329795 -0.0485,-0.714901 0.0202,-0.600999 0.12867,-0.95885 0.43281,-1.429004 0.28083,-0.43414 0.68241,-0.786463 1.16176,-1.01928 0.36734,-0.178413 0.69204,-0.261267 1.09714,-0.279947 0.37885,-0.01747 0.65233,0.0197 1.03261,0.140319 0.22774,0.07225 0.29017,0.08259 0.32481,0.05385 0.0537,-0.04458 0.0553,-0.126633 0.003,-0.169803 -0.0711,-0.05905 -0.46003,-0.177186 -0.72551,-0.220398 -1.4474,-0.23559 -2.84806,0.567727 -3.37424,1.935211 -0.13741,0.357119 -0.19155,0.671008 -0.191,1.107549 0.001,1.039596 0.47879,1.939728 1.34467,2.534814 0.24392,0.167633 0.27366,0.177114 0.34183,0.108955 z m 1.81894,-0.259848 c 0.0249,-0.02495 0.0454,-0.06234 0.0454,-0.08308 0,-0.08486 -0.0805,-0.104541 -0.39395,-0.09631 -0.30778,0.008 -0.3136,0.0095 -0.32337,0.07878 -0.0162,0.114345 0.0618,0.145978 0.35987,0.145978 0.20397,0 0.27739,-0.01069 0.31207,-0.04537 z m -1.09957,-0.539758 c 0.10677,-0.05678 0.1719,-0.06494 0.58977,-0.07388 0.57007,-0.01218 0.73566,0.0253 0.88206,0.199685 l 0.0914,0.108771 0.16624,-0.0886 c 0.0914,-0.04873 0.16623,-0.09759 0.16623,-0.108575 0,-0.01103 -0.0341,-0.03819 -0.0756,-0.06047 -0.18647,-0.0998 -0.3842,-0.430928 -0.353,-0.591122 0.0249,-0.127992 0.85961,-0.324346 1.48915,-0.350314 l 0.43974,-0.01814 -0.19875,-0.140031 -0.19876,-0.14003 -0.3276,8.6e-5 c -0.30487,8.7e-5 -0.68418,0.04751 -0.91758,0.114724 -0.0545,0.01571 -0.10516,0.02254 -0.11252,0.01519 -0.0283,-0.0283 0.14529,-0.248541 0.25104,-0.318521 0.22498,-0.148894 0.50635,-0.140615 0.83125,0.02446 0.18358,0.09328 0.18306,0.09411 0.20433,-0.328103 0.0654,-1.297967 -0.97459,-2.395056 -2.27042,-2.395056 -0.79328,0 -1.55998,0.437084 -1.96371,1.1195 -0.6615,1.118094 -0.25641,2.550845 0.90025,3.184037 l 0.15123,0.0828 0.0677,-0.0863 c 0.0372,-0.04747 0.12168,-0.115025 0.18767,-0.150132 z m 3.71345,-1.809171 c 0.0434,-0.0812 -0.0146,-0.585396 -0.10218,-0.887744 -0.14709,-0.507571 -0.39726,-0.937765 -0.76089,-1.308463 -0.27614,-0.281498 -0.35286,-0.332854 -0.43309,-0.289916 -0.0715,0.03826 -0.0798,0.160164 -0.0133,0.197308 0.0254,0.01425 0.13721,0.115587 0.24834,0.225194 0.49278,0.486023 0.75625,1.045183 0.83363,1.769267 0.018,0.168687 0.0386,0.316449 0.0459,0.328359 0.0264,0.04389 0.15271,0.02026 0.18176,-0.03401 z m -9.69991,24.647863 c -0.34035,-0.15638 -0.83431,-0.18362 -1.27466,-0.0702 l -0.24968,0.0643 -0.0144,-0.10723 c -0.0333,-0.24883 0.0632,-0.74342 0.19647,-1.00648 0.11379,-0.224567 0.12673,-0.227647 0.39802,-0.0947 0.13029,0.0638 0.40013,0.17013 0.59967,0.23623 0.42971,0.14234 0.69104,0.29135 0.69104,0.39403 0,0.17287 -0.14748,0.65323 -0.19844,0.64638 -0.0103,-0.001 -0.0765,-0.0293 -0.14803,-0.0622 z m 0.24541,-1.01929 c -0.0953,-0.0541 -0.31905,-0.14521 -0.49728,-0.20235 -0.33507,-0.107458 -0.84528,-0.338481 -0.84528,-0.382798 0,-0.15156 0.27528,-0.920161 0.35985,-1.004728 0.0244,-0.02436 0.0444,-0.06781 0.0444,-0.09654 0,-0.06195 0.0676,-0.12547 0.10114,-0.09505 0.013,0.01172 0.0141,0.0046 0.002,-0.01517 -0.0213,-0.03701 0.0492,-0.172075 0.15106,-0.289488 0.0655,-0.07551 0.08,-0.07827 0.10275,-0.01885 0.0116,0.03023 0.006,0.03804 -0.0186,0.02391 -0.0197,-0.01149 -0.0117,0.0069 0.0176,0.04 0.0313,0.03574 0.0443,0.07654 0.0314,0.09884 -0.0121,0.0208 -0.0115,0.02839 0.001,0.01678 0.0128,-0.01161 0.0742,0.06597 0.13646,0.172466 0.0622,0.106426 0.23395,0.318106 0.38164,0.470298 0.44562,0.459242 0.51258,0.612962 0.41709,0.957549 -0.052,0.187531 -0.16481,0.429181 -0.1986,0.425301 -0.008,-5.9e-4 -0.0924,-0.046 -0.18766,-0.10011 z m 0.52593,-1.033069 c -0.043,-0.06632 -0.19982,-0.246734 -0.34861,-0.400811 -0.2973,-0.307866 -0.48458,-0.617042 -0.54171,-0.894233 -0.0436,-0.211611 -0.0407,-0.233838 0.06,-0.448966 0.11854,-0.253309 0.29659,-0.496813 0.55371,-0.757258 l 0.21246,-0.215186 0.0323,0.258503 c 0.0399,0.318704 0.0744,0.433141 0.29637,0.983075 0.0968,0.239723 0.19803,0.52004 0.22501,0.622949 0.0486,0.185223 0.0484,0.188752 -0.019,0.354689 -0.0655,0.161478 -0.31418,0.569449 -0.36693,0.602044 -0.0141,0.0092 -0.0608,-0.03839 -0.10367,-0.104818 z m 0.71381,-1.020887 c -0.009,-0.02896 -0.10723,-0.284891 -0.21873,-0.568851 -0.23132,-0.588999 -0.29692,-0.876339 -0.27883,-1.221465 0.0137,-0.260537 0.0525,-0.337955 0.35984,-0.716366 0.12458,-0.153421 0.62058,-0.563007 0.68178,-0.563007 0.0128,0 0.014,0.04871 0.003,0.108265 -0.0115,0.05955 -0.0209,0.257693 -0.0215,0.440296 -6e-4,0.267398 0.0172,0.416349 0.0922,0.765119 0.12845,0.597963 0.14631,0.861098 0.0687,1.013106 -0.0983,0.192739 -0.39116,0.567645 -0.53518,0.685162 -0.11892,0.097 -0.13709,0.104012 -0.15112,0.05781 z m 0.98553,-1.227349 c -0.17018,-0.793944 -0.22306,-1.148127 -0.2061,-1.380392 0.0282,-0.385712 0.0777,-0.699716 0.12516,-0.793138 0.10918,-0.214842 0.4946,-0.546102 0.83672,-0.719133 0.17385,-0.08792 0.16922,-0.09852 0.10574,0.241905 -0.0252,0.135179 -0.0522,0.478856 -0.0601,0.765114 -0.0121,0.440569 -0.006,0.563649 0.0428,0.808418 l 0.057,0.288718 -0.0716,0.122505 c -0.14303,0.244493 -0.38929,0.47701 -0.70783,0.66829 l -0.10723,0.06436 z m 1.08441,-1.220603 c -0.0782,-0.525776 -0.006,-1.413756 0.15801,-1.925001 0.0696,-0.218056 0.49956,-0.579358 0.76929,-0.646521 l 0.0794,-0.01975 v 1.016964 1.01696 l -0.0788,0.144916 c -0.11596,0.213033 -0.5685,0.551931 -0.81955,0.61374 -0.0746,0.01839 -0.076,0.01586 -0.10827,-0.20129 z m 5.71143,-4.425633 c -5.8e-4,-0.123064 -0.0269,-0.366673 -0.058,-0.541349 -0.0311,-0.174681 -0.0762,-0.428031 -0.10022,-0.563013 -0.0515,-0.289979 -0.0592,-0.794797 -0.0151,-0.990479 0.0456,-0.202485 0.25003,-0.598823 0.41192,-0.798906 0.0774,-0.09566 0.1519,-0.173911 0.16553,-0.173911 0.0137,0 0.0706,0.0877 0.12646,0.194882 0.056,0.107184 0.15999,0.29657 0.23128,0.420851 0.20566,0.35853 0.35361,0.795786 0.38365,1.133868 0.0178,0.200792 0.0156,0.209835 -0.10746,0.446547 -0.14864,0.285702 -0.3785,0.582431 -0.63361,0.817919 -0.17489,0.161449 -0.33386,0.277005 -0.3814,0.277246 -0.012,5.3e-5 -0.0223,-0.100588 -0.0231,-0.223655 z m 1.34622,-1.71902 c -0.0298,-0.130386 -0.0512,-0.248603 -0.0475,-0.262709 0.003,-0.0141 -0.005,-0.03361 -0.0174,-0.04331 -0.0433,-0.03173 -0.18451,-0.352624 -0.16735,-0.380387 0.009,-0.01486 0.006,-0.02703 -0.008,-0.02703 -0.034,0 -0.26569,-0.393378 -0.41472,-0.70395 l -0.1214,-0.253015 0.0353,-0.192796 c 0.0518,-0.283814 0.19364,-0.687274 0.31391,-0.893279 0.058,-0.09944 0.11344,-0.17739 0.12297,-0.17323 0.0168,0.0072 0.23277,0.24443 0.63694,0.699202 0.21605,0.243109 0.36518,0.510508 0.45733,0.82004 0.0696,0.233819 0.0767,0.175169 -0.0772,0.639283 -0.0954,0.28778 -0.38955,0.758939 -0.58958,0.944438 l -0.0688,0.06383 z m 0.97665,-1.687889 c -0.0308,-0.101255 -0.19804,-0.40057 -0.30242,-0.541349 -0.0589,-0.07941 -0.25253,-0.300272 -0.43034,-0.49083 -0.1778,-0.190552 -0.35658,-0.402878 -0.39728,-0.471828 -0.0728,-0.123152 -0.0734,-0.130033 -0.0414,-0.389775 0.0295,-0.239273 0.13358,-0.625306 0.16864,-0.625306 0.008,0 0.0878,0.06264 0.17781,0.139205 0.0901,0.07657 0.2947,0.225218 0.45477,0.330332 0.50495,0.331589 0.79166,0.698785 0.79166,1.013877 0,0.340925 -0.11321,0.737058 -0.27956,0.977934 -0.0824,0.119345 -0.1186,0.134081 -0.14184,0.05775 z m 0.47914,-5.408284 c -0.11909,-0.06078 -0.32047,-0.138806 -0.4475,-0.173401 -0.43901,-0.119539 -0.69384,-0.206798 -0.92633,-0.317171 -0.18472,-0.0877 -0.25007,-0.136038 -0.31347,-0.231845 -0.0955,-0.144381 -0.20968,-0.467492 -0.23647,-0.669454 -0.019,-0.143229 -0.0183,-0.145057 0.05,-0.124939 0.19793,0.05834 0.60648,0.13223 0.73333,0.132636 0.25538,5.87e-4 0.65787,0.06193 0.89032,0.135185 l 0.22625,0.0713 0.0726,0.163975 c 0.04,0.09018 0.0971,0.259614 0.12708,0.37652 0.061,0.238327 0.107,0.756614 0.0667,0.751178 -0.0143,-0.0017 -0.12337,-0.05324 -0.24246,-0.113988 z m -0.36089,-1.544772 c -0.0794,-0.02215 -0.28728,-0.05411 -0.46196,-0.07113 -0.59218,-0.05758 -0.79015,-0.09088 -1.03051,-0.173258 -0.21356,-0.07319 -0.25773,-0.10145 -0.40276,-0.257657 -0.13033,-0.140386 -0.31349,-0.436693 -0.31349,-0.507171 0,-0.0075 0.13317,-0.01369 0.29594,-0.01369 0.16277,-2.3e-5 0.40638,-0.01969 0.54135,-0.04365 0.42206,-0.07506 0.71331,-0.08499 0.92181,-0.03143 0.10205,0.0262 0.205,0.06361 0.22873,0.08307 0.14648,0.120033 0.37775,0.611926 0.43404,0.923192 0.0285,0.157407 0.0261,0.158429 -0.21315,0.09174 z"
       id="path826"
       inkscape:connector-curvature="0"
       sodipodi:nodetypes="cccsssccccccccccccccccccscccccsscccccccscccccccccccccccccccccccccccccccssccccccccccscssscscssscccsscccscccccscccccccscccsccscccccscsscccccsscsccccccscsssssccscscccssccccccsccsccsscccccccscccscscccccccccccccccsccccsccccccscccccccssccccsscscccccsccccscccccscccccccccccsccccccccccccccccccccscccsccccccscccsscccccccccccccccccsccssccccscccscsccccccscsccccscccccscccscccccccccccccsccccccccscccccccccccccccssccssccccccccsscccscsssccccccccccccsccccscssccsscscccsccsccsccssccscccccccccscscccccscccscccccccccsccccscscccccccscccccccccscscccccccccsccscccccccscsscccccscccccccscccccscscscccccccscccccccsccccccccsccscccccccscsccccccscsssccccc" />
    <g
       id="g870"
       transform="matrix(0.27420111,0,0,0.27420111,132.81048,128.30824)"
       style="fill:#ffc748;fill-opacity:1">
      <path
         id="path852"
         transform="scale(0.26458333)"
         d="m -363.17578,85.146484 c -19.29151,0.01245 -39.25387,0.872577 -58.30274,2.626954 -12.1299,1.117152 -18.59069,3.63701 -23.6875,9.238281 -5.31265,5.838431 -3.54503,10.443591 9.4336,24.568361 5.00549,5.44756 18.82285,16.70561 23.3164,18.99804 2.28654,1.16652 5.80616,3.24121 7.82227,4.60938 6.76808,4.59293 14.85155,7.89216 30.95117,12.63672 8.80003,2.59337 16.90001,4.75619 18,4.80469 1.10003,0.0485 5.37499,-0.61314 9.5,-1.46875 10.32861,-2.14237 42.16175,-16.09694 51.77149,-22.69532 1.79949,-1.2356 7.21461,-4.81581 12.0332,-7.95507 13.13359,-8.55637 20.25651,-15.41615 23.08008,-22.22852 1.84639,-4.45476 2.17011,-6.38156 1.47461,-8.806641 -0.79231,-2.762623 -1.49405,-3.231529 -6.375,-4.261718 -3.01639,-0.63665 -9.98438,-2.112689 -15.48438,-3.279297 -21.0917,-4.473758 -51.38069,-6.807856 -83.5332,-6.78711 z"
         style="fill:#ffc748;fill-opacity:1;stroke-width:1"
         inkscape:connector-curvature="0" />
      <path
         id="path850"
         transform="scale(0.26458333)"
         d="m -243.78125,117.87695 c -0.11603,-0.18784 -4.40833,3.36353 -9.53711,7.89258 -24.85944,21.95235 -52.58162,39.15799 -70.49023,43.74805 -7.85907,2.01431 -13.59254,5.08802 -12.89258,6.91211 0.26521,0.69106 5.93414,9.25005 12.59765,19.02148 6.66352,9.77143 13.0944,19.26448 14.28907,21.09375 2.05969,3.15376 2.41509,3.29756 6.86328,2.80274 2.58005,-0.28702 8.88005,-1.9212 14,-3.63282 27.01231,-9.03036 49.39207,-25.69936 62.26953,-46.37695 l 4.9082,-7.87891 -10.89844,-21.62109 c -5.99417,-11.89107 -10.99338,-21.77309 -11.10937,-21.96094 z"
         style="fill:#ffc748;fill-opacity:1;stroke-width:1"
         inkscape:connector-curvature="0" />
      <path
         id="path848"
         transform="scale(0.26458333)"
         d="m -465.06641,118.57031 c -0.37738,0.0405 -0.62861,0.34722 -0.88867,0.84766 -0.51451,0.99013 -5.48623,10.61185 -11.04883,21.38086 l -10.11328,19.58008 3.5625,5.91992 c 7.97919,13.26159 16.63267,22.33921 29.91211,31.37695 12.90414,8.78232 24.15412,13.75086 41,18.10742 17.12738,4.42938 14.32533,6.41601 27.51758,-19.51172 6.28176,-12.34598 11.20935,-22.61923 10.95117,-22.82812 -0.25814,-0.2089 -4.51874,-2.08297 -9.46875,-4.16602 -27.82031,-11.70727 -58.58582,-30.56016 -75.64453,-46.35351 -3.50504,-3.24505 -4.94906,-4.44259 -5.7793,-4.35352 z"
         style="fill:#ffc748;fill-opacity:1;stroke-width:1"
         inkscape:connector-curvature="0" />
      <path
         id="path841"
         transform="scale(0.26458333)"
         d="m -355.48242,172.74023 c -0.92961,-0.0238 -4.57438,4.06565 -4.62696,5.19141 -0.0189,0.39195 -4.67797,8.71695 -10.35546,18.5 -5.67753,9.78306 -12.70917,21.94961 -15.625,27.03711 l -5.30078,9.25 -12.12696,0.006 c -6.66913,0.003 -13.76043,0.46028 -15.75976,1.01562 -3.23781,0.89935 -3.76935,1.52693 -4.86133,5.74415 -0.67431,2.60409 -1.59079,7.65937 -2.03711,11.23437 -0.76188,6.10284 -2.13202,12.18838 -11.47656,51 -2.05255,8.525 -6.32509,26.525 -9.49414,40 -8.8681,37.7075 -21.38302,90.41864 -35.05274,147.63672 -1.06915,4.47515 -1.94336,8.56141 -1.94336,9.08008 0,0.5187 8.21252,1.9795 18.25,3.24609 10.03752,1.26656 22.29999,2.86881 27.25,3.5625 9.48529,1.32934 15.5,1.74522 15.5,1.07031 0,-0.22223 2.03839,-10.00976 4.53125,-21.75 2.49283,-11.74019 5.61866,-26.5207 6.94531,-32.8457 1.32669,-6.325 5.09696,-24.10001 8.37891,-39.5 3.28199,-15.40003 9.40009,-44.2 13.5957,-64 4.19562,-19.8 8.71027,-40.95 10.03125,-47 1.32099,-6.05 4.70447,-22.025 7.51954,-35.5 5.71902,-27.37536 6.17853,-28.90902 9.74414,-32.47461 6.05884,-6.05886 14.15802,0.0128 19.71679,14.78125 7.38568,19.62195 23.01685,88.04412 44.9961,196.9707 6.74507,33.42777 12.52562,61.03929 12.8457,61.35938 0.46362,0.46363 61.51367,-7.49084 62.44922,-8.13672 0.25927,-0.17915 -3.98753,-18.61984 -10.24805,-44.5 -1.92918,-7.97503 -7.31275,-30.475 -11.96289,-50 -4.65018,-19.525 -10.25251,-42.925 -12.44922,-52 -2.19671,-9.075 -6.94595,-28.875 -10.55273,-44 -3.60678,-15.125 -9.0281,-37.69166 -12.04883,-50.14648 -3.02073,-12.45484 -5.49219,-23.36734 -5.49219,-24.25 0,-1.66608 -1.40065,-1.92318 -11.5,-2.1211 -20.53349,-0.40242 -19.25789,-0.17548 -20.98047,-3.73242 -0.86566,-1.7875 -5.27423,-8.54699 -9.79687,-15.02148 -4.52264,-6.47451 -12.49767,-18.05236 -17.72266,-25.72852 -5.22501,-7.67616 -9.87798,-13.96669 -10.33984,-13.97852 z"
         style="fill:#ffc748;fill-opacity:1;stroke-width:1"
         inkscape:connector-curvature="0" />
    </g>
    <path
       style="color:#000000;font-style:normal;font-variant:normal;font-weight:normal;font-stretch:normal;font-size:medium;line-height:normal;font-family:sans-serif;font-variant-ligatures:normal;font-variant-position:normal;font-variant-caps:normal;font-variant-numeric:normal;font-variant-alternates:normal;font-feature-settings:normal;text-indent:0;text-align:start;text-decoration:none;text-decoration-line:none;text-decoration-style:solid;text-decoration-color:#000000;letter-spacing:normal;word-spacing:normal;text-transform:none;writing-mode:lr-tb;direction:ltr;text-orientation:mixed;dominant-baseline:auto;baseline-shift:baseline;text-anchor:start;white-space:normal;shape-padding:0;clip-rule:nonzero;display:inline;overflow:visible;visibility:visible;opacity:1;isolation:auto;mix-blend-mode:normal;color-interpolation:sRGB;color-interpolation-filters:linearRGB;solid-color:#000000;solid-opacity:1;vector-effect:none;fill:#ffc748;fill-opacity:1;fill-rule:nonzero;stroke:none;stroke-width:0.72254753;stroke-linecap:butt;stroke-linejoin:miter;stroke-miterlimit:4;stroke-dasharray:none;stroke-dashoffset:0;stroke-opacity:1;color-rendering:auto;image-rendering:auto;shape-rendering:auto;text-rendering:auto;enable-background:accumulate"
       d="m 159.81984,134.27897 c -0.007,-2.7e-4 -0.017,-3.8e-4 -0.0401,5.3e-4 -0.17461,0.0135 -0.28074,0.0587 -0.40374,0.20615 h -3.8e-4 c -0.15359,0.18376 -0.28311,0.37181 -0.38218,0.55798 -0.0936,0.17563 -0.18614,0.3796 -0.18614,0.62715 0,0.15019 0.034,0.26107 0.0587,0.37197 0.0305,0.12715 0.0685,0.27395 0.11221,0.42039 0.16242,0.54238 0.16479,0.55432 0.003,0.9284 -0.12069,0.27972 -0.18036,0.57604 -0.21427,0.9685 -0.0238,0.25971 -0.0542,0.39926 -0.0685,0.43538 -0.0204,0.0556 -0.003,0.0357 -0.10648,0.12443 -0.0824,0.0722 -0.13324,0.1068 -0.27767,0.16241 -0.14478,0.056 -0.37893,0.12138 -0.75904,0.21258 -0.79111,0.18919 -1.93291,0.56389 -3.16946,1.03285 -1.9301,0.73198 -2.3195,0.8734 -2.81661,1.02409 -0.91124,0.27632 -1.12658,0.31192 -1.89056,0.31192 -0.81079,0 -0.88765,-0.0204 -1.65242,-0.39831 -0.26446,-0.13123 -0.4649,-0.25192 -0.60046,-0.34808 -0.12579,-0.0892 -0.18207,-0.15936 -0.17834,-0.14885 -0.007,-0.0272 -0.0102,-0.0627 -0.0135,-0.10578 -0.007,-0.0817 5.3e-4,-0.17732 0.0135,-0.23563 0.003,-0.007 0.003,-0.0102 0.0102,-0.017 0.0135,-0.0238 0.0407,-0.0515 0.0655,-0.0742 0.0549,-0.0499 0.1597,-0.10205 0.16241,-0.10307 0.0976,-0.0272 0.18139,-0.0549 0.26175,-0.0902 0.0305,-0.0135 0.0915,-0.0417 0.15019,-0.0834 -0.0272,0.0204 0.0658,-0.0305 0.13868,-0.12409 0.0729,-0.0926 0.11833,-0.23362 0.11663,-0.36812 v -3.8e-4 c -0.002,-0.21529 -0.079,-0.32888 -0.20614,-0.43679 -0.0769,-0.0655 -0.18038,-0.10613 -0.20547,-0.11426 -0.0793,-0.0272 -0.16308,-0.034 -0.19394,-0.0342 -0.0909,-0.007 -0.17799,3.8e-4 -0.27565,0.0102 h -3.7e-4 c -0.73463,0.0722 -1.41975,0.51573 -1.7569,1.16862 -0.22581,0.43714 -0.15698,0.94262 0.0601,1.36875 0.13461,0.26412 0.34346,0.48336 0.57165,0.7034 0.23123,0.22308 0.48569,0.43612 0.74249,0.5853 0.12951,0.0753 0.26751,0.14409 0.41137,0.20648 l -4.92403,12.18783 h -0.91493 a 9.786003,9.786003 0 0 0 6.39691,2.38758 9.786003,9.786003 0 0 0 6.38711,-2.38758 h -1.05069 l -4.78956,-11.85412 c 0.36882,0.0705 0.7507,0.10816 1.1288,0.10984 1.27413,0.007 2.56145,-0.34322 5.24074,-1.36475 0.63844,-0.24343 1.45038,-0.51627 1.66313,-0.57112 0.35489,-0.0916 0.86283,-0.16751 1.31118,-0.20107 0.22107,-0.017 0.43741,-0.0204 0.60921,-0.017 0.12308,0.002 0.1736,0.0135 0.22378,0.017 0.0102,0.0238 0.017,0.017 0.0305,0.21666 0.017,0.24818 0.0305,0.6932 0.0526,1.47366 0.0238,0.93585 0.0614,5.1241 0.0787,9.25186 l 0.0305,7.38122 -0.22208,0.48034 c -0.32549,0.70339 -0.54638,1.04143 -0.83122,1.32626 -0.46101,0.46101 -0.88896,0.69221 -1.76127,0.91778 -0.72506,0.1875 -1.22196,0.38263 -1.59728,0.71215 -0.17394,0.15258 -0.0488,0.10816 -0.34651,0.15054 -0.27702,0.0394 -0.86415,0.061 -1.96627,0.0875 -0.51672,0.0135 -0.95624,0.0272 -1.28623,0.0454 -0.16444,0.0102 -0.3021,0.0169 -0.41396,0.0272 -0.0983,0.0102 -0.19224,0.0135 -0.30785,0.0479 -0.14852,0.0437 -0.28786,0.10612 -0.41152,0.19427 -0.0451,0.0339 -0.14817,0.11256 -0.21767,0.2275 -0.0363,0.0601 -0.0895,0.17834 -0.0909,0.31667 -0.002,0.18717 0.052,0.30583 0.17632,0.43047 0.0936,0.0936 0.22072,0.16376 0.32786,0.19224 0.10747,0.0272 0.18106,0.0305 0.24852,0.0379 0.18004,0.0238 0.41443,0.036 0.76114,0.0485 0.69391,0.0238 1.83309,0.0377 3.72636,0.0519 l 1.23901,0.0102 -0.007,-0.007 c 1.34984,0.007 2.71357,0.0135 4.02472,0.017 1.31112,-0.002 2.67486,-0.0102 4.0247,-0.017 l -0.007,0.007 1.23899,-0.0102 c 1.89327,-0.0135 3.03246,-0.0272 3.7264,-0.0519 0.34668,-0.0135 0.5811,-0.0272 0.7611,-0.0485 0.0671,-0.0102 0.14105,-0.0102 0.24852,-0.0379 0.10749,-0.0272 0.23429,-0.0987 0.32821,-0.19224 0.12443,-0.12444 0.17834,-0.24344 0.1763,-0.43047 -0.002,-0.13833 -0.0545,-0.25665 -0.0909,-0.31667 -0.0695,-0.11494 -0.17258,-0.19529 -0.21767,-0.2275 -0.12376,-0.0881 -0.26277,-0.15054 -0.41151,-0.19427 -0.11562,-0.0342 -0.20954,-0.0393 -0.30786,-0.0479 -0.11188,-0.0102 -0.24955,-0.017 -0.41394,-0.0272 -0.32991,-0.017 -0.76952,-0.034 -1.28624,-0.0454 -1.10212,-0.0272 -1.68915,-0.0482 -1.96627,-0.0875 -0.29769,-0.0423 -0.17291,0.002 -0.34651,-0.15054 -0.37533,-0.32956 -0.87221,-0.52465 -1.59728,-0.71215 -0.87231,-0.22546 -1.30029,-0.45677 -1.76127,-0.91778 -0.28481,-0.2848 -0.5058,-0.62287 -0.83125,-1.32626 l -0.22209,-0.48034 0.0305,-7.38122 c 0.017,-4.12776 0.0536,-8.31601 0.0787,-9.25186 0.0204,-0.78046 0.0352,-1.2255 0.0526,-1.47366 0.0135,-0.20004 0.0204,-0.19258 0.0305,-0.21666 0.0504,-0.007 0.10105,-0.0135 0.22377,-0.017 0.17191,-0.003 0.38806,2e-4 0.60925,0.017 0.44833,0.034 0.9563,0.10951 1.31118,0.20107 0.2126,0.0549 1.0247,0.32752 1.66312,0.57112 2.6793,1.02153 3.96658,1.3707 5.24072,1.36475 0.37811,-0.002 0.76002,-0.0394 1.12881,-0.10984 l -4.78933,11.85396 h -1.05045 a 9.786003,9.786003 0 0 0 6.38707,2.38758 9.786003,9.786003 0 0 0 6.39691,-2.38758 h -0.9149 l -4.92396,-12.18783 c 0.14411,-0.0624 0.28176,-0.13121 0.41135,-0.20648 0.25666,-0.14919 0.51117,-0.36221 0.74252,-0.58531 0.22818,-0.22004 0.43705,-0.4391 0.57164,-0.70339 0.217,-0.42613 0.28581,-0.93161 0.0601,-1.36876 -0.33702,-0.65288 -1.02228,-1.09643 -1.7569,-1.16861 h -3.8e-4 c -0.0976,-0.0102 -0.18478,-0.0135 -0.27564,-0.0102 -0.0305,0.002 -0.1146,0.0102 -0.19394,0.0342 -0.0238,0.0102 -0.1285,0.0488 -0.20547,0.11426 -0.1268,0.10782 -0.20343,0.22174 -0.20615,0.43679 v 3.8e-4 c -0.002,0.13428 0.0438,0.27566 0.11665,0.36812 0.0728,0.0926 0.16545,0.14308 0.13866,0.12408 0.0587,0.042 0.119,0.0698 0.1502,0.0834 0.0804,0.0352 0.1641,0.0624 0.26176,0.0902 0.002,3.8e-4 0.10747,0.0533 0.16241,0.10307 0.0238,0.0238 0.0499,0.0523 0.0655,0.0742 0.003,0.007 0.007,0.0135 0.0102,0.017 0.0102,0.0587 0.017,0.15427 0.0135,0.23563 -0.002,0.0431 -0.007,0.0804 -0.0135,0.10579 0.003,-0.0102 -0.0525,0.0597 -0.17834,0.14885 -0.13561,0.0963 -0.336,0.21698 -0.60043,0.34808 -0.76477,0.37926 -0.84162,0.39831 -1.65241,0.39831 -0.76398,0 -0.97932,-0.036 -1.89056,-0.31193 -0.49708,-0.15053 -0.88648,-0.29226 -2.81661,-1.02408 -1.23656,-0.46896 -2.37835,-0.84352 -3.16946,-1.03284 -0.38011,-0.0909 -0.61439,-0.15665 -0.75905,-0.21259 -0.14477,-0.056 -0.19563,-0.0902 -0.27767,-0.16241 -0.10138,-0.0888 -0.0848,-0.0688 -0.10647,-0.12444 -0.0135,-0.0359 -0.0458,-0.17562 -0.0685,-0.43537 -0.0342,-0.39246 -0.0936,-0.68896 -0.21427,-0.9685 -0.16141,-0.37408 -0.15868,-0.38602 0.003,-0.9284 0.0438,-0.14647 0.0824,-0.29329 0.11222,-0.42039 0.0272,-0.11088 0.0587,-0.22174 0.0587,-0.37197 0,-0.24752 -0.0926,-0.45146 -0.18581,-0.62715 -0.099,-0.18614 -0.22851,-0.37422 -0.38217,-0.55798 h -3.8e-4 c -0.12308,-0.14714 -0.22921,-0.1936 -0.40375,-0.20615 -0.0238,-0.002 -0.0339,-5.3e-4 -0.04,-5.3e-4 z m -12.33547,9.89233 v 11.03966 h -4.46036 z m 24.67091,0 4.46038,11.03966 h -4.46038 z m -24.06968,2.8e-4 4.46022,11.03938 h -4.46022 z m 23.46847,0 v 11.03938 h -4.46023 z"
       id="path2086"
       inkscape:connector-curvature="0" />
    <path
       style="fill:#ffffff;fill-opacity:1;stroke:none;stroke-width:4.04100008;stroke-miterlimit:4;stroke-dasharray:none"
       d="M 274.50391 466.13477 C 274.6202 467.48796 274.74923 468.8306 274.875 470.17578 L 725.125 470.17578 C 725.25078 468.8306 725.3798 467.48796 725.49609 466.13477 L 274.50391 466.13477 z "
       transform="scale(0.26458333)"
       id="rect1199" />
    <path
       style="fill:#ffffff;fill-opacity:1;stroke:none;stroke-width:1.09338713;stroke-miterlimit:4;stroke-dasharray:none"
       d="M 497.98047 233.46289 L 497.98047 839.6543 C 499.16864 840.35027 500 840.82227 500 840.82227 C 500 840.82227 500.82993 840.34917 502.01953 839.65234 L 502.01953 233.46289 L 497.98047 233.46289 z "
       id="rect1201"
       transform="scale(0.26458333)" />
    <g
       id="g1228"
       transform="matrix(0.09368275,0,0,0.11010088,86.036882,70.35459)"
       style="fill:url(#radialGradient1412);fill-opacity:1">
      <g
         id="g1171"
         style="fill:url(#radialGradient1464);fill-opacity:1">
        <g
           id="g1169"
           style="fill:url(#radialGradient1462);fill-opacity:1">
          <path
             id="path1167"
             d="m 360.77724,106.26061 c -0.021,0 -0.042,0 -0.0623,0 h -21.1121 c -0.43196,-2.82704 -0.86392,-5.65408 -1.29588,-8.481125 -0.40011,-3.354758 -2.68944,-6.375687 -5.51992,-7.311313 -15.05742,-4.509258 -29.98107,-6.77027 -44.73579,-6.726408 -24.41508,0 -56.28111,6.580181 -81.7862,36.556566 -25.3088,-30.268837 -57.41671,-36.556566 -81.77838,-36.556566 -14.75471,-0.04386 -29.678843,2.21715 -44.737227,6.726408 -2.830684,0.935626 -5.120657,3.956555 -5.521487,7.311313 -0.428837,2.802665 -0.857674,5.605335 -1.286511,8.408005 H 51.955681 c -3.427045,0 -6.830304,3.27364 -7.574121,7.31132 -14.339838,77.84111 -28.679676,155.68222 -43.0195134,233.52333 -0.74381732,4.03767 2.2229057,7.31131 6.6525271,7.31131 1.37462,-0.004 2.7822403,-0.33084 4.0846933,-0.95047 0.389559,-0.16507 22.471887,-10.29011 56.743307,-17.09933 34.582996,-6.87114 80.736756,-10.34701 135.584816,2.4767 h 1.18323 0.70994 c 0.62908,0.0704 1.2642,0.0704 1.89316,0 55.00655,-12.93313 101.21862,-9.53087 135.79714,-2.66863 34.29582,6.80614 56.2436,16.97391 56.52995,17.29126 2.69931,1.30598 5.75583,1.30598 7.99262,0 2.22522,-1.29888 3.29962,-3.69018 2.83799,-6.28773 -14.33984,-77.84111 -28.67969,-155.68222 -43.01954,-233.52333 -0.74381,-4.03767 -4.14653,-7.31131 -7.57464,-7.31131 z M 19.231945,335.39715 C 31.383157,263.89251 43.534369,192.38787 55.685581,120.88323 H 70.81951 c -9.343649,61.12258 -18.687299,122.24515 -28.030948,183.36773 -0.665011,4.0378 2.222212,7.34774 6.476781,7.39356 0.414839,0.005 0.834347,-0.0229 1.253605,-0.0822 16.250926,-2.30946 32.394791,-3.53137 48.452851,-3.65566 22.258811,-0.36731 44.065481,2.82026 65.115311,9.4316 -47.86417,-5.49546 -96.286261,0.71203 -144.855165,18.05894 z M 100.42703,293.3571 c -13.760752,0.0302 -27.58953,0.88467 -41.503194,2.55896 8.904357,-64.12021 17.808714,-128.24043 26.71307,-192.36064 12.528215,-3.17128 24.963634,-4.789825 37.281794,-4.825465 23.20205,0 53.98595,6.287725 76.78641,35.825435 -0.38443,60.70826 -0.75585,121.41653 -1.11427,182.1248 C 182.58276,306.7368 151.95092,293.3571 100.42703,293.3571 Z M 212.75767,134.55539 c 22.81097,-29.24525 53.6075,-35.825435 76.79665,-35.825435 12.3181,0.04295 24.75321,1.660585 37.28041,4.825465 8.88605,64.12021 17.77209,128.24043 26.65814,192.36064 -13.83857,-1.68983 -27.59446,-2.56901 -41.28285,-2.63207 -51.21881,0 -81.91908,13.3797 -98.15869,23.32309 -0.43122,-60.6839 -0.86244,-121.3678 -1.29366,-182.05169 z m 180.65174,200.84176 c -48.67319,-17.39449 -97.19768,-23.60279 -145.16328,-18.05894 21.15184,-6.63511 43.06259,-9.82358 65.42539,-9.4316 16.15486,0.0859 32.39796,1.28314 48.74975,3.58255 4.2998,0.60753 7.7996,-2.14109 7.82278,-6.13145 0.002,-0.39025 -0.0293,-0.78505 -0.0946,-1.17987 -9.35302,-61.0982 -18.70604,-122.1964 -28.05906,-183.29461 h 15.13393 c 12.08211,71.50464 24.14379,143.00928 36.18505,214.51392 z"
             inkscape:connector-curvature="0"
             inkscape:path-effect="#path-effect4941-6"
             inkscape:original-d="m 404.72,82.944 c -0.027,0 -0.054,0 -0.08,0 v 0 h -27.12 v -9.28 c 0.146,-3.673 -2.23,-6.974 -5.76,-8 -18.828,-4.934 -38.216,-7.408 -57.68,-7.36 -32,0 -75.6,7.2 -107.84,40 -32,-33.12 -75.92,-40 -107.84,-40 -19.464,-0.048 -38.852,2.426 -57.68,7.36 -3.53,1.026 -5.906,4.327 -5.76,8 v 9.2 H 8 c -4.418,0 -8,3.582 -8,8 v 255.52 c 0,4.418 3.582,8 8,8 1.374,-0.004 2.724,-0.362 3.92,-1.04 0.8,-0.4 80.8,-44.16 192.48,-16 h 1.2 0.72 c 0.638,0.077 1.282,0.077 1.92,0 112,-28.4 192,15.28 192.48,16 2.475,1.429 5.525,1.429 8,0 2.46,-1.42 3.983,-4.039 4,-6.88 V 90.944 c 0,-4.418 -3.581,-8 -8,-8 z M 16,333.664 V 98.944 h 19.12 v 200.64 c -0.05,4.418 3.491,8.04 7.909,8.09 0.432,0.005 0.864,-0.025 1.291,-0.09 16.55,-2.527 33.259,-3.864 50,-4 23.19,-0.402 46.283,3.086 68.32,10.32 -49.765,-6.018 -100.243,0.784 -146.64,19.76 z m 78.32,-46 c -14.551,0.033 -29.085,0.968 -43.52,2.8 V 79.984 c 15.576,-3.47 31.482,-5.241 47.44,-5.28 29.92,0 71.2,6.88 99.84,39.2 l 0.24,199.28 c -16.64,-10.88 -49.12,-25.52 -104,-25.52 z m 120,-173.76 c 28.64,-32 69.92,-39.2 99.84,-39.2 15.957,0.047 31.863,1.817 47.44,5.28 v 210.48 c -14.354,-1.849 -28.808,-2.811 -43.28,-2.88 -54.56,0 -87.12,14.64 -104,25.52 z m 182.32,219.76 c -46.496,-19.028 -97.09,-25.831 -146.96,-19.76 22.141,-7.26 45.344,-10.749 68.64,-10.32 16.846,0.094 33.663,1.404 50.32,3.92 4.368,0.663 8.447,-2.341 9.11,-6.709 0.065,-0.427 0.095,-0.859 0.09,-1.291 V 98.944 h 19.12 z"
             style="fill:url(#radialGradient1460);fill-opacity:1" />
        </g>
      </g>
      <g
         id="g1173"
         style="fill:url(#radialGradient1466);fill-opacity:1" />
      <g
         id="g1175"
         style="fill:url(#radialGradient1468);fill-opacity:1" />
      <g
         id="g1177"
         style="fill:url(#radialGradient1470);fill-opacity:1" />
      <g
         id="g1179"
         style="fill:url(#radialGradient1472);fill-opacity:1" />
      <g
         id="g1181"
         style="fill:url(#radialGradient1474);fill-opacity:1" />
      <g
         id="g1183"
         style="fill:url(#radialGradient1476);fill-opacity:1" />
      <g
         id="g1185"
         style="fill:url(#radialGradient1478);fill-opacity:1" />
      <g
         id="g1187"
         style="fill:url(#radialGradient1480);fill-opacity:1" />
      <g
         id="g1189"
         style="fill:url(#radialGradient1482);fill-opacity:1" />
      <g
         id="g1191"
         style="fill:url(#radialGradient1484);fill-opacity:1" />
      <g
         id="g1193"
         style="fill:url(#radialGradient1486);fill-opacity:1" />
      <g
         id="g1195"
         style="fill:url(#radialGradient1488);fill-opacity:1" />
      <g
         id="g1197"
         style="fill:url(#radialGradient1490);fill-opacity:1" />
      <g
         id="g1199"
         style="fill:url(#radialGradient1492);fill-opacity:1" />
      <g
         id="g1201"
         style="fill:url(#radialGradient1494);fill-opacity:1" />
    </g>
    <path
       style="opacity:1;fill:#000000;fill-opacity:0;stroke:none;stroke-width:20.54637718;stroke-linecap:square;stroke-linejoin:miter;stroke-miterlimit:4;stroke-dasharray:none;stroke-opacity:0.57281554;paint-order:stroke fill markers"
       d="M 132.29168,24.276443 A 108.01523,108.01523 0 0 0 24.276439,132.29169 108.01523,108.01523 0 0 0 132.29168,240.3069 108.01523,108.01523 0 0 0 240.30691,132.29168 108.01523,108.01523 0 0 0 132.29168,24.276443 Z"
       id="path1250"
       inkscape:connector-curvature="0" />
    <text
       xml:space="preserve"
       style="font-style:normal;font-weight:normal;font-size:10.58333302px;line-height:1.25;font-family:sans-serif;text-align:center;letter-spacing:0px;word-spacing:0px;text-anchor:middle;fill:#ffffff;fill-opacity:1;stroke:none;stroke-width:0.26458332;"
       id="text1296"
       inkscape:export-filename="./text948.png"
       inkscape:export-xdpi="287.99997"
       inkscape:export-ydpi="287.99997"><textPath
         xlink:href="#path1250"
         startOffset="50%"
         id="textPath1298"><tspan
   style="stroke-width:0.26458332;fill:#ffffff;fill-opacity:1;"
   id="tspan1294"><tspan
     style="stroke-width:0.26458332;fill:#ffffff;fill-opacity:1;"
     id="tspan1292"
     y="35.970413"
     x="382.33273">BANGABANDHU SHEIKH MUJIBUR RAHMAN MARITIME UNIVERSITY</tspan></tspan></textPath></text>
    <path
       style="fill:#ffffff;fill-opacity:1;stroke:none;stroke-width:0.09473552px;stroke-linecap:butt;stroke-linejoin:miter;stroke-opacity:1"
       d="m 232.54532,96.665778 4.90147,15.085172 -12.83222,-9.32315 h 15.86149 l -12.83222,9.32315 z"
       id="path1305"
       inkscape:connector-curvature="0"
       inkscape:transform-center-y="-28.083311"
       inkscape:transform-center-x="-100.25364"
       inkscape:export-filename="./text948.png"
       inkscape:export-xdpi="287.99997"
       inkscape:export-ydpi="287.99997" />
    <path
       inkscape:transform-center-x="100.25364"
       inkscape:transform-center-y="-28.083311"
       inkscape:connector-curvature="0"
       id="path1309"
       d="m 32.038034,96.665778 -4.90147,15.085172 12.83222,-9.32315 h -15.86149 l 12.83222,9.32315 z"
       style="fill:#ffffff;fill-opacity:1;stroke:none;stroke-width:0.09473552px;stroke-linecap:butt;stroke-linejoin:miter;stroke-opacity:1"
       inkscape:export-filename="./text948.png"
       inkscape:export-xdpi="287.99997"
       inkscape:export-ydpi="287.99997" />
    <path
       style="color:#000000;font-style:normal;font-variant:normal;font-weight:normal;font-stretch:normal;font-size:medium;line-height:normal;font-family:sans-serif;font-variant-ligatures:normal;font-variant-position:normal;font-variant-caps:normal;font-variant-numeric:normal;font-variant-alternates:normal;font-feature-settings:normal;text-indent:0;text-align:start;text-decoration:none;text-decoration-line:none;text-decoration-style:solid;text-decoration-color:#000000;letter-spacing:normal;word-spacing:normal;text-transform:none;writing-mode:lr-tb;direction:ltr;text-orientation:mixed;dominant-baseline:auto;baseline-shift:baseline;text-anchor:start;white-space:normal;shape-padding:0;clip-rule:nonzero;display:inline;overflow:visible;visibility:visible;opacity:1;isolation:auto;mix-blend-mode:normal;color-interpolation:sRGB;color-interpolation-filters:linearRGB;solid-color:#000000;solid-opacity:1;vector-effect:none;fill:#ffc748;fill-opacity:1;fill-rule:nonzero;stroke:none;stroke-width:1.0691812;stroke-linecap:butt;stroke-linejoin:miter;stroke-miterlimit:4;stroke-dasharray:none;stroke-dashoffset:0;stroke-opacity:1;paint-order:normal;color-rendering:auto;image-rendering:auto;shape-rendering:auto;text-rendering:auto;enable-background:accumulate"
       d="m 78.705078,61.236328 -0.109375,0.392578 c -15.78941,57.218504 -2.456267,97.587284 14.847656,123.597654 17.303921,26.01038 38.589841,37.70899 38.589841,37.70899 l 0.25782,0.14257 0.25781,-0.14257 c 0,0 21.28773,-11.69861 38.59179,-37.70899 17.30407,-26.01037 30.63707,-66.37915 14.84766,-123.597654 l -0.10937,-0.392578 z m 0.824219,1.06836 H 185.05469 c 15.54219,56.733262 2.31729,96.593402 -14.80469,122.330082 -16.85132,25.32984 -37.21819,36.7928 -37.95898,37.20507 -0.7408,-0.41227 -21.1078,-11.87523 -37.958989,-37.20507 C 77.210192,158.89809 63.987107,119.03795 79.529297,62.304688 Z"
       id="path1242"
       inkscape:connector-curvature="0" />
  </g>
</svg>
