<?xml version="1.0" encoding="UTF-8" standalone="no"?>
<!-- Created with Inkscape (http://www.inkscape.org/) -->

<svg
   xmlns:dc="http://purl.org/dc/elements/1.1/"
   xmlns:cc="http://creativecommons.org/ns#"
   xmlns:rdf="http://www.w3.org/1999/02/22-rdf-syntax-ns#"
   xmlns:svg="http://www.w3.org/2000/svg"
   xmlns="http://www.w3.org/2000/svg"
   xmlns:sodipodi="http://sodipodi.sourceforge.net/DTD/sodipodi-0.dtd"
   xmlns:inkscape="http://www.inkscape.org/namespaces/inkscape"
   width="1000"
   height="1000"
   viewBox="0 0 264.58333 264.58334"
   version="1.1"
   id="svg8"
   inkscape:version="0.92.4 (unknown)"
   sodipodi:docname="SMKF.svg"
   inkscape:export-filename="/home/komputer/Desktop/SMKF.svgb.png"
   inkscape:export-xdpi="475.25"
   inkscape:export-ydpi="475.25">
  <defs
     id="defs2">
    <inkscape:path-effect
       effect="bend_path"
       id="path-effect903"
       is_visible="true"
       bendpath="m 54.430761,240.20709 c 41.602801,26.19406 99.299589,29.90636 154.301399,0"
       prop_scale="0.99"
       scale_y_rel="false"
       vertical="false"
       bendpath-nodetypes="cc" />
    <inkscape:path-effect
       effect="bend_path"
       id="path-effect820"
       is_visible="true"
       bendpath="m 51.9375,212.64583 c 0,0 -3.768492,-3.90715 -5.548246,-5.95477 -1.773279,-2.04017 -3.477772,-4.14234 -5.105265,-6.30059 -1.623484,-2.15294 -3.173632,-4.36332 -4.642292,-6.62471 -1.466943,-2.25875 -2.856054,-4.57012 -4.159329,-6.9271 -1.303639,-2.35763 -2.525,-4.76281 -3.656375,-7.20778 -1.133534,-2.44964 -2.180417,-4.9414 -3.133429,-7.46675 -0.956577,-2.5348 -1.82224,-5.10592 -2.590492,-7.704 -0.772703,-2.61314 -1.450393,-5.25637 -2.027566,-7.91953 -0.581834,-2.68467 -1.064784,-5.39276 -1.444647,-8.11336 -0.38388,-2.74937 -0.665328,-5.51504 -0.841738,-8.28546 -0.178752,-2.80721 -0.251941,-5.62314 -0.218838,-8.43584 0.03364,-2.85814 0.175453,-5.71701 0.424054,-8.56452 0.253365,-2.90207 0.616903,-5.79654 1.086935,-8.67148 0.48049,-2.93891 1.072443,-5.8616 1.769808,-8.75672 0.715047,-2.96853 1.542073,-5.912089 2.472673,-8.820255 0.957044,-2.990803 1.997198,-5.959504 3.195527,-8.862062 1.065553,-2.580951 2.272143,-5.104435 3.545253,-7.589572 1.263704,-2.466776 2.618559,-4.888887 4.058132,-7.257338 1.431166,-2.35462 2.94908,-4.658604 4.546912,-6.903466 1.590778,-2.234952 3.263681,-4.413626 5.01159,-6.527959 1.742516,-2.10781 3.562357,-4.153989 5.452168,-6.130814 1.886373,-1.973229 3.845115,-3.879724 5.868647,-5.712032 2.022355,-1.831242 4.111972,-3.590857 6.261024,-5.271614 2.150482,-1.681875 4.362958,-3.287401 6.629301,-4.80956 2.270782,-1.525141 4.59811,-2.969354 6.973478,-4.325868 2.38329,-1.361038 4.817465,-2.6367 7.293555,-3.820539 2.488044,-1.189554 5.021057,-2.289411 7.589531,-3.293575 2.585081,-1.010656 5.208918,-1.927437 7.861408,-2.744974 2.674431,-0.824298 5.381061,-1.550717 8.109181,-2.174735 2.75611,-0.630419 5.5375,-1.159182 8.33286,-1.582861 2.83012,-0.428946 5.6782,-0.75275 8.53243,-0.969348 2.89644,-0.219801 5.80312,-0.329233 8.70788,-0.334201 2.79853,-0.0048 5.59901,0.09471 8.39049,0.293282 2.7591,0.196268 5.51299,0.491717 8.25068,0.886961 2.71206,0.391544 5.41177,0.881458 8.0882,1.469059 2.65737,0.583416 5.2953,1.263917 7.90305,2.039576 2.59501,0.771869 5.16355,1.639076 7.69522,2.598512 2.52494,0.956885 5.0165,2.006916 7.46471,3.145865 2.44713,1.138449 4.85413,2.367419 7.21154,3.681638 2.36157,1.316541 4.67641,2.720571 6.93568,4.205829 2.26823,1.491148 4.48333,3.066351 6.63716,4.718438 2.16709,1.662251 4.27484,3.404748 6.31595,5.219466 2.05812,1.829838 4.05095,3.73574 5.97208,5.708913 1.9413,1.993888 3.81161,4.059312 5.60552,6.186778 1.81661,2.154386 3.55683,4.375437 5.21631,6.653062 1.68402,2.311305 3.28654,4.684094 4.8044,7.107763 1.54351,2.464627 3.00075,4.985256 4.36982,7.550885 1.39505,2.614318 2.75618,5.254134 3.91258,7.982424 1.14372,2.698389 2.0842,5.481295 2.98233,8.271056 0.88264,2.741637 1.67237,5.515106 2.36177,8.311596 0.67902,2.75439 1.26288,5.53414 1.74538,8.32966 0.47635,2.75986 0.85568,5.53836 1.13314,8.32525 0.27459,2.75802 0.45075,5.52771 0.52507,8.29837 0.0737,2.7488 0.0481,5.50213 -0.0788,8.24899 -0.12625,2.73217 -0.35232,5.4616 -0.67859,8.17716 -0.32537,2.70807 -0.75049,5.40603 -1.27418,8.08283 -0.52362,2.67645 -1.14639,5.33539 -1.8656,7.96604 -0.72101,2.63726 -1.54004,5.24961 -2.45287,7.82677 -0.91753,2.59043 -1.9314,5.14865 -3.03598,7.66502 -1.11316,2.53592 -2.32046,5.03246 -3.61493,7.4808 -1.30787,2.47367 -2.70717,4.90099 -4.18971,7.27409 -1.50162,2.40365 -3.09149,4.7542 -4.76033,7.04491 -1.6944,2.3258 -3.4734,4.59206 -5.32679,6.79326 -1.88615,2.2401 -5.8891,6.51913 -5.8891,6.51913"
       prop_scale="1"
       scale_y_rel="false"
       vertical="false"
       bendpath-nodetypes="csssssssssssssssssssssssssssssssssssssssssssssssssssssssssssssssc" />
  </defs>
  <sodipodi:namedview
     id="base"
     pagecolor="#ffffff"
     bordercolor="#666666"
     borderopacity="1.0"
     inkscape:pageopacity="0.0"
     inkscape:pageshadow="2"
     inkscape:zoom="0.49497475"
     inkscape:cx="245.75436"
     inkscape:cy="438.31269"
     inkscape:document-units="px"
     inkscape:current-layer="layer2"
     showgrid="false"
     units="px"
     inkscape:showpageshadow="false"
     inkscape:pagecheckerboard="true"
     inkscape:window-width="1920"
     inkscape:window-height="1016"
     inkscape:window-x="0"
     inkscape:window-y="0"
     inkscape:window-maximized="1"
     inkscape:snap-global="false"
     inkscape:snap-object-midpoints="true"
     inkscape:snap-center="true"
     inkscape:snap-page="true"
     inkscape:object-paths="false"
     inkscape:snap-intersection-paths="false"
     inkscape:snap-smooth-nodes="true"
     inkscape:snap-midpoints="false"
     inkscape:object-nodes="true" />
  <metadata
     id="metadata5">
    <rdf:RDF>
      <cc:Work
         rdf:about="">
        <dc:format>image/svg+xml</dc:format>
        <dc:type
           rdf:resource="http://purl.org/dc/dcmitype/StillImage" />
        <dc:title />
      </cc:Work>
    </rdf:RDF>
  </metadata>
  <g
     inkscape:groupmode="layer"
     id="layer2"
     inkscape:label="SMKF">
    <g
       id="g992"
       transform="matrix(0.99009898,0,0,0.99009898,1.3098182,1.3098182)">
      <path
         transform="scale(0.26458333)"
         id="path824"
         d="M 500,0 A 500.00002,500.00002 0 0 0 0,500 500.00002,500.00002 0 0 0 500,1000 500.00002,500.00002 0 0 0 1000,500 500.00002,500.00002 0 0 0 500,0 Z m 0,150 A 350.00002,350.00002 0 0 1 850,500 350.00002,350.00002 0 0 1 500,850 350.00002,350.00002 0 0 1 150,500 350.00002,350.00002 0 0 1 500,150 Z"
         style="opacity:1;fill:#ffffff;fill-opacity:1;stroke:none;stroke-width:10;stroke-linecap:square;stroke-linejoin:miter;stroke-miterlimit:4;stroke-dasharray:none;stroke-dashoffset:0;stroke-opacity:1;paint-order:markers fill stroke"
         inkscape:connector-curvature="0" />
      <path
         sodipodi:nodetypes="cccccccccccccccccccccccccccccccccccccccccccccccccccccccccccccccccccccccccccccccccccccscccccccccccccccccccccccccccscccccccccccccccccccccccccccccccccccccccccccccccccccsscccccccccccccccccccccccccccccccccccssscccscccccscsccccccccccsccccscccsccccccccccccccccccccccccccccccccccccccccsccccscsccccccccccccccccccccccscccccccccccccccccccsccsccccccccccsccccccccccccccccsccccccccscccccccccccsccccccccccccccccccccccccsccscccccscccccccccccccccccccccccccccccccccccccccccccsccccccccccccccccccccccccccccccccccccsccccccccccccsccccsccccccccccccccccccccccccccccccccccccccccccccccccccccccccccccccccccccccccccccccccccccccccccccccccsccccccccccccccccccccccccccccccccccccccccccccccccccccccccccccccccccccccccccccccccccccccccccccccccccccccccccccccccccccccccscccccccccccccccccccccccccccccccccccccccccccsccccccccccccccccccccccccczccccccccczcccccc"
         inkscape:connector-curvature="0"
         id="path828"
         d="m 246.58892,73.156068 c -2.00493,1.413195 -2.82956,3.223939 -2.50977,5.545739 0.14618,1.079944 0.6954,2.726748 1.62537,5.667199 0.36975,1.191808 0.7511,2.465527 1.15776,3.911272 0.48078,1.313339 0.92197,2.605147 1.33675,3.869599 0.15072,0.49203 0.28033,0.959881 0.38989,1.40222 v 0 c 0.39702,1.569853 0.56211,2.895822 0.51787,3.955109 -0.0814,1.926248 -0.32469,1.906965 -1.68563,2.281991 0.29299,1.063283 0.5725,2.130753 0.83822,3.202123 1.6816,-0.41701 2.30516,-0.51872 2.85428,-2.63831 0.51243,-1.92132 0.4388,-4.23553 -0.27778,-6.866932 -0.0483,-0.195909 -0.10067,-0.398195 -0.15724,-0.606742 -0.17118,-0.644423 -0.38823,-1.370025 -0.65478,-2.168355 -0.45062,-1.349617 -0.9365,-2.736074 -1.47267,-4.15274 -0.39255,-1.059615 -0.75682,-2.058722 -1.06515,-2.944339 -0.57498,-1.617472 -0.93531,-2.813837 -1.0669,-3.731203 -0.24777,-1.959372 0.34041,-3.306237 1.81248,-4.100336 0.38901,-1.000868 -0.25744,-2.642799 -1.6427,-2.626295 z M 46.425795,217.98007 l 1.584987,-1.47768 -5.710639,-6.13125 c -0.283754,-0.32631 -0.565861,-0.6541 -0.846298,-0.98336 0.287177,-0.6137 0.855167,-1.05836 1.693607,-1.35234 0.69365,-0.0739 1.325796,-0.12002 1.899023,-0.13592 1.931433,-0.0952 3.214934,0.19804 3.8627,0.89325 0.338738,0.36355 0.357455,0.83532 0.0568,1.41607 0.330892,0.50302 0.765338,0.84613 1.30212,1.02799 0.536803,0.18188 0.900589,0.096 1.092671,-0.2564 0.03287,-1.68952 -0.392381,-3.00808 -1.284687,-3.96561 -0.55084,-0.59111 -1.384501,-1.0521 -2.504981,-1.38739 -1.299546,-0.41685 -2.991738,-0.67986 -5.129937,-0.85572 0.457775,-1.80026 0.694208,-3.2531 0.676247,-4.3986 -0.0042,-0.43488 -0.04501,-0.85884 -0.122551,-1.27277 -0.197703,-1.04205 -0.629121,-2.023 -1.297381,-2.96218 -0.317735,-0.44655 -0.704739,-0.90074 -1.16134,-1.36679 -0.04808,-0.048 -0.09463,-0.0843 -0.142496,-0.13033 l 0.839693,-0.57556 c 1.483144,1.03658 2.982086,2.02775 4.494013,2.97435 1.147042,0.71256 2.299111,1.39535 3.455007,2.0488 0.427743,0.24404 0.757736,0.2656 0.989228,0.0717 0.206024,-0.17257 0.288472,-0.43353 0.250905,-0.78159 -0.201321,-1.52116 -0.359851,-3.02877 -0.475523,-4.52081 -0.170451,-1.85939 -0.285216,-3.70371 -0.3443,-5.52907 -0.0077,-0.26885 -0.134038,-0.58284 -0.377248,-0.94529 -0.430351,-0.64133 -0.791809,-1.00133 -1.098815,-1.07666 -0.129449,-0.032 -0.248648,-0.0129 -0.357514,0.0576 l -10.220937,6.61725 c -0.735216,-0.1169 -1.45144,0.0217 -2.142829,0.46279 -0.722988,0.46127 -1.291357,1.19664 -1.685075,2.2186 v 0 c -0.09941,0.25824 -0.187632,0.53484 -0.264204,0.82983 -0.127923,0.5249 -0.273603,1.10567 -0.440005,1.76751 -0.333298,-0.4967 -0.662936,-0.99598 -0.988853,-1.49778 -0.818913,-1.26086 -1.614679,-2.53746 -2.38635,-3.82918 -0.689673,-1.12482 -1.361081,-2.26169 -2.013568,-3.41022 -0.308169,-0.54243 -0.612186,-1.08741 -0.911982,-1.63489 -0.368997,-0.6331 -0.732353,-1.26996 -1.089954,-1.91051 0.965559,1.37435 1.943845,2.33419 2.995748,2.99588 v 0 c 0.439324,0.27658 0.893486,0.50248 1.368475,0.6861 3.660514,0.95335 6.717662,0.39494 9.19532,-1.32931 1.974856,-1.34658 3.252465,-3.27067 3.958342,-5.68414 0.192638,-0.64961 0.323873,-1.28926 0.393955,-1.92041 0.206691,-1.88502 -0.130987,-3.6916 -1.008604,-5.50143 -0.249471,-0.51447 -0.540236,-1.02371 -0.872606,-1.53054 v 0 l -0.004,-0.006 c -0.110193,-0.18418 -0.412792,-0.53348 -0.910569,-1.07001 -0.266843,-0.15853 -0.53852,-0.1781 -0.815168,-0.0559 -0.582567,0.25728 -0.697263,0.79892 -0.320431,1.62224 0.0371,0.0811 0.103806,0.2034 0.20017,0.3658 0.134877,0.22715 0.331313,0.53827 0.587266,0.92389 0.312468,0.50001 0.527656,0.96606 0.644191,1.40329 0.52016,1.91429 0.493922,3.66401 -0.119615,5.29709 v 0 c -0.04875,0.12933 -0.101175,0.2579 -0.157303,0.3857 -0.703727,1.5177 -1.849732,2.77055 -3.480043,3.70827 -1.95886,1.12669 -3.915159,1.54744 -5.894148,1.17641 -0.589929,-0.11053 -1.1804,-0.29132 -1.769982,-0.54412 -1.700055,-0.72473 -3.157395,-1.83489 -4.334877,-3.31294 -0.462469,-0.59541 -0.835397,-1.13164 -1.225383,-1.74956 -0.326205,-0.51671 -0.691969,-1.13497 -1.131007,-1.90592 -0.318829,-0.72404 -0.630442,-1.45145 -0.934713,-2.18211 l 9.521963,-3.96542 c 0.487149,-0.20288 0.558776,-0.70505 0.23536,-1.50946 -0.176196,-0.43824 -0.405105,-0.80601 -0.689404,-1.10517 -0.372842,-0.19468 -0.738446,-0.40034 -1.096621,-0.61694 -2.542984,-1.53966 -4.712327,-3.62765 -6.420217,-6.22286 v 0 c -0.141972,-0.21574 -0.280729,-0.43492 -0.416214,-0.65748 0.701976,0.0959 1.374547,0.15649 2.016702,0.18422 1.830898,0.0788 3.423579,-0.10982 4.769702,-0.52011 1.35317,-0.41243 2.597641,-1.0892 3.750731,-1.99938 0.883291,-0.69862 1.712031,-1.53441 2.499164,-2.4968 -0.117716,-0.59278 -0.279084,-1.07023 -0.489997,-1.43559 -0.288927,-0.4887 -0.62895,-0.62985 -1.025137,-0.41276 -1.782774,1.95441 -3.649792,3.27892 -5.705462,3.84832 -1.895324,0.52496 -4.561475,0.49419 -7.918284,-0.30109 -0.719413,0.11595 -0.988796,0.71982 -0.775067,1.81758 0.102582,0.73428 0.465804,1.61662 1.098459,2.62227 0.603486,0.95951 1.455962,2.03587 2.561444,3.19119 1.462039,1.5268 2.724625,2.60675 3.711658,3.26651 0.257266,0.17187 0.497735,0.31654 0.720709,0.4345 l -7.542237,2.89947 c -0.08501,-0.22112 -0.16935,-0.44253 -0.253013,-0.6642 v 0 c -1.003623,-2.65925 -1.911741,-5.3567 -2.719015,-8.08647 v 0 c -0.773917,-2.61701 -1.456846,-5.26259 -2.044808,-7.93105 -0.02873,-0.13041 -0.05641,-0.25824 -0.08304,-0.38345 v -1e-5 c -0.370941,-1.74407 -0.546897,-3.0055 -0.571034,-3.70868 -0.03824,-1.3277 0.274963,-2.50503 0.924655,-3.5121 0.650176,-1.00782 1.376424,-1.41875 2.15449,-1.26915 1.026113,0.19708 1.959443,0.96259 2.839409,2.26504 0.782313,1.19155 1.370981,2.61767 1.798653,4.30118 0.167196,0.12951 0.3381,0.21734 0.512375,0.26392 0.183193,0.0489 0.370098,0.0523 0.560749,0.0107 0.190138,-0.0414 0.349395,-0.12025 0.477957,-0.23583 v 0 0 c 0.1452,-0.13061 0.25128,-0.30821 0.318996,-0.53262 -0.583144,-2.31294 -1.056629,-3.91193 -1.544366,-4.85593 -0.448276,-0.83355 -1.061561,-1.57789 -1.84538,-2.24175 -0.49863,-0.42247 -1.06659,-0.81241 -1.704613,-1.17104 1.157597,-1.19655 1.911976,-2.44211 2.270398,-3.76301 0.212056,-0.80242 0.340652,-1.90864 0.418838,-3.33902 0.03524,-0.64573 0.05995,-1.35286 0.07818,-2.12755 -0.29851,-0.42123 -0.75419,-0.62342 -1.369704,-0.6 -0.302154,0.0115 -0.493936,0.12883 -0.57444,0.35376 -0.03032,0.93281 -0.07498,1.76405 -0.141104,2.50159 -0.10685,1.19124 -0.26843,2.12435 -0.506805,2.80931 -0.479625,1.41517 -1.378844,2.26355 -2.738775,2.51102 -1.035432,0.19519 -1.959415,-0.30377 -2.73972,-1.54387 -0.597018,-0.96484 -0.96146,-2.07929 -1.081381,-3.32648 -0.01042,-0.10836 -0.01899,-0.21771 -0.02571,-0.32804 -0.125944,-2.06894 0.191085,-3.93338 0.919171,-5.54494 0.696717,-1.4785 1.466586,-2.19482 2.258395,-2.19072 l 15.589391,0.0807 c 0.303942,0.002 0.507416,-0.21324 0.61523,-0.64136 0.05527,-0.21996 0.08551,-0.496 0.09221,-0.82919 0.01609,-0.79961 -0.196852,-1.20875 -0.656968,-1.22357 l -18.906036,-0.60899 c 0.04225,-1.31165 0.106148,-2.6225 0.191601,-3.93186 l -2.162489,-0.14113 c -0.087,1.33309 -0.152059,2.66772 -0.195074,4.00323 -0.02813,0.87348 0.202969,1.64283 0.68701,2.29635 0.04957,0.0669 0.09918,0.13037 0.148813,0.19035 h 1e-6 c 0.435119,0.5263 0.87189,0.78624 1.303696,0.78848 -0.649059,0.41576 -1.197585,1.45957 -1.587326,3.13971 -0.40113,1.68126 -0.527963,3.27172 -0.393664,4.74057 0.01733,0.11236 0.03516,0.22308 0.05348,0.33215 v 0 c 0.294978,1.75766 0.717181,3.09243 1.217697,3.99059 0.567246,1.07335 1.476973,2.09044 2.725005,3.02458 -0.44828,0.50553 -0.829838,1.03127 -1.144138,1.5759 -0.675406,1.17181 -1.039067,2.43062 -1.084338,3.75471 -0.03732,0.89515 0.167534,2.68004 0.698656,5.17929 l -0.0035,7.6e-4 c 8.8e-4,0.004 0.0018,0.008 0.0026,0.0122 0.618093,2.85151 1.342406,5.67698 2.168361,8.46986 h 10e-7 c 0.822577,2.78141 1.747569,5.52909 2.76964,8.23713 0.755191,2.00091 1.564205,3.97947 2.424666,5.93354 0.301675,0.68509 0.609675,1.36717 0.923896,2.04615 1.210087,2.6148 2.51381,5.18242 3.905025,7.6982 h 10e-7 c 0.650723,1.17673 1.320852,2.34189 2.009747,3.49506 0.785688,1.31517 1.595785,2.61474 2.429344,3.89809 1.568286,2.41455 3.220646,4.7708 4.950832,7.06503 h 10e-7 c 1.765921,2.33515 3.611035,4.6071 5.529175,6.81246 l 10e-7,1e-5 5.736237,6.15945 z M 12.83581,111.3392 l 2.133122,0.38215 c 0.254622,-1.4213 0.533836,-2.83768 0.837119,-4.2484 0.677531,0.97802 1.366237,1.94145 2.065773,2.88984 0.136618,0.0601 0.270924,0.10291 0.402848,0.12855 0.627941,0.12206 1.09416,-0.30301 1.418472,-1.26157 0.222177,-1.53697 0.636206,-2.79052 1.213171,-3.74388 0.03902,-0.0645 0.0788,-0.1276 0.119318,-0.18937 0.797539,-1.24003 1.732981,-1.66948 2.777075,-1.33283 0.08918,0.85613 0.231119,1.63036 0.420874,2.32125 0.692487,2.52148 2.009609,3.92433 3.817793,4.30517 0.493367,0.10391 1.047874,0.15881 1.664356,0.16807 1.612436,-0.26349 2.929708,-1.00125 3.976827,-2.1948 0.795268,-0.90638 1.437439,-2.07683 1.95625,-3.52545 0.172923,-0.62077 -0.09038,-1.03458 -0.801359,-1.23924 -0.398084,-0.11459 -0.716539,-0.002 -0.953242,0.34125 -0.420369,1.48912 -1.12704,2.58101 -2.158439,3.29862 -0.26595,0.18859 -0.537962,0.34102 -0.816514,0.4568 -0.702197,0.29192 -1.447739,0.35141 -2.236273,0.16644 -0.468792,-0.10997 -0.917126,-0.30817 -1.34337,-0.59786 -0.164181,-0.17264 -0.31463,-0.35248 -0.451262,-0.53953 -1.050429,-1.43791 -1.286041,-3.31338 -0.642312,-5.55281 0.364299,-1.26735 0.939702,-2.378563 1.712329,-3.318455 0.448898,-0.548655 0.962202,-1.039659 1.53877,-1.470601 1.203792,-1.055923 2.54052,-1.557771 3.998557,-1.541103 0.993426,0.0234 2.256621,0.323103 3.805315,0.887445 l 1.420498,0.517628 c 0.412311,0.150246 0.77313,-0.220832 1.101981,-1.082692 0.293286,-0.768652 0.256528,-1.221589 -0.129626,-1.37585 L 22.025738,86.933935 c 0.133499,-0.334434 0.269027,-0.668698 0.406683,-1.002743 0.370353,-0.895218 0.753774,-1.779199 1.147801,-2.652735 0.671451,-1.488568 1.373703,-2.946807 2.094581,-4.378644 l 16.77886,8.442399 c 0.295668,0.148767 0.605965,-0.04533 0.938972,-0.58481 v 0 c 0.06025,-0.09658 0.121169,-0.204571 0.182915,-0.324008 0.426582,-0.825154 0.49776,-1.31606 0.190196,-1.480549 L 27.144835,76.063784 c 0.614852,-1.149664 1.24842,-2.289112 1.900286,-3.417822 0.449572,-0.778437 0.907846,-1.551765 1.374686,-2.319814 1.500897,-2.469295 3.091206,-4.883209 4.766083,-7.236274 h 10e-7 c 1.627667,-2.28675 3.335818,-4.515419 5.11986,-6.681154 l 5.834865,4.806468 c -2.426639,0.674615 -4.559361,2.213998 -6.258217,4.577771 -0.09999,0.139129 -0.199032,0.281907 -0.297068,0.428316 -0.26042,0.388918 -0.513831,0.803516 -0.759247,1.24343 -1.151267,2.035598 -1.591071,3.972117 -1.356168,5.73251 0.0807,0.628098 0.234553,1.192197 0.457858,1.692365 0.401247,0.899175 1.025893,1.590972 1.859499,2.089106 0.814675,0.486821 1.74946,0.727359 2.799362,0.742604 0.01598,2.4e-4 0.03198,4.28e-4 0.04801,5.63e-4 1.484936,0.01817 2.935591,-0.604519 4.402357,-1.829527 0.245583,-0.270074 0.359915,-0.591808 0.344161,-0.968994 -0.01689,-0.395292 -0.1483,-0.678918 -0.398259,-0.849313 -0.166505,-0.113505 -0.380947,-0.12742 -0.643404,-0.03945 -0.946831,0.617985 -1.691826,1.01854 -2.255148,1.185976 -0.570115,0.160592 -1.23467,0.109095 -1.993386,-0.157794 -0.306619,-0.12301 -0.583034,-0.261954 -0.829132,-0.417677 -1.04935,-0.663996 -1.58743,-1.708484 -1.564674,-3.154168 0.04194,-1.314557 0.542175,-2.700763 1.512253,-4.113651 0.04271,-0.06221 0.08634,-0.124472 0.130873,-0.18677 0.339576,-0.47503 0.700971,-0.915029 1.082826,-1.319081 1.219257,-1.255731 2.403806,-2.002472 3.506427,-2.258274 1.106796,-0.275719 2.301905,-0.145697 3.582396,0.379072 l 5.640364,4.646255 c 0.113088,0.09316 0.242925,0.124042 0.389363,0.09326 v 0 c 0.256855,-0.05387 0.563454,-0.296669 0.926887,-0.726065 0.579011,-0.684099 0.725829,-1.153101 0.420489,-1.418719 L 42.376641,53.962507 c 0.855768,-0.98375 1.727625,-1.953425 2.6151,-2.908548 0.384867,-0.414202 0.772671,-0.825668 1.163375,-1.234359 1.978112,-2.069193 4.030688,-4.067017 6.152685,-5.988488 v 0 c 1.836447,-1.662916 3.724822,-3.268669 5.661804,-4.814048 l 0.984832,1.234394 c -1.282435,2.312977 -2.467659,4.646239 -3.556463,6.992324 -1.251458,2.696531 -2.375378,5.410021 -3.373077,8.129215 -0.0057,0.01435 -0.01094,0.02865 -0.01583,0.04288 v 0 c -0.107853,0.314475 -0.02409,0.600187 0.247987,0.858179 0.219454,0.208097 0.476917,0.269953 0.771723,0.188179 0.02012,-0.0046 0.04023,-0.0092 0.06035,-0.01384 h 1e-6 c 3.072967,-0.703746 6.128164,-1.25165 9.15105,-1.64834 h 10e-7 c 2.616378,-0.343472 5.208613,-0.573897 7.767261,-0.694394 0.32624,-0.01562 0.644983,-0.128449 0.958681,-0.338287 0.05377,-0.03597 0.107402,-0.07479 0.160906,-0.116466 0.653413,-0.508915 0.89917,-1.02182 0.728809,-1.553668 L 60.501644,37.052164 c 1.040841,-0.7855 2.094672,-1.553964 3.160998,-2.304929 L 62.41484,32.975439 c -1.65614,1.166342 -3.282582,2.374065 -4.87757,3.621519 -2.295161,1.795049 -4.524881,3.67262 -6.684049,5.627768 l -10e-7,1e-6 c -2.160606,1.956431 -4.250471,3.99055 -6.264555,6.097371 l -10e-7,1e-6 c -0.39786,0.416176 -0.792768,0.83518 -1.184685,1.256972 -1.59535,1.716962 -3.141147,3.480138 -4.634807,5.286907 -1.865563,2.256614 -3.650146,4.580772 -5.348804,6.967245 -1.705084,2.395487 -3.324167,4.853094 -4.852404,7.367351 l -1e-6,10e-7 c -0.475272,0.781916 -0.941834,1.569229 -1.399546,2.361766 -1.021468,1.768688 -1.998864,3.563397 -2.930659,5.382217 -0.906132,1.764863 -1.791168,3.576667 -2.632663,5.442651 -0.402711,0.892995 -0.795451,1.798398 -1.175759,2.717004 -1.302306,3.162376 -2.413697,6.325852 -3.411052,9.451355 v 2e-6 c -0.986772,3.083175 -1.863967,6.20589 -2.624286,9.36166 -0.591709,2.45609 -1.111992,4.93132 -1.558188,7.42197 z m 61.383498,-85.699705 1.036115,1.903357 c 1.817614,-0.989434 3.661512,-1.931615 5.529559,-2.824773 2.608887,-1.247376 5.264063,-2.400233 7.959414,-3.454045 l 1e-6,-10e-7 c 1.216397,-0.475579 2.440792,-0.931253 3.672593,-1.366647 l 0.571051,1.615561 c -1.038687,0.9251 -2.05375,1.864418 -3.045069,2.81683 v 1e-6 c -2.195694,2.10901 -4.272805,4.283244 -6.230949,6.510434 -0.762938,0.867878 -1.50753,1.743936 -2.233791,2.627449 -0.380538,0.460066 -0.488753,0.840577 -0.333173,1.137873 0.129976,0.248269 0.421839,0.35377 0.8747,0.321659 1.297766,0.123037 2.584064,0.270681 3.857851,0.442511 3.08655,0.415039 6.101063,0.969402 9.029034,1.65627 h 10e-7 c 1.32455,0.30942 2.631867,0.645279 3.920667,1.006852 0.611418,0.16404 1.224998,0.141398 1.849778,-0.06694 0.57069,-0.190301 0.78834,-0.499761 0.6469,-0.93734 L 96.497944,22.098807 c 0.511647,-0.183799 1.01171,-0.331225 1.498738,-0.44278 h 10e-7 c 2.005057,-0.459205 3.783077,-0.311194 5.280017,0.404911 0.9857,0.460703 1.58716,1.178548 1.82575,2.13425 0.22789,0.912846 0.0968,1.781455 -0.37132,2.608017 -0.46874,0.827566 -1.14651,1.315696 -2.05125,1.478571 -0.55686,0.332291 -0.76027,0.743517 -0.61902,1.226793 0.1922,0.657636 0.76775,0.804253 1.72928,0.468651 1.541,-0.379977 2.64053,-1.194112 3.33317,-2.488097 0.29397,-0.532371 0.49226,-1.086598 0.59155,-1.664142 0.11839,-0.687458 0.0964,-1.408993 -0.0731,-2.163073 -0.17233,-0.766289 -0.46203,-1.429463 -0.87631,-1.987821 -0.34774,-0.4687 -0.78295,-0.862843 -1.30757,-1.179426 -1.7484,-1.049834 -4.46263,-1.35598 -8.037789,-0.709544 h -10e-7 c -0.504248,0.09122 -1.025458,0.201525 -1.56281,0.331591 l -0.403032,-1.246811 c 0.510327,-0.164964 1.02182,-0.326462 1.534438,-0.484466 2.803984,-0.86427 5.640634,-1.625545 8.502954,-2.280297 v 0 c 1.52009,-0.347715 3.04713,-0.66584 4.58004,-0.953983 1.38056,-0.259506 2.76588,-0.494693 4.15516,-0.705274 2.9658,-0.449528 5.94862,-0.788634 8.94061,-1.015703 3.03657,-0.230284 6.07757,-0.344921 9.11482,-0.349968 v 0 c 1.91121,-0.0032 3.82105,0.0398 5.72752,0.12758 l -0.24965,5.4204 c -1.87251,-1.500508 -3.72929,-2.318032 -5.4726,-2.464146 -0.20546,-0.01725 -0.40936,-0.02519 -0.61157,-0.02384 -1.75215,0.01165 -3.47467,0.749632 -5.07929,2.208543 -0.91543,-0.76655 -1.97766,-1.301623 -3.17696,-1.594201 -1.06942,-0.260886 -2.24708,-0.328594 -3.51773,-0.194063 -2.06873,0.219027 -3.77118,0.869956 -5.06637,1.902021 -0.65932,0.525265 -1.21365,1.149478 -1.66205,1.868522 -0.71727,1.143684 -0.96059,2.249993 -0.7691,3.30677 0.28202,1.556368 1.32799,2.751454 3.06381,3.654347 0.2478,0.126037 0.50029,0.240369 0.7576,0.343108 1.56438,0.623529 3.30214,0.817675 5.27048,0.615933 0.33794,-0.03464 0.65301,-0.07657 0.94531,-0.126388 0.55052,-0.298658 0.80939,-0.68467 0.7685,-1.164883 -0.0332,-0.390097 -0.34775,-0.64587 -0.94814,-0.758652 -0.2676,0.04751 -0.54344,0.08557 -0.82791,0.11436 -1.5564,0.157543 -2.92389,-0.03607 -4.13899,-0.602611 -0.6684,-0.317332 -1.18327,-0.712503 -1.54135,-1.192635 -0.29292,-0.393025 -0.48082,-0.843008 -0.55951,-1.351255 -0.0724,-0.467559 -0.0325,-0.973103 0.125,-1.515562 v 0 c 0.0102,-0.03516 0.0209,-0.07048 0.0321,-0.10595 0.78061,-1.700772 2.38226,-2.730392 4.76309,-2.98246 1.38206,-0.146324 2.54921,0.02243 3.47946,0.484997 0.76727,0.381529 1.3739,0.962472 1.82072,1.73606 0.29784,0.217669 0.75124,0.308382 1.36383,0.278329 0.61266,-0.03006 1.04036,-0.141623 1.28554,-0.341629 0.97689,-1.706573 2.27013,-2.576932 3.81878,-2.584775 0.13612,-6.9e-4 0.27219,0.0049 0.40815,0.01678 1.8446,0.161042 3.66514,1.479627 5.30941,3.947046 l -0.46067,10.001737 c -0.031,0.67256 0.38407,1.024076 1.23897,1.074214 0.66499,0.039 1.10405,-0.114048 1.3195,-0.4691 v 0 c 0.0845,-0.139602 0.13429,-0.310369 0.14888,-0.512301 l 1.35802,-18.799656 c 1.29952,0.09386 2.59773,0.208713 3.89397,0.344663 1.54319,0.161852 3.08358,0.353599 4.62004,0.575396 0.27869,0.04023 0.55725,0.08145 0.83566,0.123664 -0.35879,0.212278 -0.67747,0.450122 -0.95639,0.712545 -0.81187,0.763841 -1.28471,1.732976 -1.44239,2.897404 -0.13888,1.025563 0.008,2.472507 0.39236,4.375735 0.12154,0.601662 0.26614,1.246021 0.43199,1.936338 0.70197,2.843306 0.90381,4.832878 0.73154,5.865411 -0.24765,1.484337 -1.17028,2.450612 -2.71633,2.953827 -0.62152,0.202317 -1.34514,0.331158 -2.17499,0.393772 -0.48901,0.176919 -0.7493,0.424037 -0.78538,0.735204 -0.0582,0.502213 0.38949,0.864773 1.32984,1.111945 0.47056,-0.05081 0.91556,-0.116707 1.3357,-0.19877 v 0 c 2.94085,-0.574333 4.71154,-1.970063 5.17259,-4.406497 0.22403,-1.183885 0.13289,-3.258427 -0.39255,-6.132897 -0.51386,-2.913692 -0.7308,-4.931162 -0.53461,-6.153378 0.14204,-0.884885 0.45042,-1.623435 0.93514,-2.213459 0.43846,-0.415083 1.12168,-0.698939 2.04985,-0.83738 0.94674,-0.146471 1.86231,-0.128605 2.7362,0.05111 0.51189,0.105271 1.02313,0.213946 1.53365,0.326023 0.16365,0.03593 0.32723,0.07221 0.49073,0.108834 1.57707,0.353295 3.14698,0.73911 4.70843,1.15726 l -4.85834,18.142183 c -0.10176,0.379988 0.26406,0.676485 1.08798,0.908781 0.89151,0.25135 1.38516,0.222187 1.48459,-0.112148 l 5.37283,-18.066648 c 0.002,5.57e-4 0.004,0.0011 0.006,0.0017 1.24921,0.371567 2.49222,0.764063 3.72835,1.177299 l 0.68708,-2.055289 c -1.2591,-0.420916 -2.52519,-0.820699 -3.7976,-1.199162 -2.62436,-0.780574 -5.27477,-1.470399 -7.9452,-2.068623 -0.16651,-0.0373 -0.3331,-0.07425 -0.49976,-0.110837 -2.8599,-0.627835 -5.74134,-1.150771 -8.63694,-1.56877 v 0 c -1.5644,-0.225822 -3.13267,-0.421043 -4.70366,-0.585814 -1.36442,-0.143106 -2.73091,-0.263244 -4.09871,-0.360514 -2.97322,-0.211659 -5.95823,-0.317553 -8.94778,-0.312602 h -1e-5 c -3.08916,0.0051 -6.18359,0.121785 -9.27509,0.356178 -3.04599,0.231174 -6.0824,0.576365 -9.10138,1.03396 -1.41454,0.214417 -2.82498,0.453864 -4.23049,0.718055 -1.56081,0.293381 -3.11557,0.617276 -4.66318,0.971291 -2.91491,0.666802 -5.803264,1.441936 -8.658034,2.321874 -2.834761,0.873778 -5.635284,1.852232 -8.395019,2.931234 h -2e-6 c -2.745095,1.07328 -5.448831,2.247203 -8.105094,3.517248 -1.902478,0.909633 -3.780161,1.869069 -5.630913,2.87654 z M 192.15648,26.63475 c -0.4212,-0.240883 -0.82103,-0.410477 -1.1971,-0.509527 -1.31781,-0.347031 -2.32834,0.168793 -3.04304,1.502572 -1.32754,-2.08135 -3.0183,-3.666994 -4.9946,-4.71194 h -1e-5 c -0.20552,-0.10867 -0.4141,-0.211473 -0.62564,-0.308362 -0.75725,-0.346829 -1.69242,-0.703971 -2.79828,-1.055132 -1.907,-0.564476 -3.62494,-0.66827 -5.11207,-0.343708 -0.31824,0.06946 -0.62613,0.158552 -0.92354,0.266987 -1.68639,0.605805 -2.75852,1.660647 -3.26641,3.106607 -0.24129,0.686957 -0.32833,1.421545 -0.27156,2.202586 0.0809,1.108041 0.47876,2.133189 1.17866,3.086267 0.78197,1.064881 1.93815,2.038163 3.46976,2.967586 0.3217,0.137223 0.6379,0.133962 0.95094,-0.01052 0.31763,-0.154631 0.53578,-0.364254 0.65314,-0.630819 0.14883,-0.338076 0.058,-0.629684 -0.27622,-0.872307 -1.27516,-0.601634 -2.20174,-1.45556 -2.79846,-2.594381 -0.59595,-1.137391 -0.7238,-2.206209 -0.34241,-3.212401 0.45548,-1.201646 1.54815,-1.989445 3.31713,-2.293307 1.4026,-0.244283 2.94583,-0.0088 4.58207,0.724718 0.50293,0.225469 0.97921,0.479553 1.42782,0.761199 0.96962,0.608726 1.80937,1.345778 2.5113,2.201576 1.0419,1.259603 1.43956,2.370328 1.24073,3.301364 -0.25262,1.344795 -0.51075,2.244467 -0.74701,2.685384 l -5.62553,10.498375 c -0.26004,0.485277 0.0413,0.951927 0.88568,1.420807 0.0491,0.02729 0.0972,0.05248 0.14426,0.07558 v 0 c 0.63233,0.310516 1.07959,0.242021 1.34398,-0.220301 l 9.24051,-16.157754 c 1.13327,0.648109 2.25551,1.315217 3.36617,2.000898 l 1.13842,-1.843985 c -1.13125,-0.698393 -2.27433,-1.37789 -3.42869,-2.038062 z m 14.12961,9.481561 -1.33248,1.709027 c 0.33852,0.263938 0.67559,0.529707 1.01117,0.797286 0.6797,2.55709 1.25675,5.10562 1.73479,7.638912 0.10301,0.545883 0.20141,1.091055 0.29524,1.635453 -0.51285,-0.08389 -1.02497,-0.163743 -1.53631,-0.239554 -1.47109,-0.218126 -2.93571,-0.402959 -4.39231,-0.554801 -0.49461,0.01117 -0.84418,0.145069 -1.05038,0.395691 -0.14238,0.17305 -0.23078,0.426275 -0.26788,0.759002 0.5033,1.415154 0.97077,2.830695 1.40307,4.24498 v 10e-7 c 0.87986,2.879551 1.61375,5.754648 2.20863,8.612421 v 0 c 0.19235,0.92497 0.37012,1.848259 0.53359,2.769471 0.0729,0.473356 0.31238,0.931352 0.71853,1.38132 0.56546,0.626478 1.03942,0.738719 1.43117,0.317166 l 11.69183,-10.312035 c 0.65046,0.737483 1.18441,1.452622 1.60332,2.137067 1.05212,1.718985 1.38073,3.242934 1.0329,4.520933 -0.20362,0.792745 -0.60761,1.415341 -1.20047,1.874981 -0.72583,0.562723 -1.54572,0.82012 -2.45377,0.788652 -0.89985,-0.03826 -1.54434,-0.351866 -1.94709,-0.951742 -0.42401,-0.306875 -0.80494,-0.317747 -1.14128,-0.03954 -0.553,0.457421 -0.59731,1.014317 -0.14923,1.674674 0.88271,0.948526 2.04182,1.517335 3.50892,1.727575 1.47451,0.203319 2.76296,-0.07219 3.85437,-0.876759 0.82882,-0.610994 1.42238,-1.489229 1.7558,-2.649364 0.53189,-1.933044 -0.0456,-4.394589 -1.8724,-7.23958 -0.68936,-1.073623 -1.5578,-2.201634 -2.60937,-3.363692 -0.72754,-0.803973 -1.56394,-0.757995 -2.49768,0.110025 l -9.90458,9.207504 c -0.17378,-0.937662 -0.36211,-1.87737 -0.5653,-2.818726 -0.6282,-2.908217 -1.39788,-5.833177 -2.31609,-8.761963 v -10e-7 c -0.1166,-0.371825 -0.23559,-0.74372 -0.35697,-1.115657 0.40449,0.04754 0.80957,0.09766 1.21521,0.150349 1.55833,0.202331 3.12494,0.442902 4.69793,0.721856 0.61679,0.202839 1.04765,-0.09647 1.27655,-0.91761 -0.26193,-1.814814 -0.57332,-3.639404 -0.93575,-5.471577 -0.17888,-0.904489 -0.37014,-1.810793 -0.57395,-2.718624 0.5661,0.484626 1.12761,0.974527 1.68443,1.469602 2.15824,1.918913 4.24567,3.915224 6.25846,5.982608 2.03427,2.089459 3.99182,4.251144 5.86963,6.478193 v 10e-7 c 1.90196,2.255698 3.72165,4.578085 5.45693,6.959855 0.61756,0.847642 1.22438,1.702759 1.82039,2.565019 0.87745,1.269419 1.73149,2.55432 2.56196,3.853646 l -15.82511,10.114887 c -0.292,0.186641 -0.27019,0.575516 0.0544,1.170282 v 0 c 0.0433,0.07938 0.092,0.16246 0.1461,0.249313 0.49656,0.797453 0.88547,1.113685 1.18381,0.933199 l 16.12699,-9.756435 c 0.67223,1.111161 1.32759,2.231986 1.96608,3.361851 0.52715,0.932837 1.0428,1.871836 1.54693,2.816646 v 10e-7 c 1.42371,2.658853 2.85451,5.444552 4.12421,8.425558 0.29203,0.692394 0.57038,1.383675 0.83713,2.072917 l -7.31504,2.829266 c -2.13078,0.82413 -2.91901,2.249093 -2.46209,4.292521 0.34931,1.017149 0.88209,1.987805 1.60933,2.912803 0.44815,0.561599 0.96723,1.102141 1.55846,1.625533 0.63098,0.543892 1.90153,1.419192 4.2321,3.145072 -0.78343,1.72287 -2.03375,2.7588 -3.69591,3.16918 -1.50073,0.37052 -2.94186,0.1293 -4.33006,-0.66496 -2.06151,-1.18558 -3.41949,-2.89263 -4.16482,-5.20882 l -0.002,-0.005 c -0.70344,-2.163132 -0.75856,-4.287121 -0.32282,-6.555995 0.12896,-0.646119 0.2859,-1.263467 0.46921,-1.853972 v 0 c 0.46837,-1.489519 1.06393,-2.871023 1.89001,-4.139513 0.90744,-1.823873 2.70941,-4.520332 5.21505,-7.82234 0.0481,-0.293217 0.0154,-0.597731 -0.0977,-0.912461 v 0 c -0.0426,-0.118125 -0.0964,-0.237791 -0.16151,-0.358893 -0.20951,-0.389819 -0.4738,-0.675777 -0.79019,-0.856651 -0.30862,-0.166547 -0.56794,-0.171982 -0.77755,-0.01894 -0.96627,1.214758 -1.84521,2.403048 -2.63575,3.563722 -1.64602,2.43848 -2.8721,4.782312 -3.76947,6.966256 -0.61783,1.492695 -1.02253,3.029346 -1.33599,4.622802 -0.0648,0.34051 -0.1222,0.68861 -0.17172,1.044848 -0.29853,2.326242 -0.17804,4.574698 0.55478,6.943637 v 0 c 0.0357,0.11741 0.0726,0.23445 0.11096,0.35112 0.91085,2.74828 2.56011,4.78352 5.07614,6.23964 v 0 c 0.74579,0.43231 1.56772,0.81309 2.46673,1.14323 1.43671,0.29471 2.68762,0.33964 3.7606,0.10133 1.78353,-0.39613 3.22833,-1.64053 4.2394,-3.82484 v 0 c 0.16996,-0.36717 0.3274,-0.76074 0.47151,-1.18073 0.24019,-0.64322 0.26944,-1.30481 0.0868,-1.97643 -0.12317,-0.45291 -0.32067,-0.74268 -0.58852,-0.86854 -1.54981,-0.839067 -2.93776,-1.718047 -4.16878,-2.650607 -0.32778,-0.253796 -0.62423,-0.498548 -0.88959,-0.735519 v 0 c -0.84351,-0.76212 -1.36846,-1.445434 -1.57572,-2.061917 -0.17369,-0.516649 -0.0802,-0.949482 0.28232,-1.306043 l 8.34883,-2.897949 c 0.42282,1.215417 0.81863,2.419967 1.19934,3.608386 v 0 c 0.92121,2.861119 1.74556,5.756519 2.46656,8.680749 v 0 c 0.54233,2.19964 1.02656,4.41514 1.45025,6.64378 0.1387,0.68628 0.27165,1.37394 0.39879,2.06292 0.22492,1.21882 0.43174,2.44159 0.6201,3.66781 0.13041,0.72 0.25445,1.44155 0.37206,2.16455 -0.62071,-2.29017 -1.54131,-3.78712 -2.8382,-4.91987 -0.24071,-0.16603 -0.48129,-0.32243 -0.7216,-0.46932 v 0 c -2.86485,-1.75178 -5.67511,-2.14909 -8.37122,-1.44088 -2.26304,0.57198 -4.0914,1.89124 -5.56295,3.84588 v 0 c -0.0353,0.047 -0.0705,0.0944 -0.10543,0.14214 -1.6062,2.17794 -2.23346,4.5342 -1.95382,7.21654 0.0163,0.15633 0.0356,0.31336 0.058,0.47115 v 0 c 0.0598,0.42173 0.14131,0.84883 0.24431,1.28231 0.0411,0.21131 0.20709,0.64398 0.49318,1.31964 0.19723,0.2405 0.44611,0.35145 0.74781,0.33048 0.63534,-0.0442 0.92699,-0.51589 0.85216,-1.42046 -0.0175,-0.21114 -0.11546,-0.71575 -0.30257,-1.48734 -0.0161,-0.0754 -0.0309,-0.14964 -0.0443,-0.22282 -0.0895,-0.48883 -0.11818,-0.92871 -0.084,-1.32232 0.1756,-2.14141 0.88659,-3.88466 2.19909,-5.26317 0.87864,-0.88588 1.93598,-1.54586 3.18289,-1.95874 v 0 c 0.42947,-0.14216 0.88161,-0.25506 1.35645,-0.33745 0.5257,-0.0912 1.03752,-0.14558 1.53598,-0.16177 2.24179,-0.0727 4.2157,0.63003 5.88173,2.1935 1.3441,1.256 2.2628,2.56589 2.86715,4.34411 0.0872,0.26724 0.16789,0.5305 0.24386,0.79507 0.29594,1.03032 0.54217,2.16256 0.80512,3.68238 0.11309,1.65241 0.19218,3.30772 0.23666,4.96462 v 0 c 0.0774,2.88191 0.0505,5.76786 -0.0827,8.6505 v 0 c -0.10535,2.28047 -0.27697,4.55833 -0.51518,6.82981 l -2.456,-0.25756 c 0.69856,-1.18617 1.11421,-2.60474 1.22321,-4.22881 0.0598,-0.89017 0.0264,-1.70154 -0.0948,-2.42859 -0.25802,-1.54803 -0.91261,-2.71154 -1.92772,-3.48072 -0.60819,-0.48217 -1.23952,-0.72088 -1.88874,-0.72754 -0.87411,-0.009 -1.66547,0.37473 -2.38639,1.12743 -0.65244,0.70627 -1.14506,1.61323 -1.4944,2.72517 -0.0312,0.0994 -0.0613,0.20043 -0.0902,0.30313 9e-5,0.91119 0.33103,1.39113 1.01421,1.43331 0.23474,0.0145 0.4464,-0.0506 0.63467,-0.19704 0.3135,-0.64284 0.54871,-1.11466 0.72454,-1.43391 0.0758,-0.13754 0.13883,-0.24361 0.18976,-0.31841 0.36649,-0.44312 0.79965,-0.65907 1.30345,-0.64043 0.23493,0.009 0.50729,0.0744 0.8162,0.19967 0.35407,0.23238 0.63648,0.53396 0.84575,0.90497 0.3461,0.61356 0.49228,1.41818 0.42616,2.40341 -0.0623,0.92881 -0.31151,1.79546 -0.74315,2.58865 -0.70021,1.01553 -1.61645,1.44824 -2.72937,1.33153 l -2.70661,-0.28384 c -0.29028,-0.0305 -0.71066,0.12839 -1.2669,0.46763 -0.37641,0.25215 -0.68547,0.55174 -0.92829,0.89948 -0.33034,0.47315 -0.53818,1.03539 -0.62824,1.69212 -0.23356,1.70324 0.18064,3.75359 1.17049,6.30256 0.35619,0.91729 0.78562,1.89658 1.28502,2.94925 -1.09465,0.38589 -2.12389,0.45518 -3.08373,0.23448 -1.71659,-0.39471 -3.03712,-1.59823 -4.04997,-3.51733 -0.15838,-0.30038 -0.30105,-0.59839 -0.42801,-0.89438 -0.5934,-1.38329 -0.84304,-2.7218 -0.74736,-4.05594 0.0263,-0.31477 0.0633,-0.63487 0.11076,-0.96078 0.12114,-0.83128 0.30661,-1.64551 0.55772,-2.44844 v -1e-5 c 0.76398,-2.44211 2.13467,-4.77812 4.13526,-7.1532 0.55843,-0.66264 1.16558,-1.32812 1.82163,-1.99916 2.1544,-2.20981 4.902,-4.18599 8.26483,-5.91712 0.15208,-0.0783 0.30543,-0.15609 0.46007,-0.23341 0.14449,-0.42999 0.20848,-0.85086 0.19228,-1.26048 -0.0331,-0.83639 -0.31388,-1.3478 -0.82773,-1.53231 -1.81999,0.92212 -3.50115,1.98335 -5.05209,3.16643 -1.48245,1.13111 -2.84904,2.37639 -4.11164,3.72733 -1.26868,1.34837 -2.37778,2.65125 -3.32731,3.92951 -1.77005,2.38433 -2.97908,4.67788 -3.63874,7.02209 v 0 c -0.19286,0.68564 -0.33861,1.37526 -0.43775,2.07249 -0.15403,1.08319 -0.17354,2.16366 -0.059,3.25668 0.0574,0.66358 0.15747,1.30456 0.30164,1.92511 0.35412,1.52456 0.9752,2.92907 1.88039,4.22712 1.28031,1.84191 2.78109,3.04495 4.58369,3.51116 1.88313,0.48704 3.73175,0.0345 5.50148,-1.48799 0.22524,-0.27749 0.38218,-0.61351 0.46918,-1.00628 0.1079,-0.48713 0.08,-0.9464 -0.0824,-1.37359 -0.32464,-0.42489 -0.65541,-0.97521 -1.00008,-1.64944 -0.30485,-0.59632 -0.61872,-1.28581 -0.94945,-2.06943 -0.80744,-1.8641 -1.17889,-3.17161 -1.05907,-4.01681 0.0885,-0.62448 0.46687,-0.89473 1.14478,-0.80475 l 8.75954,1.16264 c -0.31321,2.3598 -0.69857,4.71022 -1.15572,7.04699 v 0 c -0.54973,2.80984 -1.20302,5.5991 -1.95801,8.36063 -0.17402,0.6365 -0.35343,1.27147 -0.5382,1.90484 -0.55759,1.9114 -1.05224,3.23192 -1.38978,3.90277 -0.42716,0.83729 -0.97304,1.52445 -1.62901,2.05695 -0.2702,0.21935 -0.55908,0.41249 -0.86623,0.57931 -1.05348,0.57209 -1.88779,0.58467 -2.499,0.0805 -0.61091,-0.50342 -1.01955,-1.26985 -1.24503,-2.29281 h -1e-5 c -0.0718,-0.32591 -0.12512,-0.67786 -0.16072,-1.05612 -0.11483,-1.42102 0.0533,-2.95486 0.48615,-4.6371 -0.17334,-0.398 -0.44439,-0.64866 -0.80961,-0.75606 -0.39765,-0.11694 -0.75313,-0.0179 -1.06799,0.29169 -0.5987,2.30956 -0.9507,3.93956 -0.97563,5.00288 -6e-4,0.0868 3.7e-4,0.17359 0.003,0.2604 v 0 c 0.0431,1.46164 0.53417,2.93114 1.47672,4.43736 -1.58933,0.49579 -2.84824,1.22818 -3.79546,2.21724 -0.20844,0.22052 -0.42741,0.48316 -0.65834,0.78778 v 0 c -0.68684,0.906 -1.46291,2.16006 -2.39307,3.77936 0.0609,0.51305 0.36473,0.90826 0.91674,1.18159 0.27097,0.13417 0.4956,0.12245 0.6736,-0.0364 1.09179,-1.86197 1.99401,-3.20958 2.79527,-4.04987 0.10639,-0.11159 0.21066,-0.2138 0.31291,-0.30661 1.09839,-1.01341 2.29419,-1.32741 3.6065,-0.89349 1.00255,0.32453 1.57458,1.20485 1.66678,2.666 0.0181,0.32525 0.0134,0.65207 -0.014,0.98004 -0.0764,0.91303 -0.32942,1.83514 -0.75964,2.75516 -0.8774,1.87629 -2.04511,3.36107 -3.45273,4.42861 -0.11109,0.0815 -0.22008,0.15793 -0.32693,0.22942 v 0 c -1.1597,0.77607 -2.06555,0.96731 -2.70182,0.61823 l -13.66775,-7.49845 c -0.40411,-0.2217 -0.83866,0.10411 -1.32514,0.96096 -0.39622,0.69789 -0.40432,1.16039 -0.007,1.39235 l 16.33887,9.53165 c -0.62667,1.07424 -1.26954,2.1386 -1.92812,3.19274 -0.0355,0.0568 -0.0711,0.11368 -0.10671,0.17048 -1.54102,2.45759 -3.16757,4.85844 -4.87286,7.19905 v 0 c -1.79345,2.45679 -3.67215,4.84752 -5.6281,7.16946 v 0 l -1.26286,1.39836 -5.66848,-4.99935 c 0.69327,-0.16605 1.36653,-0.39393 2.01947,-0.68319 1.63446,-0.77622 3.12014,-2.00859 4.39645,-3.6729 0.38125,-0.49716 0.75182,-1.04356 1.10893,-1.63803 0.18011,-0.29588 0.34465,-0.59019 0.49364,-0.88253 v 0 c 0.85715,-1.68151 1.202,-3.29657 1.05441,-4.80369 -0.16425,-1.76637 -0.91381,-3.0425 -2.18206,-3.8625 -0.80907,-0.52311 -1.75105,-0.79676 -2.82035,-0.84157 -1.48466,-0.068 -2.96001,0.5086 -4.47318,1.69345 -0.25568,0.26353 -0.38189,0.58325 -0.37963,0.96232 0.001,0.19506 0.0313,0.3638 0.0904,0.50624 0.0627,0.14619 0.15595,0.2649 0.28028,0.35575 0.1003,0.0733 0.21955,0.10972 0.35775,0.10907 0.0868,-0.001 0.18124,-0.0173 0.28313,-0.048 0.96971,-0.59151 1.73012,-0.96968 2.29968,-1.1195 0.57633,-0.14281 1.2394,-0.0696 1.98888,0.2226 0.30227,0.13337 0.57399,0.2814 0.8146,0.44546 1.02606,0.69963 1.52691,1.76302 1.45481,3.2085 -0.0421,0.63748 -0.19213,1.28739 -0.45134,1.946 -0.29635,0.75641 -0.73848,1.52501 -1.32631,2.29575 -0.35316,0.46304 -0.72671,0.89048 -1.11914,1.28128 -1.25211,1.21359 -2.44956,1.91883 -3.54841,2.13282 -0.0773,0.0164 -0.15499,0.0307 -0.23305,0.0431 v 0 c -1.07036,0.16042 -2.19743,-0.0194 -3.38411,-0.53899 l -5.47953,-4.83271 c -0.30232,-0.26663 -0.77836,-0.0406 -1.42718,0.67708 -0.65911,0.72905 -0.83922,1.22879 -0.53932,1.49817 l 14.30715,12.85123 -2.54159,2.8143 1.59596,1.46583 5.92386,-6.56018 v 0 c 1.9962,-2.36932 3.91446,-4.80944 5.74677,-7.31762 v 0 c 1.73436,-2.38045 3.38906,-4.82291 4.95731,-7.32387 0.0362,-0.0578 0.0725,-0.11565 0.10861,-0.17352 0.67012,-1.07257 1.32429,-2.15566 1.96205,-3.24893 0.43962,-0.75361 0.60208,-1.53916 0.48729,-2.34366 -0.11482,-0.80459 -0.39,-1.31987 -0.81164,-1.55119 0.55425,-0.0401 1.21456,-0.39041 1.96794,-1.06362 0.29356,-0.26225 0.60152,-0.57385 0.92212,-0.93521 1.1534,-1.28362 2.02346,-2.61826 2.60684,-3.97156 0.37749,-1.05007 0.63775,-1.98588 0.78878,-2.79691 0.11192,-0.60129 0.16416,-1.13581 0.15963,-1.60132 0.0152,-1.21262 -0.29665,-2.54042 -0.94481,-3.95784 1.60041,-0.57616 2.89136,-1.46771 3.85105,-2.65662 0.24066,-0.29809 0.4603,-0.6147 0.65848,-0.94934 0.46909,-0.77867 1.15933,-2.48092 1.90815,-5.00035 l 0.003,0.001 c 0.21638,-0.73522 0.42567,-1.47259 0.62783,-2.212 0.76903,-2.81284 1.43445,-5.65392 1.99441,-8.51606 0.56005,-2.86273 1.01428,-5.74536 1.36211,-8.64049 0.34883,-2.90376 0.59034,-5.81892 0.72518,-8.73804 v -1e-5 c 0.13559,-2.93588 0.16299,-5.87454 0.0842,-8.80865 -0.0426,-1.58438 -0.11614,-3.16712 -0.22029,-4.74714 -0.007,-0.11106 -0.0148,-0.22211 -0.0224,-0.33315 -0.0865,-1.25937 -0.19231,-2.51697 -0.31733,-3.77224 v 0 c -0.29611,-2.97301 -0.69995,-5.93186 -1.20715,-8.86987 -0.12127,-0.70242 -0.24846,-1.40359 -0.38151,-2.10344 -0.43106,-2.26736 -0.92356,-4.52078 -1.47507,-6.75752 -0.73339,-2.974322 -1.57149,-5.918191 -2.50783,-8.826153 -0.91535,-2.862808 -1.93483,-5.858059 -3.22144,-8.913745 -1.31416,-3.080179 -2.77275,-5.924059 -4.20756,-8.600101 -0.51234,-0.960212 -1.03644,-1.914607 -1.57229,-2.862834 -0.98186,-1.737466 -2.00318,-3.454221 -3.06391,-5.148104 -1.0467,-1.671466 -2.13159,-3.320405 -3.25436,-4.944709 -0.60611,-0.87685 -1.22326,-1.746521 -1.85139,-2.608682 -1.76501,-2.422596 -3.61631,-4.785256 -5.55173,-7.080674 l -1e-5,-10e-7 c -1.91071,-2.266086 -3.90294,-4.466024 -5.97367,-6.592951 l -1e-5,-2e-6 c -2.04873,-2.104314 -4.17377,-4.13655 -6.37127,-6.090382 -1.94293,-1.727474 -3.94203,-3.393218 -5.99409,-4.993158 z M 39.09961,206.53991 c -0.749679,-0.9346 -1.486099,-1.88023 -2.208806,-2.83664 -0.450117,-0.59688 -0.894849,-1.19799 -1.33408,-1.80326 -0.03625,-0.90576 0.07938,-2.12621 0.372673,-3.62956 0.142194,-0.75976 0.496634,-1.32535 1.051805,-1.70349 0.435105,-0.29636 0.933053,-0.40014 1.492313,-0.31831 0.660403,0.10979 1.193436,0.45497 1.608819,1.03876 0.579712,0.81474 0.730209,2.01532 0.487643,3.64148 v 0 c -0.02021,0.13651 -0.04314,0.27606 -0.06875,0.41867 -0.323306,1.20459 -0.615987,2.43656 -0.87616,3.69581 -0.146871,0.8264 -0.315937,1.3262 -0.525457,1.49654 z M 16.600161,104.01536 c 0.724372,-2.96389 1.553867,-5.898887 2.48211,-8.799325 0.55952,-1.752076 1.152864,-3.510686 1.79408,-5.268691 l 9.233254,3.364592 c -1.577,0.998018 -2.794438,2.046272 -3.634392,3.067475 -0.250289,0.310452 -0.484573,0.636403 -0.702711,0.977467 -0.698291,1.090351 -1.225906,2.338001 -1.568835,3.728412 -1.224922,-0.23345 -2.382731,0.13673 -3.454748,1.1505 -0.7656,0.7063 -1.414602,1.62323 -1.932511,2.74669 -0.210689,0.45703 -0.399643,0.94822 -0.565603,1.47284 -0.441135,-0.63529 -0.877502,-1.2768 -1.309004,-1.92439 -0.114221,-0.17143 -0.228101,-0.34329 -0.34164,-0.51557 z M 60.32689,41.971731 68.310306,51.978187 c -2.586541,0.176647 -5.204139,0.463468 -7.843458,0.86347 -1.859456,0.281746 -3.729718,0.619773 -5.607529,1.015089 0.637704,-1.649424 1.322946,-3.29603 2.056061,-4.937197 1.04056,-2.329382 2.177439,-4.647837 3.41151,-6.947818 z m 33.428125,-18.288852 4.266086,12.069173 c -1.31805,-0.364401 -2.654763,-0.702568 -4.008843,-1.01376 v 0 c -2.994365,-0.690408 -6.075822,-1.245754 -9.229731,-1.659038 -0.02724,-0.0036 -0.05448,-0.0071 -0.08173,-0.0107 0.01635,-0.01922 0.0327,-0.03843 0.04906,-0.05764 1.895187,-2.223685 3.9096,-4.396947 6.042973,-6.507357 v 0 c 0.963589,-0.953203 1.95102,-1.893812 2.962184,-2.820687 z m -50.90222,169.328101 4.903791,-3.36426 c 0.105554,1.81839 0.265363,3.65343 0.479376,5.50142 0.04867,0.46414 0.101394,0.92963 0.158154,1.39642 -0.374485,-0.22 -0.748504,-0.44319 -1.122015,-0.66959 -1.486218,-0.91101 -2.960236,-1.86539 -4.419306,-2.86399 z"
         style="font-style:normal;font-variant:normal;font-weight:normal;font-stretch:normal;font-size:10.58333302px;line-height:1.25;font-family:Pacifico;-inkscape-font-specification:Pacifico;letter-spacing:0px;word-spacing:0px;fill:#000000;fill-opacity:1;stroke:#000000;stroke-width:0.86011612;stroke-linecap:round;stroke-linejoin:round;stroke-opacity:1" />
      <path
         inkscape:connector-curvature="0"
         id="rect903"
         d="m 132.29167,224.89582 a 92.604166,92.604166 0 0 0 92.60416,-92.60415 h -92.60417 z"
         style="opacity:1;fill:#ffffff;fill-opacity:1;stroke:none;stroke-width:2.56487083;stroke-linecap:square;stroke-linejoin:miter;stroke-miterlimit:4;stroke-dasharray:none;stroke-dashoffset:0;stroke-opacity:1;paint-order:markers fill stroke" />
      <path
         style="opacity:1;fill:#8a0707;fill-opacity:1;stroke:none;stroke-width:2.56487083;stroke-linecap:square;stroke-linejoin:miter;stroke-miterlimit:4;stroke-dasharray:none;stroke-dashoffset:0;stroke-opacity:1;paint-order:markers fill stroke"
         d="m 39.68751,132.29168 a 92.604166,92.604166 0 0 0 92.60415,92.60416 v -92.60417 z"
         id="path987"
         inkscape:connector-curvature="0" />
      <path
         inkscape:connector-curvature="0"
         id="path1025"
         d="m 132.29165,39.68752 a 92.604166,92.604166 0 0 0 -92.60416,92.60415 h 92.60417 z"
         style="opacity:1;fill:#ffffff;fill-opacity:1;stroke:none;stroke-width:2.56487083;stroke-linecap:square;stroke-linejoin:miter;stroke-miterlimit:4;stroke-dasharray:none;stroke-dashoffset:0;stroke-opacity:1;paint-order:markers fill stroke" />
      <path
         style="opacity:1;fill:#8a0707;fill-opacity:1;stroke:none;stroke-width:2.56487083;stroke-linecap:square;stroke-linejoin:miter;stroke-miterlimit:4;stroke-dasharray:none;stroke-dashoffset:0;stroke-opacity:1;paint-order:markers fill stroke"
         d="M 224.89583,132.29166 A 92.604166,92.604166 0 0 0 132.29168,39.6875 v 92.60417 z"
         id="path1063"
         inkscape:connector-curvature="0" />
      <g
         style="fill:#8a0707;fill-opacity:1"
         transform="matrix(0.2484262,0,0,0.2484262,297.7886,134.89194)"
         id="g965">
        <path
           style="fill:#8a0707;fill-opacity:1;stroke-width:4.57466602"
           inkscape:connector-curvature="0"
           d="m -531.59843,8.4248806 c -3.30291,1.9716814 -5.12362,5.2837394 -5.12362,9.3917894 0.0275,7.625968 3.0513,16.802704 7.88673,23.948332 4.46029,6.592094 12.72671,16.148572 26.82126,24.213713 2.64416,1.514212 4.43743,3.99825 4.86286,6.656137 -0.613,0.0089 -1.31293,0.0051 -1.97168,0.0051 -1.41813,0 -3.10161,-0.0051 -4.95893,0.05484 h -101.26024 c -10.09166,0 -18.29861,8.206951 -18.29861,18.298675 0,10.091703 8.20695,18.298663 18.29861,18.298663 h 70.90733 c 1.25803,0 2.28733,1.0293 2.28733,2.28733 0,1.25803 -1.0293,2.28733 -2.28733,2.28733 h -102.92995 c -10.09171,0 -18.29866,8.20695 -18.29866,18.29866 0,10.09171 8.20695,18.29867 18.29866,18.29867 h 102.92995 c 1.25803,0 2.28733,1.0293 2.28733,2.28734 0,1.25801 -1.0293,2.28731 -2.28733,2.28731 h -82.34395 c -8.8291,0 -16.01133,7.18225 -16.01133,16.01134 0,8.82911 7.18223,16.01134 16.01133,16.01134 h 91.49329 c 1.25802,0 2.28732,1.0293 2.28732,2.28732 0,1.25804 -1.0293,2.28734 -2.28732,2.28734 h -57.18333 c -8.82911,0 -16.01133,7.18222 -16.01133,16.05709 0,8.8291 7.18222,16.01132 16.01133,16.01132 l 124.41719,-0.009 c 63.96756,-4.42827 72.59538,-43.66519 72.59538,-81.46566 0,-31.31816 -15.53557,-59.44779 -40.36686,-73.318167 -2.88204,-1.784125 -10.46683,-6.610398 -19.46062,-12.333306 -22.47534,-14.309555 -41.35956,-26.29518 -44.71737,-28.065576 -7.475,-3.947891 -13.31685,-8.353296 -16.89424,-12.735825 -3.23887,-3.966236 -7.36979,-6.3908086 -10.99749,-8.3624897 -1.88478,-1.0155758 -8.81539,-1.9030615 -13.70571,1.0110012 z"
           id="path910" />
        <g
           style="fill:#8a0707;fill-opacity:1"
           id="g912" />
        <g
           style="fill:#8a0707;fill-opacity:1"
           id="g914" />
        <g
           style="fill:#8a0707;fill-opacity:1"
           id="g916" />
        <g
           style="fill:#8a0707;fill-opacity:1"
           id="g918" />
        <g
           style="fill:#8a0707;fill-opacity:1"
           id="g920" />
        <g
           style="fill:#8a0707;fill-opacity:1"
           id="g922" />
        <g
           style="fill:#8a0707;fill-opacity:1"
           id="g924" />
        <g
           style="fill:#8a0707;fill-opacity:1"
           id="g926" />
        <g
           style="fill:#8a0707;fill-opacity:1"
           id="g928" />
        <g
           style="fill:#8a0707;fill-opacity:1"
           id="g930" />
        <g
           style="fill:#8a0707;fill-opacity:1"
           id="g932" />
        <g
           style="fill:#8a0707;fill-opacity:1"
           id="g934" />
        <g
           style="fill:#8a0707;fill-opacity:1"
           id="g936" />
        <g
           style="fill:#8a0707;fill-opacity:1"
           id="g938" />
        <g
           style="fill:#8a0707;fill-opacity:1"
           id="g940" />
      </g>
      <g
         style="fill:#ffffff;fill-opacity:1"
         id="g1021"
         transform="matrix(0,0.2484262,-0.2484262,0,129.6914,297.7886)">
        <path
           id="path989"
           d="m -531.59843,8.4248806 c -3.30291,1.9716814 -5.12362,5.2837394 -5.12362,9.3917894 0.0275,7.625968 3.0513,16.802704 7.88673,23.948332 4.46029,6.592094 12.72671,16.148572 26.82126,24.213713 2.64416,1.514212 4.43743,3.99825 4.86286,6.656137 -0.613,0.0089 -1.31293,0.0051 -1.97168,0.0051 -1.41813,0 -3.10161,-0.0051 -4.95893,0.05484 h -101.26024 c -10.09166,0 -18.29861,8.206951 -18.29861,18.298675 0,10.091703 8.20695,18.298663 18.29861,18.298663 h 70.90733 c 1.25803,0 2.28733,1.0293 2.28733,2.28733 0,1.25803 -1.0293,2.28733 -2.28733,2.28733 h -102.92995 c -10.09171,0 -18.29866,8.20695 -18.29866,18.29866 0,10.09171 8.20695,18.29867 18.29866,18.29867 h 102.92995 c 1.25803,0 2.28733,1.0293 2.28733,2.28734 0,1.25801 -1.0293,2.28731 -2.28733,2.28731 h -82.34395 c -8.8291,0 -16.01133,7.18225 -16.01133,16.01134 0,8.82911 7.18223,16.01134 16.01133,16.01134 h 91.49329 c 1.25802,0 2.28732,1.0293 2.28732,2.28732 0,1.25804 -1.0293,2.28734 -2.28732,2.28734 h -57.18333 c -8.82911,0 -16.01133,7.18222 -16.01133,16.05709 0,8.8291 7.18222,16.01132 16.01133,16.01132 l 124.41719,-0.009 c 63.96756,-4.42827 72.59538,-43.66519 72.59538,-81.46566 0,-31.31816 -15.53557,-59.44779 -40.36686,-73.318167 -2.88204,-1.784125 -10.46683,-6.610398 -19.46062,-12.333306 -22.47534,-14.309555 -41.35956,-26.29518 -44.71737,-28.065576 -7.475,-3.947891 -13.31685,-8.353296 -16.89424,-12.735825 -3.23887,-3.966236 -7.36979,-6.3908086 -10.99749,-8.3624897 -1.88478,-1.0155758 -8.81539,-1.9030615 -13.70571,1.0110012 z"
           inkscape:connector-curvature="0"
           style="fill:#ffffff;fill-opacity:1;stroke-width:4.57466602" />
        <g
           style="fill:#ffffff;fill-opacity:1"
           id="g991" />
        <g
           style="fill:#ffffff;fill-opacity:1"
           id="g993" />
        <g
           style="fill:#ffffff;fill-opacity:1"
           id="g995" />
        <g
           style="fill:#ffffff;fill-opacity:1"
           id="g997" />
        <g
           style="fill:#ffffff;fill-opacity:1"
           id="g999" />
        <g
           style="fill:#ffffff;fill-opacity:1"
           id="g1001" />
        <g
           style="fill:#ffffff;fill-opacity:1"
           id="g1003" />
        <g
           style="fill:#ffffff;fill-opacity:1"
           id="g1005" />
        <g
           style="fill:#ffffff;fill-opacity:1"
           id="g1007" />
        <g
           style="fill:#ffffff;fill-opacity:1"
           id="g1009" />
        <g
           style="fill:#ffffff;fill-opacity:1"
           id="g1011" />
        <g
           style="fill:#ffffff;fill-opacity:1"
           id="g1013" />
        <g
           style="fill:#ffffff;fill-opacity:1"
           id="g1015" />
        <g
           style="fill:#ffffff;fill-opacity:1"
           id="g1017" />
        <g
           style="fill:#ffffff;fill-opacity:1"
           id="g1019" />
      </g>
      <g
         style="fill:#8a0707;fill-opacity:1"
         transform="matrix(-0.2484262,0,0,-0.2484262,-33.205263,129.6914)"
         id="g1059">
        <path
           style="fill:#8a0707;fill-opacity:1;stroke-width:4.57466602"
           inkscape:connector-curvature="0"
           d="m -531.59843,8.4248806 c -3.30291,1.9716814 -5.12362,5.2837394 -5.12362,9.3917894 0.0275,7.625968 3.0513,16.802704 7.88673,23.948332 4.46029,6.592094 12.72671,16.148572 26.82126,24.213713 2.64416,1.514212 4.43743,3.99825 4.86286,6.656137 -0.613,0.0089 -1.31293,0.0051 -1.97168,0.0051 -1.41813,0 -3.10161,-0.0051 -4.95893,0.05484 h -101.26024 c -10.09166,0 -18.29861,8.206951 -18.29861,18.298675 0,10.091703 8.20695,18.298663 18.29861,18.298663 h 70.90733 c 1.25803,0 2.28733,1.0293 2.28733,2.28733 0,1.25803 -1.0293,2.28733 -2.28733,2.28733 h -102.92995 c -10.09171,0 -18.29866,8.20695 -18.29866,18.29866 0,10.09171 8.20695,18.29867 18.29866,18.29867 h 102.92995 c 1.25803,0 2.28733,1.0293 2.28733,2.28734 0,1.25801 -1.0293,2.28731 -2.28733,2.28731 h -82.34395 c -8.8291,0 -16.01133,7.18225 -16.01133,16.01134 0,8.82911 7.18223,16.01134 16.01133,16.01134 h 91.49329 c 1.25802,0 2.28732,1.0293 2.28732,2.28732 0,1.25804 -1.0293,2.28734 -2.28732,2.28734 h -57.18333 c -8.82911,0 -16.01133,7.18222 -16.01133,16.05709 0,8.8291 7.18222,16.01132 16.01133,16.01132 l 124.41719,-0.009 c 63.96756,-4.42827 72.59538,-43.66519 72.59538,-81.46566 0,-31.31816 -15.53557,-59.44779 -40.36686,-73.318167 -2.88204,-1.784125 -10.46683,-6.610398 -19.46062,-12.333306 -22.47534,-14.309555 -41.35956,-26.29518 -44.71737,-28.065576 -7.475,-3.947891 -13.31685,-8.353296 -16.89424,-12.735825 -3.23887,-3.966236 -7.36979,-6.3908086 -10.99749,-8.3624897 -1.88478,-1.0155758 -8.81539,-1.9030615 -13.70571,1.0110012 z"
           id="path1027" />
        <g
           style="fill:#8a0707;fill-opacity:1"
           id="g1029" />
        <g
           style="fill:#8a0707;fill-opacity:1"
           id="g1031" />
        <g
           style="fill:#8a0707;fill-opacity:1"
           id="g1033" />
        <g
           style="fill:#8a0707;fill-opacity:1"
           id="g1035" />
        <g
           style="fill:#8a0707;fill-opacity:1"
           id="g1037" />
        <g
           style="fill:#8a0707;fill-opacity:1"
           id="g1039" />
        <g
           style="fill:#8a0707;fill-opacity:1"
           id="g1041" />
        <g
           style="fill:#8a0707;fill-opacity:1"
           id="g1043" />
        <g
           style="fill:#8a0707;fill-opacity:1"
           id="g1045" />
        <g
           style="fill:#8a0707;fill-opacity:1"
           id="g1047" />
        <g
           style="fill:#8a0707;fill-opacity:1"
           id="g1049" />
        <g
           style="fill:#8a0707;fill-opacity:1"
           id="g1051" />
        <g
           style="fill:#8a0707;fill-opacity:1"
           id="g1053" />
        <g
           style="fill:#8a0707;fill-opacity:1"
           id="g1055" />
        <g
           style="fill:#8a0707;fill-opacity:1"
           id="g1057" />
      </g>
      <g
         style="fill:#ffffff;fill-opacity:1"
         id="g1097"
         transform="matrix(0,-0.2484262,0.2484262,0,134.89196,-33.205263)">
        <path
           id="path1065"
           d="m -531.59843,8.4248806 c -3.30291,1.9716814 -5.12362,5.2837394 -5.12362,9.3917894 0.0275,7.625968 3.0513,16.802704 7.88673,23.948332 4.46029,6.592094 12.72671,16.148572 26.82126,24.213713 2.64416,1.514212 4.43743,3.99825 4.86286,6.656137 -0.613,0.0089 -1.31293,0.0051 -1.97168,0.0051 -1.41813,0 -3.10161,-0.0051 -4.95893,0.05484 h -101.26024 c -10.09166,0 -18.29861,8.206951 -18.29861,18.298675 0,10.091703 8.20695,18.298663 18.29861,18.298663 h 70.90733 c 1.25803,0 2.28733,1.0293 2.28733,2.28733 0,1.25803 -1.0293,2.28733 -2.28733,2.28733 h -102.92995 c -10.09171,0 -18.29866,8.20695 -18.29866,18.29866 0,10.09171 8.20695,18.29867 18.29866,18.29867 h 102.92995 c 1.25803,0 2.28733,1.0293 2.28733,2.28734 0,1.25801 -1.0293,2.28731 -2.28733,2.28731 h -82.34395 c -8.8291,0 -16.01133,7.18225 -16.01133,16.01134 0,8.82911 7.18223,16.01134 16.01133,16.01134 h 91.49329 c 1.25802,0 2.28732,1.0293 2.28732,2.28732 0,1.25804 -1.0293,2.28734 -2.28732,2.28734 h -57.18333 c -8.82911,0 -16.01133,7.18222 -16.01133,16.05709 0,8.8291 7.18222,16.01132 16.01133,16.01132 l 124.41719,-0.009 c 63.96756,-4.42827 72.59538,-43.66519 72.59538,-81.46566 0,-31.31816 -15.53557,-59.44779 -40.36686,-73.318167 -2.88204,-1.784125 -10.46683,-6.610398 -19.46062,-12.333306 -22.47534,-14.309555 -41.35956,-26.29518 -44.71737,-28.065576 -7.475,-3.947891 -13.31685,-8.353296 -16.89424,-12.735825 -3.23887,-3.966236 -7.36979,-6.3908086 -10.99749,-8.3624897 -1.88478,-1.0155758 -8.81539,-1.9030615 -13.70571,1.0110012 z"
           inkscape:connector-curvature="0"
           style="fill:#ffffff;fill-opacity:1;stroke-width:4.57466602" />
        <g
           style="fill:#ffffff;fill-opacity:1"
           id="g1067" />
        <g
           style="fill:#ffffff;fill-opacity:1"
           id="g1069" />
        <g
           style="fill:#ffffff;fill-opacity:1"
           id="g1071" />
        <g
           style="fill:#ffffff;fill-opacity:1"
           id="g1073" />
        <g
           style="fill:#ffffff;fill-opacity:1"
           id="g1075" />
        <g
           style="fill:#ffffff;fill-opacity:1"
           id="g1077" />
        <g
           style="fill:#ffffff;fill-opacity:1"
           id="g1079" />
        <g
           style="fill:#ffffff;fill-opacity:1"
           id="g1081" />
        <g
           style="fill:#ffffff;fill-opacity:1"
           id="g1083" />
        <g
           style="fill:#ffffff;fill-opacity:1"
           id="g1085" />
        <g
           style="fill:#ffffff;fill-opacity:1"
           id="g1087" />
        <g
           style="fill:#ffffff;fill-opacity:1"
           id="g1089" />
        <g
           style="fill:#ffffff;fill-opacity:1"
           id="g1091" />
        <g
           style="fill:#ffffff;fill-opacity:1"
           id="g1093" />
        <g
           style="fill:#ffffff;fill-opacity:1"
           id="g1095" />
      </g>
      <g
         transform="matrix(0.72391235,0,0,0.72391235,36.968358,55.202135)"
         id="text1175"
         style="font-style:normal;font-variant:normal;font-weight:normal;font-stretch:normal;font-size:29.68338013px;line-height:1.25;font-family:Pacifico;-inkscape-font-specification:Pacifico;text-align:center;letter-spacing:0px;word-spacing:0px;text-anchor:middle;opacity:1;fill:#000000;fill-opacity:1;stroke:#000000;stroke-width:0.36549085;stroke-linecap:round;stroke-linejoin:round;stroke-miterlimit:4;stroke-dasharray:none;stroke-opacity:1"
         aria-label=": ">
        <path
           id="path1177"
           d="m 62.563199,237.82538 c -0.125351,0.53303 -0.444851,1.06143 -0.964431,1.57938 -1.946895,1.34485 -3.285528,1.79544 -3.947781,1.4 -0.267413,-0.15967 -0.325364,-0.50181 -0.172976,-1.02421 -0.271426,-0.26461 -0.597477,-0.37979 -0.981651,-0.34667 -0.383978,0.0331 -0.628589,0.20743 -0.731301,0.52645 0.121752,1.25648 0.552519,2.10508 1.270307,2.53097 0.968077,0.57439 2.825934,0.24784 5.452126,-1.07744 -0.03241,1.4329 0.08172,2.54883 0.325306,3.33821 0.318995,1.0571 0.95399,1.83089 1.891387,2.30482 0.318347,0.16095 0.686279,0.29184 1.102794,0.39131 1.693604,0.37799 2.875424,-0.18953 3.559149,-1.63897 0.391633,-0.83023 0.515747,-1.80509 0.393701,-2.92384 -0.04836,-0.39381 -0.09643,-0.84231 -0.142438,-1.3426 1.08484,0.52841 2.177479,1.04146 3.27744,1.53912 l 0.762387,-1.68453 c -5.186871,-2.34649 -10.206457,-5.03983 -15.006535,-8.0771 l -0.987525,1.56561 c 1.609999,1.01796 3.243973,1.99782 4.900041,2.93949 z m 5.28538,5.13166 c 0.08171,0.56315 -0.0011,1.10256 -0.254073,1.61707 -0.198164,0.40304 -0.48222,0.71066 -0.854645,0.92089 -0.442611,0.23932 -0.868199,0.25692 -1.272513,0.0525 -0.610438,-0.30866 -0.999445,-1.16985 -1.136854,-2.57091 0.0053,0.24462 -0.06617,-3.13734 -0.06084,-2.89272 -0.02787,-0.62313 0.01655,-1.03613 0.126153,-1.23691 0.97359,0.53197 1.954437,1.05098 2.942169,1.55701 0.190976,0.5822 0.355729,1.42944 0.510603,2.55308 z m -11.039003,4.33029 c -0.08485,0.40263 0.0792,0.72218 0.493281,0.95482 0.358725,0.20153 0.693821,0.22877 1.00279,0.083 0.480999,-0.69524 1.145493,-1.08608 1.987268,-1.18373 0.769869,-0.072 1.569382,0.11208 2.410676,0.54913 0.265233,0.13779 0.51752,0.28928 0.757148,0.45475 1.231967,0.88663 1.565191,1.93546 0.958166,3.17291 -0.117811,0.24016 -0.274456,0.48805 -0.470349,0.74309 -1.318919,1.56507 -3.481885,1.64774 -6.397208,0.0677 -0.465088,-0.25206 -0.915154,-0.53197 -1.349342,-0.83927 -0.07569,-0.0859 -0.160552,-0.15516 -0.254709,-0.20785 -0.470109,-0.26305 -0.839472,-0.16065 -1.108775,0.31345 -0.136903,0.24102 -0.172339,0.51225 -0.104605,0.81389 2.314557,2.90238 4.775216,5.7433 7.374868,8.51232 0.642923,0.34677 1.107812,0.20743 1.393278,-0.40723 0.06038,-0.13 0.09855,-0.26504 0.114709,-0.40507 -2.067256,-1.96267 -4.060396,-3.97176 -5.976115,-6.02318 2.341818,0.75389 3.88843,1.07657 4.552332,1.04918 1.083151,-0.0413 2.207424,-0.67759 3.364181,-1.90592 0.109278,-0.18083 0.210966,-0.37054 0.305203,-0.5691 0.610427,-1.28613 0.646186,-2.51082 0.139913,-3.67052 -0.477104,-1.08361 -1.319552,-1.92858 -2.538622,-2.56197 -0.722698,-0.37549 -1.474274,-0.60745 -2.262206,-0.69743 -2.038608,-0.25903 -3.510037,0.29777 -4.391866,1.757 -5e-6,1e-5 -1.1e-5,1e-5 -1.6e-5,2e-5 z"
           style="text-align:center;text-anchor:middle;fill:#000000;fill-opacity:1;stroke:#000000;stroke-width:0.36549085;stroke-linecap:round;stroke-linejoin:round;stroke-miterlimit:4;stroke-dasharray:none;stroke-opacity:1"
           inkscape:connector-curvature="0" />
        <path
           id="path1179"
           d="m 79.859833,244.00807 c -2.215682,-0.86485 -4.405823,-1.79027 -6.566631,-2.77606 l -0.767678,1.68211 c 0.953337,0.43496 1.912232,0.85833 2.876372,1.2701 L 69.10428,258.9211 c -0.131214,0.30705 0.107307,0.5928 0.720347,0.85012 0.663201,0.27838 1.052037,0.27597 1.16435,0.003 l 6.111044,-14.87849 c 0.69298,0.2844 1.388543,0.56288 2.086576,0.83543 0.224412,-0.5742 0.448824,-1.14841 0.673236,-1.72261 z"
           style="text-align:center;text-anchor:middle;fill:#000000;fill-opacity:1;stroke:#000000;stroke-width:0.36549085;stroke-linecap:round;stroke-linejoin:round;stroke-miterlimit:4;stroke-dasharray:none;stroke-opacity:1"
           inkscape:connector-curvature="0" />
        <path
           id="path1181"
           d="m 99.323001,247.45012 c -1.693525,-3.74564 -5.027063,-5.18707 -8.428947,-6.22952 -1.723028,-0.528 -3.50028,-0.64252 -5.385231,-0.3538 -1.891131,0.48881 -4.327691,1.50169 -3.770481,3.06885 0.107921,0.30353 0.21714,0.60702 0.327653,0.91046 -0.840974,-0.31074 -1.6785,-0.63008 -2.512376,-0.95801 l -0.677595,1.72086 c 0.976216,0.38403 1.957305,0.75643 2.942955,1.11718 l -5.476313,14.94508 c -0.134661,0.36749 0.108242,0.66718 0.733343,0.89191 0.676259,0.24313 1.073504,0.19318 1.190373,-0.14002 l 5.287785,-15.07554 c 0.707773,0.24794 1.41778,0.48993 2.129906,0.72597 l 0.582857,-1.75607 c -0.797451,-0.2642 -1.592176,-0.53597 -2.384007,-0.81529 -0.114498,-0.33204 -0.227505,-0.66412 -0.339021,-0.99624 -0.456114,-1.35842 1.892045,-2.05193 4.135217,-2.17108 1.04062,0.0918 1.971597,0.26071 2.800897,0.51437 2.657274,0.81278 5.658612,1.98977 7.396427,5.32703 0.11577,0.0864 0.247595,0.14684 0.395249,0.18123 0.573009,0.13347 0.917181,-0.06 1.033357,-0.57289 0.02114,-0.0933 0.02707,-0.20482 0.01794,-0.33445 3e-6,-1e-5 7e-6,-2e-5 10e-6,-3e-5 z"
           style="text-align:center;text-anchor:middle;fill:#000000;fill-opacity:1;stroke:#000000;stroke-width:0.36549085;stroke-linecap:round;stroke-linejoin:round;stroke-miterlimit:4;stroke-dasharray:none;stroke-opacity:1"
           inkscape:connector-curvature="0" />
        <path
           id="path1183"
           d="m 97.176354,253.37502 c -1.75282,1.04137 -3.543647,2.04964 -5.371537,3.02255 -0.860541,-1.69003 -1.68021,-3.38638 -2.458619,-5.0874 1.618764,-0.82851 3.053877,-1.07759 4.357744,-0.73374 1.30392,0.34387 2.443759,1.27201 3.472412,2.79859 z m 3.076686,1.88172 c -1.476027,-3.59127 -3.369119,-5.67232 -5.876085,-6.32857 -0.416859,-0.10913 -0.845272,-0.17396 -1.286581,-0.19488 -2.839649,-0.0808 -5.375951,1.06567 -7.685248,3.50509 -0.04151,0.25791 0.0067,0.51477 0.1459,0.77027 0.151636,0.24942 0.366951,0.4183 0.644894,0.50567 0.134165,0.0422 0.279871,0.0477 0.436787,0.0163 0.443446,-0.37789 0.88407,-0.75777 1.321865,-1.13962 0.703155,1.59782 1.441799,3.19206 2.215636,4.78144 -0.511071,0.27528 -1.025034,0.54782 -1.541869,0.81757 -0.06597,0.0806 -0.114851,0.17603 -0.146522,0.28636 -0.08181,0.28499 -0.025,0.55526 0.172372,0.81034 0.209892,0.24862 0.511331,0.38833 0.902331,0.41725 2.934217,-1.46518 5.778846,-3.01973 8.530251,-4.6551 0.503156,1.22719 0.82704,2.06519 0.962454,2.56083 0.288472,1.02038 0.348957,1.97012 0.166224,2.85146 l -1.635093,7.88622 c -0.07565,0.36489 0.232059,0.62131 0.926844,0.76064 0.662742,0.13291 1.031154,0.003 1.105559,-0.38205 l 3.096711,-16.0133 c 0.73832,0.14262 1.47786,0.27924 2.21853,0.40985 l 0.32193,-1.82403 c -0.73076,-0.12882 -1.4604,-0.26357 -2.18881,-0.40423 -0.48864,-0.0943 -0.94683,0.005 -1.37912,0.2977 -0.42268,0.29495 -0.68766,0.68945 -0.79065,1.18617 -0.21277,1.02619 -0.42554,2.05238 -0.63831,3.07858 z"
           style="text-align:center;text-anchor:middle;fill:#000000;fill-opacity:1;stroke:#000000;stroke-width:0.36549085;stroke-linecap:round;stroke-linejoin:round;stroke-miterlimit:4;stroke-dasharray:none;stroke-opacity:1"
           inkscape:connector-curvature="0" />
        <path
           id="path1185"
           d="m 118.08093,256.45924 c -1.1077,-0.087 -2.13182,0.18916 -3.09291,0.83404 -0.95912,0.63467 -1.50831,1.48291 -1.62584,2.55853 -0.079,0.72287 0.0769,1.48234 0.47886,2.27491 0.20232,0.13659 0.41625,0.21616 0.64106,0.23857 0.65495,0.0653 1.00877,-0.2015 1.06367,-0.79185 -0.29558,-0.4602 -0.41473,-0.96232 -0.36234,-1.50539 0.11325,-1.17385 0.88681,-1.80916 2.30263,-1.94253 1.38834,-0.0113 2.49685,0.47234 3.35492,1.47112 0.8663,0.98712 1.22978,2.34651 1.05227,4.08065 -0.17065,1.80343 -0.68905,3.23786 -1.58183,4.30028 -1.00512,1.19726 -2.38808,1.73945 -4.11586,1.59496 -0.24655,-0.0206 -0.50299,-0.0523 -0.76911,-0.0951 -1.49262,-0.52519 -2.51902,-0.98193 -3.06754,-1.32878 -0.78089,-0.51874 -1.61509,-1.38821 -2.47699,-2.60842 -1.08315,-1.56767 -1.82724,-3.21301 -2.25479,-4.9214 -0.24012,-0.93993 -0.48995,-2.65373 -0.70808,-5.10612 -0.0718,-0.30228 -0.2967,-0.48325 -0.67488,-0.54538 -0.26191,-0.043 -0.50147,-0.0104 -0.71962,0.0983 -0.20837,0.1103 -0.30256,0.27861 -0.28117,0.50565 -0.14962,3.80967 0.75203,7.33771 2.88614,10.53102 0.89477,1.31246 1.68752,2.25524 2.3423,2.82544 1.12795,0.96612 2.59414,1.69445 4.38603,2.15629 0.4585,0.11881 0.92136,0.19745 1.38755,0.23581 1.82268,0.15002 3.41495,-0.35133 4.73376,-1.47991 1.21956,-1.04926 2.0468,-2.49585 2.50231,-4.32743 0.14784,-0.59774 0.23206,-1.21221 0.25498,-1.8433 0.0691,-1.90186 -0.38685,-3.50821 -1.32273,-4.82407 -1.0406,-1.47705 -2.47044,-2.2588 -4.33278,-2.3859 0,0 0,1e-5 -1e-5,2e-5 z m -13.12797,-5.41341 -0.32595,1.8233 c 7.16003,1.27885 14.4261,1.99572 21.69541,2.14486 l 0.037,-1.85069 c -7.17251,-0.14836 -14.34227,-0.8561 -21.40644,-2.11747 z"
           style="text-align:center;text-anchor:middle;fill:#000000;fill-opacity:1;stroke:#000000;stroke-width:0.36549085;stroke-linecap:round;stroke-linejoin:round;stroke-miterlimit:4;stroke-dasharray:none;stroke-opacity:1"
           inkscape:connector-curvature="0" />
        <path
           id="path1187"
           d="m 136.86751,260.37952 c 0.002,0.0381 0.002,0.13387 -2.1e-4,0.28696 -0.002,0.15312 -0.0283,0.33149 -0.0787,0.53491 -0.0403,0.2029 -0.1155,0.42201 -0.22603,0.65701 -0.10087,0.22497 -0.25377,0.4381 -0.45919,0.63891 -0.2054,0.2008 -0.46937,0.37046 -0.79191,0.50804 -0.32247,0.13756 -0.72027,0.21512 -1.192,0.23085 -0.37946,0.0127 -0.72452,-0.0203 -1.03428,-0.0981 -0.31005,-0.0874 -0.57963,-0.21975 -0.80839,-0.3965 -0.21877,-0.18656 -0.39163,-0.42227 -0.51883,-0.70679 -0.12739,-0.29414 -0.19387,-0.64661 -0.20062,-1.05759 -0.006,-0.34401 0.0394,-0.6793 0.13408,-1.00591 0.10458,-0.33635 0.26426,-0.63555 0.47834,-0.89799 0.21411,-0.26248 0.49293,-0.47415 0.83646,-0.63611 0.3436,-0.16199 0.75248,-0.25036 1.22834,-0.26689 0.82264,-0.0286 1.45472,0.14349 1.90186,0.52408 0.44654,0.38007 0.6923,0.94119 0.73106,1.68511 z m -0.46255,9.66333 c 0.002,0.0381 8e-4,0.1339 -0.003,0.28703 -0.004,0.15316 -0.0332,0.33151 -0.0887,0.53486 -0.0448,0.20285 -0.12677,0.42184 -0.24648,0.65663 -0.10934,0.22477 -0.27388,0.43759 -0.49412,0.63791 -0.22022,0.2003 -0.50242,0.3693 -0.84659,0.506 -0.34411,0.13666 -0.76779,0.21306 -1.26966,0.22728 -0.4037,0.0114 -0.7705,-0.0227 -1.09946,-0.1016 -0.32919,-0.0885 -0.61505,-0.22187 -0.85719,-0.39951 -0.23144,-0.18742 -0.41372,-0.42384 -0.54709,-0.7089 -0.1335,-0.29469 -0.20176,-0.64748 -0.20599,-1.05854 -0.004,-0.3441 0.0469,-0.67925 0.15013,-1.00554 0.11389,-0.33599 0.28627,-0.6346 0.5164,-0.89628 0.23018,-0.26172 0.52899,-0.47238 0.89643,-0.63317 0.36752,-0.16082 0.80404,-0.24783 1.31127,-0.26289 0.87691,-0.026 1.5487,0.14768 2.02137,0.52946 0.47205,0.38127 0.72829,0.94303 0.76257,1.68726 z"
           style="text-align:center;text-anchor:middle;fill:#000000;fill-opacity:1;stroke:#000000;stroke-width:0.36549085;stroke-linecap:round;stroke-linejoin:round;stroke-miterlimit:4;stroke-dasharray:none;stroke-opacity:1"
           inkscape:connector-curvature="0" />
        <path
           id="path1189"
           d="m 146.36627,252.61924 c -0.0197,0.31985 -0.0146,0.60768 0.0161,0.86375 0.0908,0.75832 0.50738,1.30108 1.25948,1.61994 0.90934,0.31779 1.81431,0.61914 2.71391,0.90455 1.3185,0.49496 2.51283,1.27879 3.58856,2.36016 0.29148,0.40709 0.47227,0.81253 0.53983,1.21783 0.14442,0.86635 -0.19766,1.62773 -1.04356,2.27409 -0.84502,0.64571 -1.88237,1.05755 -3.10033,1.22466 -1.04389,0.14322 -1.95152,0.0598 -2.71341,-0.24267 -0.1272,-0.0232 -0.25714,-0.0269 -0.38997,-0.0113 -0.62257,0.0734 -0.9082,0.34907 -0.85393,0.83353 0.0266,0.2372 0.17129,0.46143 0.43566,0.67154 4.351,2.50201 8.90706,4.82825 13.64421,6.96631 0.33123,0.10266 0.65334,0.12358 0.96504,0.0629 0.68859,-0.13404 0.98379,-0.43861 0.88932,-0.90652 -0.0303,-0.1499 -0.12621,-0.26705 -0.28746,-0.3518 -3.76858,-1.69375 -7.42252,-3.50668 -10.9497,-5.43246 1.63254,-0.38346 2.93766,-1.02602 3.90365,-1.90293 1.1603,-1.04613 1.5839,-2.22773 1.31087,-3.52688 -0.34599,-1.5914 -1.56075,-2.8979 -3.58153,-3.98627 -0.94793,-0.52035 -2.37201,-1.07245 -4.2859,-1.71619 -0.2775,-0.0979 -0.43116,-0.26576 -0.46209,-0.50246 -0.0223,-0.17059 0.0181,-0.4212 0.11999,-0.75273 -0.1583,-0.31629 -0.41289,-0.45107 -0.76467,-0.40617 -0.49437,0.0631 -0.81193,0.30819 -0.95409,0.73905 1e-5,1e-5 3e-5,2e-5 4e-5,3e-5 z"
           style="text-align:center;text-anchor:middle;fill:#000000;fill-opacity:1;stroke:#000000;stroke-width:0.36549085;stroke-linecap:round;stroke-linejoin:round;stroke-miterlimit:4;stroke-dasharray:none;stroke-opacity:1"
           inkscape:connector-curvature="0" />
        <path
           id="path1191"
           d="m 167.71833,252.32468 c 1.32374,-0.374 2.48364,-0.2682 3.50219,0.3303 0.91963,0.54563 1.55288,1.3884 1.88413,2.53762 0.26763,0.9285 0.26974,1.88952 -0.007,2.88277 -0.29064,1.05673 -0.81919,2.00884 -1.58962,2.84982 -0.84874,0.91136 -1.82259,1.50436 -2.90478,1.77321 -0.5002,0.12426 -1.0069,0.1788 -1.51838,0.16349 -1.00517,-0.0448 -1.86061,-0.39372 -2.56129,-1.03931 -0.6559,-0.58756 -1.08316,-1.3548 -1.29165,-2.29766 -0.161,-0.72807 -0.1596,-1.45764 -0.002,-2.1885 0.26217,-1.28316 0.79287,-2.35562 1.58813,-3.22358 0.80334,-0.88025 1.76487,-1.47315 2.89991,-1.78816 z m -6.11043,3.82698 c -0.40717,1.25117 -0.49159,2.49846 -0.23121,3.74285 0.34843,1.66515 1.19353,2.96963 2.57163,3.89226 1.44999,0.96375 3.11586,1.22822 4.95446,0.77354 0.50573,-0.12507 1.01776,-0.31319 1.53429,-0.56453 3.49801,-1.69343 5.0257,-4.57105 4.67705,-8.46629 -0.0192,-0.38392 -0.0857,-0.76366 -0.19871,-1.13943 -0.4742,-1.57687 -1.49184,-2.71201 -3.01692,-3.43567 -1.52757,-0.72484 -3.15562,-0.81547 -4.92956,-0.28815 -1.21319,0.35288 -2.29506,1.02216 -3.26714,2.01586 -0.96409,0.98156 -1.66356,2.13496 -2.09389,3.46956 z"
           style="text-align:center;text-anchor:middle;fill:#000000;fill-opacity:1;stroke:#000000;stroke-width:0.36549085;stroke-linecap:round;stroke-linejoin:round;stroke-miterlimit:4;stroke-dasharray:none;stroke-opacity:1"
           inkscape:connector-curvature="0" />
        <path
           sodipodi:nodetypes="cccccccccccccccaaaccc"
           inkscape:connector-curvature="0"
           id="path1193"
           d="m 190.58198,253.69578 c -0.0653,-0.22139 -0.13856,-0.43448 -0.21972,-0.63928 -0.92058,-2.32323 -3.26079,-3.84435 -6.90674,-4.76349 -1.27329,-0.28901 -2.53117,-0.60479 -3.77292,-0.94669 -1.23601,-0.35429 -1.95584,-0.96512 -2.17662,-1.80882 -0.14012,-0.29664 -0.45299,-0.36271 -0.93938,-0.20249 -0.43136,0.1421 -0.6297,0.377 -0.59406,0.70778 0.27838,0.98657 0.81532,1.73377 1.62344,2.23408 0.525,0.31602 1.63666,0.73039 3.32466,1.19441 3.91636,0.61771 6.40763,1.63459 7.40922,3.28375 1.08883,2.59933 1.12577,4.58148 0.0534,5.9545 -0.32159,0.38498 -0.8739,0.72188 -1.65581,1.00323 -1.49455,0.53779 -2.77254,0.51832 -3.80984,-0.0402 -0.84541,0.20484 -1.1763,0.58853 -0.98685,1.16206 0.0511,0.15453 0.1369,0.31276 0.2578,0.47447 1.58832,0.4932 2.6712,0.73896 4.0176,0.59675 0.91985,-0.0971 1.85993,-0.416 2.59906,-0.97211 0.60952,-0.45859 1.09723,-1.12271 1.36412,-1.83726 0.63174,-1.69136 1.0423,-2.99101 0.41267,-5.40072 -2e-5,0 -3e-5,1e-5 -5e-5,2e-5 z"
           style="text-align:center;text-anchor:middle;fill:#000000;fill-opacity:1;stroke:#000000;stroke-width:0.36549085;stroke-linecap:round;stroke-linejoin:round;stroke-miterlimit:4;stroke-dasharray:none;stroke-opacity:1" />
        <path
           id="path1195"
           d="m 201.45789,245.13834 c 0.46219,0.27621 0.82249,0.67585 1.07803,1.201 0.58974,1.21195 0.59423,2.76102 -0.0415,4.64062 -0.64,1.87136 -1.52218,3.05644 -2.6001,3.54018 -0.34005,0.15261 -0.66621,0.19279 -0.97706,0.12093 -0.8988,-0.39942 -1.72978,-1.33141 -2.50215,-2.79294 -0.11133,-0.20337 -0.65084,-1.41835 -1.62133,-3.65041 1.49752,-1.42481 2.77667,-2.39921 3.89197,-2.91932 1.11205,-0.5186 2.03133,-0.56945 2.77216,-0.14005 0,-1e-5 0,-1e-5 1e-5,-1e-5 z m -12.42575,-4.43221 c -0.2949,0.12354 -0.49855,0.32733 -0.61174,0.61254 -0.10787,0.27262 -0.11873,0.51518 -0.0313,0.72781 0.14205,0.34532 0.4273,0.46161 0.85612,0.34558 0.76871,-0.38162 1.6206,0.51263 2.54952,2.70012 0.25344,0.59682 0.65156,1.63608 1.18495,3.10257 0.53151,1.46279 0.94654,2.55058 1.25354,3.27628 0.62744,1.48313 1.23723,2.56428 1.83855,3.24659 0.63273,0.7301 1.19019,1.20488 1.66973,1.42559 0.61905,0.27488 1.40562,0.31997 2.35505,0.12775 1.99744,-0.82676 3.41573,-2.45351 4.19742,-4.83027 0.76768,-2.28583 0.66927,-4.31519 -0.21436,-6.08653 -0.24784,-0.49683 -0.55431,-0.92705 -0.91761,-1.2916 1.52646,-1.66789 3.01114,-3.35523 4.45397,-5.0595 0.0858,-0.26391 0.0574,-0.52606 -0.0841,-0.78667 -0.31979,-0.58893 -0.72119,-0.69062 -1.20623,-0.31148 -1.52896,1.79626 -3.10489,3.57335 -4.7277,5.32824 -1.11002,-0.28806 -2.29625,-0.12858 -3.58005,0.4705 -1.02423,0.47794 -2.31396,1.38615 -3.93049,2.7175 -0.4039,-1.18094 -0.76728,-2.13791 -1.08467,-2.86551 -0.58935,-1.35109 -1.19202,-2.25022 -1.79833,-2.69648 -0.61149,-0.45606 -1.3327,-0.50474 -2.17226,-0.15303 z"
           style="text-align:center;text-anchor:middle;fill:#000000;fill-opacity:1;stroke:#000000;stroke-width:0.36549085;stroke-linecap:round;stroke-linejoin:round;stroke-miterlimit:4;stroke-dasharray:none;stroke-opacity:1"
           inkscape:connector-curvature="0" />
      </g>
      <circle
         r="92.604164"
         cy="132.29167"
         cx="132.29167"
         id="path908"
         style="opacity:1;fill:none;fill-opacity:1;stroke:#000000;stroke-width:1.85208333;stroke-linecap:square;stroke-linejoin:miter;stroke-miterlimit:4;stroke-dasharray:none;stroke-dashoffset:0;stroke-opacity:1;paint-order:markers fill stroke" />
      <circle
         style="opacity:1;fill:none;fill-opacity:1;stroke:#000000;stroke-width:2.64583325;stroke-linecap:square;stroke-linejoin:miter;stroke-miterlimit:4;stroke-dasharray:none;stroke-dashoffset:0;stroke-opacity:1;paint-order:markers fill stroke"
         id="circle910"
         cx="132.29167"
         cy="132.29167"
         r="132.29167" />
    </g>
  </g>
</svg>
