<?xml version="1.0" encoding="UTF-8" standalone="no"?>
<svg
   xmlns:dc="http://purl.org/dc/elements/1.1/"
   xmlns:cc="http://creativecommons.org/ns#"
   xmlns:rdf="http://www.w3.org/1999/02/22-rdf-syntax-ns#"
   xmlns:svg="http://www.w3.org/2000/svg"
   xmlns="http://www.w3.org/2000/svg"
   xmlns:sodipodi="http://sodipodi.sourceforge.net/DTD/sodipodi-0.dtd"
   xmlns:inkscape="http://www.inkscape.org/namespaces/inkscape"
   width="1000"
   height="1000"
   viewBox="0 0 264.58333 264.58334"
   version="1.1"
   id="svg8"
   inkscape:version="1.0.2 (e86c870879, 2021-01-15, custom)"
   sodipodi:docname="a.svg"
   inkscape:export-filename="C:\Users\quyyu\Desktop\bitmap.png"
   inkscape:export-xdpi="393.21603"
   inkscape:export-ydpi="393.21603">
  <defs
     id="defs2">
    <rect
       x="-100.91964"
       y="109.6131"
       width="59.342262"
       height="32.883929"
       id="rect1120" />
    <rect
       x="-80.130952"
       y="177.27083"
       width="62.744048"
       height="21.166667"
       id="rect1114" />
    <rect
       x="-172.65611"
       y="281.16754"
       width="439.3911"
       height="31.537804"
       id="rect1020" />
    <rect
       x="-233.05903"
       y="28.33057"
       width="287.58201"
       height="61.471991"
       id="rect1009" />
    <inkscape:path-effect
       effect="bend_path"
       id="path-effect903"
       is_visible="true"
       bendpath="m 54.430761,240.20709 c 41.602801,26.19406 99.299589,29.90636 154.301399,0"
       prop_scale="0.99"
       scale_y_rel="false"
       vertical="false"
       bendpath-nodetypes="cc" />
    <inkscape:path-effect
       effect="bend_path"
       id="path-effect820"
       is_visible="true"
       bendpath="m 51.9375,212.64583 c 0,0 -3.768492,-3.90715 -5.548246,-5.95477 -1.773279,-2.04017 -3.477772,-4.14234 -5.105265,-6.30059 -1.623484,-2.15294 -3.173632,-4.36332 -4.642292,-6.62471 -1.466943,-2.25875 -2.856054,-4.57012 -4.159329,-6.9271 -1.303639,-2.35763 -2.525,-4.76281 -3.656375,-7.20778 -1.133534,-2.44964 -2.180417,-4.9414 -3.133429,-7.46675 -0.956577,-2.5348 -1.82224,-5.10592 -2.590492,-7.704 -0.772703,-2.61314 -1.450393,-5.25637 -2.027566,-7.91953 -0.581834,-2.68467 -1.064784,-5.39276 -1.444647,-8.11336 -0.38388,-2.74937 -0.665328,-5.51504 -0.841738,-8.28546 -0.178752,-2.80721 -0.251941,-5.62314 -0.218838,-8.43584 0.03364,-2.85814 0.175453,-5.71701 0.424054,-8.56452 0.253365,-2.90207 0.616903,-5.79654 1.086935,-8.67148 0.48049,-2.93891 1.072443,-5.8616 1.769808,-8.75672 0.715047,-2.96853 1.542073,-5.912089 2.472673,-8.820255 0.957044,-2.990803 1.997198,-5.959504 3.195527,-8.862062 1.065553,-2.580951 2.272143,-5.104435 3.545253,-7.589572 1.263704,-2.466776 2.618559,-4.888887 4.058132,-7.257338 1.431166,-2.35462 2.94908,-4.658604 4.546912,-6.903466 1.590778,-2.234952 3.263681,-4.413626 5.01159,-6.527959 1.742516,-2.10781 3.562357,-4.153989 5.452168,-6.130814 1.886373,-1.973229 3.845115,-3.879724 5.868647,-5.712032 2.022355,-1.831242 4.111972,-3.590857 6.261024,-5.271614 2.150482,-1.681875 4.362958,-3.287401 6.629301,-4.80956 2.270782,-1.525141 4.59811,-2.969354 6.973478,-4.325868 2.38329,-1.361038 4.817465,-2.6367 7.293555,-3.820539 2.488044,-1.189554 5.021057,-2.289411 7.589531,-3.293575 2.585081,-1.010656 5.208918,-1.927437 7.861408,-2.744974 2.674431,-0.824298 5.381061,-1.550717 8.109181,-2.174735 2.75611,-0.630419 5.5375,-1.159182 8.33286,-1.582861 2.83012,-0.428946 5.6782,-0.75275 8.53243,-0.969348 2.89644,-0.219801 5.80312,-0.329233 8.70788,-0.334201 2.79853,-0.0048 5.59901,0.09471 8.39049,0.293282 2.7591,0.196268 5.51299,0.491717 8.25068,0.886961 2.71206,0.391544 5.41177,0.881458 8.0882,1.469059 2.65737,0.583416 5.2953,1.263917 7.90305,2.039576 2.59501,0.771869 5.16355,1.639076 7.69522,2.598512 2.52494,0.956885 5.0165,2.006916 7.46471,3.145865 2.44713,1.138449 4.85413,2.367419 7.21154,3.681638 2.36157,1.316541 4.67641,2.720571 6.93568,4.205829 2.26823,1.491148 4.48333,3.066351 6.63716,4.718438 2.16709,1.662251 4.27484,3.404748 6.31595,5.219466 2.05812,1.829838 4.05095,3.73574 5.97208,5.708913 1.9413,1.993888 3.81161,4.059312 5.60552,6.186778 1.81661,2.154386 3.55683,4.375437 5.21631,6.653062 1.68402,2.311305 3.28654,4.684094 4.8044,7.107763 1.54351,2.464627 3.00075,4.985256 4.36982,7.550885 1.39505,2.614318 2.75618,5.254134 3.91258,7.982424 1.14372,2.698389 2.0842,5.481295 2.98233,8.271056 0.88264,2.741637 1.67237,5.515106 2.36177,8.311596 0.67902,2.75439 1.26288,5.53414 1.74538,8.32966 0.47635,2.75986 0.85568,5.53836 1.13314,8.32525 0.27459,2.75802 0.45075,5.52771 0.52507,8.29837 0.0737,2.7488 0.0481,5.50213 -0.0788,8.24899 -0.12625,2.73217 -0.35232,5.4616 -0.67859,8.17716 -0.32537,2.70807 -0.75049,5.40603 -1.27418,8.08283 -0.52362,2.67645 -1.14639,5.33539 -1.8656,7.96604 -0.72101,2.63726 -1.54004,5.24961 -2.45287,7.82677 -0.91753,2.59043 -1.9314,5.14865 -3.03598,7.66502 -1.11316,2.53592 -2.32046,5.03246 -3.61493,7.4808 -1.30787,2.47367 -2.70717,4.90099 -4.18971,7.27409 -1.50162,2.40365 -3.09149,4.7542 -4.76033,7.04491 -1.6944,2.3258 -3.4734,4.59206 -5.32679,6.79326 -1.88615,2.2401 -5.8891,6.51913 -5.8891,6.51913"
       prop_scale="1"
       scale_y_rel="false"
       vertical="false"
       bendpath-nodetypes="csssssssssssssssssssssssssssssssssssssssssssssssssssssssssssssssc" />
  </defs>
  <sodipodi:namedview
     id="base"
     pagecolor="#ffffff"
     bordercolor="#666666"
     borderopacity="1.0"
     inkscape:pageopacity="0.0"
     inkscape:pageshadow="2"
     inkscape:zoom="0.49497475"
     inkscape:cx="406.51908"
     inkscape:cy="452.07152"
     inkscape:document-units="px"
     inkscape:current-layer="layer2"
     showgrid="false"
     units="px"
     inkscape:showpageshadow="false"
     inkscape:pagecheckerboard="true"
     inkscape:window-width="1920"
     inkscape:window-height="1013"
     inkscape:window-x="-9"
     inkscape:window-y="-9"
     inkscape:window-maximized="1"
     inkscape:snap-global="false"
     inkscape:snap-object-midpoints="true"
     inkscape:snap-center="true"
     inkscape:snap-page="true"
     inkscape:object-paths="false"
     inkscape:snap-intersection-paths="false"
     inkscape:snap-smooth-nodes="true"
     inkscape:snap-midpoints="false"
     inkscape:object-nodes="true"
     inkscape:document-rotation="0" />
  <metadata
     id="metadata5">
    <rdf:RDF>
      <cc:Work
         rdf:about="">
        <dc:format>image/svg+xml</dc:format>
        <dc:type
           rdf:resource="http://purl.org/dc/dcmitype/StillImage" />
        <dc:title />
      </cc:Work>
    </rdf:RDF>
  </metadata>
  <g
     inkscape:groupmode="layer"
     id="layer2"
     inkscape:label="SMKF">
    <path
       id="path824"
       d="M 132.29166,1.3098182 A 130.98185,130.98185 0 0 0 1.3098182,132.29166 130.98185,130.98185 0 0 0 132.29166,263.27351 130.98185,130.98185 0 0 0 263.27351,132.29166 130.98185,130.98185 0 0 0 132.29166,1.3098182 Z m 0,39.2945538 a 91.687297,91.687297 0 0 1 91.68729,91.687288 91.687297,91.687297 0 0 1 -91.68729,91.68729 91.687297,91.687297 0 0 1 -91.687288,-91.68729 91.687297,91.687297 0 0 1 91.687288,-91.687288 z"
       style="fill:#ffffff;fill-opacity:1;stroke:none;stroke-width:2.61964;stroke-linecap:square;stroke-linejoin:miter;stroke-miterlimit:4;stroke-dasharray:none;stroke-dashoffset:0;stroke-opacity:1;paint-order:markers fill stroke"
       inkscape:connector-curvature="0" />
    <path
       inkscape:connector-curvature="0"
       id="rect903"
       d="m 132.29167,223.97894 a 91.68729,91.68729 0 0 0 91.68728,-91.68727 h -91.68729 z"
       style="fill:#ffffff;fill-opacity:1;stroke:none;stroke-width:2.53948;stroke-linecap:square;stroke-linejoin:miter;stroke-miterlimit:4;stroke-dasharray:none;stroke-dashoffset:0;stroke-opacity:1;paint-order:markers fill stroke" />
    <path
       style="fill:#8a0707;fill-opacity:1;stroke:none;stroke-width:2.53948;stroke-linecap:square;stroke-linejoin:miter;stroke-miterlimit:4;stroke-dasharray:none;stroke-dashoffset:0;stroke-opacity:1;paint-order:markers fill stroke"
       d="m 40.604381,132.29168 a 91.68729,91.68729 0 0 0 91.687279,91.68728 v -91.68729 z"
       id="path987"
       inkscape:connector-curvature="0" />
    <path
       inkscape:connector-curvature="0"
       id="path1025"
       d="M 132.29165,40.604391 A 91.68729,91.68729 0 0 0 40.604362,132.29167 h 91.687298 z"
       style="fill:#ffffff;fill-opacity:1;stroke:none;stroke-width:2.53948;stroke-linecap:square;stroke-linejoin:miter;stroke-miterlimit:4;stroke-dasharray:none;stroke-dashoffset:0;stroke-opacity:1;paint-order:markers fill stroke" />
    <path
       style="fill:#8a0707;fill-opacity:1;stroke:none;stroke-width:2.53948;stroke-linecap:square;stroke-linejoin:miter;stroke-miterlimit:4;stroke-dasharray:none;stroke-dashoffset:0;stroke-opacity:1;paint-order:markers fill stroke"
       d="M 223.97895,132.29166 A 91.68729,91.68729 0 0 0 132.29168,40.604371 v 91.687299 z"
       id="path1063"
       inkscape:connector-curvature="0" />
    <g
       style="fill:#8a0707;fill-opacity:1"
       transform="matrix(0.24596653,0,0,0.24596653,296.15001,134.86619)"
       id="g965">
      <path
         style="fill:#8a0707;fill-opacity:1;stroke-width:4.57467"
         inkscape:connector-curvature="0"
         d="m -531.59843,8.4248806 c -3.30291,1.9716814 -5.12362,5.2837394 -5.12362,9.3917894 0.0275,7.625968 3.0513,16.802704 7.88673,23.948332 4.46029,6.592094 12.72671,16.148572 26.82126,24.213713 2.64416,1.514212 4.43743,3.99825 4.86286,6.656137 -0.613,0.0089 -1.31293,0.0051 -1.97168,0.0051 -1.41813,0 -3.10161,-0.0051 -4.95893,0.05484 h -101.26024 c -10.09166,0 -18.29861,8.206951 -18.29861,18.298675 0,10.091703 8.20695,18.298663 18.29861,18.298663 h 70.90733 c 1.25803,0 2.28733,1.0293 2.28733,2.28733 0,1.25803 -1.0293,2.28733 -2.28733,2.28733 h -102.92995 c -10.09171,0 -18.29866,8.20695 -18.29866,18.29866 0,10.09171 8.20695,18.29867 18.29866,18.29867 h 102.92995 c 1.25803,0 2.28733,1.0293 2.28733,2.28734 0,1.25801 -1.0293,2.28731 -2.28733,2.28731 h -82.34395 c -8.8291,0 -16.01133,7.18225 -16.01133,16.01134 0,8.82911 7.18223,16.01134 16.01133,16.01134 h 91.49329 c 1.25802,0 2.28732,1.0293 2.28732,2.28732 0,1.25804 -1.0293,2.28734 -2.28732,2.28734 h -57.18333 c -8.82911,0 -16.01133,7.18222 -16.01133,16.05709 0,8.8291 7.18222,16.01132 16.01133,16.01132 l 124.41719,-0.009 c 63.96756,-4.42827 72.59538,-43.66519 72.59538,-81.46566 0,-31.31816 -15.53557,-59.44779 -40.36686,-73.318167 -2.88204,-1.784125 -10.46683,-6.610398 -19.46062,-12.333306 -22.47534,-14.309555 -41.35956,-26.29518 -44.71737,-28.065576 -7.475,-3.947891 -13.31685,-8.353296 -16.89424,-12.735825 -3.23887,-3.966236 -7.36979,-6.3908086 -10.99749,-8.3624897 -1.88478,-1.0155758 -8.81539,-1.9030615 -13.70571,1.0110012 z"
         id="path910" />
      <g
         style="fill:#8a0707;fill-opacity:1"
         id="g912" />
      <g
         style="fill:#8a0707;fill-opacity:1"
         id="g914" />
      <g
         style="fill:#8a0707;fill-opacity:1"
         id="g916" />
      <g
         style="fill:#8a0707;fill-opacity:1"
         id="g918" />
      <g
         style="fill:#8a0707;fill-opacity:1"
         id="g920" />
      <g
         style="fill:#8a0707;fill-opacity:1"
         id="g922" />
      <g
         style="fill:#8a0707;fill-opacity:1"
         id="g924" />
      <g
         style="fill:#8a0707;fill-opacity:1"
         id="g926" />
      <g
         style="fill:#8a0707;fill-opacity:1"
         id="g928" />
      <g
         style="fill:#8a0707;fill-opacity:1"
         id="g930" />
      <g
         style="fill:#8a0707;fill-opacity:1"
         id="g932" />
      <g
         style="fill:#8a0707;fill-opacity:1"
         id="g934" />
      <g
         style="fill:#8a0707;fill-opacity:1"
         id="g936" />
      <g
         style="fill:#8a0707;fill-opacity:1"
         id="g938" />
      <g
         style="fill:#8a0707;fill-opacity:1"
         id="g940" />
    </g>
    <g
       style="fill:#ffffff;fill-opacity:1"
       id="g1021"
       transform="matrix(0,0.24596653,-0.24596653,0,129.71714,296.15001)">
      <path
         id="path989"
         d="m -531.59843,8.4248806 c -3.30291,1.9716814 -5.12362,5.2837394 -5.12362,9.3917894 0.0275,7.625968 3.0513,16.802704 7.88673,23.948332 4.46029,6.592094 12.72671,16.148572 26.82126,24.213713 2.64416,1.514212 4.43743,3.99825 4.86286,6.656137 -0.613,0.0089 -1.31293,0.0051 -1.97168,0.0051 -1.41813,0 -3.10161,-0.0051 -4.95893,0.05484 h -101.26024 c -10.09166,0 -18.29861,8.206951 -18.29861,18.298675 0,10.091703 8.20695,18.298663 18.29861,18.298663 h 70.90733 c 1.25803,0 2.28733,1.0293 2.28733,2.28733 0,1.25803 -1.0293,2.28733 -2.28733,2.28733 h -102.92995 c -10.09171,0 -18.29866,8.20695 -18.29866,18.29866 0,10.09171 8.20695,18.29867 18.29866,18.29867 h 102.92995 c 1.25803,0 2.28733,1.0293 2.28733,2.28734 0,1.25801 -1.0293,2.28731 -2.28733,2.28731 h -82.34395 c -8.8291,0 -16.01133,7.18225 -16.01133,16.01134 0,8.82911 7.18223,16.01134 16.01133,16.01134 h 91.49329 c 1.25802,0 2.28732,1.0293 2.28732,2.28732 0,1.25804 -1.0293,2.28734 -2.28732,2.28734 h -57.18333 c -8.82911,0 -16.01133,7.18222 -16.01133,16.05709 0,8.8291 7.18222,16.01132 16.01133,16.01132 l 124.41719,-0.009 c 63.96756,-4.42827 72.59538,-43.66519 72.59538,-81.46566 0,-31.31816 -15.53557,-59.44779 -40.36686,-73.318167 -2.88204,-1.784125 -10.46683,-6.610398 -19.46062,-12.333306 -22.47534,-14.309555 -41.35956,-26.29518 -44.71737,-28.065576 -7.475,-3.947891 -13.31685,-8.353296 -16.89424,-12.735825 -3.23887,-3.966236 -7.36979,-6.3908086 -10.99749,-8.3624897 -1.88478,-1.0155758 -8.81539,-1.9030615 -13.70571,1.0110012 z"
         inkscape:connector-curvature="0"
         style="fill:#ffffff;fill-opacity:1;stroke-width:4.57467" />
      <g
         style="fill:#ffffff;fill-opacity:1"
         id="g991" />
      <g
         style="fill:#ffffff;fill-opacity:1"
         id="g993" />
      <g
         style="fill:#ffffff;fill-opacity:1"
         id="g995" />
      <g
         style="fill:#ffffff;fill-opacity:1"
         id="g997" />
      <g
         style="fill:#ffffff;fill-opacity:1"
         id="g999" />
      <g
         style="fill:#ffffff;fill-opacity:1"
         id="g1001" />
      <g
         style="fill:#ffffff;fill-opacity:1"
         id="g1003" />
      <g
         style="fill:#ffffff;fill-opacity:1"
         id="g1005" />
      <g
         style="fill:#ffffff;fill-opacity:1"
         id="g1007" />
      <g
         style="fill:#ffffff;fill-opacity:1"
         id="g1009" />
      <g
         style="fill:#ffffff;fill-opacity:1"
         id="g1011" />
      <g
         style="fill:#ffffff;fill-opacity:1"
         id="g1013" />
      <g
         style="fill:#ffffff;fill-opacity:1"
         id="g1015" />
      <g
         style="fill:#ffffff;fill-opacity:1"
         id="g1017" />
      <g
         style="fill:#ffffff;fill-opacity:1"
         id="g1019" />
    </g>
    <g
       style="fill:#8a0707;fill-opacity:1"
       transform="matrix(-0.24596653,0,0,-0.24596653,-31.566679,129.71714)"
       id="g1059">
      <path
         style="fill:#8a0707;fill-opacity:1;stroke-width:4.57467"
         inkscape:connector-curvature="0"
         d="m -531.59843,8.4248806 c -3.30291,1.9716814 -5.12362,5.2837394 -5.12362,9.3917894 0.0275,7.625968 3.0513,16.802704 7.88673,23.948332 4.46029,6.592094 12.72671,16.148572 26.82126,24.213713 2.64416,1.514212 4.43743,3.99825 4.86286,6.656137 -0.613,0.0089 -1.31293,0.0051 -1.97168,0.0051 -1.41813,0 -3.10161,-0.0051 -4.95893,0.05484 h -101.26024 c -10.09166,0 -18.29861,8.206951 -18.29861,18.298675 0,10.091703 8.20695,18.298663 18.29861,18.298663 h 70.90733 c 1.25803,0 2.28733,1.0293 2.28733,2.28733 0,1.25803 -1.0293,2.28733 -2.28733,2.28733 h -102.92995 c -10.09171,0 -18.29866,8.20695 -18.29866,18.29866 0,10.09171 8.20695,18.29867 18.29866,18.29867 h 102.92995 c 1.25803,0 2.28733,1.0293 2.28733,2.28734 0,1.25801 -1.0293,2.28731 -2.28733,2.28731 h -82.34395 c -8.8291,0 -16.01133,7.18225 -16.01133,16.01134 0,8.82911 7.18223,16.01134 16.01133,16.01134 h 91.49329 c 1.25802,0 2.28732,1.0293 2.28732,2.28732 0,1.25804 -1.0293,2.28734 -2.28732,2.28734 h -57.18333 c -8.82911,0 -16.01133,7.18222 -16.01133,16.05709 0,8.8291 7.18222,16.01132 16.01133,16.01132 l 124.41719,-0.009 c 63.96756,-4.42827 72.59538,-43.66519 72.59538,-81.46566 0,-31.31816 -15.53557,-59.44779 -40.36686,-73.318167 -2.88204,-1.784125 -10.46683,-6.610398 -19.46062,-12.333306 -22.47534,-14.309555 -41.35956,-26.29518 -44.71737,-28.065576 -7.475,-3.947891 -13.31685,-8.353296 -16.89424,-12.735825 -3.23887,-3.966236 -7.36979,-6.3908086 -10.99749,-8.3624897 -1.88478,-1.0155758 -8.81539,-1.9030615 -13.70571,1.0110012 z"
         id="path1027" />
      <g
         style="fill:#8a0707;fill-opacity:1"
         id="g1029" />
      <g
         style="fill:#8a0707;fill-opacity:1"
         id="g1031" />
      <g
         style="fill:#8a0707;fill-opacity:1"
         id="g1033" />
      <g
         style="fill:#8a0707;fill-opacity:1"
         id="g1035" />
      <g
         style="fill:#8a0707;fill-opacity:1"
         id="g1037" />
      <g
         style="fill:#8a0707;fill-opacity:1"
         id="g1039" />
      <g
         style="fill:#8a0707;fill-opacity:1"
         id="g1041" />
      <g
         style="fill:#8a0707;fill-opacity:1"
         id="g1043" />
      <g
         style="fill:#8a0707;fill-opacity:1"
         id="g1045" />
      <g
         style="fill:#8a0707;fill-opacity:1"
         id="g1047" />
      <g
         style="fill:#8a0707;fill-opacity:1"
         id="g1049" />
      <g
         style="fill:#8a0707;fill-opacity:1"
         id="g1051" />
      <g
         style="fill:#8a0707;fill-opacity:1"
         id="g1053" />
      <g
         style="fill:#8a0707;fill-opacity:1"
         id="g1055" />
      <g
         style="fill:#8a0707;fill-opacity:1"
         id="g1057" />
    </g>
    <g
       style="fill:#ffffff;fill-opacity:1"
       id="g1097"
       transform="matrix(0,-0.24596653,0.24596653,0,134.86621,-31.566679)">
      <path
         id="path1065"
         d="m -531.59843,8.4248806 c -3.30291,1.9716814 -5.12362,5.2837394 -5.12362,9.3917894 0.0275,7.625968 3.0513,16.802704 7.88673,23.948332 4.46029,6.592094 12.72671,16.148572 26.82126,24.213713 2.64416,1.514212 4.43743,3.99825 4.86286,6.656137 -0.613,0.0089 -1.31293,0.0051 -1.97168,0.0051 -1.41813,0 -3.10161,-0.0051 -4.95893,0.05484 h -101.26024 c -10.09166,0 -18.29861,8.206951 -18.29861,18.298675 0,10.091703 8.20695,18.298663 18.29861,18.298663 h 70.90733 c 1.25803,0 2.28733,1.0293 2.28733,2.28733 0,1.25803 -1.0293,2.28733 -2.28733,2.28733 h -102.92995 c -10.09171,0 -18.29866,8.20695 -18.29866,18.29866 0,10.09171 8.20695,18.29867 18.29866,18.29867 h 102.92995 c 1.25803,0 2.28733,1.0293 2.28733,2.28734 0,1.25801 -1.0293,2.28731 -2.28733,2.28731 h -82.34395 c -8.8291,0 -16.01133,7.18225 -16.01133,16.01134 0,8.82911 7.18223,16.01134 16.01133,16.01134 h 91.49329 c 1.25802,0 2.28732,1.0293 2.28732,2.28732 0,1.25804 -1.0293,2.28734 -2.28732,2.28734 h -57.18333 c -8.82911,0 -16.01133,7.18222 -16.01133,16.05709 0,8.8291 7.18222,16.01132 16.01133,16.01132 l 124.41719,-0.009 c 63.96756,-4.42827 72.59538,-43.66519 72.59538,-81.46566 0,-31.31816 -15.53557,-59.44779 -40.36686,-73.318167 -2.88204,-1.784125 -10.46683,-6.610398 -19.46062,-12.333306 -22.47534,-14.309555 -41.35956,-26.29518 -44.71737,-28.065576 -7.475,-3.947891 -13.31685,-8.353296 -16.89424,-12.735825 -3.23887,-3.966236 -7.36979,-6.3908086 -10.99749,-8.3624897 -1.88478,-1.0155758 -8.81539,-1.9030615 -13.70571,1.0110012 z"
         inkscape:connector-curvature="0"
         style="fill:#ffffff;fill-opacity:1;stroke-width:4.57467" />
      <g
         style="fill:#ffffff;fill-opacity:1"
         id="g1067" />
      <g
         style="fill:#ffffff;fill-opacity:1"
         id="g1069" />
      <g
         style="fill:#ffffff;fill-opacity:1"
         id="g1071" />
      <g
         style="fill:#ffffff;fill-opacity:1"
         id="g1073" />
      <g
         style="fill:#ffffff;fill-opacity:1"
         id="g1075" />
      <g
         style="fill:#ffffff;fill-opacity:1"
         id="g1077" />
      <g
         style="fill:#ffffff;fill-opacity:1"
         id="g1079" />
      <g
         style="fill:#ffffff;fill-opacity:1"
         id="g1081" />
      <g
         style="fill:#ffffff;fill-opacity:1"
         id="g1083" />
      <g
         style="fill:#ffffff;fill-opacity:1"
         id="g1085" />
      <g
         style="fill:#ffffff;fill-opacity:1"
         id="g1087" />
      <g
         style="fill:#ffffff;fill-opacity:1"
         id="g1089" />
      <g
         style="fill:#ffffff;fill-opacity:1"
         id="g1091" />
      <g
         style="fill:#ffffff;fill-opacity:1"
         id="g1093" />
      <g
         style="fill:#ffffff;fill-opacity:1"
         id="g1095" />
    </g>
    <circle
       r="91.687286"
       cy="132.29167"
       cx="132.29167"
       id="path908"
       style="fill:none;fill-opacity:1;stroke:#000000;stroke-width:1.83374;stroke-linecap:square;stroke-linejoin:miter;stroke-miterlimit:4;stroke-dasharray:none;stroke-dashoffset:0;stroke-opacity:1;paint-order:markers fill stroke" />
    <circle
       style="fill:none;fill-opacity:1;stroke:#000000;stroke-width:2.61963;stroke-linecap:square;stroke-linejoin:miter;stroke-miterlimit:4;stroke-dasharray:none;stroke-dashoffset:0;stroke-opacity:1;paint-order:markers fill stroke"
       id="circle910"
       cx="132.29167"
       cy="132.29167"
       r="130.98184" />
    <g
       aria-label="SWADESH SHEBA FOUNDATION"
       id="text1007"
       style="font-style:normal;font-weight:normal;font-size:24.6944px;line-height:1.25;font-family:sans-serif;text-align:center;text-anchor:middle;white-space:pre;fill:#000000;fill-opacity:1;stroke:none">
      <path
         d="m 22.252013,105.77746 -0.880769,4.6316 -1.421464,-0.27031 q -0.995025,-0.18922 -1.301261,-0.0633 -0.306236,0.12587 -0.385078,0.54047 -0.0856,0.45013 0.236561,0.75687 0.324412,0.29489 1.07068,0.43681 0.959488,0.18246 1.494712,0.0142 0.532972,-0.1564 1.440768,-1.18661 2.611186,-2.95241 4.043099,-3.57611 1.431912,-0.62369 4.251148,-0.0876 2.049277,0.3897 2.928254,1.06008 0.881229,0.65853 1.283276,2.15876 0.390202,1.49798 0.0433,3.32219 -0.380691,2.00189 -1.409118,3.27919 -1.026174,1.26545 -2.282228,1.48073 -1.256054,0.21528 -3.411941,-0.1947 l -1.255626,-0.23878 0.880769,-4.6316 2.33357,0.44377 q 1.077943,0.20498 1.421969,0.074 0.346278,-0.1428 0.440887,-0.64032 0.09461,-0.49751 -0.251241,-0.80876 -0.343597,-0.32309 -1.113557,-0.46951 -1.693911,-0.32212 -2.302966,0.0407 -0.611308,0.37471 -2.185057,2.00244 -1.585594,1.62547 -2.257217,2.12372 -0.671623,0.49825 -1.731391,0.71403 -1.057515,0.20394 -2.585589,-0.0867 -2.203268,-0.41898 -3.116112,-1.16944 -0.91059,-0.76231 -1.240399,-2.12607 -0.341655,-1.366 -0.0038,-3.14283 0.369428,-1.94267 1.256291,-3.18551 0.889116,-1.2547 1.93195,-1.51052 1.033242,-0.26992 3.319429,0.16483 z"
         style="font-style:normal;font-variant:normal;font-weight:normal;font-stretch:condensed;font-size:24.6944px;font-family:Impact;-inkscape-font-specification:'Impact Condensed';text-align:center;text-anchor:middle"
         id="path930" />
      <path
         d="m 24.179192,81.599939 17.536814,8.86776 -2.193709,5.950949 q -4.520249,-0.741036 -10.123586,-2.099799 2.192396,1.129462 9.105973,4.860316 l -2.181197,5.917005 -19.10077,-4.62516 1.705755,-4.627258 6.571513,1.869875 6.349412,1.775151 Q 27.15967,97.464423 19.775093,93.547092 l 1.8267,-4.955353 q 0.8408,0.194286 6.233304,1.706648 l 7.149705,2.044462 q -6.49511,-2.844088 -12.511364,-6.115651 z"
         style="font-style:normal;font-variant:normal;font-weight:normal;font-stretch:condensed;font-size:24.6944px;font-family:Impact;-inkscape-font-specification:'Impact Condensed';text-align:center;text-anchor:middle"
         id="path932" />
      <path
         d="m 30.563704,70.523308 18.406918,7.121981 -2.568482,4.517837 -3.175472,-1.514046 -0.899863,1.582815 2.901342,1.996228 -2.598279,4.570248 -15.695412,-11.891392 z m 9.583054,8.541224 q -3.073309,-1.303392 -7.498826,-3.375541 4.482352,3.436003 6.640679,4.88498 z"
         style="font-style:normal;font-variant:normal;font-weight:normal;font-stretch:condensed;font-size:24.6944px;font-family:Impact;-inkscape-font-specification:'Impact Condensed';text-align:center;text-anchor:middle"
         id="path934" />
      <path
         d="m 33.932902,65.138137 2.294006,-3.027201 q 2.221181,-2.931098 3.2695,-3.755474 1.055601,-0.833985 2.078474,-0.90607 1.022874,-0.07209 1.884032,0.368695 0.851548,0.433497 3.061885,2.108486 l 5.448961,4.129212 q 2.095014,1.587598 2.653232,2.328321 0.555891,0.72383 0.588107,1.519815 0.02261,0.788703 -0.360213,1.633269 -0.39243,0.837283 -1.492096,2.288417 l -3.86704,5.102995 z m 5.727972,-2.028608 10.23482,7.755926 q 0.662713,-0.874524 0.469681,-1.33851 -0.202642,-0.471268 -1.759488,-1.651043 l -6.044791,-4.58073 q -1.057117,-0.801082 -1.40601,-0.95957 -0.348893,-0.158488 -0.665499,-0.02019 -0.326217,0.131016 -0.828713,0.794117 z"
         style="font-style:normal;font-variant:normal;font-weight:normal;font-stretch:condensed;font-size:24.6944px;font-family:Impact;-inkscape-font-specification:'Impact Condensed';text-align:center;text-anchor:middle"
         id="path936" />
      <path
         d="m 43.873528,52.620995 5.880927,-6.088012 2.809852,2.714274 -2.354047,2.43694 2.662422,2.571858 2.203253,-2.280837 2.671093,2.580236 -2.203253,2.280837 3.087368,2.98235 2.588613,-2.679766 2.809852,2.714274 -6.115494,6.330839 z"
         style="font-style:normal;font-variant:normal;font-weight:normal;font-stretch:condensed;font-size:24.6944px;font-family:Impact;-inkscape-font-specification:'Impact Condensed';text-align:center;text-anchor:middle"
         id="path938" />
      <path
         d="m 64.755055,41.481263 -3.64348,2.992083 -0.918286,-1.118204 q -0.6428,-0.782742 -0.95858,-0.882279 -0.315781,-0.09954 -0.641923,0.168297 -0.354098,0.290791 -0.303241,0.732708 0.06018,0.434264 0.542275,1.021321 0.619843,0.754787 1.138595,0.968488 0.509433,0.221352 1.866471,0.01188 3.896408,-0.594154 5.395453,-0.155713 1.499046,0.43844 3.320313,2.65621 1.323863,1.612077 1.569305,2.68993 0.254762,1.070201 -0.397635,2.479706 -0.660049,1.400187 -2.095076,2.578654 -1.574804,1.293253 -3.18276,1.615164 -1.598637,0.314259 -2.701003,-0.325121 -1.102365,-0.63938 -2.495099,-2.335321 l -0.811153,-0.987747 3.64348,-2.992082 1.507519,1.835717 q 0.696367,0.847971 1.044423,0.96781 0.357374,0.112187 0.748745,-0.209213 0.391372,-0.3214 0.32521,-0.781954 -0.05684,-0.468206 -0.554248,-1.073899 -1.094291,-1.332526 -1.794412,-1.444091 -0.709439,-0.103912 -2.960618,0.137721 -2.25883,0.232314 -3.093729,0.184623 -0.834898,-0.04769 -1.786871,-0.560934 -0.942653,-0.520896 -1.929811,-1.722964 -1.423344,-1.733216 -1.643486,-2.894257 -0.210823,-1.168693 0.409609,-2.427127 0.612779,-1.267753 2.010533,-2.415611 1.528212,-1.254991 3.0054,-1.641142 1.486506,-0.393803 2.451128,0.07785 0.966289,0.454678 2.443199,2.253122 z"
         style="font-style:normal;font-variant:normal;font-weight:normal;font-stretch:condensed;font-size:24.6944px;font-family:Impact;-inkscape-font-specification:'Impact Condensed';text-align:center;text-anchor:middle"
         id="path940" />
      <path
         d="m 74.664954,28.053519 10.28264,16.593979 -4.31505,2.673867 -4.318835,-6.969676 -1.29144,0.800255 4.318835,6.969676 -4.315049,2.673868 -10.28264,-16.59398 4.31505,-2.673867 3.677361,5.934474 1.29144,-0.800254 -3.677361,-5.934475 z"
         style="font-style:normal;font-variant:normal;font-weight:normal;font-stretch:condensed;font-size:24.6944px;font-family:Impact;-inkscape-font-specification:'Impact Condensed';text-align:center;text-anchor:middle"
         id="path942" />
      <path
         d="m 95.678394,25.183179 -4.383169,1.736471 -0.532932,-1.345218 q -0.373052,-0.941653 -0.64335,-1.13287 -0.270298,-0.191217 -0.662653,-0.03578 -0.425986,0.168762 -0.512514,0.605099 -0.07532,0.431895 0.20447,1.138135 0.35973,0.908022 0.788438,1.269934 0.417498,0.366353 1.773677,0.581313 3.891716,0.624146 5.185255,1.499431 1.293539,0.875286 2.350521,3.543302 0.768313,1.939356 0.672865,3.040673 -0.08424,1.096877 -1.135911,2.239813 -1.056117,1.131726 -2.78248,1.815656 -1.894515,0.750546 -3.523964,0.566028 -1.618238,-0.188958 -2.472683,-1.134442 -0.854445,-0.945484 -1.662725,-2.985731 l -0.470757,-1.188276 4.383169,-1.736471 0.874897,2.208399 q 0.40414,1.020124 0.698971,1.24053 0.306041,0.215965 0.776868,0.02944 0.470826,-0.186526 0.548472,-0.645283 0.08886,-0.463198 -0.199814,-1.191858 -0.635078,-1.603051 -1.267682,-1.923095 -0.643815,-0.315603 -2.861242,-0.772995 -2.221868,-0.468603 -3.002317,-0.768983 -0.78045,-0.300381 -1.530207,-1.079826 -0.738546,-0.783886 -1.311448,-2.229996 -0.826045,-2.085088 -0.681103,-3.257892 0.156153,-1.177246 1.131256,-2.18609 0.970662,-1.020054 2.652184,-1.68622 1.838465,-0.72834 3.36301,-0.644929 1.535756,0.07897 2.310261,0.822671 0.781274,0.72805 1.638407,2.891609 z"
         style="font-style:normal;font-variant:normal;font-weight:normal;font-stretch:condensed;font-size:24.6944px;font-family:Impact;-inkscape-font-specification:'Impact Condensed';text-align:center;text-anchor:middle"
         id="path944" />
      <path
         d="m 109.24573,15.434091 4.69828,18.947795 -4.92712,1.221729 -1.97334,-7.958308 -1.47463,0.365648 1.97334,7.958308 -4.92713,1.221729 -4.698288,-18.947795 4.927128,-1.221729 1.68024,6.776265 1.47463,-0.365648 -1.68024,-6.776265 z"
         style="font-style:normal;font-variant:normal;font-weight:normal;font-stretch:condensed;font-size:24.6944px;font-family:Impact;-inkscape-font-specification:'Impact Condensed';text-align:center;text-anchor:middle"
         id="path946" />
      <path
         d="m 113.60052,14.736833 8.4016,-1.030724 0.47572,3.87766 -3.36303,0.412583 0.45076,3.674202 3.1476,-0.386155 0.45223,3.68617 -3.14761,0.386155 0.5227,4.260638 3.69814,-0.453695 0.47572,3.877659 -8.7367,1.071836 z"
         style="font-style:normal;font-variant:normal;font-weight:normal;font-stretch:condensed;font-size:24.6944px;font-family:Impact;-inkscape-font-specification:'Impact Condensed';text-align:center;text-anchor:middle"
         id="path948" />
      <path
         d="m 126.11854,13.364057 5.06426,-0.01544 q 2.39949,-0.0073 3.63053,0.362726 1.24308,0.370005 2.00621,1.513176 0.7631,1.131113 0.77082,3.663242 0.005,1.712202 -0.53532,2.38909 -0.52849,0.676852 -2.10695,1.0434 1.76165,0.392539 2.39148,1.319075 0.6298,0.914478 0.6356,2.819604 l 0.006,1.808664 q 0.006,1.977472 -0.44927,2.931431 -0.44323,0.953923 -1.4309,1.306612 -0.98767,0.352689 -4.05034,0.362025 l -5.87213,0.0179 z m 5.0865,3.324524 0.0132,4.340792 q 0.32553,-0.01305 0.50639,-0.0136 0.74758,-0.0023 0.95146,-0.364637 0.20384,-0.374415 0.19855,-2.110732 -0.003,-0.91639 -0.1727,-1.277608 -0.16995,-0.373276 -0.44757,-0.468892 -0.26557,-0.09565 -1.04936,-0.105322 z m 0.0225,7.379347 0.0166,5.462164 q 1.07303,-0.03945 1.36149,-0.341771 0.30053,-0.302363 0.29693,-1.484023 l -0.006,-1.820721 q -0.004,-1.254007 -0.26991,-1.518469 -0.26607,-0.264462 -1.39961,-0.29718 z"
         style="font-style:normal;font-variant:normal;font-weight:normal;font-stretch:condensed;font-size:24.6944px;font-family:Impact;-inkscape-font-specification:'Impact Condensed';text-align:center;text-anchor:middle"
         id="path950" />
      <path
         d="m 150.99886,14.759147 0.40278,19.732588 -5.15483,-0.660108 0.19453,-3.512566 -1.80599,-0.231268 -0.74469,3.442114 -5.21462,-0.667766 5.03909,-19.035722 z m -4.26148,12.108973 q 0.0385,-3.338051 0.27448,-8.218961 -1.47609,5.451488 -1.99675,7.998414 z"
         style="font-style:normal;font-variant:normal;font-weight:normal;font-stretch:condensed;font-size:24.6944px;font-family:Impact;-inkscape-font-specification:'Impact Condensed';text-align:center;text-anchor:middle"
         id="path952" />
      <path
         d="m 161.9646,17.015183 8.25201,2.411744 -1.09594,3.749862 -3.37951,-0.987698 -1.03844,3.55311 3.00915,0.879458 -1.04182,3.564683 -3.00914,-0.879457 -2.30012,7.870081 -4.87251,-1.424045 z"
         style="font-style:normal;font-variant:normal;font-weight:normal;font-stretch:condensed;font-size:24.6944px;font-family:Impact;-inkscape-font-specification:'Impact Condensed';text-align:center;text-anchor:middle"
         id="path954" />
      <path
         d="m 179.77139,35.624307 q -1.15237,2.707032 -1.76723,3.781986 -0.59905,1.068583 -1.67252,1.712419 -1.06239,0.648558 -2.41764,0.661353 -1.35525,0.01279 -2.87518,-0.634235 -1.44227,-0.613969 -2.39773,-1.57111 -0.93964,-0.963511 -1.23714,-2.204074 -0.29751,-1.240563 0.0416,-2.406676 0.33915,-1.166114 1.51986,-3.939713 l 1.30823,-3.073147 q 1.15238,-2.707033 1.75142,-3.775615 0.61486,-1.074955 1.67725,-1.723513 1.07347,-0.643836 2.42872,-0.656631 1.35525,-0.0128 2.87519,0.634235 1.44227,0.61397 2.38191,1.577481 0.95546,0.957141 1.25296,2.197703 0.29751,1.240563 -0.0417,2.406677 -0.33915,1.166113 -1.51986,3.939712 z m -2.15818,-7.890536 q 0.53368,-1.253666 0.53586,-1.65899 0.018,-0.411694 -0.41468,-0.595885 -0.36612,-0.155854 -0.68861,0.04759 -0.30668,0.197072 -0.89703,1.583871 l -3.57047,8.387363 q -0.66592,1.564309 -0.69974,1.982376 -0.0227,0.422789 0.44324,0.621148 0.47706,0.203083 0.78966,-0.16183 0.31261,-0.364913 0.98797,-1.951412 z"
         style="font-style:normal;font-variant:normal;font-weight:normal;font-stretch:condensed;font-size:24.6944px;font-family:Impact;-inkscape-font-specification:'Impact Condensed';text-align:center;text-anchor:middle"
         id="path956" />
      <path
         d="m 198.21981,33.105949 -6.69294,11.198978 q -1.13817,1.904447 -1.72631,2.606487 -0.58194,0.691691 -1.68128,1.144404 -1.09315,0.442363 -2.35074,0.266709 -1.24105,-0.179818 -2.59694,-0.990146 -1.50078,-0.896929 -2.35275,-2.080355 -0.85196,-1.183427 -0.94493,-2.320611 -0.093,-1.137184 0.32932,-2.078812 0.42847,-0.95198 2.12336,-3.78795 l 5.92591,-9.915545 4.35746,2.604185 -7.50946,12.565211 q -0.65568,1.097127 -0.7274,1.475678 -0.0552,0.374386 0.30708,0.590886 0.41401,0.247428 0.7258,-0.01574 0.32833,-0.26733 1.0768,-1.519711 l 7.37956,-12.347856 z"
         style="font-style:normal;font-variant:normal;font-weight:normal;font-stretch:condensed;font-size:24.6944px;font-family:Impact;-inkscape-font-specification:'Impact Condensed';text-align:center;text-anchor:middle"
         id="path958" />
      <path
         d="m 210.86389,42.811133 -12.17674,15.258435 -3.47768,-2.775303 3.47158,-8.583641 -5.53557,6.936509 -3.31746,-2.647444 12.17674,-15.258435 3.31746,2.647444 -3.25871,8.645528 5.48292,-6.870537 z"
         style="font-style:normal;font-variant:normal;font-weight:normal;font-stretch:condensed;font-size:24.6944px;font-family:Impact;-inkscape-font-specification:'Impact Condensed';text-align:center;text-anchor:middle"
         id="path960" />
      <path
         d="m 214.33016,45.969836 2.62253,2.747502 q 2.53927,2.66028 3.18587,3.826672 0.65493,1.175114 0.56293,2.19639 -0.092,1.021275 -0.66449,1.801099 -0.56378,0.771498 -2.56989,2.686358 l -4.94551,4.720545 q -1.90144,1.814954 -2.72172,2.247872 -0.80324,0.433315 -1.59417,0.338151 -0.78221,-0.103489 -1.5549,-0.616123 -0.76396,-0.52096 -2.02111,-1.838016 l -4.42083,-4.631505 z m 1.08897,5.978215 -9.28918,8.866632 q 0.75762,0.793723 1.24646,0.677173 0.49756,-0.124876 1.91056,-1.473603 l 5.48628,-5.236724 q 0.95945,-0.915803 1.17156,-1.234948 0.21211,-0.319146 0.12608,-0.653758 -0.0773,-0.342938 -0.65176,-0.944772 z"
         style="font-style:normal;font-variant:normal;font-weight:normal;font-stretch:condensed;font-size:24.6944px;font-family:Impact;-inkscape-font-specification:'Impact Condensed';text-align:center;text-anchor:middle"
         id="path962" />
      <path
         d="m 230.392,64.881388 -13.95201,13.959897 -3.09485,-4.174908 2.66799,-2.29298 -1.08427,-1.46267 -2.99831,1.847398 -3.13075,-4.22334 17.21919,-9.552512 z m -11.68499,5.31493 q 2.43402,-2.284642 6.11761,-5.495586 -4.95412,2.711872 -7.15162,4.100722 z"
         style="font-style:normal;font-variant:normal;font-weight:normal;font-stretch:condensed;font-size:24.6944px;font-family:Impact;-inkscape-font-specification:'Impact Condensed';text-align:center;text-anchor:middle"
         id="path964" />
      <path
         d="m 238.07965,77.585811 -3.38136,1.956772 -1.50986,-2.609074 -13.515,7.821046 -2.5426,-4.393681 13.51501,-7.821046 -1.50382,-2.598638 3.38136,-1.956771 z"
         style="font-style:normal;font-variant:normal;font-weight:normal;font-stretch:condensed;font-size:24.6944px;font-family:Impact;-inkscape-font-specification:'Impact Condensed';text-align:center;text-anchor:middle"
         id="path966" />
      <path
         d="m 241.45028,84.910609 -17.73376,8.161289 -2.12223,-4.611435 17.73376,-8.161288 z"
         style="font-style:normal;font-variant:normal;font-weight:normal;font-stretch:condensed;font-size:24.6944px;font-family:Impact;-inkscape-font-specification:'Impact Condensed';text-align:center;text-anchor:middle"
         id="path968" />
      <path
         d="m 236.0164,103.29561 q -2.78621,0.94498 -3.99742,1.20298 -1.19591,0.26555 -2.39135,-0.10568 -1.19156,-0.35982 -2.10431,-1.36169 -0.91276,-1.00187 -1.44334,-2.56626 -0.50347,-1.484461 -0.42666,-2.834689 0.0921,-1.342682 0.81873,-2.391267 0.72662,-1.048586 1.82204,-1.572899 1.09542,-0.524313 3.95015,-1.492528 l 3.16304,-1.072782 q 2.78622,-0.944978 3.98213,-1.210528 1.2112,-0.258005 2.40276,0.10181 1.19544,0.371234 2.10819,1.373105 0.91276,1.00187 1.44334,2.566263 0.50347,1.48446 0.41137,2.827142 -0.0768,1.350228 -0.80344,2.398813 -0.72662,1.04859 -1.82204,1.5729 -1.09541,0.52431 -3.95015,1.49253 z m 4.4444,-6.867729 q 1.29033,-0.437634 1.59397,-0.706138 0.31893,-0.260959 0.16789,-0.706297 -0.1278,-0.376824 -0.4944,-0.481671 -0.35132,-0.0973 -1.77868,0.386808 l -8.63271,2.927882 q -1.61007,0.546073 -1.94429,0.799485 -0.33035,0.264832 -0.16769,0.744427 0.16653,0.491013 0.64693,0.480872 0.48039,-0.01014 2.1133,-0.563961 z"
         style="font-style:normal;font-variant:normal;font-weight:normal;font-stretch:condensed;font-size:24.6944px;font-family:Impact;-inkscape-font-specification:'Impact Condensed';text-align:center;text-anchor:middle"
         id="path970" />
      <path
         d="m 250.14803,115.16641 -19.1667,3.70545 -0.84454,-4.36845 8.21198,-4.27716 -8.71321,1.6845 -0.80563,-4.16718 19.1667,-3.70545 0.80563,4.16719 -8.0902,4.46239 8.63034,-1.66848 z"
         style="font-style:normal;font-variant:normal;font-weight:normal;font-stretch:condensed;font-size:24.6944px;font-family:Impact;-inkscape-font-specification:'Impact Condensed';text-align:center;text-anchor:middle"
         id="path972" />
    </g>
    <g
       aria-label="A Broad Platform of Humanity"
       id="text1018"
       style="font-style:normal;font-weight:normal;font-size:24.6944px;line-height:1.25;font-family:sans-serif;letter-spacing:1.85208px;white-space:pre;fill:#000000;fill-opacity:1;stroke:none">
      <path
         d="m 33.918166,154.44488 -18.65145,6.45451 -0.957936,-5.10786 3.402025,-0.89565 -0.335611,-1.78953 -3.504264,0.35049 -0.969049,-5.16712 19.662728,-1.06222 z m -12.832737,-0.3291 q 3.187957,-0.99045 7.904719,-2.26761 -5.641203,0.2728 -8.224772,0.56104 z"
         style="font-style:normal;font-variant:normal;font-weight:normal;font-stretch:condensed;font-size:24.6944px;font-family:Impact;-inkscape-font-specification:'Impact Condensed';text-align:center;text-anchor:middle"
         id="path995" />
      <path
         d="m 35.990696,162.57569 1.795504,4.7353 q 0.850726,2.24364 0.937267,3.52616 0.09081,1.29381 -0.710941,2.41023 -0.790481,1.11215 -3.158133,2.0099 -1.600984,0.60705 -2.424734,0.33909 -0.819474,-0.25668 -1.717736,-1.60539 0.252091,1.78716 -0.393747,2.70261 -0.634565,0.91118 -2.415941,1.58663 l -1.691181,0.64125 q -1.849024,0.7011 -2.902162,0.61039 -1.048864,-0.0794 -1.726376,-0.87997 -0.677512,-0.80053 -1.763364,-3.66426 l -2.081929,-5.4907 z m -1.323268,5.93076 -4.058833,1.539 q 0.1267,0.30014 0.190825,0.46925 0.265051,0.69903 0.675962,0.76244 0.422186,0.0591 2.045719,-0.55646 0.856865,-0.3249 1.135251,-0.61099 0.28966,-0.29037 0.281531,-0.58388 -0.0039,-0.28224 -0.270455,-1.01936 z m -6.900016,2.6163 -5.107364,1.93658 q 0.414299,0.99061 0.798763,1.15432 0.388738,0.17499 1.493643,-0.24396 l 1.702455,-0.64553 q 1.172551,-0.4446 1.326541,-0.78669 0.15399,-0.34209 -0.214038,-1.41472 z"
         style="font-style:normal;font-variant:normal;font-weight:normal;font-stretch:condensed;font-size:24.6944px;font-family:Impact;-inkscape-font-specification:'Impact Condensed';text-align:center;text-anchor:middle"
         id="path997" />
      <path
         d="m 39.949347,180.78991 -1.956482,0.78183 q 2.490726,-0.0798 3.524172,1.65353 l -5.015654,2.55956 q -0.608376,-1.19216 -1.215586,-1.58622 -0.607209,-0.39406 -1.252948,-0.22698 -0.634999,0.16161 -2.707849,1.21941 l -5.627843,2.87197 -2.214269,-4.33902 14.252191,-7.2731 z"
         style="font-style:normal;font-variant:normal;font-weight:normal;font-stretch:condensed;font-size:24.6944px;font-family:Impact;-inkscape-font-specification:'Impact Condensed';text-align:center;text-anchor:middle"
         id="path999" />
      <path
         d="m 43.137002,196.79068 -3.285217,2.13642 q -1.809397,1.17667 -2.776823,1.5469 -0.957319,0.36365 -2.08307,0.24713 -1.115643,-0.1231 -2.080778,-0.8331 -0.948453,-0.70647 -1.737282,-1.91947 -0.88086,-1.35452 -1.19906,-2.48523 -0.308091,-1.13729 -0.05352,-2.05076 0.271249,-0.90994 0.975733,-1.68451 0.714592,-0.78113 2.422905,-1.89207 l 3.436842,-2.23502 q 1.870047,-1.21611 3.18426,-1.49542 1.314212,-0.27932 2.634691,0.35781 1.320478,0.63714 2.385398,2.27469 0.894006,1.37474 1.1172,2.62477 0.239876,1.25356 -0.06877,2.21658 -0.308644,0.96303 -0.881223,1.60867 -0.566005,0.65574 -1.991284,1.58261 z m -1.644889,-4.74113 q 1.031053,-0.67051 1.221561,-0.95261 0.200617,-0.28868 -0.03603,-0.65258 -0.236649,-0.3639 -0.588457,-0.30772 -0.341701,0.0496 -1.372753,0.72012 l -6.054908,3.93757 q -0.950186,0.61792 -1.164446,0.92985 -0.204151,0.30536 0.02592,0.65916 0.236649,0.3639 0.571776,0.30418 0.3417,-0.0496 1.211019,-0.61494 z"
         style="font-style:normal;font-variant:normal;font-weight:normal;font-stretch:condensed;font-size:24.6944px;font-family:Impact;-inkscape-font-specification:'Impact Condensed';text-align:center;text-anchor:middle"
         id="path1001" />
      <path
         d="m 46.819112,202.28786 -2.929331,-3.50758 0.82368,-0.68789 q 1.425243,-1.19028 2.463912,-1.50788 1.055653,-0.31607 2.474976,0.17954 1.419323,0.4956 2.741,2.07818 1.584466,1.89724 1.712691,3.42396 0.137479,1.519 -0.681221,2.53264 -0.809445,1.0059 -3.854283,3.54878 l -6.163714,5.14758 -3.037538,-3.63714 1.09207,-0.91204 q -0.94307,0.20634 -1.732261,-0.0615 -0.772207,-0.26626 -1.398264,-1.0159 -0.819285,-0.98101 -0.961141,-2.26071 -0.124872,-1.27817 1.735348,-2.83172 l 1.008776,-0.84247 q 1.378969,-1.15164 2.241998,-1.13403 0.863028,0.0176 2.966989,1.1825 2.259968,1.23884 2.618056,1.15973 0.358088,-0.0791 1.126238,-0.72064 0.962502,-0.80382 1.125736,-1.1915 0.180218,-0.38616 -0.09803,-0.71933 -0.316893,-0.37945 -0.644064,-0.26331 -0.317917,0.10841 -1.345203,0.96634 z m -0.695053,2.59132 q -1.406816,-0.34895 -1.974713,-0.12603 -0.560168,0.23217 -1.393103,0.92779 -0.953247,0.7961 -1.130413,1.14828 -0.169437,0.36144 0.139727,0.73164 0.293706,0.35168 0.591587,0.27571 0.314865,-0.0744 1.240348,-0.84735 z"
         style="font-style:normal;font-variant:normal;font-weight:normal;font-stretch:condensed;font-size:24.6944px;font-family:Impact;-inkscape-font-specification:'Impact Condensed';text-align:center;text-anchor:middle"
         id="path1003" />
      <path
         d="m 67.277813,209.45802 -13.381213,14.21394 -3.546899,-3.33911 0.79345,-0.84283 q -1.005115,0.0474 -1.814953,-0.21819 -0.809838,-0.26558 -1.4244,-0.84414 -0.825269,-0.77692 -1.026061,-1.77741 -0.192527,-1.00926 0.169116,-1.74523 0.370423,-0.7277 1.585394,-2.01828 l 5.132633,-5.45204 q 1.264562,-1.34326 1.960338,-1.74811 0.704556,-0.39658 1.715843,-0.23943 1.019553,0.14836 1.87116,0.95008 0.658459,0.61988 0.979627,1.36936 0.329948,0.75775 0.331384,1.65336 l 3.107681,-3.30108 z m -8.720858,2.15683 q 0.603353,-0.6409 0.695847,-0.96783 0.101275,-0.31867 -0.223565,-0.62448 -0.316061,-0.29754 -0.620291,-0.20306 -0.287186,0.094 -0.931864,0.77876 l -5.372321,5.70665 q -0.669474,0.71114 -0.779014,1.03858 -0.101274,0.31867 0.197227,0.59968 0.342399,0.32234 0.687955,0.18396 0.353821,-0.14715 1.271248,-1.12167 z"
         style="font-style:normal;font-variant:normal;font-weight:normal;font-stretch:condensed;font-size:24.6944px;font-family:Impact;-inkscape-font-specification:'Impact Condensed';text-align:center;text-anchor:middle"
         id="path1005" />
      <path
         d="m 72.49161,213.54977 4.264891,2.81931 q 1.730097,1.14368 2.475967,2.027 0.755928,0.88997 0.879514,1.70884 0.133644,0.82551 -0.190816,1.66618 -0.307752,0.83727 -1.318447,2.36619 l -0.937553,1.41828 q -1.030642,1.5591 -1.824622,2.06049 -0.793979,0.50139 -1.911702,0.31178 -1.107663,-0.18296 -2.495765,-1.10057 l -1.136633,-0.75137 -4.335349,6.55828 -4.234715,-2.79936 z m 2.392856,5.58562 -2.739515,4.14419 q 0.174408,0.12975 0.305171,0.21619 0.583405,0.38566 0.990877,0.2503 0.42418,-0.13877 1.022618,-1.04405 l 0.884358,-1.33781 q 0.551892,-0.83487 0.456599,-1.25922 -0.09529,-0.42435 -0.920108,-0.9696 z"
         style="font-style:normal;font-variant:normal;font-weight:normal;font-stretch:condensed;font-size:24.6944px;font-family:Impact;-inkscape-font-specification:'Impact Condensed';text-align:center;text-anchor:middle"
         id="path1007" />
      <path
         d="m 87.252304,222.47785 -9.170407,17.23358 -4.428148,-2.35632 9.170407,-17.23359 z"
         style="font-style:normal;font-variant:normal;font-weight:normal;font-stretch:condensed;font-size:24.6944px;font-family:Impact;-inkscape-font-specification:'Impact Condensed';text-align:center;text-anchor:middle"
         id="path1009" />
      <path
         d="m 89.060881,233.9883 -4.220974,-1.75142 0.411283,-0.99121 q 0.711659,-1.71512 1.485014,-2.47776 0.789114,-0.76916 2.276542,-0.98747 1.487427,-0.21831 3.391877,0.57191 2.283113,0.94733 3.10403,2.24095 0.825539,1.28247 0.569576,2.56005 -0.251342,1.26644 -1.771703,4.93056 l -3.077691,7.41733 -4.376894,-1.81611 0.545297,-1.31419 q -0.740176,0.61976 -1.563629,0.74805 -0.807694,0.12177 -1.709802,-0.25254 -1.180536,-0.48985 -1.899093,-1.55822 -0.702798,-1.07489 0.226055,-3.31345 l 0.503706,-1.21395 q 0.688552,-1.65944 1.46154,-2.04365 0.772988,-0.38421 3.177218,-0.32655 2.57674,0.0509 2.857431,-0.18509 0.280691,-0.236 0.664248,-1.16039 0.4806,-1.15826 0.445662,-1.57745 -0.01918,-0.4257 -0.420117,-0.59207 -0.456623,-0.18946 -0.692765,0.065 -0.231522,0.24335 -0.74447,1.47957 z m 0.584502,2.61846 q -1.408404,0.34249 -1.808414,0.80313 -0.388872,0.46527 -0.804776,1.46761 -0.47598,1.14712 -0.469832,1.54131 0.01729,0.39881 0.462771,0.58366 0.423211,0.1756 0.652006,-0.0297 0.244553,-0.21184 0.706669,-1.32555 z"
         style="font-style:normal;font-variant:normal;font-weight:normal;font-stretch:condensed;font-size:24.6944px;font-family:Impact;-inkscape-font-specification:'Impact Condensed';text-align:center;text-anchor:middle"
         id="path1011" />
      <path
         d="m 104.77186,230.70823 -0.7307,2.41182 1.25784,0.38109 -0.73421,2.42336 -1.25784,-0.38108 -2.4823,8.19327 q -0.458,1.51171 -0.36042,1.73026 0.10911,0.22205 1.25155,0.56817 l -0.74818,2.46952 -1.880995,-0.56988 q -1.592495,-0.48247 -2.234886,-0.81569 -0.638895,-0.34475 -1.014843,-0.97521 -0.372451,-0.642 -0.314091,-1.29207 0.06186,-0.66161 0.754104,-2.9465 l 2.356438,-7.77784 -1.003965,-0.30416 0.734202,-2.42337 1.003964,0.30417 0.730702,-2.41182 z"
         style="font-style:normal;font-variant:normal;font-weight:normal;font-stretch:condensed;font-size:24.6944px;font-family:Impact;-inkscape-font-specification:'Impact Condensed';text-align:center;text-anchor:middle"
         id="path1014" />
      <path
         d="m 113.88411,231.42971 -0.53284,2.41374 q -1.47179,-0.3249 -1.77379,-0.24339 -0.28763,0.0723 -0.42799,0.70815 l -0.10916,0.49452 2.00164,0.44187 -0.54584,2.47261 -1.13033,-0.24953 -2.82014,12.77516 -4.75683,-1.05008 2.82013,-12.77515 -0.97727,-0.21574 0.54584,-2.47261 0.97727,0.21573 q 0.34049,-1.54243 0.56083,-2.03711 0.22033,-0.49468 0.72081,-0.80403 0.51484,-0.31853 1.31519,-0.36412 0.80034,-0.0456 2.38988,0.3053 z"
         style="font-style:normal;font-variant:normal;font-weight:normal;font-stretch:condensed;font-size:24.6944px;font-family:Impact;-inkscape-font-specification:'Impact Condensed';text-align:center;text-anchor:middle"
         id="path1016" />
      <path
         d="m 124.587,242.05723 -0.46705,3.89085 q -0.25724,2.14297 -0.59345,3.12274 -0.33477,0.96779 -1.14602,1.75695 -0.80981,0.77719 -1.97349,1.06255 -1.15028,0.27483 -2.5869,0.10238 -1.60423,-0.19257 -2.67594,-0.6734 -1.07027,-0.49281 -1.60802,-1.27388 -0.52434,-0.7916 -0.667,-1.82885 -0.14123,-1.04923 0.10164,-3.07247 l 0.48861,-4.07044 q 0.26586,-2.21479 0.89419,-3.40239 0.62834,-1.18759 1.96395,-1.79236 1.33561,-0.60477 3.27505,-0.37196 1.62818,0.19545 2.73053,0.82569 1.11576,0.61971 1.65685,1.47405 0.5411,0.85434 0.66941,1.7077 0.14028,0.8548 -0.0624,2.54284 z m -4.69292,-1.77778 q 0.14658,-1.22113 0.0523,-1.5482 -0.0929,-0.33905 -0.52388,-0.39079 -0.43099,-0.0517 -0.61345,0.25426 -0.18103,0.29403 -0.32761,1.51516 l -0.86082,7.17114 q -0.13509,1.12536 -0.0331,1.48979 0.10342,0.35246 0.52244,0.40276 0.43099,0.0517 0.60004,-0.24373 0.18103,-0.29402 0.30462,-1.3236 z"
         style="font-style:normal;font-variant:normal;font-weight:normal;font-stretch:condensed;font-size:24.6944px;font-family:Impact;-inkscape-font-specification:'Impact Condensed';text-align:center;text-anchor:middle"
         id="path1018" />
      <path
         d="m 131.93441,236.56987 -0.22596,2.09476 q 1.09649,-2.23781 3.11198,-2.3387 l -0.0887,5.6303 q -1.33825,-0.0211 -1.97088,0.33072 -0.63263,0.35181 -0.78756,1.00057 -0.15475,0.6367 -0.19143,2.96357 l -0.0996,6.31751 -4.87075,-0.0768 0.25216,-15.99873 z"
         style="font-style:normal;font-variant:normal;font-weight:normal;font-stretch:condensed;font-size:24.6944px;font-family:Impact;-inkscape-font-specification:'Impact Condensed';text-align:center;text-anchor:middle"
         id="path1020" />
      <path
         d="m 140.48588,236.31698 0.0892,1.51901 q 0.46003,-0.96299 1.18788,-1.49549 0.72648,-0.54448 1.72077,-0.65846 1.94065,-0.22246 3.26072,1.44673 0.50795,-0.96848 1.22382,-1.49961 0.7145,-0.5431 1.64889,-0.65021 1.23387,-0.14144 2.10515,0.36552 0.88326,0.50558 1.21111,1.35399 0.32648,0.83642 0.55032,2.78905 l 1.29496,11.29654 -4.69591,0.53831 -1.18785,-10.36215 q -0.23345,-2.03649 -0.43213,-2.49918 -0.18807,-0.47605 -0.69121,-0.41838 -0.51511,0.059 -0.61591,0.55608 -0.0888,0.49565 0.146,2.54412 l 1.18785,10.36215 -4.69591,0.53831 -1.15764,-10.0986 q -0.26778,-2.33598 -0.44113,-2.78944 -0.16137,-0.45484 -0.67648,-0.39579 -0.32345,0.0371 -0.52222,0.31474 -0.20014,0.26568 -0.1829,0.6278 0.0159,0.35015 0.1477,1.50017 l 1.26337,11.02101 -4.69591,0.53831 -1.82228,-15.89661 z"
         style="font-style:normal;font-variant:normal;font-weight:normal;font-stretch:condensed;font-size:24.6944px;font-family:Impact;-inkscape-font-specification:'Impact Condensed';text-align:center;text-anchor:middle"
         id="path1022" />
      <path
         d="m 171.5325,235.12346 1.209,3.72764 q 0.66588,2.05306 0.7719,3.08347 0.10231,1.01894 -0.30284,2.0757 -0.40887,1.04529 -1.34535,1.79269 -0.92872,0.73221 -2.30508,1.17861 -1.53693,0.49848 -2.71148,0.51182 -1.17828,0.002 -1.99418,-0.4814 -0.80815,-0.49846 -1.37296,-1.38007 -0.56853,-0.89308 -1.19721,-2.83145 l -1.2648,-3.89967 q -0.6882,-2.12188 -0.61629,-3.46353 0.0719,-1.34164 1.03038,-2.4511 0.95849,-1.10947 2.81657,-1.71211 1.55987,-0.50592 2.82494,-0.3965 1.27283,0.0942 2.12252,0.64259 0.84969,0.54837 1.32429,1.26909 0.48607,0.71701 1.01059,2.33422 z m -5.00573,0.35592 q -0.37944,-1.1699 -0.60233,-1.42719 -0.2266,-0.26876 -0.63951,-0.13485 -0.41291,0.13392 -0.4501,0.48824 -0.0409,0.34286 0.33852,1.51276 l 2.22828,6.87031 q 0.34968,1.07814 0.59519,1.36612 0.2418,0.27651 0.64324,0.14631 0.4129,-0.13392 0.44235,-0.47305 0.0409,-0.34285 -0.27901,-1.32924 z"
         style="font-style:normal;font-variant:normal;font-weight:normal;font-stretch:condensed;font-size:24.6944px;font-family:Impact;-inkscape-font-specification:'Impact Condensed';text-align:center;text-anchor:middle"
         id="path1024" />
      <path
         d="m 175.79638,223.2634 0.98957,2.26513 q -1.38118,0.60339 -1.57739,0.84701 -0.18999,0.22774 0.0707,0.82441 l 0.20274,0.46407 1.8784,-0.82061 1.0137,2.32037 -1.06074,0.46341 5.23746,11.98861 -4.46396,1.95017 -5.23746,-11.98861 -0.9171,0.40066 -1.01371,-2.32038 0.9171,-0.40065 q -0.63235,-1.44748 -0.7453,-1.97709 -0.11295,-0.52962 0.10965,-1.07425 0.22883,-0.56051 0.8491,-1.06834 0.62028,-0.50783 2.11195,-1.15949 z"
         style="font-style:normal;font-variant:normal;font-weight:normal;font-stretch:condensed;font-size:24.6944px;font-family:Impact;-inkscape-font-specification:'Impact Condensed';text-align:center;text-anchor:middle"
         id="path1026" />
      <path
         d="m 191.14888,214.28018 10.4674,16.47805 -4.2849,2.72192 -4.39644,-6.92099 -1.28242,0.81463 4.39644,6.92099 -4.2849,2.72191 -10.46741,-16.47805 4.2849,-2.72191 3.74344,5.89301 1.28242,-0.81463 -3.74344,-5.89302 z"
         style="font-style:normal;font-variant:normal;font-weight:normal;font-stretch:condensed;font-size:24.6944px;font-family:Impact;-inkscape-font-specification:'Impact Condensed';text-align:center;text-anchor:middle"
         id="path1028" />
      <path
         d="m 203.03229,209.09728 10.20437,12.32452 -3.81717,3.16051 -0.78086,-1.07546 q 0.12514,0.94524 -0.18923,1.73778 -0.31278,0.77557 -1.05578,1.39075 -0.84516,0.69977 -1.64849,0.86396 -0.80332,0.16419 -1.48022,-0.10505 -0.66761,-0.27692 -1.17094,-0.75248 -0.51102,-0.48484 -1.82598,-2.07301 l -6.88237,-8.31232 3.75215,-3.10668 6.9439,8.38662 q 1.19191,1.43956 1.49851,1.63969 0.31588,0.19244 0.70595,-0.13053 0.41794,-0.34604 0.26154,-0.68618 -0.1471,-0.34784 -1.40054,-1.8617 l -6.86699,-8.29374 z"
         style="font-style:normal;font-variant:normal;font-weight:normal;font-stretch:condensed;font-size:24.6944px;font-family:Impact;-inkscape-font-specification:'Impact Condensed';text-align:center;text-anchor:middle"
         id="path1030" />
      <path
         d="m 207.31874,204.80356 1.0738,1.0781 q -0.29401,-1.02594 -0.10212,-1.90713 0.18291,-0.88925 0.85173,-1.63375 1.30541,-1.45311 3.40029,-1.0786 -0.26178,-1.06182 -0.0779,-1.93404 0.17486,-0.88028 0.80339,-1.57993 0.82998,-0.9239 1.81836,-1.12197 0.99644,-0.20705 1.80435,0.21076 0.79893,0.40975 2.26102,1.72321 l 8.45859,7.59875 -3.15876,3.51619 -7.75894,-6.97022 q -1.52488,-1.36987 -1.98037,-1.58455 -0.4564,-0.23171 -0.79484,0.14502 -0.3465,0.38571 -0.0925,0.82464 0.2621,0.42996 1.79595,1.80788 l 7.75894,6.97022 -3.15876,3.51619 -7.5616,-6.79294 q -1.74913,-1.57132 -2.17953,-1.79589 -0.42235,-0.23353 -0.76885,0.15217 -0.21756,0.24219 -0.1823,0.58184 0.0263,0.33159 0.27928,0.59127 0.24401,0.25162 1.10511,1.02519 l 8.25228,7.41341 -3.15875,3.51619 -11.90302,-10.69304 z"
         style="font-style:normal;font-variant:normal;font-weight:normal;font-stretch:condensed;font-size:24.6944px;font-family:Impact;-inkscape-font-specification:'Impact Condensed';text-align:center;text-anchor:middle"
         id="path1032" />
      <path
         d="m 223.83358,194.1543 -2.52813,3.80692 -0.89398,-0.59367 q -1.54687,-1.02726 -2.14711,-1.93248 -0.60361,-0.92193 -0.53272,-2.42362 0.0709,-1.50169 1.21155,-3.21933 1.36745,-2.05915 2.79445,-2.61684 1.41695,-0.56437 2.62176,-0.0682 1.19477,0.48947 4.49946,2.68407 l 6.68973,4.44257 -2.62151,3.94754 -1.18527,-0.78712 q 0.46636,0.84526 0.43441,1.67804 -0.0353,0.81605 -0.57565,1.62967 -0.70707,1.06473 -1.89338,1.56514 -1.18969,0.4837 -3.20866,-0.85707 l -1.09487,-0.72709 q -1.49665,-0.99391 -1.72555,-1.82622 -0.22889,-0.8323 0.28861,-3.18088 0.54395,-2.51919 0.36613,-2.83992 -0.17781,-0.32073 -1.01152,-0.87438 -1.04464,-0.69374 -1.46276,-0.73981 -0.42148,-0.0628 -0.66162,0.29882 -0.27349,0.41183 -0.069,0.69238 0.19445,0.27388 1.30941,1.01431 z m 2.68195,-0.0717 q 0.0661,1.44794 0.44154,1.92884 0.38209,0.47086 1.28611,1.0712 1.03459,0.68707 1.42265,0.7566 0.39473,0.0595 0.66155,-0.34229 0.25348,-0.3817 0.0958,-0.64561 -0.16103,-0.28063 -1.16549,-0.94768 z"
         style="font-style:normal;font-variant:normal;font-weight:normal;font-stretch:condensed;font-size:24.6944px;font-family:Impact;-inkscape-font-specification:'Impact Condensed';text-align:center;text-anchor:middle"
         id="path1034" />
      <path
         d="m 225.25862,179.57018 1.27681,0.73545 q -0.54861,-0.86908 -0.59572,-1.74273 -0.0525,-0.88983 0.39655,-1.78424 0.56263,-1.12071 1.44772,-1.56684 0.88508,-0.44613 1.79607,-0.24513 0.90022,0.19559 2.77525,1.13692 l 10.02173,5.03126 -2.18563,4.35353 -9.90318,-4.97175 q -1.47632,-0.74117 -1.84829,-0.80648 -0.37197,-0.0653 -0.59378,0.3765 -0.23263,0.46337 0.085,0.77126 0.30688,0.30247 1.92328,1.11396 l 9.66612,4.85274 -2.18562,4.35352 -14.29982,-7.17901 z"
         style="font-style:normal;font-variant:normal;font-weight:normal;font-stretch:condensed;font-size:24.6944px;font-family:Impact;-inkscape-font-specification:'Impact Condensed';text-align:center;text-anchor:middle"
         id="path1036" />
      <path
         d="m 227.2511,166.14621 2.37428,0.91419 -1.80239,4.68104 -2.37428,-0.91419 z m 3.28573,1.26513 14.93208,5.74943 -1.80238,4.68104 -14.93208,-5.74942 z"
         style="font-style:normal;font-variant:normal;font-weight:normal;font-stretch:condensed;font-size:24.6944px;font-family:Impact;-inkscape-font-specification:'Impact Condensed';text-align:center;text-anchor:middle"
         id="path1038" />
      <path
         d="m 230.74783,159.64983 2.41478,0.72085 0.37595,-1.25938 2.42634,0.7243 -0.37595,1.25939 8.20334,2.44883 q 1.51357,0.45183 1.73172,0.35336 0.2216,-0.11002 0.56305,-1.25386 l 2.47256,0.7381 -0.5622,1.8833 q -0.47597,1.59445 -0.80656,2.2382 -0.34214,0.64029 -0.97106,1.01881 -0.64048,0.37507 -1.29078,0.31936 -0.66185,-0.0592 -2.94955,-0.74207 l -7.78739,-2.32466 -0.30007,1.00519 -2.42634,-0.7243 0.30007,-1.0052 -2.41478,-0.72085 z"
         style="font-style:normal;font-variant:normal;font-weight:normal;font-stretch:condensed;font-size:24.6944px;font-family:Impact;-inkscape-font-specification:'Impact Condensed';text-align:center;text-anchor:middle"
         id="path1040" />
      <path
         d="m 235.66059,147.16528 11.08616,3.61188 q 2.63424,0.85132 3.5718,1.26972 0.9399,0.40657 1.4784,1.04124 0.5385,0.63467 0.65462,1.6039 0.13028,0.95973 -0.26166,2.94717 l -0.57156,2.89834 -2.50796,-0.49458 q 0.2193,-1.11201 0.17582,-1.45242 -0.0553,-0.34274 -0.4457,-0.41973 -0.18928,-0.0373 -1.70269,-0.0285 l -13.64685,0.0249 0.85618,-4.3416 10.89578,0.52642 -10.43852,-2.84509 z"
         style="font-style:normal;font-variant:normal;font-weight:normal;font-stretch:condensed;font-size:24.6944px;font-family:Impact;-inkscape-font-specification:'Impact Condensed';text-align:center;text-anchor:middle"
         id="path1042" />
    </g>
    <g
       aria-label="Since"
       transform="matrix(1.157568,0,0,1.157568,97.630808,-80.333946)"
       id="text1112"
       style="font-style:normal;font-variant:normal;font-weight:normal;font-stretch:normal;font-size:10.5833px;line-height:1.25;font-family:Impact;-inkscape-font-specification:Impact;white-space:pre;shape-inside:url(#rect1114);fill:#000000;fill-opacity:1;stroke:none">
      <path
         d="m -75.087256,182.03199 h -2.020542 v -0.62012 q 0,-0.43408 -0.07751,-0.55293 -0.07752,-0.11886 -0.258381,-0.11886 -0.19637,0 -0.299723,0.1602 -0.09819,0.16019 -0.09819,0.48575 0,0.41858 0.113688,0.63045 0.10852,0.21188 0.614948,0.5116 1.452103,0.86299 1.82934,1.41593 0.377236,0.55294 0.377236,1.78283 0,0.894 -0.211872,1.31775 -0.206705,0.42374 -0.80615,0.71313 -0.599445,0.28422 -1.395259,0.28422 -0.873329,0 -1.493445,-0.33073 -0.614947,-0.33073 -0.806149,-0.84232 -0.191203,-0.5116 -0.191203,-1.45211 v -0.54777 h 2.020543 v 1.01803 q 0,0.47025 0.08268,0.60461 0.08785,0.13436 0.30489,0.13436 0.21704,0 0.320392,-0.17053 0.108521,-0.17054 0.108521,-0.50643 0,-0.73897 -0.201538,-0.96635 -0.206705,-0.22737 -1.018022,-0.75964 -0.811318,-0.53743 -1.074867,-0.78031 -0.263549,-0.24288 -0.439248,-0.67179 -0.170532,-0.42892 -0.170532,-1.09554 0,-0.96118 0.242879,-1.40559 0.248046,-0.44442 0.795814,-0.69247 0.547769,-0.25321 1.322913,-0.25321 0.847491,0 1.441768,0.27388 0.599444,0.27389 0.790647,0.69247 0.196369,0.41341 0.196369,1.41076 z"
         style="font-style:normal;font-variant:normal;font-weight:normal;font-stretch:normal;font-family:Impact;-inkscape-font-specification:Impact"
         id="path975" />
      <path
         d="m -72.136541,179.49985 v 1.09037 h -2.149733 v -1.09037 z m 0,1.50895 v 6.85744 h -2.149733 v -6.85744 z"
         style="font-style:normal;font-variant:normal;font-weight:normal;font-stretch:normal;font-family:Impact;-inkscape-font-specification:Impact"
         id="path977" />
      <path
         d="m -69.26334,181.0088 -0.03617,0.63045 q 0.227376,-0.37724 0.552936,-0.56327 0.330728,-0.19121 0.759641,-0.19121 0.537434,0 0.878497,0.25322 0.341063,0.25321 0.439248,0.64078 0.09819,0.38241 0.09819,1.28157 v 4.8059 h -2.087721 v -4.74905 q 0,-0.70797 -0.04651,-0.86299 -0.04651,-0.15503 -0.258381,-0.15503 -0.222208,0 -0.279052,0.18086 -0.05684,0.1757 -0.05684,0.95085 v 4.63536 h -2.087721 v -6.85744 z"
         style="font-style:normal;font-variant:normal;font-weight:normal;font-stretch:normal;font-family:Impact;-inkscape-font-specification:Impact"
         id="path979" />
      <path
         d="m -61.238016,183.59778 h -1.968866 v -0.79065 q 0,-0.41341 -0.06718,-0.5581 -0.06718,-0.14986 -0.248046,-0.14986 -0.180867,0 -0.242879,0.12919 -0.06201,0.12919 -0.06201,0.57877 v 3.23494 q 0,0.3669 0.09302,0.55293 0.09302,0.18087 0.273884,0.18087 0.211873,0 0.28422,-0.1912 0.07751,-0.19121 0.07751,-0.72347 v -0.81649 h 1.860346 q -0.0052,0.82166 -0.06201,1.23507 -0.05168,0.40824 -0.346231,0.84232 -0.289387,0.42891 -0.759641,0.65112 -0.470254,0.21704 -1.162716,0.21704 -0.883664,0 -1.400427,-0.29972 -0.516763,-0.30489 -0.733803,-0.84749 -0.211873,-0.54777 -0.211873,-1.55029 v -1.9482 q 0,-0.87332 0.1757,-1.31774 0.175699,-0.44442 0.749306,-0.79065 0.573606,-0.3514 1.395259,-0.3514 0.816485,0 1.395259,0.34624 0.578774,0.34623 0.769976,0.87332 0.191203,0.5271 0.191203,1.49345 z"
         style="font-style:normal;font-variant:normal;font-weight:normal;font-stretch:normal;font-family:Impact;-inkscape-font-specification:Impact"
         id="path981" />
      <path
         d="m -55.889522,184.55896 h -2.702668 v 1.48311 q 0,0.46508 0.06718,0.59944 0.06718,0.13436 0.258381,0.13436 0.237711,0 0.315225,-0.1757 0.08268,-0.18087 0.08268,-0.69246 v -0.90434 h 1.979201 v 0.50643 q 0,0.63562 -0.08268,0.97668 -0.07751,0.34106 -0.372069,0.72864 -0.294555,0.38757 -0.749306,0.58394 -0.449583,0.1912 -1.13171,0.1912 -0.661456,0 -1.167884,-0.1912 -0.506427,-0.1912 -0.790646,-0.52193 -0.279052,-0.3359 -0.387572,-0.7338 -0.108521,-0.40308 -0.108521,-1.16789 v -1.99987 q 0,-0.89917 0.242879,-1.41593 0.242878,-0.52193 0.795814,-0.79581 0.552936,-0.27906 1.271237,-0.27906 0.878496,0 1.446935,0.3359 0.573607,0.33073 0.800982,0.88366 0.232543,0.54777 0.232543,1.54512 z m -2.092888,-1.11621 v -0.50126 q 0,-0.53227 -0.05684,-0.68729 -0.05684,-0.15503 -0.232544,-0.15503 -0.21704,0 -0.268716,0.13435 -0.05168,0.1292 -0.05168,0.70797 v 0.50126 z"
         style="font-style:normal;font-variant:normal;font-weight:normal;font-stretch:normal;font-family:Impact;-inkscape-font-specification:Impact"
         id="path983" />
    </g>
    <text
       xml:space="preserve"
       id="text1118"
       style="fill:black;fill-opacity:1;line-height:1.25;stroke:none;font-family:Impact;font-style:normal;font-weight:normal;font-size:10.5833334px;white-space:pre;shape-inside:url(#rect1120);-inkscape-font-specification:Impact;font-stretch:normal;font-variant:normal;" />
    <g
       aria-label="2018"
       id="text1126"
       style="font-style:normal;font-weight:normal;font-size:12.2509px;line-height:1.25;font-family:sans-serif;fill:#000000;fill-opacity:1;stroke:none;stroke-width:0.264583">
      <path
         d="m 235.45044,135.483 v 1.651 h -5.31789 v -1.38181 q 2.36284,-3.8643 2.8055,-4.77953 0.44864,-0.92121 0.44864,-1.43565 0,-0.39481 -0.13758,-0.58623 -0.1316,-0.1974 -0.40677,-0.1974 -0.27517,0 -0.41275,0.21535 -0.1316,0.21535 -0.1316,0.85541 v 0.92121 h -2.16544 v -0.35293 q 0,-0.81354 0.0837,-1.28012 0.0838,-0.47257 0.41275,-0.9272 0.32901,-0.45462 0.85541,-0.68791 0.52641,-0.2333 1.26218,-0.2333 1.44163,0 2.17741,0.71783 0.74175,0.71184 0.74175,1.80653 0,0.83148 -0.41873,1.75867 -0.41275,0.92719 -2.44659,3.93608 z"
         style="font-style:normal;font-variant:normal;font-weight:normal;font-stretch:normal;font-size:12.2509px;font-family:Impact;-inkscape-font-specification:Impact;stroke-width:0.264583"
         id="path986" />
      <path
         d="m 242.09033,130.7274 v 3.23022 q 0,1.10067 -0.11963,1.60315 -0.11964,0.50248 -0.4965,0.93915 -0.37686,0.43668 -0.90925,0.6281 -0.53238,0.19142 -1.19039,0.19142 -0.86737,0 -1.44164,-0.1974 -0.57426,-0.20339 -0.91522,-0.6281 -0.34097,-0.42471 -0.48454,-0.8913 -0.14356,-0.47257 -0.14356,-1.49547 v -3.37977 q 0,-1.33396 0.22731,-1.99795 0.23329,-0.66398 0.91523,-1.06477 0.68791,-0.40079 1.66296,-0.40079 0.79559,0 1.42369,0.28115 0.6281,0.27517 0.93916,0.67595 0.31105,0.40079 0.41873,0.90327 0.11365,0.50248 0.11365,1.60314 z m -2.41668,-0.81353 q 0,-0.77167 -0.0778,-0.96309 -0.0718,-0.1974 -0.34695,-0.1974 -0.26919,0 -0.35891,0.20937 -0.0838,0.20338 -0.0838,0.95112 v 4.72569 q 0,0.84344 0.0778,1.01692 0.0838,0.17347 0.35294,0.17347 0.26918,0 0.35293,-0.20338 0.0837,-0.20339 0.0837,-0.91523 z"
         style="font-style:normal;font-variant:normal;font-weight:normal;font-stretch:normal;font-size:12.2509px;font-family:Impact;-inkscape-font-specification:Impact;stroke-width:0.264583"
         id="path988" />
      <path
         d="m 246.68442,127.44933 v 9.68467 h -2.41668 v -5.19227 q 0,-1.1246 -0.0538,-1.35191 -0.0538,-0.22731 -0.29909,-0.34097 -0.23928,-0.11963 -1.07674,-0.11963 h -0.23928 v -1.13058 q 1.7527,-0.37686 2.66194,-1.54931 z"
         style="font-style:normal;font-variant:normal;font-weight:normal;font-stretch:normal;font-size:12.2509px;font-family:Impact;-inkscape-font-specification:Impact;stroke-width:0.264583"
         id="path990" />
      <path
         d="m 252.23561,131.64263 q 0.53239,0.21535 0.81952,0.64605 0.28713,0.42471 0.28713,2.03384 0,1.17245 -0.22731,1.72876 -0.22731,0.55632 -0.88532,0.91523 -0.65801,0.35293 -1.76466,0.35293 -1.07674,0 -1.70483,-0.34097 -0.6281,-0.34096 -0.90327,-0.90326 -0.26918,-0.5623 -0.26918,-1.87233 0,-0.87934 0.1316,-1.52538 0.13758,-0.64605 0.84943,-1.03487 -0.44865,-0.21535 -0.67596,-0.68193 -0.22133,-0.47257 -0.22133,-1.19638 0,-1.25021 0.6939,-1.87233 0.6939,-0.6281 2.07572,-0.6281 1.59716,0 2.20731,0.66399 0.61015,0.66399 0.61015,1.89626 0,0.78363 -0.20338,1.13058 -0.1974,0.34694 -0.81952,0.68791 z m -1.35789,-2.08169 q 0,-0.49052 -0.0897,-0.64605 -0.0838,-0.16151 -0.32901,-0.16151 -0.23927,0 -0.32302,0.17348 -0.0837,0.16749 -0.0837,0.63408 v 0.73577 q 0,0.43668 0.0957,0.60417 0.0957,0.16749 0.32303,0.16749 0.23927,0 0.32302,-0.16151 0.0837,-0.16749 0.0837,-0.68193 z m 0.0479,4.0258 q 0,-0.55631 -0.11366,-0.73577 -0.11365,-0.18544 -0.35891,-0.18544 -0.23928,0 -0.34695,0.17946 -0.10169,0.17348 -0.10169,0.74175 v 1.2562 q 0,0.6281 0.11365,0.80756 0.11964,0.17945 0.37088,0.17945 0.25722,0 0.34695,-0.17945 0.0897,-0.18544 0.0897,-0.8255 z"
         style="font-style:normal;font-variant:normal;font-weight:normal;font-stretch:normal;font-size:12.2509px;font-family:Impact;-inkscape-font-specification:Impact;stroke-width:0.264583"
         id="path992" />
    </g>
    <g
       id="g1140"
       transform="translate(-0.1522256,-0.08594333)">
      <path
         style="fill:none;stroke:#000000;stroke-width:1.85208;stroke-linecap:butt;stroke-linejoin:miter;stroke-miterlimit:4;stroke-dasharray:none;stroke-opacity:1"
         d="M 2.1381562,141.11831 H 40.915923"
         id="path1128" />
      <path
         style="fill:none;stroke:#000000;stroke-width:1.85208;stroke-linecap:butt;stroke-linejoin:miter;stroke-miterlimit:4;stroke-dasharray:none;stroke-opacity:1"
         d="M 2.1381562,123.63691 H 40.915923"
         id="path1130" />
      <path
         style="fill:none;stroke:#000000;stroke-width:1.85208;stroke-linecap:butt;stroke-linejoin:miter;stroke-miterlimit:4;stroke-dasharray:none;stroke-opacity:1"
         d="m 223.97186,141.11831 h 38.77777"
         id="path1132" />
      <path
         style="fill:none;stroke:#000000;stroke-width:1.85208;stroke-linecap:butt;stroke-linejoin:miter;stroke-miterlimit:4;stroke-dasharray:none;stroke-opacity:1"
         d="m 223.97186,123.63691 h 38.77777"
         id="path1134" />
    </g>
  </g>
</svg>
