<?xml version="1.0" encoding="UTF-8" standalone="no"?>
<!-- Created with Inkscape (http://www.inkscape.org/) -->

<svg
   width="1180.2506"
   height="485.73721"
   viewBox="0 0 312.27464 128.51797"
   version="1.1"
   id="svg5"
   xml:space="preserve"
   inkscape:version="1.2 (dc2aedaf03, 2022-05-15)"
   sodipodi:docname="drawing.svg"
   xmlns:inkscape="http://www.inkscape.org/namespaces/inkscape"
   xmlns:sodipodi="http://sodipodi.sourceforge.net/DTD/sodipodi-0.dtd"
   xmlns="http://www.w3.org/2000/svg"
   xmlns:svg="http://www.w3.org/2000/svg"><sodipodi:namedview
     id="namedview7"
     pagecolor="#000000"
     bordercolor="#000000"
     borderopacity="1"
     inkscape:showpageshadow="2"
     inkscape:pageopacity="0"
     inkscape:pagecheckerboard="false"
     inkscape:deskcolor="#d1d1d1"
     inkscape:document-units="px"
     showgrid="false"
     inkscape:zoom="0.7385171"
     inkscape:cx="490.17145"
     inkscape:cy="255.91824"
     inkscape:window-width="1920"
     inkscape:window-height="1009"
     inkscape:window-x="-8"
     inkscape:window-y="-8"
     inkscape:window-maximized="1"
     inkscape:current-layer="layer1" /><defs
     id="defs2" /><g
     inkscape:label="Layer 1"
     inkscape:groupmode="layer"
     id="layer1"
     transform="translate(76.728715)"><path
       style="fill:#ffffff;fill-opacity:1;stroke-width:1.27871"
       d="m 232.63871,63.747789 c -0.45188,-4.322892 -0.8215,-14.613316 -0.8215,-22.867587 0,-14.429424 -0.11067,-15.044412 -2.87708,-15.958605 l -2.87708,-0.950826 3.02453,-0.585266 c 1.66354,-0.321871 3.67751,0.06621 4.47552,0.862385 1.79958,1.795619 2.83329,47.359708 1.0744,47.359708 -0.64751,0 -1.54692,-3.536916 -1.99879,-7.859809 z M 135.91412,53.587854 c 0,-1.088565 2.02919,-4.349908 4.50934,-7.247383 12.66561,-14.796918 37.43035,-15.984847 51.54322,-2.472419 4.77192,4.568887 8.68107,11.116368 6.63699,11.116368 -0.72136,0 -1.31156,-0.496968 -1.31156,-1.104368 0,-2.361263 -7.3596,-8.37751 -13.99663,-11.441817 -10.19251,-4.7059 -22.50691,-4.632923 -32.36827,0.191867 -4.00875,1.961291 -9.02666,5.674512 -11.15087,8.251564 -2.32052,2.81517 -3.86222,3.89547 -3.86222,2.706285 z m -35.80379,-19.9994 c 0,-2.125369 6.31207,-4.178196 12.84723,-4.178196 8.77105,0 7.97589,2.216228 -1.01922,2.840736 -4.04388,0.280792 -8.35953,0.968805 -9.59028,1.529084 -1.2725,0.579225 -2.23773,0.496582 -2.23773,-0.191383 z m 43.47758,-3.219153 c -8.2e-4,-0.527464 0.48232,-0.959043 1.07382,-0.959043 0.5915,0 5.83632,-0.640698 11.65524,-1.423823 8.05945,-1.08465 13.44554,-1.044537 22.60927,0.168185 6.6162,0.875675 12.24944,1.948001 12.51839,2.382866 0.26871,0.434962 -10.38848,0.790713 -23.68309,0.790713 -13.29461,0 -24.17276,-0.431579 -24.17363,-0.959043 z m -42.03578,-3.084894 c 3.36182,-4.072355 11.95193,-6.72625 24.66379,-7.619807 l 12.50027,-0.878671 5.95153,-7.31038 C 153.1359,1.073872 155.35387,0 168.36928,0 c 10.00615,0 11.11182,0.250828 12.68088,2.877127 0.94536,1.582391 3.52425,5.898034 5.73081,9.59028 2.20656,3.692271 3.5606,6.713177 3.00892,6.713177 -1.53609,0 -6.03785,-5.241725 -8.78555,-10.229601 L 178.53893,4.475515 167.77585,4.11788 157.01281,3.760245 l -8.31164,7.649867 -8.31159,7.649795 19.75602,0.06041 c 30.79235,0.09424 21.6495,2.258757 -16.55924,3.920649 -29.35156,1.276662 -34.45159,1.801371 -38.11464,3.921616 -5.19378,3.006215 -6.204104,3.089196 -3.91959,0.321872 z m 113.73866,-5.469114 c -1.35636,-0.851268 -0.86669,-1.251868 1.91803,-1.569197 2.65429,-0.30254 3.85087,-1.207116 4.12363,-3.117468 0.33783,-2.364405 -0.43882,-2.790184 -6.3935,-3.505309 -10.91232,-1.310565 -15.09854,-1.021653 -15.91197,1.098085 -0.40838,1.063917 -0.0338,2.790135 0.83605,3.836122 1.87725,2.261946 -0.10584,2.576617 -2.31516,0.367301 -2.37851,-2.378517 -1.8193,-5.793281 1.3075,-7.983314 1.93374,-1.354471 5.78596,-1.990579 12.05487,-1.990579 8.4299,0 9.43823,0.286592 11.86319,3.369215 3.10003,3.940971 3.17204,4.429095 1.05184,7.126245 -2.08782,2.656022 -6.24045,3.808623 -8.53448,2.368851 z"
       id="path181"
       sodipodi:nodetypes="ssscsssssssssssssssssssscssscsccsscsssssscccccssssssscsscsssssss"
       inkscape:export-filename="path181.png"
       inkscape:export-xdpi="392.09888"
       inkscape:export-ydpi="392.09888" /><path
       style="fill:#ffffff;fill-opacity:1;stroke-width:0.262118"
       d="m 220.13835,110.47072 c -0.3794,-0.37939 -0.023,-2.17011 1.01416,-5.09566 0.75821,-2.1387 0.83756,-2.65336 0.84943,-5.509444 0.0127,-3.0441 -0.0159,-3.20943 -0.84841,-4.90093 -0.74386,-1.51148 -2.84718,-3.88267 -3.43481,-3.87227 -0.0879,0.002 -0.6315,0.91569 -1.20817,2.03142 -1.47042,2.84498 -4.53746,5.91643 -7.20847,7.218824 -3.28,1.59933 -6.70317,1.80223 -9.21646,0.54627 -1.73202,-0.86553 -2.43955,-1.959264 -2.43617,-3.765904 0.007,-3.85354 4.13731,-7.72559 9.68695,-9.08177 1.19535,-0.29211 2.93435,-0.45186 4.98961,-0.45838 2.66051,-0.009 3.15574,-0.0733 3.16081,-0.41412 0.003,-0.22227 0.0876,-0.89693 0.18731,-1.499263 l 0.18128,-1.09513 -1.50725,-0.16685 c -5.20853,-0.57658 -11.11216,-3.475632 -16.71015,-8.20573 -1.69367,-1.431093 -3.85304,-3.990469 -3.35831,-3.980404 0.11708,0.002 1.51038,1.065194 3.09619,2.36181 7.10715,5.811034 11.15438,7.794444 16.42435,8.049034 2.36074,0.11403 3.07947,0.0484 4.63333,-0.42367 2.41488,-0.733484 4.36522,-2.453996 5.40287,-4.766203 1.41512,-3.153311 0.55757,-6.903025 -2.19935,-9.616799 -1.84412,-1.815271 -3.35387,-2.519777 -5.65077,-2.636885 -1.58626,-0.08084 -1.95912,-0.0099 -2.75225,0.525558 -1.99817,1.348431 -3.11999,4.012977 -2.72623,6.475344 0.38498,2.407543 2.16339,3.66587 2.92758,2.071435 0.30323,-0.632653 0.25462,-0.895433 -0.45518,-2.460853 -0.43705,-0.963907 -0.79465,-1.854206 -0.79465,-1.978428 0,-0.50939 1.56246,-0.173121 2.70163,0.581433 3.08717,2.044863 4.64926,5.762665 3.10985,7.401577 -2.39429,2.549045 -8.12919,0.07218 -10.28323,-4.441133 -1.91528,-4.013116 -0.91718,-8.136366 2.3274,-9.614646 1.66513,-0.758647 5.01767,-0.731215 7.24436,0.05924 3.51905,1.249313 6.61686,3.963007 8.13125,7.123034 1.06117,2.214279 1.36139,4.174561 0.95244,6.218876 -0.55741,2.78639 -3.0812,5.52817 -6.05152,6.5742 -0.72529,0.25542 -1.3708,0.5165 -1.43448,0.58017 -0.0636,0.0637 -0.0223,0.53029 0.092,1.03693 0.13393,0.593843 0.0828,1.336353 -0.14398,2.089593 -0.31234,1.0375 -0.30395,1.1978 0.0749,1.43054 2.71711,1.66951 4.64273,3.84462 5.62953,6.35888 0.88134,2.24556 0.82397,6.408034 -0.13215,9.589404 -0.84142,2.79976 -1.21935,3.56155 -2.43383,4.90583 -0.96564,1.06884 -1.35645,1.22996 -1.83137,0.75503 z M 207.34139,98.575736 c 2.03359,-0.98622 5.21725,-4.16141 6.36021,-6.3433 1.2699,-2.42422 1.2525,-2.45344 -1.46093,-2.45344 -1.2672,0 -2.98685,0.17786 -3.82144,0.39525 -4.44367,1.15742 -7.76685,4.15402 -7.76685,7.00353 0,0.73829 0.18154,1.09517 0.83814,1.64767 0.75954,0.63911 0.99966,0.69612 2.56064,0.60793 1.21759,-0.0687 2.18203,-0.3202 3.29023,-0.85764 z m -96.04515,8.787044 c -0.30635,-0.19396 -0.31472,-0.49716 -0.0507,-1.83885 0.17385,-0.88362 0.59441,-2.34604 0.93458,-3.2498 1.84804,-4.909814 1.23017,-9.956554 -1.57229,-12.842134 -1.63935,-1.688 -1.84453,-1.69709 -2.64246,-0.11711 -1.51076,2.99142 -3.58102,5.35663 -6.2244,7.11121 -2.222044,1.47491 -4.100964,2.05416 -6.722375,2.07243 -2.570178,0.0179 -4.083722,-0.51376 -5.373434,-1.88758 -0.711758,-0.75818 -0.786356,-1.00386 -0.786356,-2.58973 0,-2.20685 0.539032,-3.35781 2.494894,-5.32723 2.801211,-2.820613 6.701917,-4.205343 11.959211,-4.245433 l 3.18301,-0.0243 0.18381,-1.31996 c 0.38941,-2.796248 0.3338,-3.019969 -1.06703,-4.293063 -1.84783,-1.679318 -3.20185,-2.211601 -5.980654,-2.351091 -1.67387,-0.08401 -2.92213,0.01754 -4.419741,0.359582 l -2.087081,0.476701 -1.174534,-0.623096 c -1.405557,-0.745648 -2.510454,-2.097226 -2.391202,-2.925084 0.04823,-0.334861 0.543635,-0.917631 1.134124,-1.334155 1.922525,-1.356129 10.128388,-7.390727 11.495478,-8.453782 l 1.34834,-1.048471 -2.15025,-0.178304 c -4.158514,-0.344827 -6.845113,-1.377825 -9.283018,-3.569308 -2.676303,-2.405789 -3.508592,-6.18453 -2.005809,-9.106733 2.406309,-4.67912 10.244357,-7.313603 16.783487,-5.641176 4.93328,1.261722 8.582,4.419672 8.582,7.427688 0,1.229182 -0.0747,1.365917 -1.51425,2.772838 -5.12864,5.012331 -12.61758,5.256039 -16.046754,0.52221 -2.370091,-3.271816 0.89589,-7.292848 4.860644,-5.984361 1.32448,0.43712 3.26409,2.240484 3.26409,3.034825 v 0.613065 l -0.89114,-0.525786 c -0.7897,-0.465929 -1.02884,-0.491112 -2.10062,-0.22124 -1.26267,0.317951 -2.51274,1.461785 -2.51274,2.299211 0,1.447222 2.20459,2.323305 5.15349,2.047924 2.68028,-0.250286 5.33428,-1.666709 6.40107,-3.416198 0.32462,-0.532374 0.50128,-1.305614 0.50192,-2.196894 7.9e-4,-1.212162 -0.11122,-1.49957 -0.94464,-2.422056 -0.52009,-0.575687 -1.7265,-1.431185 -2.6809,-1.901118 -1.60235,-0.788976 -1.96831,-0.86146 -4.7774,-0.946276 -4.592954,-0.138675 -7.766184,0.857322 -10.466534,3.285168 -1.683564,1.513667 -2.394877,2.896535 -2.562213,4.981184 -0.112722,1.404276 -0.03144,1.841256 0.571846,3.074323 1.788916,3.656419 6.867087,5.159625 12.633841,3.739785 1.45802,-0.358974 2.99143,-0.817582 3.40756,-1.019107 0.42068,-0.203744 1.74575,-0.394947 2.98459,-0.430671 1.64649,-0.04745 2.81223,-0.263423 4.46633,-0.827371 6.26571,-2.136184 13.68085,-2.098408 20.27254,0.10328 l 2.58984,0.865036 1.23945,-0.834087 c 0.68169,-0.458747 2.2292,-1.148778 3.43889,-1.533402 6.36106,-2.022503 9.92408,-1.930795 15.25454,0.392608 l 1.784,0.777599 2.27884,-0.568089 c 1.25337,-0.312442 3.55651,-0.631661 5.11811,-0.70936 4.52112,-0.224964 7.76648,0.537258 10.89382,2.558543 l 1.59917,1.033601 1.77015,-0.911113 c 0.97357,-0.501118 2.53683,-1.102603 3.47392,-1.336632 2.26735,-0.566266 5.69529,-0.386773 7.4517,0.390171 l 1.26803,0.560907 1.73438,-0.50849 c 4.95762,-1.453483 9.63467,-1.968995 16.01987,-1.765727 9.35526,0.29783 16.73027,2.056246 16.46427,3.925579 -0.14069,0.988684 -1.93178,0.881492 -7.4742,-0.447284 -6.91091,-1.656871 -8.20599,-1.823524 -12.7908,-1.645933 -5.43971,0.210718 -10.76212,1.235819 -11.95747,2.303025 -0.90664,0.809449 -1.18985,0.890229 -1.78995,0.510569 -0.24415,-0.154458 -0.69934,-0.10632 -1.27707,0.13507 -1.22218,0.510668 -3.19275,0.503228 -3.19275,-0.01209 0,-0.212928 0.30918,-0.589716 0.68705,-0.837317 0.63073,-0.413264 0.64685,-0.465979 0.19659,-0.642915 -0.71691,-0.281721 -3.19311,-0.256945 -4.5533,0.04557 -1.43696,0.319575 -3.93178,1.292705 -3.93178,1.53363 0,0.0963 0.36279,0.389458 0.8062,0.651395 1.78776,1.05605 6.03821,4.678391 7.02815,5.989563 3.48839,4.620336 3.81909,10.340409 0.72999,12.626729 -0.9535,0.705711 -3.31343,0.729311 -4.60824,0.04603 -1.59837,-0.843389 -3.32573,-2.697235 -4.0807,-4.379546 -0.63673,-1.418845 -0.69651,-1.785927 -0.53554,-3.289047 0.14608,-1.364054 0.33618,-1.868462 0.98085,-2.602708 1.08901,-1.240327 1.64884,-1.510368 3.46337,-1.67067 l 1.5561,-0.137478 -1.4978,-1.615549 c -1.34892,-1.454999 -3.98119,-3.453171 -4.21791,-3.201835 -0.15132,0.160669 -0.89308,4.123271 -1.18746,6.343534 -0.39343,2.967488 -0.33306,7.827569 0.12921,10.400257 0.96725,5.383086 0.15626,6.845726 -1.7271,3.114813 -0.96938,-1.92033 -3.12874,-3.733765 -5.1434,-4.319449 -1.93288,-0.561906 -5.75892,-0.552869 -8.02565,0.01891 -2.14581,0.541313 -2.75489,0.417683 -4.14949,-0.842246 -1.54384,-1.394759 -1.73348,-2.064892 -0.84639,-2.990805 0.3909,-0.40801 0.93928,-0.814378 1.21861,-0.903034 0.72632,-0.230537 10.60601,-7.667219 13.50921,-10.168719 l 2.4451,-2.1068 -0.87239,-0.721724 c -1.35074,-1.117453 -3.64696,-2.261843 -5.48907,-2.735637 -2.00776,-0.516395 -5.40228,-0.370744 -8.23279,0.353228 -5.39924,1.381005 -13.80562,9.330063 -15.98222,15.112782 -1.67534,4.45094 -1.27172,8.276024 1.47838,14.010597 3.2171,6.70841 11.95213,10.1667 15.98625,6.32914 1.23771,-1.1774 1.36323,-2.29184 0.36998,-3.28508 -1.07797,-1.07798 -3.81263,-0.66264 -3.81263,0.57905 0,0.26285 -0.14642,0.35018 -0.41462,0.24725 -0.22803,-0.0875 -0.52292,-0.1591 -0.6553,-0.1591 -0.81673,0 0.54104,-2.99401 1.60799,-3.54575 2.96888,-1.53526 6.93027,1.59654 6.40977,5.06745 -0.33999,2.2672 -3.51723,4.75637 -6.74084,5.28102 -2.81819,0.45868 -6.02404,-0.66604 -10.03645,-3.52114 -5.25525,-3.73944 -7.7325,-8.71639 -7.7325,-15.535038 0,-3.102557 0.44277,-4.989075 1.8418,-7.847352 1.45046,-2.963318 3.54515,-5.682827 7.28097,-9.452739 l 3.18158,-3.210612 -0.95742,-0.400039 c -2.32756,-0.972515 -3.82156,-1.241893 -6.0901,-1.098075 -3.15575,0.200069 -4.47064,0.737545 -6.53509,2.671273 -0.95486,0.89439 -1.95275,1.743784 -2.21753,1.887542 -0.44146,0.239666 -0.49254,0.803425 -0.6153,6.791204 -0.0841,4.103873 -0.0136,7.990565 0.1899,10.461609 0.61363,7.451177 -0.54756,8.971047 -3.15542,4.130114 -1.61783,-3.003166 -3.59595,-5.62528 -5.06192,-6.709924 -1.80264,-1.333738 -2.04129,-1.265522 -1.45993,0.417337 0.53626,1.552276 0.63955,4.505767 0.2115,6.047287 -0.66403,2.391293 -3.76449,4.434313 -6.79618,4.478293 -1.3746,0.0199 -1.99754,-0.11955 -3.22427,-0.72192 -2.82605,-1.38769 -5.15911,-4.374183 -5.57294,-7.133786 -0.23601,-1.573899 0.29159,-3.143533 1.49574,-4.449887 1.33231,-1.445369 2.77414,-2.142564 5.57584,-2.696159 l 2.21949,-0.438556 -2.19351,-3.255549 c -2.4947,-3.702576 -3.25466,-5.438593 -3.46545,-7.916276 -0.1292,-1.518641 -0.20778,-1.719839 -0.62871,-1.609764 -0.44166,0.115494 -0.44951,0.186784 -0.0959,0.870654 0.66682,1.289504 0.52673,1.642149 -0.57055,1.436295 -0.52566,-0.09857 -1.24048,-0.365861 -1.58849,-0.593886 -0.60579,-0.396919 -0.69631,-0.369853 -2.12416,0.635197 -0.82028,0.577381 -1.9249,1.205862 -2.45471,1.396628 -0.82766,0.297998 -1.00459,0.510817 -1.25654,1.511418 -0.51547,2.047102 -0.80685,7.851436 -0.52245,10.407211 0.35989,3.234121 0.4934,3.991227 0.96967,5.498592 0.34769,1.100445 0.36221,1.543365 0.0932,2.845475 -0.17518,0.84819 -0.28184,1.56767 -0.237,1.59887 0.0449,0.0312 0.62218,0.366073 1.28298,0.744163 2.15955,1.23563 4.14853,3.92139 4.84692,6.54491 0.56829,2.13478 0.46881,5.26194 -0.25861,8.129524 -0.76808,3.0279 -1.20376,3.92954 -2.59636,5.37327 -1.16482,1.2076 -1.1833,1.21695 -1.72542,0.87371 z M 97.302916,95.909926 c 1.62482,-0.54676 4.198824,-2.38401 5.555094,-3.96509 1.04009,-1.2125 2.90739,-4.43789 2.90739,-5.02194 0,-0.44673 -4.50789,-0.35781 -6.384064,0.12592 -5.245708,1.3525 -9.154238,5.97256 -7.157595,8.46058 0.715778,0.89195 3.067654,1.0774 5.079175,0.40053 z M 123.15879,84.962363 c 1.13942,-0.47608 2.39665,-2.03608 2.79898,-3.473019 0.38391,-1.371222 0.21692,-4.148912 -0.31474,-5.235182 -0.3211,-0.656074 -0.5056,-0.752729 -1.34222,-0.703142 -2.60429,0.154346 -5.10769,2.162497 -5.84118,4.685614 -1.03541,3.561679 1.46558,6.076812 4.69916,4.725729 z m 54.68926,-7.969482 c 0,-2.412098 0.48967,-7.300562 1.0101,-10.083743 0.16518,-0.883364 0.14745,-1.244815 -0.061,-1.24422 -0.51969,9.65e-4 -3.17809,1.906701 -5.66774,4.061996 -2.15314,1.863974 -6.29033,6.278227 -6.29033,6.71157 0,0.09045 1.15004,0.227985 2.55566,0.305601 2.83744,0.156663 5.07423,0.809775 6.91479,2.019023 0.62995,0.413868 1.23382,0.761669 1.34194,0.772879 0.10812,0.01118 0.19659,-1.133194 0.19659,-2.543106 z M 136.69102,71.41515 c 0.14868,-4.244332 0.33949,-8.143311 0.424,-8.664392 l 0.15369,-0.947432 -2.58019,-0.812965 c -3.23299,-1.018652 -4.85166,-1.28368 -9.13315,-1.49536 -5.07324,-0.250821 -4.87325,-0.591964 -2.77823,4.739239 1.35737,3.454112 2.13309,5.013271 3.41885,6.871757 1.5896,2.297675 1.757,2.450519 3.78773,3.458273 1.20809,0.59951 3.02921,1.831644 4.22157,2.8562 1.15332,0.991023 2.1236,1.781557 2.15617,1.756739 0.0326,-0.02486 0.18088,-3.517736 0.32956,-7.762059 z m 50.66644,5.103411 c 0.84671,-1.204716 1.12585,-2.646245 0.85813,-4.431529 -0.25941,-1.729914 -0.86549,-1.487077 -1.7805,0.713402 -1.66008,3.99224 -1.03662,6.505442 0.92237,3.718127 z M 106.92045,66.450432 c 0.22441,-1.225399 0.41018,-2.319501 0.41283,-2.43133 0.0193,-0.814996 -5.11663,3.353212 -8.380844,6.801617 l -2.18004,2.303055 2.44746,0.327848 c 2.793354,0.374162 4.387974,0.851315 5.890254,1.762518 l 1.04847,0.635939 0.17694,-3.585813 c 0.0973,-1.972206 0.36054,-4.588427 0.58493,-5.813834 z"
       id="path291" /><path
       id="path311"
       style="fill:#ffffff;fill-opacity:1;stroke-width:0.205567"
       d="m 98.315266,106.3748 c -0.21549,-0.0143 -0.44499,0.19283 -0.95557,0.77971 -1.50613,1.73119 -3.077889,4.05364 -5.135165,7.58872 -1.129564,1.94094 -2.053668,3.62164 -2.053668,3.73473 0,0.11312 0.994439,-0.80257 2.20985,-2.03479 3.735333,-3.78696 5.569823,-4.11916 4.398814,-0.79657 -0.33106,0.93936 -0.44076,1.03756 -2.186163,1.95649 -1.321611,0.69584 -2.027286,1.21641 -2.513384,1.85373 -0.811744,1.06428 -1.055233,1.85091 -0.65202,2.10626 0.830169,0.52575 2.754777,-0.44719 4.03384,-2.03882 2.164427,-2.69335 3.051717,-5.26051 2.134777,-6.17744 -0.24005,-0.24006 -0.62536,-0.43644 -0.856,-0.43644 -0.58736,0 -1.786377,0.64505 -3.038138,1.63451 -0.585738,0.463 -1.064773,0.79555 -1.064773,0.73915 0,-0.29098 2.685172,-3.78139 4.416491,-5.7406 1.08677,-1.22985 1.94853,-2.37619 1.914739,-2.54753 -0.0337,-0.17131 -0.228489,-0.41361 -0.43281,-0.5388 -0.0785,-0.0482 -0.149,-0.0776 -0.22082,-0.0823 z m 3.770074,5.71332 c -0.10445,0 -1.06494,0.88342 -2.134383,1.96332 -1.622381,1.63828 -1.77335,1.8405 -0.911,1.22096 0.94252,-0.67712 1.019383,-0.70053 0.87126,-0.26739 -0.0894,0.26122 -0.16641,0.75248 -0.17184,1.09166 -0.008,0.47921 0.0895,0.63055 0.434823,0.67974 0.31999,0.0456 0.94223,-0.40555 2.2239,-1.61282 0.97887,-0.92203 1.81911,-1.63739 1.86696,-1.58952 0.0478,0.0478 -0.15973,0.64468 -0.46092,1.32614 -0.43529,0.98488 -0.74056,1.35957 -1.48876,1.82722 -2.559373,1.59972 -5.239843,5.08178 -4.648553,6.03854 0.2407,0.38943 1.05736,0.22936 1.97458,-0.38665 1.162963,-0.78104 2.549943,-2.47511 3.917023,-4.78466 0.9558,-1.61471 1.22139,-1.90976 2.12633,-2.36281 1.50992,-0.75593 3.43665,-1.94022 3.33002,-2.04684 -0.0507,-0.0507 -0.90768,0.37547 -1.90471,0.94714 -0.99702,0.57167 -1.91812,1.03948 -2.04682,1.03948 -0.15874,0 -0.11842,-0.34192 0.12566,-1.06277 0.35862,-1.05934 0.33833,-1.60961 -0.0597,-1.60961 -0.11541,0 -1.00412,0.67066 -1.97458,1.49036 -0.97045,0.8197 -1.9983,1.67538 -2.28413,1.90149 l -0.51954,0.41114 0.48542,-0.82227 c 1.68769,-2.85746 1.88473,-3.39185 1.24906,-3.39185 z m 0.71706,4.83483 -0.78653,1.43698 c -1.03454,1.88999 -2.135044,3.32413 -2.927323,3.81503 -0.907971,0.56258 -1.17979,0.51739 -1.01378,-0.16823 0.33283,-1.37465 2.128203,-3.438 4.051523,-4.65578 z m -6.761233,0.19473 c 0.0586,-0.009 0.091,0.003 0.091,0.0365 0,0.38876 -1.382138,2.20778 -2.455153,3.23126 -1.276272,1.21736 -1.861734,1.44914 -1.861734,0.73715 0,-0.65646 0.513581,-1.49346 1.418081,-2.31062 0.715282,-0.64622 2.398156,-1.63797 2.807687,-1.69434 z" /><path
       id="path391"
       style="fill:#ffffff;fill-opacity:1;stroke-width:0.318732"
       d="m 139.57763,101.67732 c -0.33221,0.0273 -0.70092,0.48093 -1.64844,1.76112 -1.88986,2.55337 -5.3339,6.24374 -8.06045,8.63753 l -2.12343,1.86446 -3.62372,-0.70907 c -3.46356,-0.67746 -3.71248,-0.68609 -5.62513,-0.19609 -1.10061,0.28196 -2.34126,0.83032 -2.75716,1.21828 -1.17427,1.09539 -1.96905,2.92489 -1.96905,4.53261 0,2.70807 2.14062,3.70227 5.4583,2.53492 1.95486,-0.68783 5.35685,-2.75941 7.60725,-4.63221 l 1.90555,-1.58618 2.53803,0.21166 2.53742,0.21165 -0.22225,0.99106 c -0.12224,0.5453 -0.21055,1.75003 -0.19609,2.67685 0.0306,1.96361 0.72944,3.12662 2.38676,3.97171 1.51106,0.77051 2.75717,0.69925 4.70131,-0.26955 1.59247,-0.79357 2.20775,-1.4536 2.4403,-2.61897 0.0589,-0.29541 0.20746,-0.93167 0.33055,-1.41375 0.1989,-0.77882 0.13708,-0.87651 -0.55778,-0.87651 -1.6478,0 -2.38585,2.06367 -0.879,2.45772 0.34971,0.0914 0.63559,0.2679 0.63559,0.39219 0,0.44219 -1.46192,1.59009 -2.6669,2.09355 -2.52032,1.05307 -4.37997,-0.27313 -4.59733,-3.27821 -0.0729,-1.00752 0.029,-2.43068 0.22596,-3.16242 0.33696,-1.25136 0.46134,-1.36028 2.08859,-1.83333 0.95154,-0.27663 1.83249,-0.66875 1.95783,-0.87154 0.15926,-0.25769 0.0442,-0.29417 -0.38223,-0.12077 -1.13246,0.46055 -2.74051,0.8639 -2.88167,0.72275 -0.0771,-0.0771 0.89185,-2.23592 2.15331,-4.7978 2.52454,-5.12708 2.91687,-6.90407 1.7051,-7.72242 -0.18685,-0.12618 -0.3302,-0.20165 -0.48122,-0.18924 z m 60.8406,0.37288 c -0.17781,0 -0.92147,0.48502 -1.65218,1.07822 -1.91149,1.55176 -12.11501,7.52757 -12.85327,7.52757 -0.10227,0 0.30848,-0.60959 0.91262,-1.35462 2.97003,-3.66271 3.36462,-4.85064 1.97403,-5.94448 -1.20749,-0.94982 -2.68444,-1.12354 -4.66271,-0.54845 -3.39182,0.98603 -5.66008,3.33449 -5.66249,5.86232 -9.5e-4,1.15108 0.19994,1.5801 1.29984,2.77333 1.28785,1.39718 1.29708,1.4243 0.88211,2.62271 -0.23061,0.66595 -1.58582,2.93197 -3.01177,5.03561 -2.64508,3.90215 -5.22735,8.36357 -5.22735,9.03158 0,0.87618 0.66138,0.22959 1.7412,-1.70135 0.63738,-1.13973 2.13107,-3.04018 3.31931,-4.22321 1.18823,-1.18304 2.56159,-2.7586 3.05162,-3.50108 l 0.89083,-1.34964 1.74805,1.74743 c 3.3868,3.3868 8.46787,5.15679 15.70381,5.47013 4.6433,0.20105 8.29462,-0.19022 9.9909,-1.07076 1.22757,-0.63722 0.60511,-0.94709 -0.83418,-0.41522 -1.58341,0.58513 -8.3747,0.77091 -11.91263,0.32559 -6.41619,-0.80762 -11.87391,-3.33503 -13.5393,-6.26945 -0.48239,-0.85007 -0.47811,-1.00507 0.0617,-2.2554 0.52865,-1.22469 0.86796,-1.48693 3.86463,-2.9875 2.43164,-1.21763 13.61393,-7.70773 14.54966,-8.44455 0.22752,-0.17917 -0.32614,-1.40878 -0.63437,-1.40878 z m -42.8266,0.99667 c -0.33103,-0.008 -0.68718,0.006 -1.06637,0.0404 -4.81937,0.43701 -10.24428,4.26552 -10.24428,7.23001 0,1.61964 0.61538,2.32665 3.03232,3.48116 l 2.10726,1.006 -0.61694,0.87402 c -1.27072,1.80148 -2.36051,4.2993 -1.979,4.53509 0.27262,0.1685 0.23845,0.72445 -0.13197,2.15394 -0.59555,2.29836 -0.64386,4.2722 -0.11709,4.79903 0.46469,0.46467 1.41947,0.50046 1.68953,0.0635 0.1083,-0.1753 -0.0268,-0.31873 -0.30006,-0.31873 -1.08105,0 -0.32523,-3.58025 1.52707,-7.2356 0.45809,-0.90399 0.97692,-1.73265 1.1529,-1.84143 0.17599,-0.10878 0.64605,-0.87917 1.0446,-1.71194 1.13854,-2.37897 4.00927,-6.16031 5.56226,-7.32587 3.23585,-2.42852 7.10923,-3.7217 7.10923,-2.3737 0,1.36326 -3.64294,5.27714 -6.37963,6.85463 -0.7863,0.45324 -2.25405,1.07918 -3.26202,1.39072 -1.008,0.31156 -1.83272,0.74854 -1.83272,0.97114 0,0.80478 3.20939,3.58963 5.4004,4.68573 1.23247,0.61658 3.06122,1.29153 4.06384,1.49968 2.2847,0.4743 9.15361,0.2542 10.37687,-0.33243 1.35294,-0.64884 1.03638,-0.98344 -0.43826,-0.46317 -0.83894,0.296 -2.55756,0.46378 -4.74737,0.46378 -5.0208,0 -8.00506,-1.07145 -11.83482,-4.24998 -1.23221,-1.02268 -1.50794,-1.48721 -0.88274,-1.48721 0.1895,0 1.36299,-0.51139 2.60775,-1.13609 6.43962,-3.23184 9.45805,-7.13848 7.00839,-9.07144 -1.05342,-0.83123 -2.83509,-0.70654 -4.88993,0.34176 l -1.3017,0.66424 0.21602,-0.68167 c 0.54887,-1.72935 -0.55634,-2.77537 -2.87359,-2.82563 z m 29.51641,0.25399 c 0.56598,9.5e-4 0.92693,0.20429 0.92693,0.67294 0,0.78952 -0.45845,1.53585 -3.27386,5.32757 -1.20401,1.62155 -2.23409,2.94828 -2.28903,2.94828 -0.055,0 -0.61855,-0.57447 -1.25252,-1.27618 -1.32433,-1.4659 -1.45402,-2.46379 -0.51668,-3.98042 1.1655,-1.88582 4.70718,-3.69604 6.40516,-3.69219 z m 30.86788,0.34114 c -0.52758,-0.0382 -1.34377,0.54122 -2.30397,1.67522 -1.70448,2.01299 -6.01433,8.49196 -6.09576,9.16356 -0.0319,0.26295 -0.2532,1.08841 -0.49179,1.83458 -0.23857,0.74616 -0.35147,1.43891 -0.25088,1.5395 0.10059,0.10059 1.47142,-1.11928 3.04664,-2.7111 1.57521,-1.59178 3.0941,-2.89411 3.37471,-2.89411 0.68507,0 0.6441,0.25446 -0.27889,1.75303 -0.84996,1.37998 -0.9935,2.39899 -0.47499,3.36786 0.55764,1.04193 1.78427,0.75099 3.46497,-0.82111 l 1.53639,-1.43679 -0.33554,1.2575 c -0.24476,0.91687 -0.23473,1.47847 0.0367,2.07426 0.76035,1.66877 2.23686,0.8089 5.52926,-3.22033 1.06643,-1.3051 1.88634,-2.42589 1.82213,-2.49009 -0.0642,-0.0644 -1.11966,1.09437 -2.34566,2.57413 -2.4548,2.96291 -3.54992,3.87618 -4.04828,3.37782 -0.45799,-0.45799 -0.0633,-1.42654 1.52829,-3.75133 1.55961,-2.27805 1.73886,-3.00369 0.74143,-3.00369 -0.41884,0 -1.69325,1.06152 -3.44443,2.86859 -1.52892,1.57774 -2.9509,2.8686 -3.15993,2.8686 -0.65689,0 -0.40522,-1.36869 0.58143,-3.15869 1.22816,-2.22813 1.23816,-2.89723 0.0422,-2.89723 -0.83657,0 -3.2099,1.41665 -3.69904,2.20809 -0.11493,0.18594 -0.50401,0.49611 -0.86468,0.68914 -0.65313,0.34956 -0.65372,0.34701 -0.0623,-0.66921 0.3266,-0.56116 2.00113,-2.88745 3.72083,-5.16944 1.74849,-2.32019 3.05244,-4.34253 2.95823,-4.58801 -0.10685,-0.27854 -0.28745,-0.42339 -0.52728,-0.44075 z m -59.1635,0.32745 c 0.47995,0.0233 0.53661,0.17713 0.53661,0.55093 0,0.80662 -2.10972,3.69557 -5.09474,6.97601 -1.2544,1.37855 -2.37832,2.5351 -2.49758,2.57041 -0.11925,0.0353 -1.0985,-0.34378 -2.17635,-0.84228 -2.04156,-0.94423 -2.56149,-1.65468 -2.21681,-3.02795 0.56924,-2.26804 6.36426,-5.81271 10.04879,-6.14682 0.67172,-0.0609 1.11209,-0.0944 1.40008,-0.0803 z m -19.54854,0.15251 -0.65676,1.59367 c -0.36121,0.87652 -1.5434,3.27788 -2.62705,5.33628 l -1.9703,3.74262 -1.75303,-0.003 c -2.6175,-0.004 -2.82626,-0.30627 -1.21454,-1.76236 1.50799,-1.36239 5.17164,-5.26219 7.02892,-7.48213 z m 85.29088,4.3029 c -0.31662,0 -1.4592,1.88006 -1.4592,2.40107 0,0.35313 0.50394,0.0902 1.3129,-0.68477 0.84625,-0.81074 0.92353,-1.7163 0.1463,-1.7163 z m -27.45022,0.63746 c -0.89451,0 -2.37618,1.28295 -2.37618,2.05745 0,0.27092 -0.25101,0.49697 -0.55778,0.503 -1.35847,0.0258 -3.26337,2.6556 -3.26578,4.50708 -8e-4,0.79578 0.26337,1.48489 0.82423,2.15144 h -6.2e-4 c 0.50976,0.60582 1.12531,0.98048 1.60985,0.98048 1.7485,0 3.66475,-1.70197 4.64278,-4.12298 0.37965,-0.93972 0.66624,-1.14817 2.02134,-1.47103 0.86832,-0.20686 1.85742,-0.49312 2.19814,-0.63622 0.58485,-0.2456 0.58032,-0.19638 -0.0797,0.87153 -0.88431,1.4309 -0.89973,3.10541 -0.0385,4.20018 0.88762,1.12838 2.34806,1.11508 4.02712,-0.0367 1.4068,-0.96505 3.46367,-3.19047 3.19604,-3.45812 -0.0932,-0.0932 -0.57843,0.36721 -1.07821,1.02344 -1.00814,1.32372 -3.4219,2.99246 -4.32842,2.99246 -0.72987,0 -1.18891,-1.16545 -0.8815,-2.23735 0.43235,-1.50749 1.57042,-3.43687 2.42288,-4.10741 0.88799,-0.6985 2.03752,-0.89509 2.03752,-0.34862 0,0.1753 0.13898,0.31873 0.30877,0.31873 0.63703,0 -0.0731,-0.91308 -1.01284,-1.30231 -0.82972,-0.34364 -1.10246,-0.32629 -1.80968,0.11517 -2.00576,1.25198 -3.82135,2.10715 -4.90364,2.31018 l -1.16599,0.2185 0.18801,-1.58743 c 0.15917,-1.34389 0.0839,-1.69083 -0.4893,-2.26413 -0.37245,-0.37244 -1.04223,-0.67731 -1.48846,-0.67731 z m 0.37787,0.31065 c 0.50552,-0.0276 0.76346,0.71195 0.6885,2.13027 -0.11143,2.10943 -0.52845,2.41421 -1.70011,1.24257 -0.91002,-0.91004 -0.85649,-1.77414 0.17679,-2.85117 0.32435,-0.33809 0.60503,-0.50913 0.83482,-0.52167 z m -2.50566,3.45437 c 0.34178,-9.5e-4 0.77092,0.18232 1.40068,0.50115 l 1.45358,0.73582 -0.71964,1.19338 c -0.39606,0.65625 -1.19428,1.68201 -1.77357,2.27968 -1.20049,1.23859 -1.7209,1.35071 -2.19191,0.47064 -0.49492,-0.92478 -0.40172,-1.9023 0.32372,-3.40087 0.61057,-1.26125 0.93748,-1.77754 1.50714,-1.7798 z m -73.33529,1.23759 c 1.71794,0.0375 4.16979,0.35616 4.78783,0.69474 0.50059,0.27423 -4.10515,3.93617 -6.73011,5.35123 -2.51414,1.35531 -4.20946,1.43541 -4.67142,0.22036 -0.87328,-2.29688 1.88519,-5.56372 5.23542,-6.20034 0.31455,-0.0597 0.80563,-0.0784 1.37828,-0.066 z" /><path
       style="fill:#ffffff;stroke-width:0.538652;fill-opacity:1"
       d="m 47.62232,96.489556 c -0.971956,-0.97195 -0.784475,-7.22804 0.337931,-11.275739 0.984294,-3.549692 0.984294,-3.549692 -1.387901,-1.738964 -4.371444,3.336803 -9.713094,1.713434 -9.18709,-2.79203 0.207819,-1.78019 0.175287,-1.817914 -0.887327,-1.030691 -4.259553,3.155388 -9.558898,4.286956 -12.632648,2.697464 -1.511051,-0.781401 -1.511051,-0.781401 -4.955797,6.4453 -1.894605,3.9747 -3.774001,7.23505 -4.176448,7.24523 -1.081812,0.0273 -0.505319,-1.81991 3.402193,-10.901839 3.423838,-7.957782 3.423838,-7.957782 -0.162257,-4.174557 -3.695662,3.898882 -5.854785,4.799789 -7.517751,3.136821 -1.0650158,-1.065015 -0.7564416,-4.427124 0.588829,-6.415582 2.230114,-3.296371 2.233534,-3.32245 0.305378,-2.327061 -0.99545,0.51389 -3.4048817,2.473052 -5.3542716,4.353712 -3.6438504,3.515327 -4.8135494,4.119771 -4.7929263,2.476716 0.014251,-1.087674 1.6803113,-4.662204 3.0451876,-6.531076 1.808346,-2.476065 -3.0468773,0.64107 -6.5413979,4.199699 -3.7612009,3.830172 -4.8830575,4.177997 -4.4278408,1.372796 0.3085131,-1.901201 0.3085131,-1.901201 -2.5080889,1.077312 -4.1813361,4.421709 -7.2502611,3.967119 -6.6913791,-0.991134 0.264315,-2.345017 0.264315,-2.345017 -1.815736,-0.264987 -3.15612,3.156121 -6.78735,2.129237 -5.485219,-1.551197 0.216963,-0.61322 -0.310773,-0.352732 -1.496392,0.738668 -5.499266,5.062147 -9.461829,3.26394 -6.643985,-3.015057 0.807582,-1.79951 1.337393,-3.402785 1.177375,-3.562803 -0.390925,-0.390945 -5.016891,3.747658 -7.682331,6.872936 -2.017794,2.365946 -4.034245,3.358852 -4.034245,1.986504 0,-4.813773 13.790315,-24.89638 16.207524,-23.602738 1.552907,0.831116 1.284236,1.674285 -1.729335,5.426891 -1.51728,1.889373 -4.183025,5.546028 -5.923903,8.125881 -3.165222,4.690666 -3.165222,4.690666 0.363277,2.019953 5.605252,-4.242574 7.87875,-3.366527 5.187434,1.998902 -2.028686,4.044363 -2.498683,5.564799 -1.720214,5.564799 1.044576,0 5.297329,-3.872884 7.820261,-7.121677 2.476695,-3.189285 3.428497,-3.683773 4.531787,-2.354402 0.50031,0.602856 0.12724,1.506917 -1.81934,4.409473 -5.434669,8.103426 -1.729864,6.997103 4.952842,-1.478986 1.501279,-1.904173 2.399721,-2.573887 3.474407,-2.58991 2.3696711,-0.03522 2.2649875,0.853389 -0.606297,5.14631 -2.871204,4.292799 -3.668892,7.223632 -1.675751,6.156947 1.306691,-0.699335 8.1108402,-8.372484 9.4808672,-10.691727 0.945511,-1.600628 2.53455499,-2.251775 3.13283098,-1.283748 0.14495271,0.234673 -0.44316438,1.807165 -1.30711908,3.494439 -1.5708028,3.067745 -1.5708028,3.067745 1.74873622,0.62403 4.09000738,-3.010884 6.09442638,-3.132933 6.08620158,-0.370607 -0.00611,1.752625 0.4457499,2.242309 1.0960012,1.19016 0.7068684,-1.143742 4.6850059,-3.268867 5.8173059,-3.107627 1.471779,0.209591 1.783122,1.982737 0.711897,4.054237 -1.195432,2.311731 -1.699306,5.539046 -0.86481,5.539046 0.703734,0 4.466416,-3.689515 8.465504,-8.300863 1.26117,-1.45425 3.138165,-4.362771 4.171096,-6.463384 2.592698,-5.272634 4.275371,-7.237965 5.514697,-6.441092 1.313043,0.844269 1.007238,1.862826 -2.333719,7.773313 -1.601564,2.833337 -2.911941,5.299894 -2.911941,5.481268 0,0.181395 1.928523,-0.762874 4.285592,-2.098292 6.212771,-3.519928 7.385239,-2.811431 1.639594,0.990748 -8.438547,5.584221 -8.983321,6.148682 -6.949362,7.200485 3.330492,1.722249 8.675867,-0.787611 14.568011,-6.840282 4.41322,-4.533416 5.922438,-5.141159 8.42108,-3.391058 3.029791,2.122152 -0.372377,7.251931 -5.498634,8.290867 -1.918241,0.388766 -2.78358,3.501727 -1.147874,4.129401 2.469244,0.947547 8.498238,-3.991798 9.937662,-8.141578 0.411038,-1.185029 1.281182,-3.270841 1.933632,-4.635127 1.186271,-2.480503 1.186271,-2.480503 -2.497991,-2.216881 -2.542916,0.182005 -3.684256,0.07431 -3.684256,-0.347438 0,-0.398315 1.359461,-0.615154 3.905227,-0.622931 3.905234,-0.01221 3.905234,-0.01221 6.406971,-3.99021 2.596221,-4.128525 4.716256,-6.036241 6.112566,-5.500425 1.354086,0.51959 0.93639,1.740185 -1.859528,5.434118 -2.671669,3.529781 -2.671669,3.529781 5.620786,3.529781 8.59256,0 11.055839,0.429911 11.055839,1.929581 0,0.617474 -0.280418,0.770021 -0.94264,0.512791 -2.439684,-0.947649 -7.058627,-1.38609 -13.141408,-1.247428 -6.654062,0.151671 -6.654062,0.151671 -8.922429,4.460899 -5.696961,10.822612 -8.286179,22.89273 -4.910843,22.89273 1.560033,0 6.532522,-6.2553 10.968441,-13.798047 5.611929,-9.54251 7.695502,-11.696462 9.36655,-9.682983 0.500331,0.602856 0.127241,1.506917 -1.819339,4.409473 -5.434668,8.103426 -1.729864,6.997103 4.952842,-1.478986 1.501278,-1.904173 2.39972,-2.573887 3.474406,-2.58991 2.369672,-0.03522 2.264988,0.853389 -0.606297,5.14631 -5.243623,7.839846 -3.210499,8.564363 3.242421,1.155448 5.237821,-6.013786 5.340795,-6.117839 5.340795,-5.39678 0,1.176274 -8.362163,10.633095 -9.871707,11.163984 -2.358596,0.829464 -3.328517,-0.134366 -3.308647,-3.287576 0.01629,-2.641763 0.01629,-2.641763 -2.019953,-0.605178 -3.117399,3.11742 -6.664445,2.083186 -5.469012,-1.594642 0.313664,-0.964995 -0.887571,0.940869 -4.834947,7.671127 -4.306296,7.34216 -9.820946,11.59143 -12.093711,9.31868 z M 44.152942,77.747368 c 2.114498,-1.289224 4.111527,-4.316374 3.349955,-5.077925 -0.681461,-0.681481 -3.092684,1.089731 -4.701516,3.453579 -1.978279,2.906709 -1.565449,3.402867 1.351561,1.624346 z M -73.201097,95.823636 c -3.256163,-1.84554 -4.225676,-6.13074 -1.884609,-8.33005 1.617627,-1.519687 2.251429,-0.67967 1.057198,1.40117 -1.138856,1.98433 0.18567,5.35193 2.315314,5.88642 11.044968,2.7721 28.961733,-12.083408 28.992922,-24.039197 0.0338,-12.941406 -12.239566,-15.698724 -25.137017,-5.647292 -7.489698,5.836973 -9.567469,14.911602 -3.951509,17.258085 4.016188,1.678072 4.167411,1.552338 8.295265,-6.897591 4.106009,-8.40522 8.681058,-14.400134 10.466623,-13.714948 1.563616,0.600007 1.040647,1.967224 -3.320862,8.68171 -4.661634,7.176503 -6.813408,11.093076 -6.094549,11.093076 0.975235,0 4.879898,-3.233871 5.814008,-4.815219 0.959457,-1.624224 2.013275,-2.102771 2.586856,-1.174707 0.481765,0.779507 -4.962085,5.913459 -7.789843,7.346394 -3.075257,1.558364 -4.456583,4.477329 -3.309808,6.994249 0.337076,0.73977 0.389398,1.34503 0.116247,1.34503 -1.027576,0 -2.173598,-2.47723 -2.173598,-4.6984 0,-2.2077 -0.06861,-2.304077 -1.637416,-2.304077 -6.855876,0 -9.911609,-6.353591 -6.418107,-13.344749 7.2831,-14.57477 28.013087,-18.216503 33.109987,-5.816594 5.051479,12.289424 -9.598292,30.84731 -24.785141,31.39703 -3.549,0.12846 -5.224079,-0.0377 -6.252002,-0.62034 z"
       id="path472"
       inkscape:export-filename="path472.png"
       inkscape:export-xdpi="392.09888"
       inkscape:export-ydpi="392.09888" /><path
       style="fill:#ffffff;stroke-width:1.27871;fill-opacity:1"
       d="m 78.519807,63.747789 c -0.45188,-4.322892 -0.8215,-14.613316 -0.8215,-22.867587 0,-14.429424 -0.11067,-15.044412 -2.87708,-15.958605 l -2.87708,-0.950826 3.02453,-0.585266 c 1.66354,-0.321871 3.67751,0.06621 4.47552,0.862385 1.79958,1.795619 2.83329,47.359708 1.0744,47.359708 -0.64751,0 -1.54692,-3.536916 -1.99879,-7.859809 z m -96.72459,-10.159935 c 0,-1.088565 2.02919,-4.349908 4.50934,-7.247383 12.6656103,-14.796918 37.43035,-15.984847 51.54322,-2.472419 4.77192,4.568887 8.68107,11.116368 6.63699,11.116368 -0.72136,0 -1.31156,-0.496968 -1.31156,-1.104368 0,-2.361263 -7.3596,-8.37751 -13.99663,-11.441817 -10.19251,-4.7059 -22.5069097,-4.632923 -32.3682697,0.191867 -4.00875,1.961291 -9.0266603,5.674512 -11.1508703,8.251564 -2.32052,2.81517 -3.86222,3.89547 -3.86222,2.706285 z m -35.80379,-19.9994 c 0,-2.125369 6.31207,-4.178196 12.84723,-4.178196 8.77105,0 7.97589,2.216228 -1.01922,2.840736 -4.04388,0.280792 -8.35953,0.968805 -9.59028,1.529084 -1.2725,0.579225 -2.23773,0.496582 -2.23773,-0.191383 z m 43.47758,-3.219153 c -8.2e-4,-0.527464 0.48232,-0.959043 1.0738203,-0.959043 0.5915,0 5.83632,-0.640698 11.65524,-1.423823 8.0594497,-1.08465 13.4455397,-1.044537 22.6092697,0.168185 6.6162,0.875675 12.24944,1.948001 12.51839,2.382866 0.26871,0.434962 -10.38848,0.790713 -23.68309,0.790713 -13.29460966,0 -24.17276,-0.431579 -24.17363,-0.959043 z m -42.03578,-3.084894 c 3.36182,-4.072355 11.95193,-6.72625 24.66379,-7.619807 l 12.50027,-0.878671 5.9515303,-7.31038 C -0.98300266,1.073872 1.2349673,0 14.250377,0 c 10.00615,0 11.11182,0.250828 12.68088,2.877127 0.94536,1.582391 3.52425,5.898034 5.73081,9.59028 2.20656,3.692271 3.5606,6.713177 3.00892,6.713177 -1.53609,0 -6.03785,-5.241725 -8.78555,-10.229601 L 24.420027,4.475515 13.656947,4.11788 2.8939073,3.760245 l -8.31164,7.649867 -8.3115903,7.649795 19.7560203,0.06041 c 30.7923497,0.09424 21.6494997,2.258757 -16.5592403,3.920649 -29.35156,1.276662 -34.45159,1.801371 -38.11464,3.921616 -5.19378,3.006215 -6.2041,3.089196 -3.91959,0.321872 z m 113.73866,-5.469114 c -1.35636,-0.851268 -0.86669,-1.251868 1.91803,-1.569197 2.65429,-0.30254 3.85087,-1.207116 4.12363,-3.117468 0.33783,-2.364405 -0.43882,-2.790184 -6.3935,-3.505309 -10.91232,-1.310565 -15.09854,-1.021653 -15.91197,1.098085 -0.40838,1.063917 -0.0338,2.790135 0.83605,3.836122 1.87725,2.261946 -0.10584,2.576617 -2.31516,0.367301 -2.37851,-2.378517 -1.8193,-5.793281 1.3075,-7.983314 1.93374,-1.354471 5.78596,-1.990579 12.05487,-1.990579 8.4299,0 9.43823,0.286592 11.86319,3.369215 3.10003,3.940971 3.17204,4.429095 1.05184,7.126245 -2.08782,2.656022 -6.24045,3.808623 -8.53448,2.368851 z"
       id="path182"
       sodipodi:nodetypes="ssscsssssssssssssssssssscssscsccsscsssssscccccssssssscsscsssssss" /><path
       id="path184"
       style="fill:#ffffff;stroke-width:0.205567;fill-opacity:1"
       d="m -55.803636,106.3748 c -0.215486,-0.0143 -0.444993,0.19283 -0.955574,0.77971 -1.50613,1.73119 -3.077886,4.05364 -5.135162,7.58872 -1.129564,1.94094 -2.053667,3.62164 -2.053667,3.73473 0,0.11312 0.994438,-0.80257 2.209849,-2.03479 3.735336,-3.78696 5.569826,-4.11916 4.398814,-0.79657 -0.331065,0.93936 -0.440758,1.03756 -2.186164,1.95649 -1.321611,0.69584 -2.027286,1.21641 -2.513384,1.85373 -0.811743,1.06428 -1.055233,1.85091 -0.65202,2.10626 0.830169,0.52575 2.754777,-0.44719 4.03384,-2.03882 2.164424,-2.69335 3.051713,-5.26051 2.134777,-6.17744 -0.240054,-0.24006 -0.625363,-0.43644 -0.855999,-0.43644 -0.587362,0 -1.786378,0.64505 -3.038139,1.63451 -0.585738,0.463 -1.064773,0.79555 -1.064773,0.73915 0,-0.29098 2.685173,-3.78139 4.41649,-5.7406 1.086769,-1.22985 1.948531,-2.37619 1.914745,-2.54753 -0.0337,-0.17131 -0.228491,-0.41361 -0.432813,-0.5388 -0.07851,-0.0482 -0.149005,-0.0776 -0.22082,-0.0823 z m 3.770066,5.71332 c -0.104444,0 -1.064935,0.88342 -2.134374,1.96332 -1.622383,1.63828 -1.773353,1.8405 -0.911003,1.22096 0.942521,-0.67712 1.019378,-0.70053 0.871265,-0.26739 -0.08943,0.26122 -0.166415,0.75248 -0.171845,1.09166 -0.0076,0.47921 0.08952,0.63055 0.434815,0.67974 0.32,0.0456 0.94223,-0.40555 2.223904,-1.61282 0.978869,-0.92203 1.81911,-1.63739 1.866965,-1.58952 0.04785,0.0478 -0.159732,0.64468 -0.460922,1.32614 -0.43529,0.98488 -0.740562,1.35957 -1.488757,1.82722 -2.559373,1.59972 -5.239847,5.08178 -4.648555,6.03854 0.240699,0.38943 1.057359,0.22936 1.97458,-0.38665 1.162965,-0.78104 2.549937,-2.47511 3.91702,-4.78466 0.955802,-1.61471 1.221392,-1.90976 2.126329,-2.36281 1.509918,-0.75593 3.436652,-1.94022 3.330025,-2.04684 -0.05069,-0.0507 -0.90768,0.37547 -1.90471,0.94714 -0.997021,0.57167 -1.918125,1.03948 -2.046824,1.03948 -0.158735,0 -0.118417,-0.34192 0.125662,-1.06277 0.358623,-1.05934 0.338327,-1.60961 -0.05971,-1.60961 -0.115408,0 -1.004121,0.67066 -1.97458,1.49036 -0.970449,0.8197 -1.998303,1.67538 -2.284124,1.90149 l -0.519546,0.41114 0.485418,-0.82227 c 1.687697,-2.85746 1.884737,-3.39185 1.249065,-3.39185 z m 0.717066,4.83483 -0.786528,1.43698 c -1.034547,1.88999 -2.135047,3.32413 -2.927328,3.81503 -0.907966,0.56258 -1.179784,0.51739 -1.013777,-0.16823 0.332831,-1.37465 2.128199,-3.438 4.05152,-4.65578 z m -6.761232,0.19473 c 0.05857,-0.009 0.09104,0.003 0.09104,0.0365 0,0.38876 -1.38214,2.20778 -2.455153,3.23126 -1.276272,1.21736 -1.861735,1.44914 -1.861735,0.73715 0,-0.65646 0.51358,-1.49346 1.418081,-2.31062 0.715282,-0.64622 2.398156,-1.63797 2.807682,-1.69434 z" /><path
       id="path186"
       style="fill:#ffffff;stroke-width:0.318732;fill-opacity:1"
       d="m -14.541276,101.67732 c -0.332213,0.0273 -0.700919,0.48093 -1.648442,1.76112 -1.889863,2.55337 -5.333901,6.24374 -8.060445,8.63753 l -2.123434,1.86446 -3.623715,-0.70907 c -3.463566,-0.67746 -3.712486,-0.68609 -5.625133,-0.19609 -1.10061,0.28196 -2.341263,0.83032 -2.757159,1.21828 -1.174278,1.09539 -1.969056,2.92489 -1.969056,4.53261 0,2.70807 2.140626,3.70227 5.4583,2.53492 1.954863,-0.68783 5.356856,-2.75941 7.607251,-4.63221 l 1.905555,-1.58618 2.538029,0.21166 2.537421,0.21165 -0.222254,0.99106 c -0.122234,0.5453 -0.210549,1.75003 -0.196091,2.67685 0.03057,1.96361 0.729446,3.12662 2.386764,3.97171 1.511057,0.77051 2.757169,0.69925 4.701305,-0.26955 1.59247,-0.79357 2.207751,-1.4536 2.440306,-2.61897 0.05886,-0.29541 0.207454,-0.93167 0.330552,-1.41375 0.198891,-0.77882 0.137072,-0.87651 -0.557781,-0.87651 -1.647806,0 -2.385853,2.06367 -0.879001,2.45772 0.349709,0.0914 0.635587,0.2679 0.635587,0.39219 0,0.44219 -1.461921,1.59009 -2.666899,2.09355 -2.520324,1.05307 -4.37997,-0.27313 -4.597335,-3.27821 -0.07291,-1.00752 0.02895,-2.43068 0.225966,-3.16242 0.33696,-1.25136 0.461339,-1.36028 2.088583,-1.83333 0.951549,-0.27663 1.832496,-0.66875 1.957835,-0.87154 0.159257,-0.25769 0.04424,-0.29417 -0.382233,-0.12077 -1.13246,0.46055 -2.740509,0.8639 -2.881663,0.72275 -0.07709,-0.0771 0.891846,-2.23592 2.153308,-4.7978 2.524539,-5.12708 2.916873,-6.90407 1.705098,-7.72242 -0.186854,-0.12618 -0.330201,-0.20165 -0.481219,-0.18924 z m 60.840596,0.37288 c -0.177808,0 -0.921465,0.48502 -1.652173,1.07822 -1.911489,1.55176 -12.115009,7.52757 -12.853274,7.52757 -0.10227,0 0.30848,-0.60959 0.912617,-1.35462 2.970034,-3.66271 3.364627,-4.85064 1.974029,-5.94448 -1.207484,-0.94982 -2.684432,-1.12354 -4.662705,-0.54845 -3.391816,0.98603 -5.660077,3.33449 -5.662489,5.86232 -9.49e-4,1.15108 0.199936,1.5801 1.299834,2.77333 1.287854,1.39718 1.297081,1.4243 0.882115,2.62271 -0.230608,0.66595 -1.585825,2.93197 -3.011776,5.03561 -2.645073,3.90215 -5.22734,8.36357 -5.22734,9.03158 0,0.87618 0.66137,0.22959 1.7412,-1.70135 0.637372,-1.13973 2.131066,-3.04018 3.319307,-4.22321 1.188233,-1.18304 2.561591,-2.7586 3.051619,-3.50108 l 0.89083,-1.34964 1.748045,1.74743 c 3.386804,3.3868 8.467873,5.15679 15.703817,5.47013 4.643302,0.20105 8.294614,-0.19022 9.990892,-1.07076 1.227572,-0.63722 0.605114,-0.94709 -0.834174,-0.41522 -1.583414,0.58513 -8.374698,0.77091 -11.912634,0.32559 -6.416189,-0.80762 -11.87391,-3.33503 -13.539297,-6.26945 -0.482387,-0.85007 -0.478105,-1.00507 0.0617,-2.2554 0.528647,-1.22469 0.867952,-1.48693 3.864624,-2.9875 2.431639,-1.21763 13.613933,-7.70773 14.549656,-8.44455 0.227523,-0.17917 -0.326138,-1.40878 -0.634362,-1.40878 z m -42.8265952,0.99667 c -0.331027,-0.008 -0.6871824,0.006 -1.0663682,0.0404 -4.8193713,0.43701 -10.2442837,4.26552 -10.2442837,7.23001 0,1.61964 0.6153761,2.32665 3.0323192,3.48116 l 2.1072569,1.006 -0.6169329,0.87402 c -1.2707184,1.80148 -2.3605158,4.2993 -1.9790041,4.53509 0.272625,0.1685 0.2384496,0.72445 -0.1319646,2.15394 -0.5955543,2.29836 -0.6438651,4.2722 -0.1170983,4.79903 0.4646909,0.46467 1.4194763,0.50046 1.6895382,0.0635 0.1082981,-0.1753 -0.026771,-0.31873 -0.3000603,-0.31873 -1.0810542,0 -0.3252361,-3.58025 1.5270625,-7.2356 0.4580931,-0.90399 0.9769236,-1.73265 1.1529081,-1.84143 0.1759844,-0.10878 0.64604844,-0.87917 1.04460037,-1.71194 1.13853537,-2.37897 4.00926173,-6.16031 5.56225963,-7.32587 3.2358433,-2.42852 7.1092294,-3.7217 7.1092294,-2.3737 0,1.36326 -3.6429487,5.27714 -6.3796315,6.85463 -0.7863006,0.45324 -2.2540498,1.07918 -3.2620255,1.39072 -1.0079948,0.31156 -1.83271428,0.74854 -1.83271428,0.97114 0,0.80478 3.20938588,3.58963 5.40040098,4.68573 1.2324703,0.61658 3.0612164,1.29153 4.0638383,1.49968 2.284703,0.4743 9.153613,0.2542 10.376865,-0.33243 1.352939,-0.64884 1.036379,-0.98344 -0.438252,-0.46317 -0.838941,0.296 -2.557566,0.46378 -4.747375,0.46378 -5.020798,0 -8.0050626,-1.07145 -11.8348179,-4.24998 -1.232214,-1.02268 -1.5079433,-1.48721 -0.8827418,-1.48721 0.1895028,0 1.362992,-0.51139 2.6077465,-1.13609 6.4396282,-3.23184 9.4580492,-7.13848 7.0083932,-9.07144 -1.05342,-0.83123 -2.8350894,-0.70654 -4.8899344,0.34176 l -1.3016946,0.66424 0.2160172,-0.68167 c 0.5488763,-1.72935 -0.556338,-2.77537 -2.8735838,-2.82563 z m 29.5164052,0.25399 c 0.565983,9.5e-4 0.926932,0.20429 0.926932,0.67294 0,0.78952 -0.458453,1.53585 -3.273863,5.32757 -1.20401,1.62155 -2.234086,2.94828 -2.289023,2.94828 -0.05497,0 -0.618556,-0.57447 -1.25252,-1.27618 -1.324335,-1.4659 -1.454022,-2.46379 -0.516685,-3.98042 1.165506,-1.88582 4.707181,-3.69604 6.405159,-3.69219 z m 30.867882,0.34114 c -0.527583,-0.0382 -1.343769,0.54122 -2.303965,1.67522 -1.704481,2.01299 -6.014334,8.49196 -6.095767,9.16356 -0.0319,0.26295 -0.253202,1.08841 -0.491784,1.83458 -0.238573,0.74616 -0.351475,1.43891 -0.250886,1.5395 0.10059,0.10059 1.471423,-1.11928 3.046645,-2.7111 1.575212,-1.59178 3.0941,-2.89411 3.374709,-2.89411 0.685066,0 0.644103,0.25446 -0.27889,1.75303 -0.849962,1.37998 -0.993499,2.39899 -0.474991,3.36786 0.557638,1.04193 1.78427,0.75099 3.46497,-0.82111 l 1.536395,-1.43679 -0.335546,1.2575 c -0.244763,0.91687 -0.234728,1.47847 0.03674,2.07426 0.760355,1.66877 2.236867,0.8089 5.529261,-3.22033 1.066435,-1.3051 1.886341,-2.42589 1.822129,-2.49009 -0.06417,-0.0644 -1.119653,1.09437 -2.345659,2.57413 -2.454802,2.96291 -3.549915,3.87618 -4.048278,3.37782 -0.457989,-0.45799 -0.06332,-1.42654 1.528287,-3.75133 1.559614,-2.27805 1.738864,-3.00369 0.741436,-3.00369 -0.418839,0 -1.69325,1.06152 -3.444437,2.86859 -1.528914,1.57774 -2.950897,2.8686 -3.159927,2.8686 -0.656889,0 -0.405216,-1.36869 0.581429,-3.15869 1.22816,-2.22813 1.238156,-2.89723 0.04224,-2.89723 -0.836576,0 -3.209898,1.41665 -3.699043,2.20809 -0.114925,0.18594 -0.504012,0.49611 -0.864677,0.68914 -0.65313,0.34956 -0.653719,0.34701 -0.06227,-0.66921 0.326603,-0.56116 2.001133,-2.88745 3.720831,-5.16944 1.74849,-2.32019 3.052444,-4.34253 2.958234,-4.58801 -0.106855,-0.27854 -0.287453,-0.42339 -0.527279,-0.44075 z m -59.1635029,0.32745 c 0.4799559,0.0233 0.5366111,0.17713 0.5366111,0.55093 0,0.80662 -2.1097155,3.69557 -5.09473975,6.97601 -1.25439955,1.37855 -2.37831545,2.5351 -2.49757815,2.57041 -0.1192533,0.0353 -1.0985027,-0.34378 -2.1763482,-0.84228 -2.0415641,-0.94423 -2.5614862,-1.65468 -2.2168081,-3.02795 0.5692392,-2.26804 6.364262,-5.81271 10.0487907,-6.14682 0.6717181,-0.0609 1.1120874,-0.0944 1.4000724,-0.0803 z m -19.5485341,0.15251 -0.656757,1.59367 c -0.361215,0.87652 -1.5434,3.27788 -2.627055,5.33628 l -1.970299,3.74262 -1.753029,-0.003 c -2.617505,-0.004 -2.82626,-0.30627 -1.214538,-1.76236 1.507991,-1.36239 5.171635,-5.26219 7.028918,-7.48213 z m 85.290882,4.3029 c -0.316625,0 -1.459205,1.88006 -1.459205,2.40107 0,0.35313 0.503945,0.0902 1.312906,-0.68477 0.846241,-0.81074 0.923525,-1.7163 0.146299,-1.7163 z m -27.450225,0.63746 c -0.894513,0 -2.376179,1.28295 -2.376179,2.05745 0,0.27092 -0.251009,0.49697 -0.557781,0.503 -1.358464,0.0258 -3.263364,2.6556 -3.265776,4.50708 -8.06e-4,0.79578 0.26337,1.48489 0.824226,2.15144 h -6.17e-4 c 0.509755,0.60582 1.125312,0.98048 1.609843,0.98048 1.748501,0 3.664755,-1.70197 4.642789,-4.12298 0.379641,-0.93972 0.66624,-1.14817 2.021334,-1.47103 0.868322,-0.20686 1.857425,-0.49312 2.198145,-0.63622 0.584846,-0.2456 0.580317,-0.19638 -0.07965,0.87153 -0.884318,1.4309 -0.899735,3.10541 -0.03854,4.20018 0.887621,1.12838 2.34806,1.11508 4.027118,-0.0367 1.406803,-0.96505 3.46367,-3.19047 3.196038,-3.45812 -0.09322,-0.0932 -0.578428,0.36721 -1.078206,1.02344 -1.008146,1.32372 -3.4219,2.99246 -4.328422,2.99246 -0.729873,0 -1.188916,-1.16545 -0.881498,-2.23735 0.432347,-1.50749 1.570418,-3.43687 2.422876,-4.10741 0.887992,-0.6985 2.03752,-0.89509 2.03752,-0.34862 0,0.1753 0.13898,0.31873 0.308775,0.31873 0.63703,0 -0.0731,-0.91308 -1.012846,-1.30231 -0.829722,-0.34364 -1.102461,-0.32629 -1.809674,0.11517 -2.005765,1.25198 -3.821354,2.10715 -4.903642,2.31018 l -1.16599,0.2185 0.188013,-1.58743 c 0.159162,-1.34389 0.08392,-1.69083 -0.489307,-2.26413 -0.372446,-0.37244 -1.042227,-0.67731 -1.488454,-0.67731 z m 0.377866,0.31065 c 0.505522,-0.0276 0.763461,0.71195 0.688502,2.13027 -0.11143,2.10943 -0.528447,2.41421 -1.700104,1.24257 -0.910025,-0.91004 -0.856493,-1.77414 0.176792,-2.85117 0.324344,-0.33809 0.605028,-0.50913 0.83481,-0.52167 z m -2.505656,3.45437 c 0.341782,-9.5e-4 0.770921,0.18232 1.400679,0.50115 l 1.453586,0.73582 -0.71964,1.19338 c -0.396064,0.65625 -1.194279,1.68201 -1.773571,2.27968 -1.200488,1.23859 -1.720904,1.35071 -2.191908,0.47064 -0.494927,-0.92478 -0.401723,-1.9023 0.323717,-3.40087 0.610563,-1.26125 0.93748,-1.77754 1.507137,-1.7798 z m -73.335293,1.23759 c 1.717942,0.0375 4.169791,0.35616 4.787835,0.69474 0.500594,0.27423 -4.105153,3.93617 -6.73011,5.35123 -2.514144,1.35531 -4.209463,1.43541 -4.67142,0.22036 -0.873277,-2.29688 1.885192,-5.56372 5.235419,-6.20034 0.314547,-0.0597 0.805629,-0.0784 1.378276,-0.066 z" /></g></svg>
